<mxfile host="app.diagrams.net" modified="2023-09-05T00:27:33.490Z" agent="Mozilla/5.0 (X11; Linux x86_64; rv:109.0) Gecko/20100101 Firefox/117.0" etag="g5eOY4k4PweQs9CXy06p" version="21.7.2" type="device">
  <diagram name="PÃ¡gina-1" id="yng_yM5XX9xgjVn6TPJS">
    <mxGraphModel dx="2261" dy="786" grid="1" gridSize="10" guides="1" tooltips="1" connect="1" arrows="1" fold="1" page="1" pageScale="1" pageWidth="827" pageHeight="1169" math="0" shadow="0">
      <root>
        <mxCell id="0" />
        <mxCell id="1" parent="0" />
        <mxCell id="72FU4gjPforjlQMfi0Fz-2" value="" style="shape=image;verticalLabelPosition=bottom;labelBackgroundColor=default;verticalAlign=top;aspect=fixed;imageAspect=0;image=data:image/png,iVBORw0KGgoAAAANSUhEUgAABVYAAAInCAIAAAD8gpWvAAAAA3NCSVQICAjb4U/gAAAgAElEQVR4XuydB2AU1RaGSe+9kwChE3qvIggqIMWugD4RK/oU7P3ZOzZs2BURG4JdEBQQQaT33gm9BkJID++fuZvJZGZ2tmSTbPnXNczefr877Zx77rl+Iz6dWYcfEiABEiABEiABEiABEiABEiABEiABbyfg7+0dZP9IgARIgARIgARIgARIgARIgARIgAQkAlQB8DwgARIgARIgARIgARIgARIgARIgAZ8gQBWATwwzO0kCJEACJEACJEACJEACJEACJEACVAHwHCABEiABEiABEiABEiABEiABEiABnyBAFYBPDDM7SQIkQAIkQAIkQAIkQAIkQAIkQAJUAfAcIAESIAESIAESIAESIAESIAESIAGfIEAVgE8MMztJAiRAAiRAAiRAAiRAAiRAAiRAAlQB8BwgARIgARIgARIgARIgARIgARIgAZ8gQBWATwwzO0kCJEACJEACJEACJEACJEACJEACVAHwHCABEiABEiABEiABEiABEiABEiABnyBAFYBPDDM7SQIkQAIkQAIkQAIkQAIkQAIkQAJUAfAcIAESIAESIAESIAESIAESIAESIAGfIEAVgE8MMztJAiRAAiRAAiRAAiRAAiRAAiRAAlQB8BwgARIgARIgARIgARIgARIgARIgAZ8gEOgTvWQnSYAESIAE3IZAekxEclT4qYKiA6fymifHGbYrr6h4y+EcEdU4MQYpzxSVGKZskhTbPDk2NTr8xJnCjYdObDx43DAZA9UEMuOjuzRITogIKy0r23rk5MId+4tLy5AgJSq8bkxEfnHJpkMnNMQwCtGhwYdP5+/LOY0o8XNvzukjp/PVKdNjI5MjwzYfPiHGq316op+f3/ajJzHcIllQgH/rtAQcK2m8YGhw+qHjmo4cPZ2/+3iuJjDA369t3UQErtl/tLTsrHv2PSI4qEVqxYWZV1iMgT5dWCxa2yQpJiok+FDumf0n85T2W06P3DNFpWUZsZHo2Kq9RzS9Cw0KyEqJV1/a7tn96mtVVGhwYkRoTn4hblZ21mJ+90MhIYEBLVPjz549u2rf0ZTocMC3lHy2Di7kHcdOFhSX2lmXxyXz9/NDl4MD/A+eOlNYYtzNNnUTAv39cwuLtx2xPFDQzdiwkIYJ0QUlpfrnRXhwoHgqiSs0LCiwRYp0LahvYgqotnUTAvz9D5w6kxYdbkjvZEFRTGiwYRQuBFxW6roMk3luILg1TYrNiItET3cdy8VTRn/HwxPnbJ2zh3MrPUTEY+hkQeGOo6fU3Y8JC26UEIPbDm4+Gixi1PA4W7P/mDpK3G/x9MHwabLgMYSHkXgMieeUSIAT6fiZApxRnkvezpZTBWAnKCYjARIgARJwDYE+TTOGtM5cve/otFXb7j+/o2Ghmw+deGrGEkRBGnl0QJdf1+9CYk3KxMiw67q26Fw/GeGQYPGecXmHJot2HJi4YK3+VcOwFt8MvLRd48vbN8bbM6R3iCLdMlMHZNV//Nd/wbBrZsqITs0guD780z8aOFd0aNIuPXHGht2Tl2xClPiJ7E/8+u/RvAIlcb9mGYNaNkBp245Ir1x39+uA16zxf6xYKQuEeCEb26ddp/rJf27OFiHeMQRdGkjcNH35Y3P2J4s2RIYE9WyYVlJWNmfLXiSAwCbO+Vu+mqMI1TUPAUOJ92y8/uqVFGhMWkz4vf06aFqF9n/270Z05KoOTVvXTfhp7c6vl29R0ojz4Zd1u+Zv2yc6iOsXV7G6kPOb1x/Zudm3K7Yq2r2a77j9NWKkru7YNCEy9PU5q5Dr3CZ1r+/WUpP9vQVrl+w+hMDkqLAXh/XSxM7buvdz+WLBB3rPG3u2EsIkfoLAhwvX7VPpUDR5xU+Tu5+Svm/T9FHdspbuPgQVQOd6ydd0aa4uCvL/l8s241Q0LN+jA3EO39KrdVx4CHqRW1A0ZdkWnHv6HjVKjME44onwxG//CpESd6G7+7WHdDrx77X69NCBihP4pi//hB6zqLT0+u5ZSZFhMzfu/nyxZTRFLujCHrqwMx5kGw4e11/+Is28rfswQPpaEIKrY8qyzeq6DJN5YiCUxaO7t+yWmYLGQ+F1LK+gT5N0PPRf/mMFFKPqHt3Wuw3k9mdmLlUHiscQhuyVP1cArxIFdT/uS18t3/Lz2p0aLMqo/bBmB+4wSqy436KQl2YvV2epHxf1yIDOaNvYqfMRLp5T6gRQgiOLNb2SpnYP/UkVgIcOHJtNAiRAAh5PYG9OnvLsv7NPW8zM/LZ+1/JsSVY8U2SZcoR0islD/P1l3U718xiBD13QCQ9+aOs/XrQeD2y8MUCqubFHy4FZDaAy8Hg61dOBRonRkNaKSkqfmblEvBCD5K292pzfvB7Ee0frxPv3gxd2fvLXxdC/2MwLc4Ax57SB/L9g+/5P/t1oM73HJTh06gzUT0qzT+ZLhg84qyFCQBITKgA36VTfphl4QZ+ydLOhCkBp5Muzl/v5+/VrmoFRg3IHBiA2TxJMbGJmNSs1HunVKgDMxA5sWR8cZm/yAHEUOo6be7aC4KdIIGnREbhSoDVTTyYrk/m48yAWN6gV2YcVentOSPYy+AQHBDxwQaddx0+BZ1hw0EWtGjRLjr23f8d7p/9tbgdi7e6nVOFXpw5ud/j5m+ri3XMi9+XZKyCGXda+MTSko7tnLc+GWY69dgdK4e58gOn3e/p1wATy1JXbth7JaRAXdU3nZjg/9ZO9EBc71kuCwH9777bQbELReVm7xvi5aOfBv7fvt9lHPFZ+XbcLl3DfJhnfrdymNkYb3CoT2aELO5x7Rmg8Y8OC7+zTDoFQLgjFKHQTSi36ZxzUozYb4HEJcJ+HXgPWK7hY3l+wDvoRdAFql0vaNhrVtcWrc1YqPYJGDBcCfkKZIgCqO4ssd53XXnlO2ckBtRzPK7Cp8xrYUrpqcC+CTlMpGeO7+0QuWnVRq0z8vaZz80/+3WBnvZ6YjCoATxw1tpkESIAEvIFAQXGJYocpDNFhUam2zIQKXzyqMZXap2n6rI17lG5jRg7yPwz8MOGszKbCPnD8nytg4ekNdKqnD23qJkJsgJym2FhCKvvwn3XJkcaGrOatgMyD6c37+nd4ftYyMYIm6aGd6dUoDdOV7y1YB7tlk5QeGgW7Ys38NsQwnKXojr9/nQbxUTCSP5lfIYnhRMUXAtv2o6fUQDCljBdQyJywIoatBDQLKAEv1vXjJBtvjB1erzGL9c/OA5BREQJRE1GY7YSYt2bf0TIVW8OikDciWHr9iwsPRavwpm5tlc2WIzmIWpl95NXLzkF7INjbVAGg2FmbspESKoZJizcqJfdslBYfHgrdnD3aoto9AYZ3anZOo7TC0kqG5Vi7hFb9s+PAN6o5RqWdUAHIA5H71l9r9I3HfDUutwnzJGsCfPbm5L50cS8sHokJC8E8pD69CDG5+ylZ2tdLgiX8zmOn1NqWktKzsGTGF7pRqABw5qTHRHqZCmBkl+aQn3GC/S4/FNbtP3Yw9wwsNfQqAFwOEMhfGNYTVyJGFlYbF7dtBPkccKyR14RjJh/KFFzL0GrBzkXE4tKD7Q/0QeKBhYluhMMwTcRuO3rygM7EQ/+Mg+hrZxs8KNmAFvVxgxJz+NnlWjD8nLZqe9t0aQ2U8sFAiOMhrRu+MddydSixeLjgEnjg/E54xGtWClijIbJAX4OzHWova8kwlHgSYThgjKZOA/l/+Z7D+GL1B8Y6S7UYylpRHh1OFYBHDx8bTwIkQALeTKB/8wwI/5iohKCCKZc/NmUL8QaBeISj5z+s3qGxpsZz3SPMjGtr2E6ckV5VGyVEY9p/7ta9YsUE5DRMUTrRpHfmr/nvuW2bp8Th74R5q60K9n51YJ+MlyrMqUJGUsuoTlTqQVmgtxIWwpgHhhCCF+KnZiwW7b+2S/OuDVJCggKhkYENy7MzlwosmICC3TLSQDKHYImZqE//3QALgrAgqQSEY/ayR8NUHMCJwwvDeuBg9qY9mNUXM4qYc0NRogprRT0zpLtIjOlofPHyLazZTcDmFhSnRdcRbiBMkomoZXsO4RUcFiLnNKo7a5MkoaGPMAPGhNuM9Q5bmtiszuUJZm7Y/c3yLSM6Nx/SWlLfiA+UKTgoPXsW2o1T+YUQONWrjUQs7kWYXi49W7YvJ09tsrQs+/CqfRWeERrESzpKWESbyP9IYO3up+4vFt3gJ4yn1IHKsVBM4OqGjsAwgYcGChUYCGOyF1Y2ONOwPhySm979hOggLMVgPX59tywolPHgwNn47vw11tReeiZYCwDNF67KAVkNcCDGHUVhLdWPa7QW6frsvhbSq7H0aIaCUpH/FQJQUCrH8EcD1Zh4uHepnwxNltB1KgkwZLCCgebxoQs6P/HbYthT2CS5cMcBrJ2B8vHOvm2fnblMbbCjztu/eT3cAOdu2at4qNGU7I9TpE4da7E2m+EpCagC8JSRYjtJgARIwLcIwHIYMgxmV7Ag8LXLemPWBY92yD+ggGlMWAniACagvgWlyr1ds+8Y3mwwDXJDj5YjOjeDxLh8z5G/t+9TyzP2VwL+b85bDYtcSLP/6dpcs1ZWKWdo64aY1sbbHpZVqw0v7a/II1ImRISOOae10lQYO8BuBQau/xvYBeLKXdPmqyEfys2/+as5mJ59bmgPwIEaBdOJrdLioRqAJPnIz4sgIsLF4IvDemJVLfxcKuYDEOe+W7UN7seUxTJID88CkPcg28MzHIrCnLBJUWO/++uWnq071Euavno71AfmshDmkC9oXq9pUgzWNajXMmBpQFJkqNJZKOmUY3Rzzpbsy9s3Oa9ZhlABtMtIgps6zKZiatr9h9JQMhfiNGzI8UUXMKDTV23/Zf0uofYSNgIdMpLwRSxMXOZv3Td56SbBFmmKSyWzF+SF+Iqpe3gBeE1lEa1nYnL3UxLXi4uCSzNoW/7dJd0VlQ9MPCDopkZHQEEAMeyDhevc3/JCT8AkRJxsEOyxsEjogqH5xcn845od1nLN3rgHBhHAhVsfkundnVrLKMJxmVzcpiEu8K4NUhftPADnc+c1TYdGTL3uw7wEH4nF7UI4pNxtS6d8cduGuCTe+mv12L7t8ECHih+eU9SUIPO/OGv5U4O7wV7m/v4dINLbZAgt6rt/r4kO7QQ9HbJAcaAX4/HmcEGLeigKzh0MC8RJ0j0zFUVhiYdhAq8J9MJVKF4zNuwICZAACfgygd5N6sJyGDNy0AJg9ThQwFxQAIGdnjhQTADqxUU+NrCL8oXnbV9GZ9J3iDdPz1gCI0m84gBjp3rJt/Rq9fzQHk4Tg6W6MKnFmmTM9BpWjXFEeHpsBDwRGCbwjkAIBkIIVERBCIpi8gq2+RCh1RYrECogKsN0PDtH2jUgXvZqJtZ1YzIzAK7Oo8JLSstg9o93VrySKoigr4GN8YrsI/D3LgJhXY+KUBQ2zkAIBBXzotASLElAmvyiEhybrOB45MIu7w8/78qOTRbsOPDkjMXq3R/iwkLgnUv5ou/qQfxzs2RgAlENEi/CcWLgdR/uPNRpPOgYV0pESBCGDIv5Yc+/eNdBmChDgwabZ9ELWAGs3X8MUXB4hm7CwxkMQCCgavqIlc+Nk2KgvIT6JiQgwISAyd1PyTWopVQ7lCwa/V1wYAAs0tFCjBdujFAqYarcpC6Pi4qXz/D68VFZKXFYlwEvgIH+fpilx0IAa33B6YdLRsRCC2AtmbVwqHJmy0bjsJrB337N6oUGBUJElPQ6/KgIRIUE4cRDgPCEYo0N5vahNV6VfQTmG8K3H/wF6scFJzB88uFGh/sMJvZxV7RWoBKOuxncDWSfyMUTDeYDWGujydKjYRouB1yteiMFuNX85Jr+cBMI4ywUovZEaLNeT0xAKwBPHDW2mQRIgAQ8mIAdz3Fp5TOmjrFMHcbq6Cpm2+BXGQunMbe5/sBxIeogPCUqTOwPFODnj43KAgP88G6B8CCsvebHCgG8db3650p4L2uVltCzYSpeiTCdeGX7Jk67PsLsLl6qrurYFLbT+hWwaAV8ksOgA/IP7AWwsNNb91vCO6V+JwUrg1ARXFQiSePCqkXsLHhO47r4qjOq59tNCsQicMSK1+QqFiVqefmP5XilVnQN6qphg63eEeDBCzrBrFdJAE3T0j2HoLmAIQB8tsE2AT/Vmwia9MINo2AK/vCP/0DJItq2eNeh+/oHwMncoFYNxFziBwvWYyGxsAiABicnvwiCN6adIYqrXaC/CPeKdepgcMf0bgOTjRdmLRPO0jRdNr/7icTyeua6aJhmPTNiYRcg5sNRzl1922HJ+i3ntIbywg3BOtekMnk3TZDE4iNhCAa7btzHsBxm/jZjD3+wM8dOFtCV4ELDOSk2UHCodqxhgYYOKi3Y7MBAHYpp2Lo7VIIvJMbmi7Dzgg2LcFNirctD2zTEySm89sKGBeobXCmgCueOmiywHYO9DG4v0FbDsMVagepw6GtwoT01uDsUc3jiaLKItTMzjNbOYCsBXK3YgQgniXn77WmG+6ehCsD9x4gtJAESIAGvIoBtnNEf8wXh3TNTYP6HZO8P7yc6jzcGHMAQACoAsQs0Zht6Nqor9gHGUvYHf1yI14g3rzjXq2C5ujOKTAL1inB9hBWt2BewYdXm57EVE1bkXtCivvB+p2m1mJl5+qJueBEX7p1qcT88VxOtanlqBwrCbhx+s7BOVV0uJD1Hq3FJUXibN5T/7WkMFkFABQC3BZgYRHr9Pl72FOImaSA67jtpce8vmoRN46ECgMEF7ksYQZhyqMdx7X6seZY254MgAaECdy5luhgHcBGPleRQaPZuXNdQBWB+9xMNEOuZsTTD5FJCk5buOQwVQKvUeDch6ZJmHCtfTrLjmGWzdyy3gQogudwbn6YWSHR3nNsWSk+szcGyc6xhualXqwd+WGi+BEZTCLRaMDcAduxEiHHHoifnFk+5hIDbFoJTDo4wYP6DqwMPBcN2wogDZz6iMN8uXJf6y8v68PiAYYXaiYbIjic+HDre0acdXM8aFqgPhBbsxVnLnryomyYLFknhuoOe2nCGH/c6rBCBg0nYelyJDYZ3HrTHAYG+dk8J4TyJp4wU20kCJEACHkxAyPOiA8Jt8il5yzRrn2FtGkFH8P3q7T+ssXyFyyvMNGLdoIhCXiwExQSjtUIYrieAFZKaHROETTj2tdIndijks8WbMLdmLQvepWAjDXEFZwJmZjBNZC2ll4UL2Q/2Kfb0S4g07dKxwFvy6C6+ESGBsDq2J7s6ja2ipHYFVueeZHiZhjkuTOghgkLQ1W/65WiPajE97jOajd9xF0J7IEtA5sE6lycGdRV2HKKRIhbHwoEiNj8Xe6SLWExZi93sT1vZStP87odClPXMNjdoaJ0m3R6Fv/paBOjaqmHFLRQuqfJGDPikycKhNTMTuKXA7D1mmyHDf7RoPe5CGDJYfTvaKmwHgEcP7mC4mwnzNEdL8IX0YkM+mO4LNw1Kl7FWaGTnZvg5pFUmTmCMhfJ8n75qGwYFXn5h62eICNL4F0s2GUZZC8TJMP6PFRrlqcUEYMNukxUc01ZtwyoGuBUUblmtle8F4Q4/VLygz+wCCZAACZBADRO4vXebGRv2wFU4lkm3rSsZDMNLtrU2tM9IwjQCnvoas8CmybFwuD24dSbmBGBDCNECL3YwEfx53U5sCoWpZs2eQ9bK9+Vw7IT88IWdARbTmDDZ7NwgGS9qeJ+euUHy3C4+WJcO79nKT0zLwDmzTWgo5O35a1A4DGUNE2P5xutzVz18YSckuLlXKwyiYTLPDYRch13H1O2HnJBzphBiA1Qe8FCl3vDSsJuYN8P8GN6ebz+3LbxgYJFL8+S4a7s2f+q3JYbpTQLNixIyISaHMTlvbo9jUoXNKJxs8DqJZJ7uWAumRpAYoTFZsP1AYUlJ5/opQlbBAiX0DpqakrKzWHj809od2G2uSWIM9r9AOGb7hTcyCJ/YLh4uAzcdPAFffYNbN8TCGdyv/tq6T8/QnrufWM8M/+qGezREhwVjvw8oGqAexYw3pJ2pK7fqK/LcEGz8PnfrPuwwcnOv1lOWboaTEawkR3fwINB3CncbePLDCf/RP9IugJDusMUGhgMXGjbCgCWUPosIGdm5OZxxKLG4oHA9wg0E4M/cuEc/WW2tHHvC9XUZ+qS0p6haTzNnczZMAPCgx0Mfz/Flew5jTh5eYK5o3wSjhiX6WIiBEfzwn/VqMwrcIbFHINaL4aZh2AVou2LDQ7A80DDWMFDxVitiMfeAtTnQNeDCNEwvAmEL8NXyzXDkAY+PWGXjZbtpqDtOFYDJacAoEiABEiAB1xD4YOH6+/p3vKNPW0yGQuSA4GHy7oU3NtSq3+kKIeP6tu/ZMA1r9vBKh5W02DINC2sVN93IBd0/jGP1foBd0w3PLwXvNBBFruvaQpm0BCu8E6v3VsBb2oVZFj9n6DGmvOxRASAlpBps3/DEoG7WOEEG/nDhekyK4v0bW0DBibe1lJ4YjuXZw+RTV/lAM4VuYrLrsvZN7u/fcdvRnJ9NdxHDmzG29Lv9XMnPuZhDgyQA62X81fjbs8nHpCjkxfs03HG1rpvw/LAeWw/nfFzZF7fNwu1MgHW8SIm/6s3A7MzrVslwCUB7dUvPVheW+/+DDTmGVZHhsTsmZAbov0SzIdvAQcbnSzaKn3BEB691l7dvrJgSYEeATxdtgK9HfTftuftZ9gLcsFufHSGJEaHQvKANkHYwYQ5tqafz13dz0uKNWMHUp0ldeIxHLLY8wGWCzmpS4qqBIIpADJBi9g/lMk5+rH66qUcr7CBrzdgbKgZ1aZjcxmUIZVaHjGQ4htQ3qSohhnVVpcBazAuV04S5q4d3bopOYeGecOKLRwMe31iBf0WHJljBh7VOmmUU8GqJlPK+PxWuTzW9+HrZFnghdahruPRwc8NwIxd8DeCcweuBTfXN39v2Y8UH5huu75715K+LTUwGHGqMuyX2G/HpTHdrE9tDAiRAAiTgfQQwK4WtgDEJBr9ZmBZwVQdhaYypBkitUN7DLtfLTF5dRUlTDkwuMVcJv8cQFGEx7tpFrVhzC790Xrz5nxODAicICeGhWE9u7ihblIzl5fBzCdtmWBBASjTx2G+zJSZF4XrEOy5kJ1Th2hNAadW9/TvAiReEZ5MVIja74D4JABPSNVYyQ7SGZkd/hmNuHx7IIGAczs3X+1AIDgjAaYAbIGKx0MNb5YqaHC8o3XCZQIl5ECsyaqpijYvHmqrW8+rBgwArYuCTHy4Ctx096ZDnBWu9heYa15H+4rKWXoTjeWfiMsM8rxfHUgXgxYPLrpEACZAACZAACZBALRCAc6/R3bO2Hcl5wnun0WoBK6skARIgAVcQ4EIAV1BkGSRAAiRAAiRAAiTg8wRgXCCsrLHsFksA3vprTY1Nz/o8ewIgARIgAXsJUAVgLymmIwESIAESIAESIAESMCGA1bYxYcGbD53AvobYeav6fA2atIFRJEACJEAC5gSoAjDnw1gSIAESIAESIAESIAG7CGAl/G/rjd3U2ZWfiUiABEiABKqfgK9szFv9JFkDCZAACZAACZAACZAACZAACZAACbg1AaoA3Hp42DgSIAESIAESIAESIAESIAESIAEScBUBqgBcRZLlkAAJkAAJkAAJkAAJkAAJkAAJkIBbE6AKwK2Hh40jARIgARIgARIgARIgARIgARIgAVcRoArAVSRZDgmQAAmQgIsJpMdGurhEFuciAgH+fqnR4S4qjMW4nkB0aDC+ri+XJTpLwNG7GUdQIZ0WHYEbjv3gHU2Pkh0dHSey1EAV9iPyuJSk5/IhowrA5UhZIAmQAAmQgAsIhAQGXNK2kQsKYhHVQKBJUiw2fq+Gglmkawi0SovH1zVlsZQqE3DibsYRVKjjVtM4Mcb+QXA0PUru3zwjKTLM/iqQ8rJ2jTCs9mdxND1KHtmpmQOaD/ub4oEpr+rQxKFWO3HFOVS+FySmCsALBpFdIAESIAEvJJCVEtchIwnbjHth3zy/S23qJrSum+j5/fDaHrSpm4gx8trueVrHnLibcQSVQcaZDBr2j7mj6VFy27qJrR25XvBgapue2Dwlzs5WOZoexUYEB7XLSHRi9tvOJnlQsnpxkZ3qJ0eGBNnfZieuOPsL946UVAF4xziyFyRAAiTgbQQgYYYHBzZKjPa2jnlFf9rWTcA7VnCAA5NgXtFvj+kEpCBINR7TXG9vqBN3M46gOCmCAvybpcTar89yND1qiQ8PrRsTYX8VyAKrBIjo9mdxND2qgEoCigP7q/DiawgQgMIhsyYnrjgvBmjYNaoADLEwkARIgARIoJYJiFcfhyZ/arnFPlM9VDMNE2KkV+3kWJ/ptCd1FPJMQkRofERoWkyEJ7Xbe9vq6N2MI6icCy1kVSNEaNx27DlBHE2PMtukS/YyrdMS/Ow2OisfUHsNbRxNL7VKtkqgCkAaGlmb6dDLgKNXnD2nlpeloQrAywaU3SEBEiABbyAQGxaSESf5AuQLkBsOZ6vUBOGdi6PjhqOjvmo4QO4wQE7czZSB4wgKArjhtEy1y7eFo+ml6yVNErZhZ54ZH2XnCSNqqRcXhcG1J4uj6ZWrOCs1HspWe6rw1jSB/v4tkqUFF/ZfC05ccd5Kz6RfPn1WmXBhFAmQAAmQQC0SwMNe+ABomhQbFmTX5E8tttbXqlZexRxaPetrlGqxv8p0mf0vzbXYWq+v2om7GUdQOSscReFoejxolPsYlvfbczaGBgXCHypSIq891umOpkfJ2G9FuCeEWzs8BO1plbemga1ZaJC04gxAUqLs2obGiSvOW+mZ9IsqABM4jCIBEiABEqgdAso7GSZ/WqTa63Kpdtrqe7UqgmVmQjR3nnO38cclk1V+ybRKjXdoNzV364t3tMfRuxlHUBn3qNDg+rI5GD722IE7mh7FNoivuInZqTJrmRqnXFb2tMrR9JrO2tkq77hY9L1Qd4bD+LYAACAASURBVN9OFI5ecfpKfSGEKgBfGGX2kQRIgAQ8iQCmVpx46ntSDz25rdJUTLRlKsbOSTBP7q7ntV1tOKNMP3peN7ylxU7czTiCyuDD7aiyPl+ZGDc5NRxNj6LUzxpMONuzz59a7G+bbjFYM2mVo+k1rfJxYys1PXtUAE5ccSZj58VRVAF48eCyayRAAiTgkQQyKi+wtGeaxSP76ZmN1ryEcXTcbRh1A2SvxzJ364h3tMeJuxlHUBl6DQqbwrCj6VGROou07NyOff6gaFBaiGXnNvftczQ9vN8rhjyoqFFCNKwbvONycLQX2HYhM6HCQUOrNIsbGpNynLjiTErz4iiqALx4cNk1EiABEvBIAprXuHTZvblH9sQbG62R+dVvt97YXc/rEwVItxozJ+5mHEFlBCHyqUdTQ0Y/0I6mFzsIOlSFfqMN81Y5mh6NaZIk7TiotAp2EHa6QtQD8fQQsTOi0guxGY15p5y44swL9NZYqgC8dWTZLxIgARLwVAL6NyrNi52ndszz263fnBkvuNjAzPN75iU90L8iiw3JvaR7HtgNR+9mHEFlkPXKX/N9+xxNj4qy5B0H1aeVfrw0J51e6WmexdH0qE5foD7EAy8FZ5qs77g+RFOuPgHfHwzRUwVgiIWBJEACJEACtUPA0BRT/1Cvncb5fK3w/4etszQYODruc17oDWU1RsXu01RfaIkTdzOOoHJi6BcZ4ebTUGUWrrsRaf35m6dHdrHhvLocjRm5/izV3+7M9+1zND1q1Hdcr0fQN8wrQ/T09CHqjjtxxXklN3s6RRWAPZSYhgRIgARIoIYINE8xcMikdvJUQ+1gNUYEDF+/9C+sRlkZVhMErAwQ3QHUBHx9HU7czTiCCkYrKLRyvtPpkVFfhcaZnGZMZQeo2qvJZN8+R9OjOrjwhOWOpt5ElRNW/WnmrSGGDiDN9wl24orzVno2+0UVgE1ETEACJEACJFBzBAzlSfVWTzXXFNakI6B/Y0YS9ZZXuhwMqFEChgNkeE3VaLN8tTJD8uZ3M46gOFmsbQdryAdZHE2PLNjQtH58has55SQ1cTqo3kFQfVJba5Wj6VGmtY08rVXhxdeW4eWj3jJT33fDLOZXnL4QHwmhCsBHBprdJAESIAHPIGDtRcfw0e4ZXfKWVlqb7OLOc24ywtJ+jVGW/RrVTTKcTHOTNnt3Mxy9m3EElfPB2mQv9u0LDaq0el9kcTQ9cmF0MEuv/1gLl7Kka00ARHZrWgNH04tW6ZtkEm6Y2DsCHb18TCjx/UF/SlAFoGfCEBIgARIggdohgKWbmUbTMmiNtbeB2mmoT9ZqsuSVo+MOZ4TJKJhEuUPLvbINTtzNTIbJJMor6Vnrr7TYOzlO32VH05s8U7DPHzwC6KswyWJt3z5rrbKWXqrCmpbBjv3wDNvsoYGY7be2D4I1qk5ccR4KxyXNpgrAJRhZCAmQAAmQgAsI4NGODZAMC8J2zRrXzYbJGFh9BKy9eKFGn/VWVX20nSjZZKbLZOycqIhZ7CHgxN2MI6iANUGh9+GHXI6mRxbsL2BtHA2vF2kHweRYwyyG+/Y5mh4lSzsIRhtvsBIWFNgoQesjwLAx3hEIhwjYHcOwL9iDxnCfYCeuOMPyfSSQKgAfGWh2kwRIgAQ8gIDhi5doN16n4OnHA/rgvU00GZ1GiZU2svZeBu7bM/1+jeq2arbXdt9ueFHLTK4Xw7sZR1AZfMh+jRKjrZ0LerCOpkfJ6bGRkLftrwIp9TsIqrPrW+VoepTWtq5VZ4eI1Vdhrf1eEG7eWcOVFyZZDK84L6BUlS5QBVAVesxLAiRAAiTgSgJ6Z8vq0k0e8K5sBMsyIhAXHoKXZqMYKQzSizWjTWtZGO5aAg2N9mtUqogIDsq0vpuaa1vC0gQBR+9mHEHlzMH8PG4p1k6kjLhI2OqrYx1Nj7zmTxMYnUFo1DTA0PpASaO3hHI0vc1WmbfZGi4PDTcx65BAGVlwOHrFeSgZVzVbe367qlyWQwIkQAIkQAIOEYABJLxhmWQxfycwycioqhPA26fVV3K5dJ96Pa06T5eXYJM/Lx+XMzcp0Im7GUdQ4WmOQr9vn6Ppbd6v4PpUb/NvXot+3z5H02M1Qau0eJOTqklSrDXbeJNcnhhluDOiuiPS86iyksiJK84TybiwzVQBuBAmiyIBEiABEnCegPkLE8rFBk6ayR/nK2NOBwnYFCCtebFysB4md5KAzcvHZgInK2Y2IwI2aevvZjaz2Exg1BCPDLN9t6lbaRm/o+nhUzArxUzYBjVNmTFhxjsIqvmqB8jR9CgHrnCxT6HJgEn74dlqtkl2D4qCKgSdNWkw9vlrUNllo82rQ3/FmZTvC1FUAfjCKLOPJEACJOABBJRHeH5xiaa5ZWfPIgRvBOaTJB7QSc9sopp8XlGxuhPKYGE7uuQoMyMOz+y6Z7Qa26Q1LXdUphkg5SdmNTG36Rn98fxWOno34wgqY47biHIn0TwL8gotNx8sBVcEREfToyJcLGJnQTxXikvL1KfbmSLL00cjUmKtgahRPIwM74HqlfyOpkeByvr2krJKTUJUYUmpqNGmoOv5l47UA8XOX+m40i8FjgaFo1ecd4CqSi+oAqgKPeYlARIgARJwDQFpfiM1/nRh8bRV2yct3qQp9O5pf8/Zsre07KyPvAC5hqnrSqkXJ9lfHDmd/9E/6//evl9d8L6c00/NWLIy+wgCTTxsu64tLMmAAOYGMbGZfSJ3wrzV6/YfV6fAz+dnLdt+9KQ882mwm5pBcQyqGgEn7mYcQQW5mH7fcjgH5+2+nDz1UMzfth9n+P6Teep9+xxNjwLFc2Td/mP/++Xf3MIidRU/rNkx8e+1h3PzNXPyqOXs2bOLdx184IeFmrPj0383fr5k08n8IvXctaPpUSY0CJBv8aR76rclmiremLsKT0aoJ3zkCQibMgj/MzfufnPeag2Kx39d/PPanUWlpWoUTlxxmmJ98Kfxdgs+CIJdJgESIAESqEUCqdERP6/b+fvG3QXFpd0zUzUtEcLnr+t39W2SXouN9Nmqk6LC3v177T87DmAG7D9dW2g4bD50YvyhE9DgaCwzfRZXzXccZrGv/rlyRfZhzGrqLx+IOuv3H+tYLzk6zMzMuOab7a01OnE34wgqJ0OQv/8zM5duPChpsq7q0FR9kuD0hhC+dPehno3SMPkPnRdiHU2PLJj5f/TnRTuPndKfgbjFQcv5766DfZtmYPO5UwUWBcHJ/ML7flh44GSe3jwdpc3csHve1n0DsuqnRoXvOympLRxNDyF21/FTExesPZ5XoN/xDsL/tFXb8Hwc3CoTp0pueav07feCEHRwya5DeNxjSqBpknYbIPT9q+Vbft+0Z1DLBoCGiQF02YkrzgtAVbELVAFUESCzkwAJkAAJuIAAJpPxNS8Ir1949punYWx1EFi+57DNYvHKLt7abaZkApcTmL9tn3mZeE1enm17EM0LYaydBJy4m3EEFbaY+zXnDCl9gcoWydH0KPz71dvNq4BUP3vTHnUam4+eguKSH9fsULI4mh6i7JSlm81bBZH4mxVbzdN4QSyEfJvdhKJEjcuJK84LQFWxC1wIUEWAzE4CJEACJEACJEACJEACJEACJEACnkGAKgDPGCe2kgRIgARIgARIgARIgARIgARIgASqSIAqgCoCZHYSIAESIAESIAESIAESIAESIAES8AwCVAF4xjixlSRAAiRAAiRAAiRAAiRAAiRAAiRQRQJUAVQRILOTAAmQAAmQAAmQAAmQAAmQAAmQgGcQoArAM8aJrSQBEiABEiABEiABEiABEiABEiCBKhKgCqCKAJmdBEiABEiABEiABEiABEiABEiABDyDQGA1NbN5cmz9+OhqKpzFkgAJkAAJeDGBhgnax8cFLep7cX89q2v146LUDY4JC+HouNUIpkSHqduDnxygWhwgJ+5mHEFlvGLCgtVj1yA+yvxkdjQ9Cg8NrCQKNUuOLS517HHTNj0xOrRSO83PN5vpI4KDNCV0zUzJ1D0WzWvxjtjkqEp3M3Sqd+P0vKJik945ccWZlOaeUUt2HTpZUFjFtlWXCiAoICAiuLoKr2KfmZ0ESIAESMCdCYQEai3U+EBxn/EKCqg0Ov5+fhwd9xkdtCTQv9IA4ScHqBYHyIm7GUdQGS/cXtRjh5uP+cnsaHoUXrmGOsGOyy+hgTZapTn9bKYPDw7QZfFRqSo0UItChnPW5Ip24oozKc09owL8K10XzjVS+5rlXCnMRQIkQAIkQAIkQAIkQAIkQAIkQAIk4OYEqAJw8wFi80iABEiABEiABEiABEiABEiABEjANQSoAnANR5ZCAiRAAiRAAiRAAiRAAiRAAiRAAm5OgCoANx8gNo8ESIAESIAESIAESIAESIAESIAEXEOAKgDXcGQpJEACJEACJEACJEACJEACJEACJODmBKgCcPMBYvNIgARIgARIgARIgARIgARIgARIwDUEqAJwDUeWQgIkQAIkQAIkQAIkQAIkQAIkQAJuToAqADcfIDaPBEiABEiABEiABEiABEiABEiABFxDgCoA13BkKSRAAiRAAiRAAiRAAiRAAiRAAiTg5gQCa6V9OQVFpaVltVI1KyUBEjAnEOjvHxMWbJ6GsSRAAiRAAiRAAiRAAiRAAp5IoHZUAGfPnk2IDPVEXmwzCXg9geN5BV7fR3aQBEiABEiABEiABEiABHyTQO2oAHyTNXtNAj5OILeoyMcJeFb3i4rLEiKoq/WsQWNrSYAESIAESIAESMAGAaoAbABiNAmQgKsInC2rE80lBq6iWf3lnCyjyqb6KbMGEiABEiABEiABEqhZAnQHWLO8WRsJkAAJkAAJkAAJkAAJkAAJkAAJ1BIBqgBqCTyrJQESIAESIAESIAESIAESIAESIIGaJUAVQM3yZm0kQAIkQAIkQAIkQAIkQAIkQAIkUEsE6AuglsCzWhIggaoROHu2avm9Mbefnzf2in0iARIgARIgARIgARJwHQGPVwFQDHDdycCSPJiAL8h+vNhtnqAaRL5wVthkwgQkQAIkQAIkQAIkQAJqAp6nAqAYwDOYBPQEvFX2s3m9n7WZQg/L60L8rMj6YGMlxusQsEMkQAIkQAIkQAIkQAL2EfAMFYA9L/mUBOwbcabyKgImsp/STwqBXjXk7AwJkAAJkAAJkAAJkAAJVIGAB6gArMn/NmR+a9mqAItZSaD2CVQW6DVXgaFGwEOngq1dwbzwpZPQ8dOg9k9dtoAESIAESIAESIAESMANCLivCqBlXH5MUJkJorN1TL2BmUaaFOsmUbExdf39LaOTc3JfWVmpmzSMzahFAksOh5Wc9X6Hb3rh31js16erI24KHn7x23GG+VnroqwaqIzLcsLQGMQOrkxCAiRAAiRAAiRAAt5PwH1VAMmhJclhxd4/AtZ6GBFXxz9YREaW7alTVmQtIcN9h8CyIyF1yqyoAHSyn9oiQBGW3V8ORFPrRxaFBVSo/yop+4zEft0JYE0+1iX0zIDc4oB9p4Msba90Ovj5qfloLQXoF8Azx5utJgESIAESIAESIAGXEnBTFYBd7/kuBcHCSMADCGB6t0KaV7fXQPYTKTVLA5DbbbUASs+axRQkhJZ4wHDUUhOzTwfuO11+666s7lDZiMinhPRHSiFOA3ce/VpiyWpJgARIgARIgARIwOcIuKMKgPK/z52G7LADBMplPnPZDwWq7AI0FgFuqwVwAAOTGhDAOaFYBcjHFPoNKDGIBEiABEiABEiABHyagDuqAHx6QNh5EnCGgE72c6aQ2sxDxZ/99MGqrEzM7SNTxUoASbNTwdHvrOwwwE9OAFsAxRBACrSymsT+NjAlCZAACZAACZAACZCAhxJwOxUAJQEPPZPY7BogUHb2rAOynzATKLcFoCFADQxQjVWh94+IcRYm/2iDGHPJNWJ5KFcE1NjQsCISIAESIAESIAEScHMCbqcCUPGqbOjs5iDZPBKoAQLwjGdVSSZN7KplP9mLnmVBOKIMXQPUQJPtqcJqn+zJ7HtpJIcQZ4W7RGneXwCQp/mln7LUX34y4CQQtgAqfVB5etoC+N6pwx6TAAmQAAmQAAmQQJ06bqQCoBjAE5IEzAlA8BPSnWz+rejIcKyX/colQ8iF4tKqbPxtFGZeeQ3FWtdx1FADPKAaCPZlkgpA1vHINv2y8C+fBtIXQy7FygFYDyAdS//IB8JUQOiK5HOk8nkhhfBDAiRAAiRAAiRAAiTgxQTcSAWgpkwxwIvPOXbNaQJlpWVn5U0Bbct+FtlQMgWQhT9ZUJQlQPWKAKdbwoy1SEC2BZHEd1m9Iwv60rAKHQB+WxQBUgLpf6EakNsrRVrOhFpsP6smARIgARIgARIgARKoRQJuqgKoRSKsmgTcloBsBeCP5tmW/SoEPZUE6LYdkxumUvzJ09P8WCdgsQKQ5HnLnL+sCBBCvyWbWBcgB8nrAcoNAayXyhgSIAESIAESIAESIAHvJ+COKgCaAHj/ecceOkcA14awAJfncsvn8w1kP8vksJRGqql8Sbj0m4YAzrF3o1ySEYCiJZEOy8+ECh2AZBQgGwqIZktLA4QWQErCc8CNBpNNIQESIAESIAESIIEaJuCOKoAaRsDqSMBTCFQS/SpZ9WtlP2EmIBuHV3gEdLduVoixahMAlXTrbg12k/ZgsMtkTZAk+Yu5fqHXEYohARPhUqxkM4KPvP6j/CSRdQaKJoiLA9xkWNkMEiABEiABEiABEqgZAm6hAjCQBCgG1Mz4sxaPIhAeEhQQIOb/IdxZpDt5pl8W+IQ8KMfL0bIPADlcfPz8/C2Z5STWPsGBAdEhwdZiqxKO9sstMPqUz2rDzCFAabFRQoYJVwCSfge3TsnTgzzGqnsmflp+QVPg719xBpAdCZAACZAACZAACZCAzxNwCxWAz48CAZCAXQTObZRWdjYASWWhT4jzEOsh48l6gDoQ9yR5D3+lNPJ/IkSdRRwrf+2quHoSqRV9yjEO/M+cqVNW4pI6X3ztC6Wc+Ljo1JT4Lp2y0lIS7Cl81Zqtv85c9MDdI4OC3Os+CURlZZZ9/4Tsr5wPol9IYBH75Wj5fJFNAKQIeeTt6T/TkAAJkAAJkAAJkAAJeCMBZSLRGzvHPpGAdxEQ4j2kenwC5I90pAoVigERIGkG5I+nMIB8qigCXNXmjyb9sm7DztSUhJjoiENHjn82ZUafgXc+N36yMKQ3r2Xr9uxPp/xWUuIaZYR5XY7GSjoAWROAj+wkUvrK1gGVGUpmApYQtbGVrBfghwRIgARIgARIgARIwBcJuNfslmUExOsp31G99ISE0CKmqb20f9XYrcLCwrN1SlFBuXAvZv7lef9ye29J8JcJC8iQ/0RiHIgQRSmAEFFUNbbYiaJdfeG3btnw+msGKQ35dvrcx575MDEh5tYbhjnROjfJIo+dZWIfZwPm9mXLD+wY6V+Zn7AFEWeB3HZxd5UVQ256ArgJYjaDBEiABEiABEiABLyUgFuqAGQH5l4K3DO6JUyg0dYWLRpcPqyPYaNff+ebU7lnDKN6dmt9wXld1FGbtu75dvqffy9cc+DgseLSkuSEuKwWDYYM7Dl4QE/MZKtT/vjLgnUbdiDkskv6ZDVroC//i69/373nUNs2jYcO6qWP1YRs3pq9Y+e+w0dyUlPjmzepn9kgVZPgzYnfnTiZa1hO7x7tjhzN2bZ9r2GsEvifEQPq10sxT8NYcwJCFjVP46rYqy47b8WqzTh7z+/bqXGjdFHsoiXrZs1ZeujQiRbN6//n6gFxcVFKdXlnCmE7sGbdjkYN0666tH+D+tJYn87LnzFrUc/ubdPTEkXKWXOWxERHduvcUvyc9tNffy1YGRMVedOooZu37VZHVb0j0rQ+Jv+hCZL0PpJQD4FeXvWPsiUtAP6RYiU5X7qVyseWsIrapWweYyFSdWgsgQRIgARIgARIgARIQBBwIxVATYoBHH5zAsIEGmkGXtDNmgpg2o9/HTx03LCckOAgtQoAYvY7H04vLZV8mIvPgUPH8J3z14pJX85865W76qZa5CjEzl+0CloAHPw6a9HUyc8oIpaSd8bsxYuXbUCrzFUAe/cdfvqlz1CFkhFz4Mj14N0jY2MrBLwff/sbCgUljfogOip84+bd6hIMk13QvwtVAIZk3DZw1DUDv/txHk6wsWOuQCNfe/ubL7+dfcvoYd06tZz+818DLr1n+pTnMtKTRfsfeer9Tu1bXDzknA8//emb6XO//uSJJo0zjh8/9fCTH7w34T7l/HzrvenNmmYIFcBzL38++Zvfx9x4cUJczFMvfrJpy54e3Vop2gEXYJF1AJDwZft/SdIXwr7w/QexXwqS1QSyVsDyS7H+cEEDWAQJkAAJkAAJkAAJkIDHEnAjFYDHMvT1hl83ckBifKyaQvu2TZSfH3z605vvfYefAYH+9905on/fTinJ8Zjnf/alSRu37F69dtuoW5777otnsVRbw/HwkRM33Pb8N5Oejo2JdBRxfn7BNTc+vf/gMWgi2rRqlHPy9Pe/zD9xInfqD3OPHMv56O0H9QXqe9G5Y4tGDdKzmlssEfYdOPrDz38jY3JS3JWX9lVKqFs+D6wv0+Uhv67fWVAsZDrJ9h8LAFCFJNqJZf/K+gDJLyCChTNAOZmQEuVZX7FPgCWjaGLlyeCCouLQ4CCXNx4FFhWVBMuu9QqKS2LCghVbH4v6Tzb9wfF56QXxodVRv6XMRpnpoLd9xz78XrFqy8SPfvjio/8JEf3C/l2Gj34SzgImvnGvSP3EwzcIOb9Pr3bnDrrzjXenvv3q3SaNg0bp869n3j9u5E2jhiDZFZf06T/ULL1JUdaiwElSAshb+8nSvz+EfUkRUG7bjzhJQYD8qpl+1QoAyTJATs4PCZAACZAACZAACZCAzxGgCsDnhtzlHR5xxflNG9czLPZUbt7bH0wTUe++ei/kf3EMcWvqF89cdd3jGzbt2rn7wISJ3z7+4Gh9Cdt37r913PjP338sJMQxiRSW2zDvn/Lx4107ZYlirxsxYNDlD0A1MO/vlXv3H8mom6SpzqQXIuWS5RuFCiAlOe7u/16tb20NhJwtKT0ruwLAf1jvL0n5/tLabz/J+htyvvRTjoV0J0v7kpgoTQdLSREiSYHSkWw7LusD5I9GFiwoLg2vJhVAWVmIXGNeYUl4cKAQSvFTEmfLf+BIsnGvzg9Op9DQoGC5jzAqSYiPliw+tuwWdcJ3wLfT5kpNkj/xsRYNVFhY6IX9uvz02z/mTVu5egsMXrDIRSRDroT4GPMsTsQqzZMGsw7sa6QVAdJIyiMr1APysErqAnklgPR/eUXqYycqZxYSIAESIAESIAESIAEPJuB+OwIoYoEHU2XTLQSmfDPrzJlC/OjSMUuR/0VcaEjw2NskM2x8vpk2J/d0JbcCSYmxUZHhiFq+cvPdD71lj/92S5XyP+s37npg3EhF/kcI7LqbN7XoKXJyjBf/q0twz2PJ8Fv2BC+LzBaf8KKpQiZUJEORSH0xVcjbyuS7m3VSVgNUs/Qvd/nY8VM4LVtnNcLx9p17S0pK35w47c13vxPfAweO9+7ZrrhY0rVoPulpSdAiwahEG6H6vf/gUfzCBoQmaaocJZ8BFs2J0J6IU8Iy7LLYrycpqwP4IQESIAESIAESIAES8G0C7mgFUDNigG+Pew31fvpP80VNl1/SR19l/z6dMAELeaywsPifxesG9O+qpMH+7Q/dc+3o256H6TgcrT390qQnHx6tL8FaiN5U+/iJ3K3bspE+Oioiq3mmtYzuHi5dG/LO7tIB/oX9tz+EPXliXxIJ5Wlgy1Jw2RbA8pFiKn65ey+ru30//DIfNhBdO7dARZiij4wIU8z+zas+eSovODgQJgOnTuUhpaFmKjk5DlH7Dhxp2CDNvDTnYysEeWm0UY487y+fBvhIwr8UINmACD1BuQEATwPnmTMnCZAACZAACZAACXgLAXdUAXgLW1/px4JFa2Cxr/QWUj3m/PETAhJM7kV4AyOf+RDDWjSrv/DfdUizJ1vrkw+LBV559o5xD06AMINdAKAUGHPDxY4yhUOBLduy4d3wg09/zjtTAAvwF566VbMHgShz5uwl2AdBKT+9blLPbm0cra6601cS6aQfks23LOVJZv3l+gFJ9pMD8JFngytJ/5J8WN3trFL5suBafZ/1G3dOmDgVrh+EJqhtq8bf/zz/n8VrleEGvKnfz8PGAfo2YOOANq0aw49AaGgwYqERqEhT3uyuHbPg9uLzr2Y+8dBoxBYUFmksXPTFOhEiLZaQHQEI7Y88yBZ1gJD6NRofSUWgXvvhRJXMQgIkQAIkQAIkQAIk4BUE3FUFYJ8YAAdvq9Zubd+mqdjEa8eu/fhqxqVFswZi4fcf85ZpooKDgs7t1Q6B5hm9YqCrsRPwnaYuHaI7FuEjBDvqFReXiKiUpHjDFsTGWJzzw4G/PsFFA7ofPnri2ZcnIeqVCV+lJsVfMrS3PplJCDZmg+d2kaBeRsqrz/23Y/tmhukhFqrDsRWCG6oAZOnOIiFXzPgqVt/SNLAsC8pSvtADyH+F6gD9k10ByoYE8ryx9JHyyDPJykdWKqgDLMcaqdIghVsGwQEk3E8WFBYfO35y3vyVv/y+6PKL+8Jdn2js1Zf3nzJ19n2PvvvCk7d27dRi3/6jEz/+oUPbpkpXXnt76q03DIuMDHvv4x/guuLjdx5CVGJCTFpKwtff/Xle745wVznlm9m7sg81ayatNMH2EP+96TK4wNy1+2B63USc2GWqvTBcR0gMr6zkkQa70mJ/1dCrR1acF65rAksiARIgARIgARIgARLwQALuqgKwD+XGLbtuvvPlzz94VEhrv8z4B2/e/fp0DPAPUAoYedX5QgUwZtwr2Ba+aaMKx3Uw6BUqAJOML772xeSvf9c359Xn7oCUuHTFpuvHPKeO4xvYdAAAIABJREFUxf5haI8mPd7Ibxk7HjON3056ulVWQ31pHh3Svm3TiHDh5U3qR4tmmaI7MO9X+mVNegwMsoxUkOwoXv+5/ppBmMnHtgKIeujJ9xITHfOsltkg7bKhfQ4fPb5oyfrsvYeuuenpm68fes8dBs78OnVoHhFe4Ya+pVsuFpAUALK8Lkno4h8h8kuzwGL2V1oKYJHgxbywcA6nzABLYqBF9he05QlkPXiDEI1ewM5cBgXVYBAUUgcPHn/h1S+CggLSUhJh3DHti2eaNam4CcCwf8pHjz//6udj738DdiLwGXHDtYOvHT4AbUxKjEP27l1aXjby0UNHjyP76y/e2eec9oiCIcDrL4199Kn3e55/W3xc1B23XDZ0UI965fsIwslFr+5tlq/aHB8f/ci91w0b/mBEWJgLOy2Ze8gfSY1T7tlfVgVUCPkWLYCUSEpp3wi7sI0sigRIgARIgARIgARIwE0JGMtdbtpY+5r19iv34LXeMO3A/t3uGzfCMAqBhhnvHzvynjuGq7M8N37S7LnLhHO77H2H4Ets6V8fBgVaRFl/lfZByTXpy5mwlseUuPTK7nWfF568xXBHAOyWB5N7eEdHj7E/Hybh9V0/ejRHBNZLN4gVUfePGwFbAHjjB+o77n3doT0CsSRBrErAUoWb73wJyw3e/fB7bGEIO3BNY579302GvdC3uRZDKs4f2ehfaAFkYU80SpII5VOsfB1ARVsrif212IUarloYpJhXiqUr0OgBY0FBIRz4K4n79u6AL37iYof7wHCVnguBnTs0//2H1+AdMDQ0RLW7grSkBfYv0Cjhi2TwHQgdBKwGzNvgaKysuKkQ+CU5X9IOoRjDoacGwFHATE8CJEACJEACJEACXkvA/XYEcDPUWNYLhYLyzcvLh4u7G/4zWMxa7917JDkxDh7mIDmIr377OqxFf/Wtb8aOudzNelbtzQkMDEhLTRTVrF67TV8fnAWsXrtdhMNAQ59AhEC+evHJMef0aIufp/PyFf8C1tIbhjduWPe2my4RUZO/nmmYxv0DI4KLI4OLIoKLIoMLcSB/CyOCCsKD8sMD8yMCCyKD8iMDz0QEnImQ/uZFBuSF++eG+5+O8D8d7pcb4X9K/uZG4tjvVMXXEn4q3O+U/VoqCJzepNHCaaaW/zUng0b+V2KRRS3/Ixy7Bjz/yucz/1gMrcHBQ8cffUpahzLsonNceXbJor5UoDcNgCsBsSwSIAESIAESIAESIAGrBIxny60m9/mIz778DZLtiCvPFyT27T+C5b5wSXD8xCmYEOvlfzi0v/uhN2+87iJYy/sgvEuH9n7rvWnoOCSim0YNgfm0GsLyVVsg0iMELtm7d2llwgfM333t3pE3PoVF3SbJRBT2/Jvxx+IRV1jGSEkfH2vZpw2TtDYLcc8EGWGlxcHS/C+sv/398Uf64F//AGnuF3Tlrxzoj690JJLJYfIPkUkyH5c+opuKSX9J2dnVR+XpZCPZUkmvhqMk9Ih1ATUwrFAajn/uv489/eHY+yfgxG7buvHUyU+baLhc2STZNkDSDkgHcsGWEFdWwrJIgARIgARIgARIgAQ8moAXqgC++3GuYpYfHxej3o5+45bdU7+fowxY757t4Wde+WmSUaTBUuEvvp51zVUXKIvGMSO9Zv3284fdFRISDGdjQwb2fOz+UcI3ocjy8htTgoKC7rjl8sXLNnr0ieJc40eNGPjx579gOnTNuu2Tv5o16pqBSjnwlA4/C+InrCr02hNNjZiG/ejtB6+87nEs6TdvDKSeJ5//BAXCC4A65c8zFoqfHu2OQTL+lg3AIaUrEny5oKeyDDdnZBKLsmSrcksSlWSv1gvo1QEUNhWojTLrfvnJE1gCY7j3hAl7+6PEWEijYDlS+QSoWPjvivPB/jYxJQmQAAmQAAmQAAmQgCcQ8EIVwKbNezARJ+ALR4DKQBw9dnLD5t3Kz47tpMW6yscko0jz5bez8wsKR10zSMmSmho/+Y7/dWjXFDOuy1Zuvu3uV+68/43JHz4mBKS//1n9zbQ5P3z9AiaxDadV1bW75/G69Tseeep9TdsG9O8mnKKJ8I8++0Wt9RCB/ft27tKxRWxs1LjbroQzNgS+PGEKdkcbcH6XyMjwjZt2v/3BNOgFEN6uTZNbbhhmT/exoPqziY9ced1jx0/kmqRHYy44r8vDT7yP7d+GDTonLTVh774j2KTtl5n/iFzKigCTQtwzSjqLlAletYs3ES7vBoiPENvlA6NF4LLjOGmyWJbzZSnSkkwW/y1lSVGypqESivICy/NWKl+kNazTPXlWa6uqT/5Xmi0BV9wBVriEqNZusXASIAESIAESIAESIAHPJuCFKoDHHhhlzR1g7x5tTdwBmmTEIMOk/5PJv142rE9SYqwy5vAiphzDPdidt1zx9EufQrKFWIvVAQ/8b+I9d16VWT8V84ElJdL2eDio1rlBl5+MMHP4dvpcTbEN6qWpVQDTfvpLX29qSgJUAAi/8bohZWVnX3/nG2wQ8Ma73+KrTnzeuR3HP3t7aIi0y7o9nwb1Uz56+6FrbnrGPDF8+2Gjx0lTZuKrTomV2/ePHSHcCpiX4J6xQjq3rAOXmwghX4j6QviXJXgpwBIoTeiLiWJZVpeVAiJIjpECUSaFdvccbraKBEiABEiABEiABEiABFxOwAtVAC5nJArEMoFjx0/ddN1Qk/JbZWUiFsInVAAvvT7leM6pF1+fgi8Cz0p+8etcNerxTu2bw0jYpBB3iGqV1WjsmCustQTKDkTdeN3g3FxpJb/hR72zOvbhu7Bf12k/zVv479pDh48XFRWnJMW3bJE59KJzzunRRpN9QP+uDTJSU5IrFmhoEmBx9cTX79m1+4BhvSIQ1gc/f/MSLP//mLcse99hLDqAIqZpowxs9qZe+oHEo0ZclHNSsilIiK/Q7BiWjP3kBBOTthlmrKZAIboLUd/+KmwL/BYjAElDAE2CuuRKRgEW9YGBoYHtKuxvLlOSAAmQAAmQAAmQAAmQAAm4lABVAHbhxNT9h5/9cmG/Lmq3Xlu3Z/+7ZMN/RlRsL7dtxz4U16Ce5Nz+xafH4KuUjkUBo297YdoXz7Zu2ciuKms1EeRzfM2bMPraweYJ1LGYvb/njqvxtZkFygJ8zZNhGt/mTD4Wg1wytDe+5kXpdwe0lj49LRH7vVuLrcFwSeqHTql8Pr+iZnl6X/1TsvcXtuJSesRYZv6llQDyf3Ji2Y5A/reSVb+UurIGQKURkPKo8xplr2gJj0AA95CioiLNDoIkQwIkQAIkQAIkQAIkQAI1TICbAtoF/Nff/4EXuptHV1qyjm3kv50+B3by2NwOpcDX4ISJUzu2bwYTALsKZSIScJiAkNalbGLZPgRxIafL8rpFZJfXAogAOaTij1gmUFm0F8I8UolMshWAYgpQHikqlB0FyCVa1AOqaDnc8hHZ1SE8nr9wVZvu1+80tV4hJRIgARIgARIgARIgARKobgJeaAXQvtf1mvnMmdNfqZeRApQfTvr50ym/qZkOHdhLmau3lhHy0Puf/Ihd69q1bqwZj3deuwf+/54d/1lcTNSBQ8cHXdDtfw9eXwNuwKr7tGD57knAIuJLIrxmxt6kvSKTfoa/khmAlL/ctl/WBViqkp0FSnHl8bL4L6eW7AgUf4HlLglM2lGTUSUlpWKpSKOGdTVbUZo0A7q8nbsORESEaVaLiCwHDh3D3haNMtM0txfkyt57BNsxipuMpnzElpSUWfNOYtIYRpEACZAACZAACZAACZBAdRDwbBVAz25ttq3+WuECO20TU211Sg1K84x44//1u/GG9OvXS/nx6xdgIID97bHaHN7mDJMhsHfPdiYNsJaL4SRQmQDEb4jnFoEcwrhkzC9L7JJcKubvLRsBWFJKaaR1A5LcLh1adpGThPdyrQCi9AoFS6CQ97VLBKQ2GeZyi+FavGzD3Q+9lZt7Jjk51t/P/70J9zduWBeOLYdf/8QLT96KK1G08voxzzdqmPb4g6NF1G03XvLN9DlFxSU7d+3v2K7Z26/ekxAfjZSXjnykV7c2W3fs3bXn4P79R2NiIt597V44pBCF/Pb7v8+8/Bl2nSgsLDp5Ku+lp2/v1b01ouCHAt5A7h87ErHYTPTZx28W+2KMvOGpjPTk7ybb8GfpFhzZCBIgARIgARIgARIgAW8k4NkqADcZEcPZPzdpG5vhZQRkaV+S6BXP/jiWApX/ZI2AvCmAJPwjUvIIYKEg2e9LTgTKZ/IRLOkH5HhZmwC/lWUivyzkS8HlhgCiCNUUuFRJuSZBrkwUq5kkr3n+Dz7+XvOm9d+fcD/m3rdsy375jSk4ListO3joeGFRsdIeePdMSJCEfBG1dMWmbz57Elq87Tv2jbjhyYeffO+DNx9A7JGjOfP+XjnxjXtxmUOYH3Xrc7eMfXnejLewjcXK1VvGPTjhrVfuGnh+N6R8671pN93x4szpr8LzRUFBIaqD/0tsEXr4SA5cV0RFht1+92ufvf9o48y6Nc+ENZIACZAACZAACZAACZCAIEBfADwTSMAjCUiCOhpuEeZleV0S8EWYReSvSCKJ93KgrDBQd1j5IUfIpQodgPwXKgH1Lym/JZ1cRvkvdYG1e4wWnThxKjoqPCgoAC1p1qTeq89X7Nxp0rarLjtPWPE0bpQ+auRFc/5ase/AUZG+/3mdhJovIjz0oXuuPXrs5IxZ/yLq7Q+mt2nVSMj/+HnrDReHh4V8/PkvSi0P33ttVvNM7KCJxUFBgZK+NTgoMCiIileTcWAUCZAACZAACZAACZBA9RKgCqB6+bJ0EnAhgcrCe0XBlWT68mBJPMenXBugpK6Q+YWQr5LqkUMyAkAm/AMnl+XSv7ynpfhR/k/lXkllljfOUm+5tsFam12IRV0UbBAgiv8269+LLn/gvU9+xBx+ZESYo3V1bN8UWXbslDb40Hzat2kC5wKwFED45q17WmdVbPABowNoHDZv26NkMVpAoS2Qv0mABEiABEiABEiABEigJglQBVCTtD2yLmxmVlxc4s5Nh8xZVOTWLawOerKkrvwpl8DL5/iFHF4eL/0rf8uVArI4L1qlE9EVFYHIopQs6pN0AUbdMQw0Slj9YbfffOmsH1/r3bPtlK9nnTvwjs+//F2pU+m1eSvEWgac+YbJ/PzrlMqbgMAcQOPnDz8LCyvWGhhmZyAJkAAJkAAJkAAJkAAJ1CIBmqTWIny3rvrfpeu/+GbWshWbjp/IhVfz5KS4vr3bjx1zpeIs/cSJ3Dff/07dB8x5xsZEZTVv0PecDnpr59KSslfe+uqSIec2b1pP3/Mff1mwbsMOdXh0dERSYmy/Ph1RtT49QmCnPWnKjL8WrNydfQge4JGsQb3UYYN7XXVpP2ubMvz464J166VaWmZlXjr0XMNi167f8dOvCxB13cgBipcHiI7rN+7Ejm45OafrZSS3aNbA0Gm8YYHVGwgJ3pG5ZpvJ0VMMNz5CDBaOAORcsmMBWQEgRyGh5V+pg460oVqBiGY1bJD2yH3/efCua26755XxE74cedX5/v6Sy8OS4lJ7aheT/Jn10/SJsdEAzmQRlZaauG+/ZbGASAnPgi1bNNTnUkKwrsIkllEkQAIkQAIkQAIkQAIkUN0EqAKobsIeWf6b73335kSLeJ+WkhAfH70n+9C30+f+/seSKZ880aJpffQq9/SZyV9VzK+q+9m0MRZg/7dli0x1IHykf/jZz9l7D7/96t16KPMXrYIWQB8e8IL/jf8Z8sBdIzVRn37x68tvfKWYJ8DYG6usl63ctHTFRjhp/3Tiw4GB0lJwzScxIVbsCon0F/TrYmgiPmHiVLh/w14PD917rci+YtWWp178FCoApTSoGC4Z3BvLwuPiorR1VO9vWQiXPQJWcuMvy+iY5lfc/Euz/LKMXknmt/wQqS3T/3Iai1yKf6VD+accKMn7Uk2WrQGlvknSv0UPIGqQOywSinJqVR3w+59LjhzJ+c+IAWhUQKB/44bpCxatwbKGuLhoGPBv2rp70IXdEXUqN+/4iVNy0y2fggLL7D0sSr74ZnbnDs0zG6SKOCUKPz+e/BtOmwHnd8Vx/z4dv5k2Z8eu/Y1kD3+r1mzdvecQzoqKQlVHISFB+JVz8rRhLANJgARIgARIgARIgARIoGYI+JwKID+/QE8WbsAw7YltvUSUv3+AeF8XPyHoYM8/OADXzGxj5jm/oBAewuzfeFxftRuGbNi0C77N0TBMwr/9yt2dOjQXjVyyfOP/nvnw6Rc+/fKTJ9TNDgsNwerrgsKiDZt2zl+4GlFbt2ePGffKrJ9eAzSF4fuf/oTjWXOWQkyCy3RrHT+nR5s2rZqcOnX6rwWrMKeKGdcPPv0J2oQhA3sqWSZNmfnc+Mni5+ABPe7671XYkRGiLIbph5/nj5/w1TsfTh9325X6KrBhG/y3YZ4fKad+P2f0tYM1abbv3I96EXjz9UOFKQFCbrj9BaRHYKushq1bNpy/YDW2iJ/201879xz44sPHa3LLd1lErxDsZSldEvIlcV/6B9sCQESXDsUEvSzI44fw2y8fSfK7LNEL9YAsvIuPnKVc9JeFeTl1pY+USQqXaxaVlMerFRCVM9XorwvO63Ljf1+cM39F104t9mQfhuJpzI2XYIzwvXRI7/c/+SnnZF5SQuzyVZuDKiuJoPqB5UtKctwPP/+dezpvwstjlXbPnb8CPgWwEeCiJev+/mf1y8/cHhsTidi777h69brtN9/50qgRFwHe2x9MG35F//P7djbscLMm9aE7mPLt7BMnc+umJmoUZIZZGEgCJEACJEACJEACJEACLifgcyqANt2vh2inniKGZL9y4SfLVm7Glt2xsVGhIUEFhcV5efmd2jd/5n83waIYm4d173frYw+Muv6aQeoB+GnGggcemzhj+nhMert8YGqxQMztCwnvnjuuUuR/tKdrp6z3JzwwfPQT0H2oAYaGBd9x62WiwZC4sCU7jvcfPDr3rxVixhU///xrOfQCOICq5ZPJvzz16I3WOggJ6trh0hQu1lSPvu156B1wPGvOEkUFgJJfeetrkf2Jh0aL+V7xEyIW8mY2SHvqhU8NVQBIBm3FHfe+joPPvphx3YhBmiUDMC5A36H7uGxoH1Hml1NnCfkf+8l//M6DUPdgInfQZfdBJoR1AATC/n07WeuL68NliR4fMXNfbogvFAHyNoBCEWDRCZSbAEiZpDSWCXwxry+L8tJH0gxIR1LZUjp5xl+uRqUrsBxKYbJeQDXTbymlvDhRpE5DIFdVAx8M6MfvPDR77tL1G3dlpCdP+fjxdm2aiHpffHrMuee0X7t+e3h4yOsv3rl332GxBYCIvX/cSPBcsWrzqGsH9T+3k9q+Y9CF3QZd2GPBP2u6d2314N3XiDl/5IL679tJT0Grhfl/6AdRZs9ubURpfXt3hKYsKjJC6XJiQsykDx6bOfvfQ4eO9+puSVYDQFgFCZAACZAACZAACZAACagJ+JwKAJ0fedUFEB0Nz4Pxz9x23rkdEYXFwJj7HX79E/N+e9MwpRcH7tpzQPQOChFNN2EavejP9yzTxUYIhg7q9eqbX2P2HpFHjp5Ukkz88Hvl+Lsf5427/ap4Wyb0MMS4+vL+QgWwY8d+JTvEe2HK0b1LK7X8ryTAHuzYm92odVLYhf26QISD8TZcCcz6c4mipEAUvBt8//N8HIy+9iLFDGTX7oOiqAv6dRbmHpgB7tKpBZYbIBx6jRpVAVjrlevCpY0ANHP/so4A6gFZ7BcCv6W+cu2B66p3RUnQAmCjPmWvPqVInLewGcFXhIiZfCXW379Oz26tYSdi2AQsfhHrXzSxKHNA/674asKhRcJXE9iudWN8DctnIAmQAAmQAAmQAAmQAAnUDAHuCGDMGXuDj7jyfMz/b9xcscWXcVKvC4UfPtGnCe9MFcK8uosm8r9I5h9gOanatbXMvsJ8GvbSEMxat5R2UMP0/uSvZ9qDrajIsjSjfj3LquyTp/Lmzl8p8o697QprhWARuLUoiPE3jx4qYj+e/Ks6GYy00baoyHAoiZRwZQ558dINIhBp1qyzeC5s3bJGJTp5al58pLbIU/XiQI4RXyW0PK0liZxTSS+vHpDn+0VBlh9SGfJheTVKHktpcqWWFKLqimaIwvmXBEiABEiABEiABEiABEjAbQlYlZTctsU11rDwMGk7cZjv1liNblLRRRdapkk3bd3Tb/C4i4c//PIbX2KZtD1bA2JuHI4D0RFp2Xy5a/SJH/2IELjfg5N20cfJX8+CGwXz/kLaV7Zz+8+IC0Xi1Wu3YSmBOG7RTPJK6MQHnvxSkuOREfbb+IoSZCdwknfDa66+UO0m8MbrhqAvCP/190U33/ny2+9Pv/K6/8GGHCFXX94PngucaIDzWVTivSzvV8zXK8K9FGj5YanHIueLX0LUV7dAl7hcdSC0BBaBv7xQoSMQNVTOqZSpqd753tZQTtj8Y5lPQ9mln/4z7rYrsMOFPpwhJEACJEACJEACJEACJOCJBHxRBZB/phAbeitfQ8kW5t8ffvYTFgXAM7wnjmtV2nzx4HNuu+lSUQLkbXjCh0O+a296ps+gOyEG60uGxz7s5wdP7Pc/9u7YB95AgiaNMz56+0ExFb9m3fZ/Fq9F4I3/GQxvAsIQOicn97vv5+mLQgjsDmA1gL0DBl9x/8YtuzFpDxfrPbpazLOPHMsRubAFYHRUxUJrw6KsBWLZ9k2jLI4AFUMAeHbAKQH7f43HB6z3nvjGvWLZAtzCvfHut3CXiJJxbjz96E3Wqqi+8HKxu5L4bSh0l8/fa3NYfkvz/0I5YDEHKG+zyGcR9YXkL/2Qo1U2ASJ55WZYCqy+3ldLybD7wKBj5wvD0q+8tF+Hds0MoxhIAiRAAiRAAiRAAiRAAh5HwBd9AUCO/Wuh5PVdfODEC6vKxfHPM/7B4vNtO/ZBzLv84j5wHedxI+qSBt9759Xn9mo7+evfFy5ai9l4UebhIyfGPTAhe9/hMZWx5J3Jv+uhN3NyTkMshzO/oRf1GnRBN2WXhPc+lkwAYE4v5KibRw8T3vgge8PeXuONDymxy9onk39TpvrvGzv8plFDlE4VF5WIYyWBc/29+rLz3/ngezj2gzsAKB0y6iZ98rm0KOCKi/tq7D5Wrt5y67jxx0/kIhZe3BvUT12+cjNQQB0w8san3n/jPr3HBOeaZE8uSeCWxX2Lb3+xBwBCZB//koCOf+WtAaVDy25/8jEySVHy1gCiFMs2ASKwonKNNkHI/AarP0Sl9jSaaUiABEiABEiABEiABEiABNyGgC+qAK64tK81d4A9urXq0iELoix8hrvNGNVOQ7p0zMIXEuCWbXvn/b1y0pczIPeiKRPenTriivNjyv0FIAS+A/74SZr813/gVRG+2RF+03UWMR7e+LAjIPYFhC39zD8WK77ZlLzQPsCr/ysTvnrvE0l38OXUP0aNHKQ450tMtKzLwIw9HPWrLfb1tZuEYHyvGznwzYnflZaWff7lzHN7td+yLRv6CLW6AdnzzhTccd8bQv5/4K6Rt4wehsAzZwrH3PUKTBugC3j06Q/fee0ek4qqP0qW6+3+mEjusg5BqBgsk/2WHQCVwuXMcpyBTkDKrNonwO4WMSEJkAAJkAAJkAAJkAAJkEDNEfDFhQAmdBPjY+D03lD+LyoqNsnorVEQ9Zo3rXfrDcO+/fxp2M+jm1g3sW7DTjv7CzFeSJNvvT9t6FUP4Xvx8EdOnjojssPa31o5/73l0tQUabk+NAXqZK2zJIeC4gMJ3Fp2e8KvGz4gLFRS9Hw7fc5XU2fjYPCAnvUyKq37WLp846HDxxGFcCH/4xinx8P3XSuqmD13GTQC9lTnSWksTgDE0MlmARb1gEEn5EQWlYFBtDcGwQJlzl8rxLYU3tg/9okESIAESIAESIAESMCbCVAFYHt0sXkYzNrVW9yJPGfyCmxn9rQUWH7/3Muf61sNU/lGmWkiPCgoQJ9AH4Jd97DAXoRjjn3j5l3iC0cAIhAeBOBlUJ8RIdiw/eF7Lb4D3/v4h/0Hj4pk0AvANkEcv/ned4Z5EYjt/axFKeEw4Ic/P/yENQEcGeBA2SlASaPUm5JUaYO31CRJPYEPpMGDh48p6b3gQJHmZdFf/lQcVe4fkspprMVXTu09v3bs3H/L2Jfn/7MGXYKdy8J/13lP39gTEiABEiABEiABEiABbydAFYDtEQ4MDGjdsuGvv/+j3iHv5xkLTSaxbRfqrimg7/h0ym/onaaBEKr3ZEtu8OHkD0vi7Wk++MBTIHyt/fTNizOmj1d/4WZflABHg9aKwhqBbp1bIragsOj5VyYryWAgIMzQsTvAW+9N02eHN4Hho5/Qh+tDbhw1BIMrwvv27pDVrIEmjWJ0sH7jLrEOQiT4469l4gC9y6xv2bBQX76XhSg6AfRLEf+9rI/2dAfeLr+b/Ez/Pp2QeOoPc+979G17cjENCZAACZAACZAACZAACbgDAaoA7BqFpx+9EekuGf7wPQ+//dz4yZdd8+jM2YvH3HSJXZk9KhH8okMYRjcfeep9bIuAWW4IezANuGXceLGNH1b127MC/9jxU999PxddH35Ff6gMmjaup/7CoWBoSDBi5y9cvXlrtjVCTzw8WmwrANrYJkAkO6dH21vlNfn4TJg49Y77XocpAazxoW7Ytn3vY898iO+dY66wVqY6HJ29+KJzRIih60eofsS2f+j7jbe/iPleLEz46rs/nn1pkiXXjRcrjg/tqdHj00iiv1oV4NkdKikpxR6WapP+A4eOwc0EemWJKijESpBvp8/9+rs/cTmI3iIK/i+wi+SRozlY1VJSKhWCE96zWbD1JEACJEACJEACJEACvkHA59wBfvnJEynlVtzqIc5q3gBRzZrUMxz31i0b/f7Dq1gAvHP3fjgLvGTIOdgrHqJC44bpGennUa9mAAAgAElEQVTJhlk8N/Clp28bfdvzEHvwhR8+fz9/IfyjRxcN6G6ndP3pF79h9h5z7HDmp0eBndgvG9bnS3kF/keTfh7/7O36NAjBcFx39UBYJeD46Rcn/fLtS0IjcM+dV2O5+keTfoEzP2gH8IUnP5gGQDbD3zE3XjJkYE/DAvWBt9xw8fSf57dv27RLxxb6WIj3b7w07ra7Xl26YiP0IKNufVZJgxqvGz5QszmCvoTqCIEQLjkAlHzvQRqHfz7VhgDw/a/+KXnvs8RKOaSdBKRc0nYB5fb70vYB0oYB8mYB8kcS8kU2kVLyAChlVHkdlOqtjq7VcJn7DxztN2TcexPuw04Woupb7hzfrGnGq8/dIaJGX3PRwsVrcXNYsmzjky988sPXL7RoWh9RF158D3KtWrPtrwUrc3PP3PPI2+f17gj7lBpuP6sjARIgARIgARIgARIgAUcJ+JwKAFvTGzKCRbe1KJEeCS4ebJkxFiHYPU6zgZxhyR4XmBAfPe2LZ7+a+ueM2f/u2LWvsLAYzvDatGp4yeBz+/XpqHQnJiZyrDzZHhZmsHtCQkI0YtPTk4RXPz2EW24YJujBswBsDQb079ogQ7Kob9u6iTrx2NuviIoKFyFYiIHdBHAMyfz+cSMvHXIupHds4nj48Inc02dQI7YeHH75+YbCvL4BIqRxw7rXX3NRn3PaW0uAlRFfffrEn/OWz56zdMfu/VgQUb9eSqPM9BFX9m+UWddarhoIL5ftIc2LaXlZHSBEcykOTRDe+y1yvGiSPIevkealTQRFbHEdv6jwkNDQOiH+coifpFiRdAPSF/9bQnHsj0M5FBoiKaH0sXRaDpXNi3RagpCAwKBAKTQowD9U7VECOgfYm8jbFeIT4G9xGGkpsfb+2ZV9EMtYoMmCV4iBl9479fs5/3vgeqU52LGypKTkx18XYF1A7bWRNZMACZAACZAACZAACZCAAwR8TgXgABsfTgrn/9eNHICvCQPsCzj2Nqv29pg+NcmLKPgXVGe/sF9XfPVZoHmxVguWZGOjPn0WR0Mevd/id9AkY/++nfA1SeAdUY0TYjKiI4ODg0tLSqQeyZI9PtC5QHCXpHxxLEv+sn5AikJCKYEcLeeSU6o0DeKnHpGypkAyM5BMD6Qk+CcgP79OmdyA2v6MvPJ84S2ibmpi/fSUnJOna7tFrJ8ESIAESIAESIAESIAEqkSAvgCqhI+ZSYAEfIQADBh8pKfsJgmQAAmQAAmQAAmQgBcToArAiweXXSMBErBNQDFGME+qrHQwT8ZYEiABEiABEiABEiABEnBnAlQBuPPosG0kQALVSCAoWJrYz88vrEod2BGgKtmZlwRIgARIgARIgARIgARqkgBVADVJm3WRAAm4EYGEuJjw8JB5f68SbVq3YQc2fXSofZER4Tk5p4uL3cJzgUMtZ2ISIAESIAESIAESIAHfJMDVrb457uw1CRgQ2H7kxKzdx8P9/eKDLS79JSd/fvD2FyB8A0p5ZOd+0kYAAbJ7QMuOADiCH0DL7gCWvQAU0/nyrQEKi0pC5BX1p4uKI0OCyncAkPYhlNwASrsV4N+y89IL4kMNmufyoODgwAfGjXzm5UkbNu9KSojFXhhpqQkO1XJh/y7vfjT9v/e+VjctadyYK7DbpUPZmZgESIAESIAESIAESIAEapgAVQA1DJzVkYD7Egjy91t/8ERKeFBkvLwRo6wAkAV97DIoDpXAMr+z8i4A8paEljhxLHYRrLQjgKXLp4tLxH6Bp/KLQwIDZJFf+sjbAShbApzF9oA19rl2+IAL+nXZsGlXclJcq6yGSr3Y+nHb6q/Vzfj+y+fFT3VUsyb1/vxlwqbNu5GX8n8VRy04MKCkFJtD2hj+0KDAAppdVJG149mxi2dBse01L3Ymc7x+5rBBwM7rws5kNipjtC0CTtzN7BwaO5PZaqBbx9vZR+Vu42h6dN6eOxVefoIDAgpLLPc9e2rBW1FggH+RnMXR9MiL/ZKV6qyNEMrHVElJWZm1BF4QHihvNWWzj3iNLC5/Z3DiivMCUFXsAhcCVBEgs5MACXg2gZTk+PPO7aiW/x3qT1pKArJDg+BQLibWE4BZyZDWDVukxAVIe1AafMKDAztkJHXLTDGIY1A1E0iKDBuQVb9eXKS1emLCQno0TGuezAvBGqHqDa8fF9mvWUbdmAhr1SRGhvVpmm4ygtYyMtwJAk7czTiCCucWKbE4V+PDrVoDpkSFn9+iXmJEmMjiaHrkwqME96uo0GDDwcUTCFfKwKwGkrli+adHw9RumakRqhB1XgjwjRJjBrfOlOwj5Y+j6aH+Pq9ZBhoG9YRhqyAYN02OxX3YsoWyYSKvCEQHB7Vq0CotAToRww5B4Eds32YZypyBE1ecYck+FUgrAJ8abnaWBEiABNyUQH5xSXFpadv0RLzlHDp1RtNKvBjhBQvagfUHjrtpB7y6WRiR7plpeGlumVp4pqiS8wsMCsKFbDl/2z6vxuC+nTuUe6Z9RtI5kWFHT+drDGkwVwaBClITWr8y+4j79sGLWubE3YwjqIz/wVNnmiXHpbQIBxMxIaxEQREM4R/aAZiLHT6dL8IdTY9ch3LzO9dPzoiL3HvitGTrqPrEhoUMbNkA2gHMMB8/U6DEHMnNb5kWjxvdrmOnNKcqLi5cfWFBgacKijD0ItbR9Mh1LK8Aj7+GidHZJ05rqqgXF9WrURS0A+hsaU2aSmraUSM/0cFT+UWt0uKbJsXsO5mnqRPnRsOEaGgHdqoGwokrrka64taVUAXg1sPDxpEACZCA7xA4mHsGL154kcpMiNb0Gi9GIgQvhb4DxH16WlRadiK/AG/emO3HV90wvDHjixBMyBw9XfHG7D6N94WWnMwvwgIZ2B5jtl/TX1hwiBC8JUNE8QUa7tBHR+9mHEFl1I6czsfNBPPqQm+lHs2MWIsh0okzBcLeHrGOpkeWg6ckwVLM9mvOlswEi08fPGvU69IwoFABiNl+TRaop0WIWnntaHqUgOwQbqH1wF9NFc187AkIeinRUPgEmKCANkRNydErTkPYB38am1j4IAh2mQRIgARIoHYJ6Cf/Ne2Bs4DjeRQya2eUbI4O5p9trt6snab7Rq14AzbvqM0RNM/OWIcI2KStv5txBAVhTALbVCaqWTmaHrXAlOl0YbH5gGpGEFP0sAswz6JulaPpUbKkdDCvQFYT2EriDfE2uwlQhyvf8Wxm0V9x3kCqCn2gCqAK8JiVBEiABEjAdQRg2GnuDvCQrQSuawtL0hKwaX9hU4DRlsjfLiVg8w3Y5gi6tDm+XpgTdzOOoHLS2DxXNawcTY+KNHPI+vNVUyZ8FsPcQJ9MCcHDC8b/yk9H0yMjfAHmnCk0qQJKiJx8swQmeT0rCt00d0ALUBrXiU5ccZ7FxOWtpQrA5UhZIAmQAAmQgDMEoKTHzIlJTpuvyCZ5GVVFApiXM5/k5+hUkXAVs9uWgmyZCVSxAcyuJuDE3YwjqAAUhvrWzijciDRPCkfTo2Rz2nlFxXozAXOtAZqkuUM6mt5mq8zbbA2Xh4ZrJvk1vdCjcOKK81Ayrmo2VQCuIslySIAESIAEqkpA/1xXl0ghs6p8q5BfM8elKQnrcs3nr6pQM7PaRQCTZietzxDanFWzqw4mcoSAo3czjqBCVz/HqwaPyXaNvZij6VEaJEwTozND6d18QPVZHE2PVpk/48wLdOTc9IC05mZlhqDM+Rhm8QAQ1dZEqgCqDS0LJgESIAEScJCAyUMaqzdzC+nMzEGgLk1u8oKFKJurWF3aFhZmQMBsgHxjCbEBlNoLcuJuxhEUwyWv9LZqda8XDh1Nj1qwsP+Edat7w7HLLSjS7IeiPrn0Y+doepR2NC/fxOG/Yatq7wSv3ppNOit5f8gzOD1MsvD9QT9aVAHomTCEBEiABEigdghgEybFz7OmBeamnrXTXB+rVT/NpQAwifIxSLXZXZNR0MsntdlQ36jbibsZR1A5NUzOWENJz9H0qMiwHISrdxzUnKrWapH2TFHtIGizF9bSQ7i15nHgpGrHQV+4gEx2MAEiQ0WJE1ecL5C01keqAKyRYTgJkAAJkEBNE3Di3aumm+jD9al3vdZgMJmy82FgNd11sTuavlYTuUKfmCGuIuDE3YwjqMC3pvO1Jhk6mh4V6a0JRO0mkqQ1rQGWFah3EFR64Wh6ZLSmZbBWlKtOVzcsx1qXrSFy4opzw17XWJMCa6wmZyoKSnAml3fk8VNpZwLj6pwt8Y5usRfOEygzc5PmfLHMSQJuRgBPfWXzZ6Vp5naebtYDb24O3r0y47V7VsPeFd6zvLnbHtI3eXe0/OSocE17za2LPaRzHtlMR+9mHEFlmMW+fZEhQZqBtyYWOpoexYp9+4ICtLOh1iRMZEEUHkZ+upPRmvmGo+mlKrBmJ11XgXXVgEFSbwmCjqZpcqy+N9bOAUGP7w96YoYh7qsC8PPzqxPexLDRPhcYlulzXWaH9QSKDteps1kfzBCfJYB7pPKRbpje8jF8/TL39uQtXfeAfuDdS68CMBwyD+iMNzYRL816FYDJG7M3MnCjPhleGuZ3M46gMn6Y2G+SpJUArU3dI5ej6cW+fXVjIjRnjMn1IvbtiwsP0Waxst2Go+lRrPDcGRoUoK7C3BurG53xLm2K8PvoX/n1xnxnRCeuOJc22ZMKc18VgCdRZFtJgARIoAYJQOAXMr848KuYk7AoAk4VlZytg0g8OvHFH/mv/JGaKWXAf+LYqvIAW+zAYVINdstS1dG8Arj9iwoJVledfSIX4TXfGNfXCFNFq8jtrc0VZdhblyZdblFxt8xUTeDWIye9ZHTkjpWdLfNXG+I5hKoWx0Zu56aDJ9rWTdQ0eeOhE+bbbTrUxf+zdxUAbSRdGClUqfcvdXd3d3d377W9uru7u7tTd3e79ureqwtQoUJpgeL2fzOzmWw2m5CEBALsXo7uzo68eW9H3psnMZ4Z7JCEKzAKpCjR16iWiHc3o2ezOEDBiPAIrDxGokqdndMXE4u2COC/r15BIWGylRubH5V8+OkjEQGEhIe/+v4rXLd304+/fSUiACxYbl6+siAh0dj8KPLF+0/OtCnEFcJCRI/sQ1fTetKjQiOIToS9hJ4GzPQKHU+vqdYE5OhZbkwYcWaCNFqrCQkLk9FFEYOg+wPmuRQRQLTSTGlMwYCCAQUDlsKAsOMi/zjY2SV1dFBx/nZ29oIsAKIA0jpZvQURABcLaEPlHRCcIrEGH66dx0IpvoEhEhHA9z8BaZMlslBz0VltWHi4vZ1U79RYABCwWls/1thKTM4fHBbmaK9xQuUXHBw3qMNw4vkn0OTuQHCWQEuv2GRUm1DQFttzTSkTHu1sIkzukQkwWLoITLVTJzF9NoCtRHRiw9jZLA5QEMEpUySWnpMb/lV4+QWmTkroi4lOUgqTj1NCB/xkazM2PyrRFo0FBIey1mWbQKK2uz6QWM8XZWx+NAE+ViIC+BUQpKcJXaDqSYeuQUpTaQTHhCkSRdPeAHBKRABAjn5UGDvi9GDJal85JEhgE6zfQjxyGYD1igCIX42Qn1aLfYsDBvt/fgoR+ssmIgbO4izex0gasLVxSK3KEmET4hVJ9jj/OswvzndR6aBBGOCHK9LDZNULabpBtVpVpvc/vSUnM78C4oQKgFVh2VRgPLz9soncAcA7l54TM1MbUcqZiAEcz4FDTkM5KHbhEYkmVqcUizIGjJ3NFApylEfYRGB6SeygZlW+eOvbCBmbHw0FhkJqFwEhOW/U9aePfppjQEkyvPf01lPE2Pyo6tPvP2WzpRfX+eGHvib0tB7bX0FNI9//Uol78em3ToULls3YERfbUWQy/NYrAkBUDhv/tyZ3LNYXdCphY6uSsQW42oTHw2jYdjYpRCKA+PwxxPqv2bgOBIbZ+oeKNqxY1YUKNP5VJ7O3wsvIBZ8GQpPA3t5eBAVOywND9MtcDaw4qtkCg5kOnuaenqrlRZtuXlT7EFl5iW9nCPVlnS1HVo3y3iIYeOfpIxYBfPz1xyLNKJWaioEPP73FIgA8mlqTUs4MGDBhNlMoyPEOZjiPyB3Ae89I+HNj86MhnNI7J1d70HT9FUkTWIx8g6CnptZE8NDhCID1wtj8KBUaHi7WJ8K2xjcEXEB8FOT5BAWh+7znME6MVORswogzwziPhVVYswggFqJTAVnBgIKBKGPg2uckRJWV8HwR4eEw2yQXauX3SOGPETBoU10kmC+9VMWFB9MgKpjFOauTWpXRzj7BqafvTKvKDKXoIR7j8Dmfr94OiBT7JW3p0fM3A1QWqwKnyvCilDCBoG3uHtmezGKAKBXLYMDTP0CciiMXmUxKUsxhwP2Xb+ms6iPEj78VGU3MEYO4ljB6NlMoyAkGnl8sAkBsC/20NDY/asMMxkUA2E/A25z+JvDW3cunUAYhZhny0+2KvsvY/KjLw8cvSyonVulv6B1ExEf+n3Q/whbuM7nzBaBFH6LpOxNGXKR1xskMUbVIjJNIUTqlYEDBQAxigNipS064qQyYnXJTnpbyw4QlJmCS7EKiJBfNaepPUpK2ZHptUSyr6iCTAjBMUJEA66EEXSydvIrFFw5zOPTvI9PMjMX9jI2gR6htdMnxVKDUXjc29ikuwYxTMpwish7FlFPPuITPqPfF2NlMoSDH+e+gYM5ea5v6a5PG2Pyo4YuIq9S229duAimuXmpNATFxZTObkB9F3omMC6AMr6vm+JAuNs2ADpohXTZ2xBlSZ9zLo4gA4h5NlR4pGIhjGNAQCQhsPxMAMBZY1V3igljN9Qp3sZwRJn0TdUEt8xDkH8yrH5VNqAQUMox/bEQC3wDhgMXfOkww4ti4ikp33FXWmPD7JTXJiUq9SlkzYYBHKTevF3EzQRfvqjFhNlMoyL4SOEf0CQhi91COiPTTMTY/KoSuIZTOWM2RGhqwbH+CIaURRBOGqEEZmx+t/Pij9jjgFpn1e6RoidUZ3ER0hy9PQ/piwogzpNo4lkcRAcQxgirdUTAQyzGgeXRNWVuhR6o7QSJAH1XH8owDFs7FkZ/xw5QtJvfMH76Rf+1s4D9f/SOVGVmD2fKTtuml6iFj+WkK+QliAgEhahTSO1qMZlNhMlZ8IvADzOCE+99YBXiswG5UgfygOoqJ1HVWVFtSypuEAc6WiM8STapJKWQGDJgwmykU5Hj/oIq3x6cd/SQxNj9q414GPXwMsprBksSd/HHi6oHK2PyoCqJVf+ryHd4K4XFVT+Vx/hXCQAAJ6KZfcIiBEmcTRlycR6N2BxVfANo4UVIUDCgYiAEMUE6WLHusbca4RtiSBNyTVBqKFmfC9C8yq7zikZdIoSwusjNel+sO0kQTLsZl84KE3Y4pHpqhRoUX/MsgIX+FHwmSTaATIKTv6b0IZpJkAh4iM3I0oUpDi+CEOXkiRxzLxCAMhsIaWT4LfTsxhRm/wGD45sDX5erlG1MwRIZyI95biDqAIKaQ89UngNknf/f1jykYjCBAZFktR6Boo5Gxs1nsoqDlCISv1/Wnb7GMaXDjB6MAA1oyNj++AUjKsqd2Cg4Lh11/ZB+j8B4a6WmSJEJ4PAPHl7H50Qy0HvL9LyWs3w1sQg/kBqBNT+lIXkUdvEgasLGBhz8ECYLrWcPbMnbERQqDpTNYlEaywCtaALJoURIVDCgYiF4MSCc/OWYVeSgfrroY/4uzecYAa7xTH98j2aTDe9KWSA3AjtybWFVUC4ohYb2kwImxQdl7NQYY/88S6b0Yn3K4FVEbS6z4F73fgUZrbvTwxxBLyxgE0sCm1Sg1sICObFZCHRq3LAhesLgCrQ54Y0eyFKt0CBh4ScqinDUMH/D/iKYWZ+I1SglkIG3kspGqYoJGxs5msYuCUgIZPHy0SSStygbOFEncvp8Gx7Y0Nj9g+OlHtO6/GOM48xPVTndXaShod0SSYmx+FGexBs3iCEAbq5ECrCeDeWvT0xB/xfwB6Q++KKnH2BFnCBgWzRP9WFW0ACxKUKVyBQMKBqKEAXaQjZmRHeWrHumJP3WQK4gO7OzovltQAqD5eRGqSGD8JfDaqoJ4NL4O85RQKQEIADBJCKmagAixBLnYI0uTbTXq4Efq9Fi23agk0oDAKUPCIvfPHJVWLFpW5rPRZC8NoYvqe9YJafSTBqBgT5Y5LGmMNK0TEUa+kKEOrYHNFwzt+gkUKWk4RNGPKHJiRnhdU2Y/IxFpweyyNGJ7ZdaqfgKJ8B8JkJZGlAmzWaygoDyBRPovhhAo0o8UXvoQF8ZwGhmbHx+Hb2AwdAEMbwL6AsGhYZgGDSxibH6AhHh48FPg4Q1FHhNHsSx1UDMbQYZMcYaPIFqtiXBGMjihBeDtB1QAIYZHRjBhxEUKhiUy6KERb86QQWQCbIoIwASkKUUUDCgYsDgGMOURbX8681E7AHLDlhdhxoTzv3CykglZ6KJGSuEvyadajAgDbQr3jmN/e0gWVBcecVm823oboB1n/aFooew/lQQID0Qfgl3USoK8EIQDDI1C7doI0bVw61vRdZXR2wWjXgYEh7z69osQNhZd9HPklwSBlFQaV6SbMPneEzmCXrTof2sOfH708gmCm0bLN2QOYFV1GEkdXU3LdppRhNMlxgn0zvO3cN6tqxvWmW4kjUALrVElM8S0+xrNBDJhNrNSChpPICBfD41kRxOKiAkE5vybr79BdKWZgLpvPv5GzU7vfvwmEQf1TquSr+j199+BwUbEQzE2P4B5/tUrPNwYIbhe6lBCyKxBWmmSjupEZLQNImicARXY8qm2gVIItZ9NGHHalVgkxTI0MgFURQRgAtKUIgoGFAyYEwNYk7Q4Jb7kYLIUtnjqrZ4wgcJfXzhdEuiFdY05CCB+Aag0gEoCTL7AYIt5fsmjydVGrSAzhSC95Tw95fPJBf6fJAs/liaYB9BGNRd+W9viaQOSJgjTuTWLiMCphYO94JMvamBHpbRfpQxRKR6tZT/9cXT74xj1JkGqmpl/C/XIfcV+wQlsbdX+oqPeoqk1+GZPbGrRaC/3wiuRV7DZ9jwZkwQUTC0zOuC1KjCMtqKLs4m+jkceQDv6YDGgpYBQuwc/zPY9JXcILJOejhGtEYSGImzCYoJAxs5mVkfBGx5JDaCkQVkKpgpI6UiYWy362OB03TGBpnjR9k+2RAZVq8rkZ2R+lPNL62xUE6SIkcuTsfmNa+Kbv8Nbn4TG9kFP/vwpA1MnJC4JJTQKCQt3sA8mBaN1lrMs9vTgwYyvvgc4vPE2J42iApvZlsOoAGHRsl++egYGBufMnlG7lRu3nlUqX1g7XZLy7+2n/0ubKneuzJHmtOYMrm5fz168U75soWKFc8GN07CxK7x9/qxZMiJxYvW0evHK/bWbjy5fMCRD+jTivojLIv3rN69+wxaOG9GlbKkCki636DiepeAw0skpae3qpdq2rOXoaHWf2YGjV3x8/Hp2aQRor998umjF7s7t67VqWo13B6Zng0ctK5g/+8C/W0r6KC6LV0tX73P/+H3xnIGSbHsPXtpz8AJLTOjokCN7pq4d6hbIl12STXmUYAAsLF1s8EeQVkMAwBK4oADMLsL40IKQAkREELdkuGeSBMbo0kJRXZwIV83Box4HYlgLQGDrKUysy+yO8//cLoDiThANaDD/LJ3WkD5xSKqExhwvcFwoNzow4BsMgxQH+ZeUYBBOsQv3wvctm9s2PHVCfS6g0yQKlm7KZOtREkUY+ODjYBNkL48SFXXk32qmsnklXaKw1InkaWQbQTfHymUkBv6E2N//QT27al+UQLiYsFg2i6SQUwI9gyg8avJhbfjiSwpZmGWxr0UgUErfFGdjkzZhqHMSPUfoytpk9EcVHG5r461DBq1JIAOrTpsoNGMSZTYzEFsGZQsLt3kTYSiN9I8gg9rTmymmd7R6gTPLy4NHrg4ft1K7qpdv3Lv9PdPzp7f2K0nK6ElrwM7pyfbe9Qs4503bT/z08tGTLQZfhYSEDh69dMGyXfcevAAYONvs2bXxzbv/TZ+7jUP17bvXmClra1cvLeH/JWWRPzg45Ol/7318ZeTTSAfbvHDWwBmTeletVGzuYpcJ09fHYMdlmz5z/vbYyWvBurO3lSsU+V+6VFNnbX734QvPv2TV3sfP3nZuV0dSg6Qs3n78/P3Nu0/aDQGfwMacaX0Xzhww8O/WHz99a9tt6qs3H7VzKikCBrBEsVVK2OxxxDD+nvG/mBLppVZ5t7Wzt2ePlKtiL6nzPujxR+Fnr3VFpTbzlBX1WuD2mX0CPf8X+wWgaKCyE3ajQq0a1cpnZxkMcCafmvzzHxVIiZ7QOGNmZKGQ3WPL5lQSjcCAmjZiYlBkS2ilktVoU0khjREINzortW9hlwZJpIOJC9OMbkEpEEUMGEog0owyxUUR2UYXFw0g6ZiRW4D0EIiSz+j2lQKGYEC9EEkXHplNgn4aGdKcnjxxXwTg6u7x7Pn7ew9fSbCwY/cZpIB714MdQ17df/iqWbtxf/4E3Lr7vEWH8QEB1qCcKQV88cq9CRJonH5AF2BY/7b7j1w+fe4WckMvAIKSAnmz9e7eWFJYu6y0ds3nVCmccuXICEEAztibN6ly5MQ/fv5WhBNw5hNnbChSKKcY6nnT+jo5JRk2djnkHUiHesjG7ScWzR6QMqWTOJtsWf3YyJktY66cmSBlgJoAvo1Dx67qz6+8lWCAigUELpbdENaWMbbUXT/h9dmFO3uSQuQI5IfJDTlN/6GkJAJAVGozT1mGDtpxGmVAJQAQQg5wDKlQxFCnNgEg6cplYQxg30R/mmwmfyats1cqPkayVVY2XpYkUCTUEcQBKhULRgtOEYU0liQNq1uWQOLhpMGa0P2xdJOsGl6WBzY+tmAYgXRPcQp1LPzVyBKIYV1NFc7f8xEkntwUGlk/jcwCYdwXAYDJT5Ik4VaXU2J8efv4HT99I1FCx7fvhZT+kyIAACAASURBVPNbqAN4fPvJ84Bbc//4DdrgkWJ598ELJYrlHTm4/bQJPWF08PK1e6RFojnDrbv/uew7t2BGf0m7fXo0LVe64ITpG9DxtZuOvn73EUwvWApxNl1lxXlevHYbOXGV7Pl2aEhY4sSOUIOP5i7rag6T3cgJq+vWKlOtcnFxHrD6C2f1f/HKbeHyPV6/fEdNXNWne7PyZQqJ8+gqK84DScqKtQdXrjsk3ZLY2ITQbylVymS6YFPSRRggfLtKJ4BxrTqkAJz5FwQBKp7YAv9yftsCdZtSJRMAMDSpWX8uHxGSiByEpRH0Er0A+qRc0Y0BwlqqLvE9SRPvvaIbLqU9SgERGqTUUTBkBRjQRyBl+Fg5gcgAU0ZVDBNJGUExTAADmo8BGsV9EcAHV4+aVUudv3T3s4cnp8GBI5fz582WIkWy9yrd7zmLd/QZtIBnuHH7Wc3GQ76IiuiiX5JEifz8iJ/SB49ew64eR766csZIOoQdIyesGjOsc/ZsUp9aYDsWzR4I1umv/nOXrd0/b1o/6MOLgdRTlme7c/9Fl14zypYsmC9PFnFZMMPQLzh36e6kMd0lCggxggfW6MZtJz59+TFxVHdtFr1iuSK9uzfZvONktz4zMzinGdqvjQROPWVZTmgQDB27/NK1+x3b1mFcF6/hh+fvaXM2QzMCr2Kw+9bWtHBaT1lSNcZEHCsDmJ18M5ZWUAkQs7zsnjLRolt6Tg4DAWYjIBybs8Nzg/8Spl9kSED9AcbMD9oNqr7wbgo4UPVawI8IQUwbgqKT4dTa6B8H4cHEgsBF+NFLrQdAuqp6Jv/SB8m+mOePg3ixji7BUZ82dQTQ1NQihCEyARXXwhYL9p73QyCwdfQr7kChIhAdQfLDB6mqAaQxgjiBVHSLO1ixqp6wERQ5gdj40SSGZBBZVb/iBjDAsPYUJxBBNKLUC5AWgYAHZQRZ9GMwC43MBaHV+WkzV8dYPTjb/+MX0K1j/YtXH0Dzf+zwzkgHd7pz7/l+fzXffeC82PzbtKbr1S63a//5QaOWPn32bvXiYcmdzOYu1TR4JKVgip83d5ZObevIajQ4p08NFn3E+JXQVK9ZraRRZZH5/OW7YyatnTejb50aZXjZC1fv//fS9el/73z/+DduULFKhWJm6UjUK3n+0nXZ6v3b1k2AVojgS06z0uED21269gBKDfu2TbdPoCEdi7Ssv39Qv2FEhOSycQrq5xUPHbMczgJevnbL6JxmxOD2TsmSRL0j8aUG4fAaOz5wsOwv6To250xoIJzdIZtqyeKcrioPRZXJCxrh90WfAT12jzHkiw7v1cf4qkQV/w/oCA6InMJWcMWkLkffKEoAFqUg5QyZizhQiQv1BU0WSh72CdMPk0WvZEmRuc6yKNjxpfIIcJagDiMHow5xbUYpQP9n1CFvyH5Z8BinHkLxBU8x1U8qeNE3fAQaESkAk9OQlQFk48uDyZN9THU51rVrIIFovwTaCONKmeKig9iRLEB8BJFRQ/dGfATRV1JXj3wNiw7Y40cbBO2GzXKMRoQsqlmO08hci1IcFwF8cPPAN10gf/aWTarsO3R5cN82YM+u/PPI2/tPk4YVb955Bkv+qHx18PEGEwOwi5evPrh0cpnkFD0qNZulLHzX37rz36mDhDWli6bMdfHqPQeHBP/e/u/ug5dlSubnOSIte/jYtes3n2xYOUYSF6B2tVIjh3QIDg59/vLDohV7azQavH39RHHNMkBYPikgMAim/t07NyxVIp8ubLx599H941dgY/naA1vWjOP8ZKRlIezo1Gua8//SIJgCiot7s3TeYAREgBOBM+fvTJqx8fjpf9cvH8Vrtny/Y28LYg6K9AJTHrYQwg3brNMvms6NdE9P9oGqj1z8tZs6WRK+Gm72+IV6TK1KXYlZ7lRg0I5z1oXigQAtJNIFXQ29WVpWKokUA8JHSL9LUWbcs4+T7rGE7xNyGjWfKZ6ireRDi7SzsSsDsE6RTPa9KsjZPaEOcM5nGKYFoJpvdK6esav7sQJaNgqoWFdCIwI+oxEZHZSWSGHyYdFYE0ZZrOhsbARSNU1pDCLO3asJREQ0IgJR4mlOceLpMTZiwjphVu2CyACSwbDmCKKMAbYJGpmVEWRhygrLkLB51W5Mg0b0tRaN2NjSLmp0SswdahkNqikFYAUA//aw+e/asQH4tEPHrqCWHXvOtmlRI3GihIgUCDN4kx34/frl277HtLRpUp4/siRR4oRTZ29B5Qg0cOHKPVNgNXcZ+DKYPndL7pyZ4AgA/u1xAI4Wrl5/jHvoQbDWIBa5fO3R/u3Tc2RzHjFuJXfyb0jZHz9/w8+f28evsoCD7y1eNM/GlWMcHOxZ07LZoi1xzsKdrh+/hoWFofv43bn/HEIK3MDzH4MBn8GQ0cubNawyfeJfEG2InUdEWjY0NNTT0xvyIAgLZHuU/n+pu3Wq/3fPZpevPbj38KVsHiWRcq900RKzrsID0kkqVXtnTvpobqr+z3XhqZI885InjgRAMpl0QftefZlUgxkLqXuk6iPFBe++GBEUNwSXwiaAHv+rt9TKt2YpDJD9F1XExCWYBBCVWfajG2LKgnL+hR5l0p2y5iXeK0vfKc+mYoBTJDwsTGSwIVCHMSyUOmKCyNKH7t6UywIYCA/THj6EInQQMcoI/9DG+W6ako2+oT/h3gIAxvcqGYHUkxszCSAo1yCQaIojQ0V7tBBSxaoLAGOXGBQkjWLI0sNC5eODRnMXcbqsYwEiI0JYf4TxwUBTjyAynGgu0QiKZTSKZmyb1hzBsfwmwVAaCe2qxphpYLBScV0E4PYlR3ZndBU+6qtULOqy74Kb+7d/bz+FYjwSc+bICJR/cFMxsUZOSecv3/v122fa+J5Zs6RfOLM/tOIRZ+7VK/c/vgFRIYm5yn778atvz+ZVKxVP6AiHfPif+ORLkMAO95Q5sHn3/vOMeVunTehRuGDOJXMHg6XHMTVrPdKyyAbL+U7t6k6cvkGPyCNhQod8ebIBS+bqlMn1wORhSN820MNn2AA7BSTgHhIKVickOLD7njyue5vmNRrULT9/6e4Xr1zZq0jLpkqZfOu6CV9//OozaH5gkM4YqkUL50KFcDdoci/iQ0H2caKn9Myd8a0kjf4EQQDlb+H5nxr/U9aX8v6M+Wdct8AbCy9N48RpvVZzSXuk5v41mH/m/48iCxfBI8OiIFuJD59QDPaRbqHEF2UVkQCpq6CFTt6KIGT3OvjMGOxJXGyaEwado/eEJuo7FQ9j5EYgLmIqxvrERouaUIxGdPgIA4kRTnMEKcMn+gjGaSOMIDqIBAKRJC4I4CARwpEHKx5XsBeeOX9bkzZjSlX5q9fAeQ8fv5ZFaL9hi8rV6IPDHvHbVesPV2swyMsKdrkEx2w6UxNJxc8LCxAfX+IeUAJZMXVkaRGbEzXHEJe5xASN4rohgKtH9mwZ2bfSo3PDHv3mzFm0A97gwbQjESIA/EVQAPhpc0zgEBAkf4Sr61MTj/nqVUqMHtpx3hIX2ALsWD9RV5HoTIfuvVj9Hofey9ccqFS+yF9dSdg/yDKHjF5Wt3aZlk2q4REYQFCDOYt2Vq1cvFXTavrLsl6Av5gytjtMKlDP5tXjEFxAu3cIx/DipSskBdqvojmlf+8W4hb9/QP/e/mBJx47df3k2ZuHds2CbgiyzZrc+9HjN0PHrji6Zw5USPSXZdVCxrRp1dguvacPHrV0zeKRElcCyINTwZNnb8FhZMlieaO579bfHLhU6QJEuVdcxF6NmOTSR6KzRv8IL8l7YXtBXtDc7CIqvKp7Icnof4h4QdQSqV70aHR15iog7rwGPALHT5DC8UPSFObfXKg3pB66G6Y0wDqv+mRAAvoh0woIVyP+kmk2DRUNyu0Y0piSx0gMCNQh84h6OLOpQ10TBg2VDIAmdE5hxhrWMPaN7G3sy074SdnhQ8lB/ZvQQUUIw5YMQhY6gJQrmjBAmHzt+U0gEKMEIRCZwOg8J5BGRCRGOQKuVcxysNPs2mcmjoN6dWtSsEA2RPUaN239ygVDc+fKLEYperJg5oBGrUcNG7dy75ZpbI8HL+Ar1h9Yt3RUurQpown/kTQjswBhdSHjhcxlEVCkpDMfWZ3YTz2x0TEmrV5NLOkb5dlEDMjNcrpoxAeU0JYsjUyEgxSL61oA7h45VJ7wK1coCnf9OLLu2qE+wxheYSiATcVj1iz/+/jpO/MOCJWeC5ciV+avWrFYWFj4wuW7mV5953Z1MGXA9/uzFx+iQJFoKjp70Y6g4JAZE3rz9np2aQSngHBcD0UJA4HAAenCWQMgVug9aN49lVeFR0/fbtp+Yu2mI2Mnr23UenTBAtmH9m9tYIUxkg1WD5Nnbpo8tgf8JjIA4NNx8dyBsCKZvWCH4SAVK5xr3bJRN2//N2TsMq4VtnnnSYQSgMVB4zZjTpy+MXNSL6tZKgzvWXTn5LsG0jBnYuk9+4N/8aOaHLjI4T/9ie7ZwXgU/5L6YigEgJ521f1la7m4+4BYtYjzO9UNeadclsYAZe/JRfVjVWdi5Ia8EPxoizVmBYDYhlnYlFkayPhaP6WI6BJoRAjDUynfIuZMKGXIfxo/msMqGJg4RkyBEBrDR00dQhqaQ/hL/iGEEAgUx3Bhld2REkgwdBKSGV0oVVSkobd0CLEbqxs1S1cfwJEYXFY1a1w5T64sTRpUWrFgyPVbT7XRj83b3Gn9Hj15A7Yfb2E5Cw9TXdrVwxGgduaYSRFGhuYCxEaTahhRtQ1CFfZjdKGzm3JFDwaEwaKxSdBBI2Eo0bHDacSGlllgjctaAODPwd1lz0oMAXBhB9y9U4PN20+CZWUpOODNlCHt2/ef8diuVe0TZ/5t3mF8qeJ5v//4VaVi5H7scXI+d1rfWQu2n7t4J3361M9fulWrXKxBnXJjJq959vzDgD4tUqawoiDw9vZ2g/u2ZkfQiPaXJlXy1UuGi33XAz+Qce7ef+H1O/dsWYmWBL/EZZGIYIqoCp4UcI+Afzj0RkyEJ8/eliiaB+lI9PMLxN/CBXM0aVi5YrlCVsh7VCxfOFmyxKyDr966QwOibcsaoh7blClZYPGcgYgZCVylSK4R5UFcFkXq1SpbuoTgRrFC2cJ7t027cPnes5cfypcthLfBQSHBNiFQLvi7R7PyZQvCKYC4FWPvA2ySBLF9J+Xm7CII32sXTnlhcrCFv5DxwoUdOSuxi7AnfHIEsXQAI0vOGanEj/HK9NhE4Ak5b2hvaxX2bHJoAahsheI30lxaHC71uxaFi4kVNCuIYS5aq4+Rdi+GAY4UvjiWAWszkwizSY98rLjwQClHhimXApDRSBKo2zOi6cKcz3GEsGWeFYxjWIqp7mhQRzWWGH0IddguCxgnB2WYCckbpNJ5hNxoXlGbXGIKBdbdLnCqHj5kZDC3gAz1lAr0opRiLCYZQSSBDB/CZWpQKYoLgHXjKqagUxGITFoqeTODRSAQoQ6b9+jA4eOM0ohRL6Zgl2kXu/1Dx6+MHNQhVSon/hqCAPxkctvYIHJWlw71Vm84Aj5i++6zOC4aPbSTbM4YSQSO5RcgQgnK5UPLhtKEzl9kkRHRRPUYI6DHm0aBc8NpRKnGdg8MQWSWIxt8PrmxedJU7Nl22HLG1LL6yhXOkCZ3uhS6cvwKCEolCpzG+iJ0ifxDZveamf3TJwnVVYMl0hE2778XH357/ylWJLfh3DschLx++8k/IDBXjkwsIgDiw7164waNgygFCHQqYWPnKHTT96FNuE4Lc0ugwjrqtLNJwWMNhtt437UOqGISigfv4dCQrLv0wjE4FQEgeD2CxtMbdtE71R+ElEcBIaeqJF0EyP/04jdPPnuuu+2ePolDwdQ0eKEqO8oL9+pEoU7ySshIFxmyHRN2BqL6aTOQmgcGOyUkX7Xnn8B0TomEVNU/fE5jCeo5Ds+qd2zdEkqQB5ogd0lqk8sSSVqhDGkKOqfimdDSgYdvIylj+dcqosm2pGZU/IPDkjomYBThWUER8cpRL6tvqoRhshUpiaZh4JGHzb0vdBSwP3QEkaqEoUT+CQsPd0hAhe/kiQxheq8ehvRNeNvcxIWK8Jbk0LhIGZ3fvjSz8swwcPaNzUcfjlGBJBqkUpHtV1BomiSJWFYVATVUJrFHKZ7GL38a+S0KN0hSMG8UBnyCbPY+ZWMF5QiB2D8aSZRuvwND6B6SrWzCECOZRUKAzEkCKmXWad2p0Mgo0vDMG+6pqSEQCWSiROGPuPcJDkmRKCGb39gIIjWo78hTjUx+ztG7ydfuMnw/d+87+/Cu2Tjbv3j1flBQcOECOfv0bKpHWxMqAy07jf/0+QfEuUd2z8ZWX7vamEp56Wlz3U3fAqRJo1BKI0o6FWnEIwiZq2T0y5RU6gExpnoXN9p989PmqquhNKLyaEoiFY34Bvv6Ow8vf3LaKhlWaiwZsAmOy1oAxn4uONAG829sKVh3S0rhaL2EYu9tLB6V/PEeA2wN4rMWnfPIRUXTwr1wIsfS2fkPx5umREBzs2EScjW5MoBhhjpNAkR3Icl6LQIQt/SJoVFDnqKuTmEidaPWtDfQAggLB87ptyIc/zMxGasPhMDnjL0jpQ/JQ9gWXOzrtb4vzDQ0WGkpekLGtlDANB3RwsVGAlIgPSUUEiYTYdqh9CFJKMtuFPmLhUhMfAGQ4UOQTS9gGn8EQTOfxyh9qHsASjk6kshQIo4bRFIACwEZn6sVCKSiD12fKZ2YMiJfv8lBHijCBpZq+SalrAt5bh+J3eu0uVuSJU3UunkNaLBu3Hb84LGrh1xmZc8maBBLIIaX6+ED2/89ZAHiYVsV/0/gxOKCYyLdC5C4L4xAlGJ0nJFLGT0SalvgMbJNgkaTgtsgTiMzT3CKCMACBFaqVDCgYMBUDNCtuUZhsp7xJBGPJD3GobtGWlSzvMmQkHVRvWFhm1JTKzNzOZ0LtQg/4ibJFk18SVBsZujib3V030s3vkxLFvfQwrEJJxY5FCsqQuCJf9VsC2ZlW+O4SENQg4QAAKZVbAvlSPAjRCIkoVMN+8voSMeNmjQC/0+QY55JJi6iOQp94nwjkQFwCQ3oA7sMDS0MMsLIe04FRiNCQ0oblq7QKAq00FFUmN+AZ2EQqaY0yG7IiaVwCey/QCA+ggQC6ag7BpKDg4mCLcQX8GkN8R/uoepfs/HQ2Yu2r18+WhYguNZeumoffIrfuf9i94ELHVrXls0WQ4nSBQiDxM5OvQABKjq/0YFCBhEVn4kutnSJJroY6kfcbZYsQ5qbBJ00EnYJ4u0bpZw22UxFlyICMBVzSjkFA9GOge8BISGh7PSQ6uZDiRgTOAwB7KjZP57pfzb23DkejX5I8rA/mEoY80j/Vc39/CY83Co0vhhcZJJUXRpTIH8hWbtoZrGaQFTpg6VRc3XUyXhHtSXjy8v1XYwuTl9tZLJsyhpvPNINKMFWd2GDRU8phY2xehOm2gHQj4uQR5ybf/QK92IAto3MQnbHbO/Fd1FAP9n2E2wzStAq+bAnpCElMPLZtKN33BkJjpJdBgOEQBTrdGzggXKVkADATw09Z2Zl8JpSktKGX4RM1CmAclkMA2ICCawIEaBRMlGhDf2X/KEsJv4TBhZeCdRiQ8liEBpVcdo0xJN/3ZplGf+Pe5gAlCmZ7+GTN7rqmbN4h69fwLG9c0ZOWDVr/vayJa1IF4CMHmEEUTIwchABmrAAESowfUbOiNJ+Io38Q8+Ylb2BLtKbKZ0uQ2wwqGhEBWhaNBJoyCc0SiNehJBaGHEmA6aIAExGnVJQwUB0Y8A20NM2hHjsEzh46tmP2v0TEQAxi2Q+AEgqTbe1hZsA5Gf3dDkgRehFt1j0og9kl5tKmQ8YRpS/CgZMwgBZk6Hlj9FEZW9ksaYOmOjxElng8Q9WbbIDoKwL1wRgo1HYhpnUtFIocgxAB4BoARBRHqMOIQfdezEeBjMh3VRhf0YD0dPjMjI7CuRSb78ib0vJYTwGCFfChg8oYUcowMgj1CQ+ZwaBCPFAHrY/ZptjOqo4sYwHQCkRKQY4gdSDiIweSgUVgejgIhfdXGgSiJDHiq7yZQohvB9cgIlh8vMPTEdFA9rXxSv39xy4uGfrNLj6QnQAxAhE9OiDO2c6wvOONVwyCxCf4aS6AIBXvRIJm0E6fHDxR2voVByDgSwvkk0ChoqdWArAekzXIzrLsd2CmCgk0QyXpm6VGSpUqlAwoGBAwYAZMEA26nLrEJVfqC9pS6yYmf5K2zJTtZQJidpPs9tSOKVIEZ7peq9cFsQA3fdSZ/KwOqdBmMiWikdoYvgXqEDXdglFFPpYkDg2lCD4Q350DyZQh8cEpJstYX8mJY0lAVPq5hgQEQhkItQgxhssjgZ5IqOJMi6MfPRW4xLSFZRaCAOcQPRGGESMQJQsagKpyCchkIXgMrFanPkjqNPeQxe/fvNiVcAv4MPHb1o2raZdI/KMmbJ21JAOiACNt6lTOS2Y2f/la7cFy3ZrZ46RFDo22AIEt7NkviNgUPIIjyoC0QmQDijVUFIBrIwgy5KO0YjQBn6DRDQiCexRTSOVoFNKI7NBaB2CK7N1R6lIwYCCgTiFAbEUgC1nku6B+7VQh6mOhbpy3FmuLQt1wWK4MQO8r958/OH5q3KFothy/frtq12jo6NjpfKFWfp71y9ZM6eHx1btbEhBDc+ev3/z7lPKlMlqVi1lgldX2WpNSqQbYyLewUYKnwwR7RNpD9lr0T/kIyYflXBDX2lcwnuTGlcK6ccA2WQJ1MEpMzuzBHXIXphqVOI9IZL+YQMK6s+gHwblrV4MMDUN7JLpuGDaGVTZlQwdyrSokM8eKdUI/WLd5KwXDdb7khKIDBmCd5XxP6EJHReEKOrRwSY54ZkMLq5WY039WzBjwKhJqxq3HVOvVpmQ4LDT5291aFO7Z5eGEhghNRw+bkXxIrl7dFa/wvqFxy07T1WtVNSQUOIW7zdGjjDFoSkyfOgCRCc5Nr9RatBFBn/ogBKTTFl9LE4huvYzlzSkLf004rQSVNLwzCY87Y2DaYDHaxEA4vlxrMGxvzYGw0LDg0NJUHftV9aWcv3m0+s3HzOoHB0dnNOnzp7VuVzpQvb20aHo8euX7+oNh9u0rJE3t3ww1RhE1849Z9F65/b1LArD8rUHCuTLVqcGj2Jo0dbiaeWSjTfbEMZTXOjoNkcR1nkJuoQSVoM1l73nTl+4dffKhtPnb7987Qrw/vwJePzsXe5cmdOnI0qYyZMnYyIArJiDRi7p3a1p8yZVJP3+6eUzZvKam3eeVa9cIm+eLN4+f4aMWY5TnXEjOuvAkGWTgV32H5ohu2K6wFNCCCr/Ah8j7LpUnA7bkqlA09hFWxbeeFa7iDqCj0ayB2YDRaAM2S/TXTEuFdOixV5aZhC5f/y2YzdZrcRXwQLZWzSpKkk8euL6j5+/e3VrLEmP9Y/0gAyIxwaX/EvNZ+g/Aj2YLIB0U8gpP8kJ9Iv16LDGDlACUYIA9+BkCI2ouIaShDxIRofwSAqw/rAEHZRjWaL1Lzz8L5s35NnzDy9euSV0dOjXu3mObBm0IfAPCBo6oC22eRJhE5QCatconTx5Uu0i0Z9CaUD+I4TQWIDYyBL+si6QrFQuIwOntRFJBsTYmkQmOBWNaB/4JkGWRnRMydLIHAiI1yKAIuW7w4AnUcKE/gGBCeztnZ1TlytdcECflhmd0zLcjp6y+vXrj8f3zzMHqi1bx4NHrzZuOzF6aEcclHn98r3/6NW8xS5p06ZYPn9ooQI5LNu2jY3vH/8tLqfKlS1ohSKAE2f+RfctLQLYd+hSg9rlFRGApb80pf64hwHOruMkv3mH8X16NGnZpJq4m1f+eQiVgfVbjzVrXFm8FkKG27Lj+KRJEx/bOy9XjoysyIQR3TBvP3n2rijV1Yz+i/EwjG+heyuyy6JcDWM2Vas/2WOp2E3GddJ9G80l3UULL5R/ooYBuuMlZ/yMImTvFaFiLwmJhNNmJhMAfWiaji1y1CCRLf31uxeWUTgYF0caS50qOTK/e/95/5HLfXo0g+4xHq/dfPT6zacYEQHAIe2iFXvq1y5XvGge2V5EMVHNwIBMlP1nB5iolhCPciZUEKBqhwwj+r+KshbbLUexZ3GkOCMQHUSEJmwECROZcM5PFQHoYBNoxec6EQ4Yj2klSAH8RQrlxE8PPMmSJkYUQO0MDg4JZNO1c0ZPCkU7fmRmowsQtAKI9pyGIgCZ3TQ4f/XIEkNpVUSKHvRFSyucRqqJLBIakYEkLEaUkua74rUIAGjs2qH+2OHkvMjbx+/h49fzluxq1Gr0oV2zmBSwfataP3/6mA/bFq+pS/u6XJ0B52O9Bs7tM3jByf3zUqYk+wblUjAQlzAQDVs9McOJeTcaWoweApFtXOy51m0+2rh+RcjyIAuoUbUkB3z52oPffvw6tnIM5//xCr6d5k/v7/UrpuZtAbHUIJMekBHehLCd5KK3bLPFnulejeymyY7MnCt77KFuNELKPnu+/SLUIYgnhGEHz5RCWseYchAim4WGUN1aZbQ1it0/fYOIv23LmkwEIAdRNKWFhoYCkmxZnS0lAuBsJGcfiXdGOoIIxsl4kRlBQnrcmaKjiZzGN0NnM5HAhTKcLJFIBdiAErGOwghjE52kOQsNIeM7FXdKqFBKFyC6Z6HLC1+A2GrDUslwohSj40tZfqL7K+A0Yvy9hEaAhi5P9A8VqFmCRvFdBMBpniJ50upVSpQsnrdZ+/FDxyw/sGMGZHtlSsrI/KL7MzG1vTSpk0O7qW7z4TPmb1s0e6Cuat68+3js1L9v3n7MmDFNpzZ1+fnDpasPTp7719vbD4dpf3VtnDSJ2lDi2o3Hl/954OHxE/oFndvVTUXPJdh1+97zA0euBAQEYR/TtGFlnu7q9vXAkcvvPnzJlDEt9jHWoywAT7B7Dl7E8WOSRImaU9vtigAAIABJREFUNKzI914QoGzbdRqOXpIlTdK2ZQ24jeV90YUxZIAm57bdpz99/lGiaJ4enRtBwYyV+uMXsHPvObSS3ClJ7eplEHiW16bcKBiIGQyIdmkxA4Bhrd5/+Orp8/crFw13df+6fstxLgIICwuH1nSdmmW0JxNYP8HJk2HVmz8XzPzIWs5YFmFLTJZv2pLwj/lbVWo0BAMgh5g6bOtLuX7CWxLpjDXykG/fffqHWvmdPnc7ezbnRvUqsL5iWdm68zSWlcyZ0vXp0fR/6VKxdBgtHz7xz+07z0NCQ0uXyNeuVS3mRAOrM9Y7GDMjmHmOrBmhU3P89I2sWZwdHex37buAJa9IoRzdOzfklo/aqzZOSo6fuo5W7j18mcDerlG9SkmSmNtMkshWVJtdShrqUV7NYyqsiiFfugXzCNwIm+IYYWgSJZqYeoS5FFyiWBAcpWoJBkRTHBPOCFw/zUZMbHh+MryUK/oxoLEMMTEMIY16kyCikjCuLAZkdBiKWwx481eMOB9D+rb+78UHeARB7VPnbOnaZxZuevSbM2D4YnF7I8avdNl33vwQmLXGrFnSw0T2zIXbgUHBshWfu3SnRYcJr9641atdNmmSJP1HLH75xh05YT+/bM3+bJmdc2bPuM3ldK8BalOIBct29R40D3N9gzrlv/3wgqIBAqiwyo+evA5lxdIl8mN3PnzcysvXHrB0hFFp1n5sQFAQTHkRna55h3FoVxaeaE784ObRtO3YYyevVyxXuED+rItX7gX8gAF2Dd36zPz2zQsyoB+ev/EN3Lj1jMGmC2N4+/qd+8wF23Jmz5Q9a4ZFK/YuWbWXFfn46VvDlqPAyTSsUyFXjkyjJ62es2hnNPdUaU7BQCzFwLotR2EXkDZNir+6Nrr74AU8/7GOuH38imktf55s1tcvsh0me2H6j2SXRRJpsvWBHU8gUlGEEkH4w7rOSEOEAarLOsiE9ej7j9+A6cvXH5+//GDA+fkHjJ64JlEix9Il8x858U+/oQtZx0JDw7Bgrd9yrGyZAlUqFd2593yHntOgvY9S+w5fmj53699DFn5w9bh19z+kzFviMmvBNig/5s+Xzdk5FZatxcuFZUt21UY97p++o6CXl6+b+7fQMFKtuS82coRxwjfIaIUNHBX9zN2sUp+hGKCnxipyULoIQ0Y1gIRZT5njDMWoOfMxyqgGkZoUAjXYmkQoZc5GlbqMwkBkNGKDS7wSGVW9MZkVLQAptipSH9SQl+MQ2/ePH3NVDf9Sk2ZuBMfIDATA1J27eHfiqG7Swtb3nCd3lgtX7n3+4inWlWVg+vsHTZ65CY5Mls4bzFJgR7B285HJY3p8+vKD6UEgHQfag0Ytff7StWD+7HDWhYO4aRN6dmxTB69wjADe+Nip65XKFcFjlkz/gzMC3LRuXr1Yhe4Xr97HkZ2Pr9/4aev+6tZ4cN/WeAVMOjokmDh9Q62qpaGyG7MIm7Vgu30C+4MuM9m5R9f2DUZNWt26WfU7916MH9WlIu0U7C0btR69ffdpeCbTgzHkDAoK2bhyLJRHcP/qjTu2UMzGZNLMTZDFrFs2EuIPvMKhJSRKkIYUyJstZrsf/a3jSCCAbkZhg+tPb6z5CgvTWCVhrWX9MHN8BoeH2YaIVPtoV9gemtxQ3odFBbJmErx++/Hq9UdnDxPxKyRo85fswvyzeslwPELXBn/TpxdOPnGPqebN20+sO0mTJc6fJ2v0d43vrIBf4byFIl3P+TJ5bwkNv+jvvPW3qNr3UpwzCwBq0yweKKqzmJjqDb7wIyf/4a3Pm9avRLG8rbz/nDl/G+p4EMqzVz4+flPGdU//v9R4hHL+wuV7IK2GIsDGbcdfvXXHkGEmA9UqlajVeAiOK7p3aoCcYWFh29dPwFEHr9/ezn7DitFs2cKYunrj0QSbrrpW7ZsX1g0b0GbzjpPQ8oPPAkugCKRhp8mMKIQ4JInMV0T/nCo3S/kXOoIsAYxSpzYGxASi6wgjC5IF3Q1+oy6rEEgbj5ZJ4VsWNlJII2yyUw0RGepYBhL9tWK3jONGj6+e2bNlyJMzs6zbckgztWMAwQEQQgVp5w8IDHJIgEs+ZpB+YGLqrX4aqd9SKtKZz/yXIgKQ4hSLKHTbfv36I34Bhm3h8t1QlpswqgvSt+8+17hBJbECvLQWq3lOmYIs9gkdZQh9/dZjz5/eYpdC6Dv4f+QH7won/y/fuMEQIHFiounn8fUnRADHTv0DnyhwkcD7B8a4kk1hKMAjBWYULB3jM3Pm/2FM4vHu/ZfQMCxcIOeL127sLWwN4LDw2Yv3MRq7i3h/gGkxXJFxvUeIJBbPIRYTtaqXgi4lZihXNw/0N2eOjKyDejCGUkUK5mIbKdzDVPLte8KN4ADn+s0ng/u1fvX2I+s+3DvBQODa9cfxUATglNiRIcE/ODRJAplvkr21kr8aAgAbm5CwcOuHmaMO/H0SKo1iF+N9yGaA3jERgJ1F1hRDqSfdx8uVgwoAZgkoELHZAyJF6DAjQCAYoSyZ/4cSMEfi5XAsuXztfjw+f+WWLYszhJhyVVo8jaFagyUh2y6Bh7F480oDejFAmRHRdopQixk2aw8GS+269AJoU6JYHiy1PI+djlGawTkt4/+RE187/gYGEl2/U+duFS+SBwp6+LFKcAxw7cYjJgLA6iPm/5GhWBHRspUlA2T9SNSzaufNnZnDZoEbOjtpcPRUmCZDCmF6thKWxgKosN4q5QikIUezXtDjAWR0YdUUKhOCIVmXMTkdYtrzn2VwBd296XO3HDp2DcbX4P8/fvqeMkWyRbMHFMiXXdwgHPrOXbxz1+YpEijgxB1e27etmyDh9pu0HdO0QWXstGWhhk3TopV7njx9i3Bp0FMeMbg99Aplc+7afx5KVdjwZ8qYrn2rmm1a1JTNFsVE42lkKSGAte/Co4hoE4pD8gQBVc7sGkFBEiV0bNeq5p4DF0cMbhcRHn7w6JXdW6aaUHn0F8GnjJGWOdP/wNK36DieA7B/xwyMCjxiEGpDtWHr8aWr95Usli+jc5rPHp7IAKtC/EUR7LzZabZ2KXEKBHLs8e37z7jZe+iina36zB+e87XFePorjPpb6PlD55/V06h+hbq1yuEeSvvaNUMJAnYfkI/A0StkAdDhT0X9KerBmKQSR1X333/4gleQArx4KUhA8Fi1YvF06eQnIG1g9KQ8vPf4189fiM0L3NrZ26ZOnapQsULJkllFcBo9YCuvFAwAA6Fh4XyWkEUIhiFcABbOn2PSjI08A6biDVtPzJnaJ1uW9LiHPvOgvq3YW/hz3rZuIu77DJ4PIaNsndGSSPkVzW2yTLuMGdW5LZMpoSRFEQN042UYdaLYUhSKlymZX9sdoP76HEQifqw48MWzfPUBXiRt6hTZsqbXXwN7y8UNMbhqU0aFgkMZGX1gE2pGlkdfeeWdKRgwgkBC9XTEmfvCRv3E6X9htIsDlWpVikez3y74w8KeUBJBAGE7xLE80GOosBUumNPPL+CX959i0ROhho4JJuQn/+ofQSynBajDgND+C/6/TedJXr99XTZOLlUiH8sAhVnYNLlsniyWTsIH8J37L6B3rI036GhPnrVx9pS/xfWL+QtJu9gM9Og/p1fXRoP7tnr+0g0CCLgyOXlgAeLBSXLOX7pr177zMyb1Klk839P/3o2ZtOb128/s3Fe7Lyan0GUIFzmIIVeM0kiKApN7FWcKPnr6Fqbs2oH0OrWrC0e4p87dDAgIxqjOlyeL9XcZ4w1ODcqVJq7soLNw5fQKMcxOTknw6OnpjYNucTqsbWEiiE02E4D9/u1bulpvlsEpWRKETjWq42nSkJhGk8Z0z5wxnVEFzZ55+MB2+PFqcZZIuv/TW7uhyTM3BgYGXTi2mIVXmDZ3y+27z5FNF8a0a+ApcMqIezhkatW0mp5spr3y+vkrwD+gco2KmP68f3s/uv/E9b1by/YtENvWtAqVUgoGLIcBrHzYt3FNmR+ev1IkT6anuU3bT5Qqlk9yDoBFesvOU9BGhspS5/ZkTsZGwapiMtEeae16hQSVFoag7awoMOuhf3S+onQh3sxUf6OzcbO2hXP+EkXzzp/Zz4Ra+V5Uz6oNRVwTao5yERGBRMI1rWEW5XaUCkzGAKELV+EQJjqTK9NfEI4w23eb4uPr36JpFTQLW8uGdcrrOgHWX5Vpb9duOgKrmWtnV/LiDx69hiuoQy7Edxi7EMi296D5N86vXrB89/sPn8FzmtaWeUrxBYgSifKfjAE1T/UG1rJlx0now54+uEAsK4HWLRQBgC5IP1k92JzD4zhsZtdvPrpqMbH7E19wp73v0OU8uTLD5TZPt9WhLYUMMFyaOKorWsF9nlxZoNo8fd6Wa/8+ql29tLjar9+8Nu04MX541yYNKiE9U4a00F+GvKBty+oopQmCZZ5kaRS5gCBKwMSwMXaUYLdAYRz5rli7n3jRq1JcUn1G57TwPr17/8Wde84xnToLtG/OKiHImDhjAzQaJozuKltvofw5kC72zIfuHzh6BUIQpFevIuO1HpKR7z9+QTLHK8Qj1Oll62eJRQuR6Nz7D18S5zl64rouD4V6qjLvKzg7hERD4piQwfnoyduypQry8Iq8XV0Y0wMYtIlgk3ng8GVxnqf/vWf6lnoKGvgKDFWaNKnTpE2TK0/OilXK+f3x8/jsYWBZJZuCgejEAMRtoyetgRQAjcKdyr+3n9asVkIXAJDc7z90uVe3JpIM3TrWhyhhq8tppA8b0A67hD6D5ounINgfwe25rmotng7g+NaK3qtE/Wg5BrZcFu9vbGtAoAmlBqOUiESMQNZIJqbXGxQcEim+EcHn7MXbMObnOWHyBj8CkRYUZ9C3atMtKfYVRlVobGY2bBhp5EZQlGj04NHLA4cvaoOE5uDEF7sg9go3UEXGeS97hELlrPnb4Z1Eu6AkBapJ/YctbtByVJfeM48cJ24dMN2hKtkfTlzEb+FuGZMbtiXcy3KkzSEDZjxGcQhoHj99K/6JAdb/FvV4fPt58uxNeINGF9jo0NU6IZBquKhGEs8bJeroalGcvmr9oS9ffx7ePRtLAM51ju+de+/hK+xFDSlrljx1a5X98tUTwaF4bdAeh+46UxRliWcv3IZRD2LTTB7TfdWiEWZp14BK6JpDL/xDHzg56E1McP4MHgwoODqB63GJrgTeQiOA8/943LDleM1qpSDiP3/5HlywseL8L9wD43hyziIX8bpvTz1tyV6NG1Rk/D97mzsXcaeCWVGSGarKQFXbVjV4evPGVXB/mA5h814yNCLEIRQjDTEaWXwYkaZ0Ys28HY4VtX36/H3o2OX3H76eP6O/NvuHLnTv1PDh49fBIcHaAgIr6eCzF66Yhv759/H2XWcbtRn95Om79StGQ5olCx72ChgYK9YdwioFR3dQd8e6hah1TAMCkjMsQti1r996nBfv1LYuDt+GjV1+98FLvIWjwQEjlsDUULZ+log9Oobrus3HABJWKUja1m4+CgkflHj1lIqGV7D8H9yvFTS1sOjCSgJyR9y8fkMM+IGBS9ceQMcMYhSshcjD4NGFMT3QYus2YWQ3oAviGKyvUKnAEjt19qYc2Yj1pglXaGgI9P8/uhE4JResAZDioIpEKH2tPCsYiFEMYDMEK+XaTYZ27DmtfsuRuO+txeFzALftOpUxQ9oaVaUyAtg/Q0gPbT142YAK6MGdM6Bi8/fQBeVq9Ok1cF6HHtMq1e6fJHHCof3bxmBfycZLvPMiK3q0rOcx2OfY0bRABUodtueyOrq8/fBZwsVBHIazfSDYjdru6b9GDu6AZQvHjy9euWJZx9KDcWGgIQCvWc+qDdc5+CFCp34wTH/LBo9AHxWZzEqli5funDx9IyxUYPU5qOD2V60//IVaPuLCRwIlo/uPXrLHr9+9triccv9E3B7pueAdGZx/juzOsyb37tKhLvgKbKXgdRhKzuyHcMs4w+SPEOJ7fPNCQ5jQ0qdPnTChI/TJZ87bXql2P5yU6GmIv4J8p26zYdi/IQWccKvOE+G7euqczeyHIyueU//bbS5nGrQYefj4tSvXH3XrO6tttyn4fmQA4ATS4DDNSiGZVjWScIiSJ3dmpmKJF8DhvBl9g2jcK5iPQSCC3Sm2tbDrRiBqSWXwYA2K7D14Cbs+8SvIjq/ffAoSn714h0XQ4G8hpoFYBBGvuJQBx4F4e+UfYWeI/FAQhhMxRNnkpc5dvAPv13gEwhI42LN0gId2ocWAXSWvDV5sDh67CkNjsUxBArZRjyISkXKU4YxWAslCi2gm+MiLFc4t+5YnfvvuBX+ovbs3bdGkavLkSeHfVJrf1mb6hJ6liucbMnoZx5id7tNyiWNgTInYlpcsJngu45XD+ilr5vTcNRjSEQodhs/w7S0FwBzPUhrFEIHiuyHA2Yt3wfsFBob89PqNVQ0s8blji3HgL0tihNgFc9iqaXVDjOFla7BcYubM6eAkY+mqfWgCSjU4fIafv+aNquj3kIlYAHMXu0B/aeTEVVDU792jad2aZM6C4sDajUe27z4DJwIjBrVDzWy2xRwHJwKTZmzo0Xd2SFhovtxZJ43pBhED5jLkSZWCGMyzCxGGESCA3WO4wqfA6o2HoH6DI3FEE5wzTcOMx3JoQc0FC2TXVT/0iGCNDMEkJBQwlGhYtwL0hZAZRhDjpq7HUgrN/9rVSsP1MVZlVokujMFps3ibhXuksCKImwCjoyWr9u09ODBRooRlS+VftmCorIxJF5w8PTgo6OK5q05OTpmyCH6h+as/vn/u332UBboNzgaZfUbalpJBwYDZMdCtU/3aNUu/eu3unD51/rxZJRMpDKzePt7DGsXxDn6yACyY2Z+nYxzBoycOgt59+IxjGZg944QB2j2yBZVEBQPWjAEsN1hGL1y6h58Yzt7dm1SrXLxRvQpjp6zdc/DioL9b5c6RSWzthZUXBREgEKWyZ3Pet336jHnbWnaaGB4RjjV6/MguzNUWSjnYa2z5sEhB55G3hXu+bOlZtSFlgLj81Wu3Jg0rsdhA1oxVbdg+uH0JDgk9feFW4/oVxW+x4cEjmEZse7RLGZiyeOU+UGrUkI4sf82qpf4esgB6o/17t2Apj56+CQ4O4Y9IhCkT/kItGe5OWR6IJ3BmMHry6syZ0nGTaW0AIBuCUTRU0LnrE3CY2Gwc3TNHNsaInrc4Ojp84tq5o4txxoOGbt55BkEGTK4G9BHA1m49BlPgDhaiChamioGRIX0adtO++xR40/TzC8ydMxM0IKbN2TJt/F/tW9fCW4jG+g9fhNUnd67MOMxbtGL33m3TWZAvbPDwCoKDyuWLnj53C7u1PVumYiMNIcjwcSue/PeuTo3SOMKZMmsTTNAb1iuPTS9awSk0xiZqxpkWWMdG9SueOHOD+aaBzgj8SdelkoJ5S11wtnR831zcAzwwES9fuUHi0LldPRgvLF97AFxuvVrlwMTOWrijU9vaLJJUDKLXQk27fSTxRNP/Tx3ER7ahTdtPgj9nLgCADTgmg0Af5wfizBD6rFkyvGXnib0Hzj+0azbYCjt7g86zIW3ZvP0kPJozuovr/PHjFzP1FSdiLwF7E1k440ZivBYBcCvTBPb2GTKkSZ8ulWRL2r9XS4nlGxQEOGdrVV8AdGPwMxYkTFvTxvfED90UM6U9OjXED6JNZrjL5AKscsx9m1ePw2QKhV6cwrFELBsumyaLWxf76kAlmBbxw3wKIYKxQEYxP4txoKuSzu3r4SfpPnYAOzZMxDIMH3uSpVQXxlYsGCpuglXLUxrULY8fJn3s26IiP7p28Z80aVOXLluSQ+Xr++fKxeveiF3p+ydd+jSFihaSXft1dV9JVzAQzRjABKJLL8lkSDARYUMm9qNuclVKQQUDMYUBxIiRLKNiSJbNH4IVhB1SSdhCPIoLYiDs3jIFC3R4eITY5VW/XlJ2TrJsgZ/nLL2eVRuCvI5ta8MBTYyH9TWNUjj1yZUzC/hbsQgAvMGd+y+x44cwEQIX02qGqjPOMKG+xIvjDAabRmOVr4HYmZN63334YsT4lRePL9OF52fP3w/r3xahH7r2EUzQP3/+gdZ17QH0vH36/P2mVWP5uXqFsoWxVYOFgml4sHSpPj2awFYC/q0hN4HvTLgD5CIA1vTWtePZ3hUe3XDyBOtx7FHPXriDENfrlo1CHuiB12s+fP3mYziOAtWGjlmODfCBnTOZ+PjugxcILoOt48IVu968/3jm8ELmqQ42GqMnrS5dMh9qg0/rlRsO4jwfvrSOHL9et3YZ7JNd9p5jgokzF25jGMrKkuADH0I6qLNB4gCNA7gV2Lt1OvMsiH1jm66TMJxRuaVxGP31Mw8j+u01oMGx5+CFFQuGMfAgJYEIYJvL6ZFDOkgATpnSacPy0a27TOo3bOHODZMM2VdDDRkKg3nzZJ08trt297GLgORIkh4aGp7cKYYVlrVBNWOKQYITM7ZnVVXBiRT7IZodZhDtbyhXjow4mBLDDC+A0c/ERgPSZA+l2Rwq2zr8+XP+XzaDbKLVok62+1h3dS2l6J1sEdle80Ts3rS/Mf1FJG8zZ8sC/l+c6OSUrHqtys1aN2naqlGGDM5nTpx9+uiZUXUqmRUMKBhQMKBgwPoxIFZSjRRaMJ/aLq8jLaWdQXbVxt5AF1+qXYNVpeD0ws39S6kS+Zm1BYdt595zlcsXYSIAkwHG+o7Ty/1HLkOlnFcCvtqE+EdAL1xQ49z+nsoSQRuqqpWKScyqkR8+VmEa4LLvPDTeJS4b9Lzt1LYO5//REKwVcGADi3ftRq0hBaz1mcOLhvZv89PLe8qcTdXqD5q1YAcHrEC+bHzv2rdX8+Dg0DPn7+At1PL7/tUcN7DHhCEqAjO9ekt0vG/eeY6gsyMHt+fqY4gv8HePZigINHbr0JB7qoc2AeRq5y/dRSkgB6dECPYEaQK0AKAdDG4CGsSwBMFb8PY42JfFVbkyBVk4T+iZwz1ejSoleWQB3EBIceyU2ppAtoZYmpg9qzMGCI8OLtsL2K3gw4NEpmTlv/Cr13wEmHBQAaIW7fz4+FcsHAq1GsQM0hU8lZeC97G/By8ICw1bu3SkLGuTJnVKj+9CIFVe6tv3n+moXkxcveK1FkBcJarSr7iKAX9/f1gQaQsmMLGmSpUyTdmS/v4B9+88KlK0oL2dMrTj6leg9EvBgIIBBQMKBkzBwGeP72DtKpYrgoNcKALAsg+1QA0QkZ4XzxmII1kWx9eUqmmZOdP69uw/t3vfWdA0rli+CIwCTI5Xkicn8bIErQRYeRgID5j8D64eUOlPkjjR8jX7kyZNvGzeEM5h6n/LmkAcFgRde/jkzcKZA3B4bmC70Z8NWvrQasEPbtsXLtu9ZefJ/PmyasddAtsJfo+pMwSHhixevPfQ8atwuACAfX39YemNG2ZPXrgAcY/NL3DpYFbB5MOCdfOOEzwdjmZ+/vLBI44Ds2ROf/X6Yx8ffwQRZzpozRpXOXz8KqCCt4J50/qKK5S9f/32U0TEx+oNBvG3/gGBDg5xM6ITJJhNGlQ8eebmoD6tJd5JQEQ3968F8mfbtvv03Ol9mzaozBHi6u7RqPXo3fsvMJsLCRorVyg6eXT3KbM3Q6ZTvbLUcxDPDDoOHLEEQRz2bp8mFnWJa6tasRjEN/gYuP9/jBeY2EBGI0u7uJGo8Alxg45KL+IFBtw+uIdF2BYvUVRXb1OkSBEe7hoUFJTEQRnaupCkpCsYUDCgYEDBQHzEADhkKEfkzpmlS/u6S9fsH/utM/ySHDl5PWXKZDhUh3OoC1fIGa/JFzj/c0cWXb3x6Matp9A8h2Y4DtinTfjLhApTpkiKUo7GhPhtUr9SmxY1mOIGdKo7/zV90Mglpw8vZPoj+t8yCLNnzQAL0C9fPKHlnjtXJokarAm9sEQRqHJwxQpwdAjkfv7y3X9vPdUWASCGN7qTzInEvZ6zcCec9u3cOIm5xoBhPzzDIT0igjiG1A63wZzMTx3fs35t+fN8OAiAwgXOXVo3r866CR/yazYehhglW5b08DgQad9hwQ6ueMrYHpHmjBsZhg1oe+7SvYEjl6xcOIxLAeCIfcSEVQtn9t9/6Iqjg4PEhRlck8IrMKR1cKghe3oPZRm4UN2x+6wuFOHYbNSk1Y+fvd2zZZq2ozeYY0B8gM+pft1ysxZtn7NoJyydWVWLlu+Bj7C4LQKI14YAur4YJV3BgHVioGjxIs+fvnz54rUseDBpQ6SA5CmSJ06iuEOTxZCSqGBAwYCCAQUD8RcDH1zh99sZHtrbt6oN54jw9A5cgH+ARADKdLD9hMN2KIobiCAozOMIl/0Q6ISVAqMCG3Xwdf+cXQWmFGrMcD5nYIXibO7UfRpjwmHtzxsCu6urNrhp4IYb5Jy8dwucZPLW9b9ldcIlNrTlj+6Zmypl8oEjl1Jn8tZ1IfDeqg2HxDCBf4NQwMmJSEwkF+JiICUvjesOB5D165Rj/D8euQO53DkJr87EAbw4kAangyAlU/vn6TgWBsvKHllowBu3nzVtSKLH4cL3g7hR+JxYLABeStdNvtxZLl25Lw5OgV0cXDzoyh/b02HBcchlRmBgUOO2YxC1BFE2+wye36LTBJhdZHROB7eI4PO1XZjj/B8eBBAmQFf3J47qBpcQut6Cq8fxPjx/j5ywEv4j+I/FfYCKweKVxAkxBAEbV4yBU4w2XSfDrqRzrxmIW7xmyUhZSyhdbcW6dOWoMNaRTAE4/mIgV96c0Dp7dP+Jvb193vx5gIjAgMA3r95hncbNp4+f/P/412lYJ/4iSOm5ggEFAwoGFAwoGNCBAVfXLzmyZ8JLnO81bVQJwdiqVi4OD22tmlVHIrg+/EVQAD1++MUVQ1VerC0P5hDe+LjHH7Cm/Xu3RBNwEcdDLeiASyb5yMlrOOLOk4MwqNvXT5DJoZkEI2pb2wixlyJZwf0ZAAAgAElEQVTm3v/799/IqP8tWCyWmVUJTwQN6pSbvXAH3OBrH5xGColFMyDmBcI3wj6/S7t6gBPMP1z3QX++jeooHpHkmStruM+EN36o67MYfmlSp4B+PnuFs99nzz8wOGEVgqNmWBMUKZgLR9NwoLBz71m40gTJ/uraeMO2Y9WrlEAkWmRGTOtRE1fzkDQli+UBgUoUzSvWLW/eqCocEBroRqHvX8169JszZ/EORAEA6wuAZ8zbisAQ1ql8YRayQs3++P558MQBWuCrq1Kh2KzJfeDwH9/nwtkDihTUMMdgLcI1w24SoIGIeODEPQ8V2YgvDLTlC4ZgFMtC2LRhpdo1Smu/YrKGyWO6Z8sqhOguViT3lVMrEJDF0+t3nZqlEb/QBJdn2g1Zc4oiArBm6iiwKRiQYqBwsYJOKZJ5//KG+WK2HFkRC9DX19fO1t7BMUGRYoUyZcmSJCnReVMuBQPWgAG4xbp+8zGDBBqt0LmFcWa50oUM9I+FgEmF8ufAwZQ19CWuwoDd8LrNR2EA7O8XWKxoboQr45t+nNKULVNA2z01tuA4IRk9tCPjdhB/OyQ4DGeMEhQhvNYvb1/uZH7u4p3lyxTCfppnO3X21ut37jh1xAlMXEVvbOkXQnaDCrKqtrGlC4bA+d71c6ECgo/n7p0a7jt0efKsTdDfZi7fjBUBSFp8/OzdpasPu3asx9M/fiZO9TmPYQiELA+ixEPFYPWS4Ya7XcRYW73hEBgq3gpi++G+UMHs+Kv/LU5KoaQtjhAJDhnmA+nTpjYc5mjLuXTuoOHjV0LlHoiFgXdYWNjyBUMRbI8B4O39p133KenTpYbuN8z+1y8fyZi9SaO7Dx61pGKdflhTYCXhDJ/81MkcFqMVC4cNGbW0QasReXNnxRcC3e/Fc4h9/uC+rTEuho9biTCBGB1ev3zmTP0bqxhrCLMf1iYeypElNm5QcfPOk9z/gn6c4Ox6+sS/5i12wTF1xgzpEEqwZ5dG2vOt/kpi3VtgEu4tJB4ucNiux2tGmZL5WTd15YErR10hgfTLUyQOL+CjEWG8Yx1KTQZYEQGYjDqloIKBmMFAtuxZbXPY2tja5s6bE64BsQ7ZkeiFNvgHDzEDk9KqggE5DDx49GrjthPgFbEJgwrl/UevsN1JmzbF8vnqHZtcOSFt36FLCNyliAD0oCiKr3Dk1a7r5NDwcDAAaVOnuHX3OU6l9m6dBi1i1LzF5RT+am9J7z96CbLy4Ofw8AQJQoRNBNQ4xfDcuP0UptdcBIAiiL/LRQD7D1+aPnfbuuUjFf7fWCJCSRW+68THtqwGyGKgVNylg5oFZek4y92+68yYYZ20G4IjrvlLXO4+fIkzNCwgYIGGD2wr4Wq0S8XelA+uXxrVF7b4OPutVL4wPOcvnz+E9Qj+4SAEgQc+XR18++5TqhRO/G2iRI6c80Qi9P+bthvz3fMXzAqgSP/wyWvIF0qXyFepfBFdFfJ0149fcS7q5x/w9asXdJ6f/vcO0ZrF8ZgjrQHBVn/+9EEcwW4dG6ROnfzC5XvwbtiuVU3m3kz/25ZNq7bvMXX4oHYQ0uET2nf4IphSRGIzXAARKXhmzAB98n3bpn/28IRRQPp0KXNkyyiGs3jRPIP7toHmRYIEdvieubgZtL5yesWLV26QCxTKn12scA4F/qN75755/8nDwxNB43jYWriNABUG9G7x8rV7ihTJ4AJQMlmNG9EFnhfFXUOM+sMus8Q+mxfNGsgzXD+3WoIHTI9QMXj52g1RPGGkwCZeM+JKqUrBgB4MKCIAPchRXikYUDCgYEDBQFQxgA0xV08Fy9Fr4Nw+gxec3D8PoX2jWrVSPmoYgH+sl2/czx1dzM4/of+cK2fGk2f+hY8loyrGIcycRTvgC00cUx0iSV2VHDh6Bfz/mqUjoYWrK4+SLosBBCG7dfc/BLEbPrCdOAM0otduPFq0SC5tEcDmbSe37z2DdIlSN3jOv4csgBbu9Am9ihYmZ+P3Hryav3Q3DM3gG0+29VidiJBguXJkKlwoN+/F3z2bQVEcsgCWAnaxYd3yTPsXUnUcVPLQ7k5OSfD4z79P8OPFofbP1cKRiII7NkyC/nzTdmMh8QQnCfHZsIHtxAwhmFIJ08hqhvoxfokTJ8yUMV2VikWXzBkEUwVDsI0ogAAsFZ1Ll8wbtGTlvgHDFyOIGtzUTxzdrX2rWrwSPW9xHL1wVn9oA0Hxxz6BfR6EW1swtEHd8oYAEFN5gF7Oq0tgAB1lz+ExTek6RkaR/Hmy4qfdHcjatMVtLBuPIyguZSDheBFUAl137XaVFAUDlsaAIgKwNIaV+hUMKBhQMKBgQMAAzCYRp6pu8+Ez5m9bNFs4HsGGFSwN3CAld0pSu3oZiW7evYev9h28FBIaWrliUe7zGcfO3j5/+CkZToT+vfWkQd0KyaghDJxgbd156ovHz0oVioApvXn7KX+lUEKMAaAI/EkG5zQ8Ee6vYaJpLJZgbwkL6iGjl+3fMZ0HVeIOtyS1HT5+bdrsLWuWjqhcQeH/jcW0jaubB8rsPnBhQO+WYlPVi1fvffnqmSyZ1BAMzu32HLqUMnmyLdtPTRjdlbcHkcGYyWtA+l2bpvB6MPQgBpo5f1ucFAGAud26YaoY45BASYRQfFKCVp3Lpsk8c4G82cSPusgGXpEFGsShrrZjM5RC/HlJWQNr1tUi1BA4YFDdHz+yC36ymfW/1UaFbCVKooIBBQNxBgM6hfRxpodKRxQMKBhQMKBgwHowAItThPA9c+F2YFAwoELQ5oYtR91/+KphnQo4oxs9aTUMUzm0V64/2nvwIsIC4dX4aesmz9zEXu07fGnFWrVfaHh+Hjd1vZcXidgMp1zN24+DXW6NqsXfvv8EvpS/sh4kWAkkJYrlhjPRKTM342yZg6TryEsPzOD2cWwItY7egxbApzrLKWuWdOT4PyDiqsXDEdJZT4XKK10YeO/6BXrLPj5+x05puMjesfschC/whQbeXlx2++6zUGDu0KY2BAEwgeavjp+68frtx2ED2klcXqVInlR8sq0LDCVdPwZk+X/9RZS3UcfA1jXjO7eTGsJEvVqlBgUDcRIDigggTpJV6ZSCAQUDCgasFwN5cmeBFfrnL54AcdLMTRAKrFs2smG98vDAvGTuIMRVfvHajUFfrFAuMCRQSR34d8vhA9rj8PPVm4/6O7Z8zUFodcKHdpsWNRGaq3H9Cvrzx+e3OPqDNz7YHleu0/+vAXNh/C+WBRiFGai/blwxGmfO/YcvYvGWtA0BrvzzcPTkNRNGdY2Th8xGocvkzGDy4TkM5uVbdp7mlcBG/c6D5y2aVAHm4SCNp8Nr7PY9Z3t1awyT49DQUJe95/krOOYAm1qxXCGTIVEKKhiwNgzkzpUZhi3WBpUCj4IB68SAdYsAbBPYWOJnY2udxFCgUjCgYEDBQHzAAAvwk9AxAfwtX7/5pGzpAq/efgTbj1/qVMlxLHntuhBHQGxXCQ4HR9bXbjzSjyL4NqtZrTS0Xlk22Prqzx/P30Iz+fzRJUMHtIFj7TkLd9ZuOvTNu0iELLowhv03XHM/ePx64vQNyMOjo/H8yABH3Gs3H0V4LV2VKOn6MQARQKaMaTu1rYszfMRlYJl37Dlbo3JJ5jdb7M1u76HLKZInqVuzDDQ7mtSvtG3XKaZ6g1LQJhBHsNPfqPJWwYCCAQUD0YABODrpP2xxg5ajuvSeCZUx01rE5LZ09T4ItRu2GoXaEHpGux6EIZRNR+Say9ceaOfHsoUIR9rpsTrFen0B2Ns72iRXDAXp1+WkjqJkjV9bRKjlobKzSR5PAoPBr7aGGqcatxEh0HG2PKqVFhQMWBwDiH4EfWO42kJ8YDQGKcCLl8KxPx6rViyeLl0KbSDAxuDc0uMb0R3Qc3l89UxjmCctPZXEq1eIhg39C/xgT9G++9RZC3ZsXTveNAzgeH/CyG6IjJ0rZyZ4mJdUkjljOjixg+/xzr2n7948VTmvMwHJrq4ezRpXgWkMdGe2upyGHgdcaRw+cW3t0pE5hLD2n5k3DZijb9p2on+fFkwW07Nbo0PHrx48coX5eoTrexYUzQQYlCIKBhQMKBgwHAP7j1wGv+3gYI+oh4g6oasg4lCMGL+qT48mUFzy9Pq9Zccpr98+KKIrP9IRO/O/Fx8G9W3F86CSCdM3liqet07NMtmzZoCl4fqtx+4+fAGVQHE9ew9dWLnuECLUIB6hOB2RayBRddk4GaElxOmYOYODQuKY/xrrFQHoIbnyyrowAE2NaLiip5Vo6EikTUi3zaoC4bZfP39N87//RVqBkkHBgDVjAOeQp8/fKlea7APgHRB/27Wqxf386YEcYntwNenSCHqeEeHywrL/pU0F74B66lFecQxAFiMOBo6oVLVrlP7nX0EFwzREIS76uw+fFi7fU6xIbkcH6eqA5nasn9ih59SufWbt2jTZWO/ZpoEUZ0pBC8bV/SsiL4Cr79qh/qwF293cv13+50EG57TMrR1ikr3/8IX199jp6wgHeO7iXa5Tg5BmG7efbN+6NixlcubIANEbvAMoccjizOehdCRSDGByw3BAvEOJCwx4Mz1w5PLIQZHEQTx++obnz989OutjSiOFIb5lgORx9oIdKxYOhfFRrwHzEJoxbRoZET/Qsnjlvkb1KvBwszWrlkLIEsSa1VYo4zi8c//50ZPXuQjgybN3TIgwcnAHVSSOwgiNOWbS2kdP3nCunohHt5/0Dwjac/CCtojB0cGh79CFh3bNEodQ0ZZoxwE6WrchQBxAsNIFBQPmw8Dv397mq0ypScFADGAAvsomztgARwDMOTkiYIFpOXD4shgUxCpDVGdt4P69Q9TwihYmsnno+Yut1sEa8fwVyha6cOU+vKOzlB+ev7WrUlIYBmYu2CYx/nf/9D1b1gxRxM/kMT1gZP7w8WvZeqAgsH3DpB+ev7r+PcvHV+2GUDazkijGwNfvXgGBQdmzEQK1aVEjaZJER05e23vwEsQBLBuCO76lYe0xItZtPta5fb2eXRp2bFub/cYM64QzMXjiRIaaVUvj756DF7UxDFsD7UQlRQ8GMKH5+QfqyaC8shIMPHz8Bh5PgkOgU6lxIR7NngMX/QIC9MN55frDQ8dM1E7XX3Mcfnv52sMypfLD/2uH1rVxAKBLQB8eHv7tuxeskzgqoPQ3f0Z/vrbjwH/EhJW9Bs5bvvYAG26whHr52j0gIGj/4Ut3H7xAQajxI1QkvJyKI3HifsakXlmzOPOa4f4mgb09TAs37zgJcYAE+Sze6t+DFuDUgb+ys7OPezSSSuitp4fQh7axkIa5LQip66TVehCgQKJgQMGAgoG4gIFnL1wTOjoght8H16+7DpwPDwtfv2I0C+mMtRl641jXIRcY0Kdl4oSON24/27z9xM6Nk1jPT5+7Bd1yqAy8ef8JCuo4WK5UvjBeFSmYCzu2oyeuN25Q0f3Tt83bT3FMDRnQBvaErTtPql299GePH+HhaulAXMCmWftQp0bpzn9NHzO8EwJTwy/Dxm3HcVSyZc043sjXH14I1iBuEySIFAT7BHZwCtCmi0BE7fyIv71lzfguvWf06Ddn+/qJYGW18ygp2hj44PoFB/hZMxNdMCCtTfMa23edgVitReOqLHPOHBnPnL+D+4tX7yPi47ABbWFxw+tB+Pd9hy+v33IMR23QaK1QtvDqDYfKly4oVnlFKA18BojvoN16fEtp0VEwh7GztXVySlq7eqm2LWs5Oqq3zWAeVm04dOHy/dfv3MPDIuDnomfXhl07NACNOK4wrLr3nT24b2tEJ4WwBqeO7BU0MqCljPNJIB+azJgAZdELb531apVlr8RVIQXcTtlSBSUhVJGOg1CXvefmzehnYLWy7ca3xGaNKjdpUFHPaXN8Q4gZ+4v56vT52xgsW3aegmseRMGUrRzIL1Y4F0wGoNDE9e2ZniDy79xzdv+RK7WqlfqTKmCby+mbt//bvWXKD09vX1+/sPAIKEM5JUsKk6g7919gyGjH44DSB9f7gHh0w5Zj3To3wNS379BlaEu1bFJNDFK6dClXLx4Ba7Xh41asXjKcfRWyAW5kOxKLEq1XBBAeFmLjcz8WodLMoML+385RqNP3oU04iZ5lpVf8UdGPDgLY2tjq0s0hnAwUAd68ehvgF/A/53T5C+VLkEAYwn98/V6/fOP92ztp0mTZc2bLmiNzdACrtKFgQC8GMmdOV650waWr9iEX9I1x5g8bv+aNqohX6GaNK2NXvWTVvr0HByZKlLBsqfzLFgxNnJjwhCWK5S1ZPO/Bo1d7D5qPgQEGZs60v1mDLZtWJRvcmRuxdS5UIHu3jtAVtE2UiMyZUN47tm/e+ct3ESOwVfPqbu4eUP5MojCZcpRC0ASHBA6zF+7AwS8mkwL5skL4ApKxvLgBDhev3CsuunrJCDhxwCtblSC9YL7sSJFUn9wp6YYVY2BsydNRROyasUihnJtXj1u0Ys+GrceG9m8rB52SJsXAB7evGEQw42cvYHOxbfeZrh3qcXNWxM6EYsVPL5+1m462aVFNzP+zIhiAI8avvHHrGURpiL6BkJntekxp16JWqRL5cOyCsALX/32yd9t0acPx8hnqSGDRe3ZpHBQUDKni3MUukI/wiIkIftlnyAJMLxNGdcO3nSql08vXbivWHfzp5QsXmxxhUC//4OqBaQ0pOOREnQddZiWwt/v2/RdELUD+ltXjihbOPXFUN1Zk3lKXj5++r1w4jD2K7XTEVeEtKPXwyRttEcC2Xaev3iC2PNmyOhtSbbykrbTTMASASnnrZtUxuG7few5pS/EiebbuPPX2/WeQoGvH+vBjIi1jY4OvAlpmjetXhBhuz4ELt++Tg+iaVUs2b1xFfAqtXTBepTSqVxEaSVXrDwRKXTZNEgvRJHiYM61vz/5zu/edBVuniuWLQFJZtlQBlufTlx8HdsxgU1+JonkGjVoKVUEIbuC/5svXn7DsQDYIv/A3WxbpYiRpBXsDz5/emPQwbUIMumHLCYhQJfTCxmPOlL44nIBF2+ihHVGDdoCbOEBE6xUBxAHkxpcuWEhZI76gT6ufus8sf/zwhBpn1qyZvBP4PHrwNDg4uGQZ4irS87vnhTOXs2TPnK9AXshEL1+8WqRowdLl44kDRS0EKglWgwEI1yXydVnQEPMPP2g4Q1lAfA7DjyLnTO0LDl8sOMBWYPrEv6aO7xEUHMKc/6MGVjncCEOsgM0cezx74TYya/NCspDEw8TmTargFxYabmePXZCGfpzLpsmyCMHhM378FbPp0M6JrfP8mf14unZt2GZpJ2rXo6RwDOTI5gxlGf4IkcqMib0qVyzKU6pVKu7nFwgL/6oVi7VuUV0bdY3rVQSHGRhIFFxhkQsVDLgShMkG+EacS5csnu/onjkpUzppF4yfKalSOOXKkRF9L5g/O9yM4xh/6vieTGkFUsvXb9xPHVrIFJqQBwoyG1aMHjlxFbSUWR7oNu/Ycw4mG0ymyXCIU1BwQYUK5EBkx8r1+iNSI449iQiGXhCVfv/+iz9ytEuqYl4hoFYNmQKkaTwbeJtT524hNiTCc4KOkVbLC8bzmwePXk6asRHMPBaLfYcv3X/wCnrjOIsuXTL/stX7IRQ4snu2ZHrcsfvs8nUH1i8bhfTxU9dfvHoP0qLMmdLhBkNscL/W8RylrPsXr9wfN3UtBhFiAI8Y3B4Ceqw1oWFhEl8MLDM4/3NHFl298ejGradnL9yBMkuntnWmTfgLb8cO7wyh28s3bt7efokTEwd+Hl9/YlSKkeznT+w47Owj0dhft+koXKIyselfXRvBsgCmCtqiNOwi3rl+Xr3hMCzX4KvITqTaE2coq4gA4gwplY7EfQzAeKlajfJkn25r+9vL++uX76zP16/dzJglQ9UalWzBP9nZQWXx8oUreQvkSZFS3udK3MeU0sNYiAEexk8bdl3nBvjatUsFBAWNnrRmYJ9WzulTX/v3EbYRMPnjB6falSspwABU9xU8WD8GmM8/MZw4phY/Iuwi4z10cSAg9MC/1UIEqKxDWMblZdaPgRiEMDQkLHFiR4gpAcOnz9/3Hr7Yp3szzv8zwLA0L5o1kAN55Z9Hnz7/6NyujizY4IKSJk4kccYhmxOJkqrg6BH8f55cWbbuOiVuEeZRsC9AXM+3H76UVokVdNWppOvCgH9A4PwZ/bCCIAOkz9CTgmxFHMFk2Zr9+w9f3r1pCkYcxDEnz/3buV29AX1aID+OpncfEMw9dNUfT9IhNRs0agl4+GYNq7TsOH7AiMWHds6CsgxYa7EQWYwNrNSw4MMPCizjp65z2XceKhXQB9yw9Tji/JUsli+jcxrmTSAkVBqMLEc2Iq37oPKHKotkKG5AlweH/winggwREeHYQqzfclRbBIC3MKSCd1XEuM2WxVlxByiLTyVRwYCCgWjCQKrUqbgcOkmyJGFhZAb08vrl4+2TJl2an55eP3/89PzxM3HSxEj3+Pw1msBSmlEwYE0YaN+qVs7sGdp2m1SkfLcFS3f36tZk+oRe1gSgAouCAQUDsQkDOIGHU5Jzl+5OGtOd6SI9evoWh5kw79ffje27z1SvUlxs/yLOf/biHag3160pmPobVRX8qkAwioPKk2dufv/xi5UFSLv2n2/dnBg288AQ+qtV3spiAOY2jP/HW7B/+AufcyxneHjY5JmbgPZ926eD/0cidmUwwEGwAHwk0L9ACvzeyVYb3xKv/PMQ4wUSRnyrKxYN+/bNCxIBxAVwSpZEGxUQq2Gg8XRIJ/v3JsJKKPzDQ828JS5Tx/XYsWEinFysXCjvqST9/1JBJIcIKbDL0K6fJcJCihkXeHr+xu/nTx8Ewbn38NWDRzLOa0HZBbP658uTdeCIxXHSc62iBaD9nfyfvesAsKuo2ttTN7333kMCISGEQEISCB1CBwEpKoIU/RX1V1Gx648KqIigIL230CG0EELvJb130nuy9f/OOXPnzr33vbfv7b7dfW/33Gx27505c2bm+6aeO3dGXRSBbEJg9649SO7aVWu3bNxMBgK2Vfbp36cpf02tlyLQ2BBALbjsGzPwgwGxvtxubOxrfhWBNCIw6/UPvpi//LMvluDjcOw8eviho0S5TLBjfh9uY8crUKxnxraXofS89e7n27btemX2B9jh/NsXn3z+OUdXmeCoquUr1nbv2vHMGVNu+ufD9z70IrZAhxLYFMrLy/E6Gvt3LOGDIfSqOQL2vYuoWrd+yyNPvnrUkWO7dm5vlWOHlL/+/cHv/e/f8DXNaadMuuySGfHOvat5erJIQ0F+wd69JVu27sSufljkj6318Kk/KsXs5/8ezQVezr/y+kfY38R6rVqzAffY0gIWN9xMPvygaCiwg/M4xB332Az4hz/75133Pxc6uBGmsTatinv36jz3nc9ffOIvfXr7pwPAaoMPPbBJ6i03/iCqn9YI3HTNjHN/ih0Ho77Z7qJr/7KdQU1/Y0dAVjgPGTZ48rQjJh81acpRk6YePXnq0Uf27tursUOj+W/cCOj8v3Hzr7lXBGqKwLRJY3BAxtxZtzz43+u++mrbkcdf9d6H86FUPk3avTvRGXJ3P/ACliPJCSZuOtZv2IKl4ziTHH33xRecEJphxkxxVBX278TZkDhR9aRjJ9738CyZBd39wPNnnz4V3xf06dVFTQAxkayGY3CDlBwsEPjL76/EFvc4UdVqgzHoz7+74u1X/oVP1p985s1vXfWnakTU8IIcPXVs69Ytseco3vCXlJShqHft0h5HA2CbWPeFv2Qci//vfegFbL+HXTMhjGn5z3/7H3zMgi0zsHEGZHCAH3bZwBcZt/73KYtVu7at8H4e2wSICzYbxnf7ODwIOztgmwxY7nDc409/dSu+9p8+bdy/7ngSZwq483+EQjXEdo84QmXJ0thWs04d28IKEP3ksAHwpSaABkCiZqFRI9ChQ7v8goJlS5e7KGzY8BVOB2jUuGjmFQFFQBFQBBSBGiOACT+O7vv3339UWJiPzeGgr28f+up4cfw37ZirPPbk6+efPT06w59x4hHYgPO6n15cUlL657/dX2XqYqrCugB884+wONsM8x8cbDZ/0coPP1147hm070C/vt2xxX2VmlWgeggcM+0QbMN5573P/+PWx6EBU03MWnGDrRxhgvn6Ocdga3r3SPnqxdIAQuFjChwxg28Bjj31mgMO/Tqm5Refdxxcvpi39JyLr8Pm1m4eYbq6+7ZrYSw46awfDx93/o+u/efUI8bcfvNPUIPGHjQEm84+NvP1cZO/+bVv/Gr0AQNwBoecF3jGKZPxOcYJZ/7o8u/9BRUB2wPhSwGcHAQT2Hnf+NWBh1180eW/x3cHN/3pKmwWuHXrrksvPikKLD7cGD92OJbnwMtqdsVgg7j+d98pLqZvbBvSpR8CNCQ2NS+NEYGCwsIDRo/46P2P35n77vADRsCiuWbV2iULFx8/47jGCIfmOXsQgIW+qNA/rdcmHIOnpk0DRwNE84TXaNjVvKioyD2COyqmLoqAIqAIpAUBTFEGD+y9ddsOaDtkzNCWLZph773pU8Nf8uOUOBxB+ugTr2PqMuOkwHnjbjKwNfq3Ljrp77c+hunHiGH+lv7RpMZUheMh8Q0zhHG+ACYtj8+c/cW85UhM5060gx1WH2BDdewXiHXpUYXq8tEni+TIBoHC3ecvSXCwDSfO3fi/G+9r3rxoyhEHX/GDG376g/MPGNF//VdbXpvzEbZptOd0JqmwoYoNGdjrv7f8BP01PsW3Z/rgXMyY+cX79hv+eBW8sFLAPQAILhd97Tj8YNG+rHu1O2jg2IvnH7t+79597qEbcmYNFhrs3Vdiicb0HVsJxIwXBwZZr3iH1ERrekxV2eWoqwCyiy9NbaNGoHkLfw+VNm1adezUQeAYccCw8YeNXbt6/WMPPP7QvY+uXL4SXwS4h6s1aleoOt8AACAASURBVNQ085mKACz0198Y4yXY0ad8DzswJ041Tl0aOf5CbPyTWEx9FYHGiQBW0mIG2DjzXku5xov3efOXT+TtADDxwD6jb8z95J4HXnCjw2fP3/vx33Iqc+558AV8E+7OM6Op+tbFJ3Xp1O66P/wXE6Sor7jAK6oKE6G16zbi42qRuej84/B5wpNPv3HBOceKS78+3TH/Wb5StwQO49qjR0dYTP51+5PYLsH+4Bi/jh3awr2AD34b0Lf7iKG+UaZtm2J4NW1KxhR4jRxOi9Jx4X3yb6795qxXP9i8ZfuVl572k+tuxQa0U0/4LuaTt9wQ46vycFIa0zPMYaEpfeLcxxOOd7KPO/+3mjEGTlwBE6ehMfjqKoDGwLLmsYEg0KtPz9JSs9PpkOFD7CElaF4HDx00dPiQisrKArSd8KA9AfVSBLISge9dcRZeHWRl0jXRikD6EMB88vqb7vvFjy8OnaGNra2eePqNlas24LPks0+bcsaMwLmAiB/Tv+kzvj996lh8mWyTgxdr2A378MNGjRrR300jlr/iwK0Fi1Zh6nLkEQde+e3T3VfHiX3Tl9cM1YR9yP5z19OYci9fsf7JZ+eMHN7vu5eb896/fcnJW7fv+OXv75g995MjjzgI3yR/OX/Zg4++8n+/ufzDTxbgW/1/3XRN4lwB5//9/nlXXnPDzGfexN7+MYXnvPVpVBWoxztVOQINoaYccVCP7p1aNm9qTwHEMexwX7p0rTakIVRPPXESfmJCPfnwA8UdW8m6AvgGxL4ZDnlh2T9+RPiIw0ahnGBVmr59iQmvOmYgAmoCyEBSNEmKQDURyM/Pj355WE1dGkwRqCcEsJ1PKGa8Clu56quKygpsc6UlvJ5o0WjrFAEcMPaL3/0HVoBrf/h1bFll4/7TDffd99BLv772GweNHoyd6vHF7MLFa356zflu4nCG/Jq1OI7e32p+3oLl2Ch73sIVw4f2cSWxKf1l37v+im+d9sv/vRj7bP3s17dhx+xH7v6NfF+T2LdO4aiPyK76Ns32d+/eh98jhvU98biJEw4ZbtsfGNuv/eGFRx5+0Ow3P8EcHqeUDxrQ465bfzZoQE/g9sufXGzf0tu0jx83HPfut0vHHj3+JxvO37vPHDgH3xOPPWzzIfStgVylpeVRVXgXirThCDSRwZwTn6bLDoXi0r9fdwjYY+2iaq1+vUkjAvHeUacxClWlCKQRATUBpBFMVaUIKAKKgCJQUwSwG9CUSQd99/IzcWj22Rf+4rvfORMbL23ZugPHX+O152P3/hb7YIfieOTJ1/5959M3/vHqwQN71jR6Da8I1DcCf/jLPftLSscdPOz5l95x04LN5P9z99M/+Z8LMFGEOw7B3rxlx6/+cMeZp07G58dWEmdi4X0+3gyLyxNPvYE31UdMHAUTgKsNlrU/3nDv1EkHX/nt0+Deq2fnv/7hqpPO+tFDj7+CD9QT+9Y3QnUR/1WXmRf+CSKbeOgB+AkJoPmKGQQHksuZ5K7vxecf7z4Ks9YlpiowFUrbxENHukqwe3lIIKQ2ZvLUURFQBBoVAroXQKOiWzOrCCgCikCmI4DZ/u5d9OatorwCcx7M7f/x5++9+dLN2LBn3YZNd973bCgDONEXewr85XdX6Pw/06nV9CWHABbw/+LHF8lybjfEg4+9jO/MzzztSOt4ygmH4/7xp96wLtgK/s23P7efhcMd+8//5fdX4GytUOQ4dgvnYJ1zhlnJDF/UIOx9/cjjr+I+sW9IlT4qAoqAIqAIZBcCagLILr40tYqAIqAINC4Evn/lWXjrhTzj2B6cg7VuHR2/JBe+ecbGgTgW+8H//mrYkD6NCxfNbeNDYPHSNb16dHZPqMZ+Vz17dFqwaKUFg86Q79stehx9FC05B3twcN+NoYN7Y18ACCf2jWpTF0VAEVAEFIEsQkA/BMgisjSpioAioAg0OgQK8vNtnjH5Ka8st4/X3/jAuvWbX5r5V/er10YHkGa40SCwcePW4mL/XBjJN0693rFzj9zv2r338Zmv//C75yYDyVebtkIspBDacJQANjZL7KufPSeDsMooAoqAIpCxCOgqgIylRhOmCCgCioAiEEAgN3jSxdgxQ0rKSm+65WGFSRFoDAjgaIDSkrJQTsvKKpo3M8e/mzPk4+x5HgrYpIhCYbbvupeXVeQX5GGGn9i3MaCteWwYCOAsDJwbLz84SSGaKZR5yETd4RLvZE0sQIuqooPovYj27y+NqVAdFYHMQUBXAWQOF5oSRUARUAQUgRQQwFlc48YM+8FP/9GubesfXHV2CiFVVBHIQgTat2vzxfzAln7IxIavNg8eRHsByhnyp58yuXnzJslkrn271hBbt35Lq+IWVn79xi2d2tNW84l9k9GvMopAJiBw822P33TLI1jegin6nr37sU3m18486htfP8Gm7fZ7nvngowW33PiDUGqxAe2kY6987/XbWrZoFvL6z13P4BwHOTPCer3/0YJzL76uTZvipk0K9+0v3b1775jRg3F4R/RsiEyARdOgCKgJQMtANRGY9dr7+/aVnHDMhGj4877xa2w+1KmjObHGCuA0Y1hbzz9nurjgBN0HHp0l902KCvv26X7BOUcPHdwnpBDDmmuuvfmP113mHqUTjdS6xJO/9tf/3rt///W/+Y4bFpuN4Uikb379pOOmj4f7F/OW4VQkEcABe507tp1x0hHTJh+cIDr1UgQUgXpE4OTjJ27dtvM3f7qzTeuW7qiuHpOkUSsCtYTAERNGzXx2zqIlq+z+/zg1AwcH4mg6xPjG3E+Xr1x/21mmh60yDRMnHIDz5N774Eu7jybmSJ99sRSWNYRN7FulchVQBDIKgXdevRXnJu7Zs/8ftz2KEzdgJjv3jKMkhctWrH1l9oerVm/o2YM2nbHXA4+8jDUyS5etPWBEf9e9pKTsjnueLSkt++aFJ7obc4jM//36MqlB2E3j4st/j0NtXnv2pmbNmmYUGpoYRQAINPwPAT78eOFLr74XJRsTxb/+40F0eK7XTf98xD2g1Xpha9w35n5iH3Fg7/U3PRDV+fd/PfbozNej7g3S5cabH/nbLY8AxlDutu/Y/fZ7X9zz4IshdyyauuXfT77zwZfWfcNXWzDa+P1138a0/IpLT0f7e+bXfykbEblhX379A5xp9OyLbyUJYzz5pcvXyv5Grp6SklKkYcvW7eK4e88+PJ5z+lHX//aKn/7g/A4d2nz76utx3liSUauYIqAIpITA87Pe+fqlv3F/0ICkpAHCF37tWHz8/Me/3vvfe59LNazKKwJZhMAxRx/Stm3x7/98j03zn296AC5iArjr/uePOGxUn95dkswRzhScNHH0zf9+wla6hx57dc3ajTNOpFMGEvsmGYWKKQIZhQBm/tdcfS6m+i/M8o/bXLZ8PT4xu+u+F9yk4tOABx59GW+eYAIIZeHxp2a3atUCa/4ffuy1BLnr36/7OWdMw7Gd8xb4u3UmkFcvRaCOEWj4qwBefv39J56eM+XwMfi8zQV39puf/OPWx8845Uh7di6++fnbvx7t0KG1NQ1a+T/99d5+fbsfPmGUuLz17hdPPz83uu70kSdeHTG832knTapjFus+OhhEsPhw67ZdmG+HXpIvX7EO6bn/kVnf+eap+HDRpg1ErF2/qWXL8Hqqfr27wTSLtnLQgB4Tpl322MzX//f757k5uuU/T7Zv1+rWO55K8mDbVOWj6HXt0k5OYzpw1KC5b392zwMvnn7y5KiYuigCikBNELjv9l9Eg2OH879f/712bVvBq3OndpAZNMA/8Pw3136zaVNa5Gy8+vcQDd+66KRJEw/cvmMXTI1JLheKRq0uikCGI9C0SdG///ajb1z5xzMu+PnokQPnLViOFQH//OsPMLFZsXLD63M+/vfff5RSFv70q8u+/u3fnnzWj6ceOWbz5h2zXn3/Fz++EB2fKEnsm1JEKqwIZAgCeHG1c9eeJk3M9hlI1fKV6w4+cMhDj79y9XfOsGv+YZ5GZwThxcvWuCnHi8Pb7px54bnHvvfh/P/c9RS+KQhNLlzh5s1oxNuhPX1xo5cikGkINPxVADDv4W3zc7PeDkEPezlccIKudccKOtT2O+99LvRm+5PPl+BnabAVyDQi6zg9mGafOWPKwQcO/tftM0NR42U75s87duye+ax/UjFk7r7/RaxdXLZiXXQPFdFQytuxtG3T0lX47gfzFixced1PL8FYZ85bn1aZzVTlq1SIVGGBcZViKqAIKAKpIjBuzNDoT0FB/ugDBsopgLAhQsCtgDi0XMxzxqtNsY0Ui5khrPP/VFlQ+YxF4IwZU2ACc+cqSOqokQNee/Zv5515dJfOba+67PTZz/8DHTHcmzUruvc/P8cqgHjZGTGsH7TZ6b2IYQXBE/f/7pc/ubhzx3Ywss956ebzzva/I0jsGy8idVcEMhYBjD//8Jd7MUA93yvnOERj46ZtF5x7zN59JY888ZpNOeYIJx03sW2b4tAqgBdmvbtt++7TTpl88QUnrFm36ZkX58bL7PIV62/770x8FCDdWTwxdVcE6guBhr8KAHNOfJSO73bcr9ZhL3/3g/nYHWTJsjVYCCfoL19OkjAKYKppX/jD6+4Hnhf3+iIp0+L95LPFH36y8K9/uBJLHq74/l+xA4oMQSSdALxb147du3W8457nMIIRx8VLVr/74Zffv+LsP91w3+o1G3v3CnxwBRk0wdf9/nac7H3umebrLAl4y3+eOH3G5GOmHYLxPRYCTDz0gMRopCqfQBs2dL3534/t3rM3utwjQSj1UgQUAUVAEVAEao5Aj24d8RPVg5eTJ58wMeSOUUp0/x1XBnv+wUYW1YbtACYffiB+ol5wSewbM4g6KgIZiMBN/3x489adr8/5CJ9/3nrTNXaQv2w5LVw9dNzwyYePvvO+5y84ZzrK/Jfzl3/6+RKsR8P+UEuWrXazc8vtT15w9nRsATBqRH8MfW+74ylYClyBp56bi3dRi5eugZLTTp506cUnZyAamiRFAAg0cBMAVuysWLXuvLOm3373M5i4wnwurONL9YnjR3Ld9lf4YEeQ/n27t2/bCvYC2zpgo51nX3gLnwbgK1PsDpq4i20kRQpLAE45/nBAcfSUsfik6tY7njz4wB/avMME0L1bB3yaeOnV/zf3nc8mHDISXnc/8MKREw8ae9AQ3ANz1wTw3R/dtGrNV/MXrujWpf33rzobdhmrCm/+33zns1/99BK4wOD6o2v/iQ/1Rw7vFw/nKuW/XLD80KnfdoOXlcc4Cebm257Az8efLcImhReff7y8dYwXaV26FzTvVInzm/DVWi6unLzcvDzc5uXl5+XDBf1WHpzpF5zIPQ8i+SINR7hQMApM4emPuby7nbv25uRsqcscaVyKgCKgCCgCioAioAjUKgKnnjypWbMm7dsW33bnU127dLBxYeTfrm0xDGQXnXfc+d/8DfYFxMetd9//wvSp4zDK7d+v26tzPsS+AFiehiBz3voMiwL++8+fSPCLLzj+8u/9BR/Gum8NDz1k+NgDhyJskgdz1GquVbkikACBBv4hwNp1m7B1JzbkQG3ExF6AwB4ejz752lmnTenWtb27wmfp8nVdOrc7+4xp2FbX7hv3wCOzhgzqPWUSbZDr2gsSYNqwvYDMK7M/kJ23Mce86GvHvTr7I3yOaHONxRR9enU98ogDsfZJdufCOqvHn559wbnT+/bpFoXxhj9e9dRDf5jz4j8uPv8EbNr/rav+z36Iga8Mjp02XjZrOOnYw0Dirf8Nf3fgol2l/KB+PZ966I/uz203+cYLq+ryb55y/x2/eOfVf13/u+88/vQb00/5ASxBmUBr2yb57ZsW4KeD/DQraN+ssAN+mhd2lJ8WRZ3w0xK/m3TGT8smXVo2pZ9i/DTrKj+tmnUxP827tKKfrt5PsyJ/74ZMyK+mQRFQBBQBRUARUAQUgRoi0KNbp66d23/nWzM6tG/zqz/cYbXhE2AZmh46bgRWm2JTwG3bdz313JsXnHMMZOCFc6xWrt4g8v+6/cmS0tKpJ373oImX4OeHP/sn3EPfw3Zo1xpbcur8v4Z8afA6QKCBmwDwRhqmu149Op9/9tHYDgAnwAHTJ56Z06ZNS3wyh1Po3H0+IAzJU088HC+isRwIkqj5OMcOnwz169Mdj9H95OuAoUyL4tY7ZhYVFeFAhMu++2f8vDL7fczYb7vjaUkn7qk97d0V1gE0oLAO4JsLfF4FmyuWA+CbXlhbo9urIiw29/r6147BiqlXZ3/4/kfz4bJy1YbnXnob2iSiq665MT8vD19hwT0mJsnIFxTmY18W90d2HYupEFZhGIOv/83l2MXw3sgBBzGDqKMioAgoAoqAIqAIKAKKQAYigMP5fvS9c3HI17MvmA3C8CFAn57mEA0cLoMDrf5959P9+nYbw1ts9HdeXOHTgHc/+PL5x//89iv/kp93X7sNO1UhCLwyMLOaJEUgMQIN3QSwfH3vnp2xQdTZp00rzC+45wE68wMrfGARwBwVC7y3bt25bZt5wYut7FHt0UBggQDO/IAh8KXX3sNXQ8dPn4DVATDpLVnu7x0YOk0wMcoNxnfdhs1PPjsHp+Wde+Y0+bnkghMA18zn5sAL2Vz/1Racqtind1fcnzHjSHyy+MQzsx989BWxp8KxX59uoe1VXXDk8FV55Y5W+KBRg75/5Vk2rl/97JKmTQvhHhPPVOVjKok6jhzeH4vmt27fEfVSF0VAEVAEFAFFQBFQBBSBbEEAn+5jev/7P98tR4BjB+u+fWjIiuuk4w5v3boF9vDD7oDigrPAcCMbh2MJwPRp4/CKC4dY2R8cF4U3W4kXqGYLMprOxoZAA98LYNnKtTIdxca2Jx1/2KMzXz9i4uhVq786jc94w3RU6jaaAxgCMOdH3YbL+efQ3gHPPD/3hZffO/v0aajqcOzbu5s9FAAuaDvwxpu+qG5M1+13PoNdhc8+faqb6aGD+8Bicvtdz/70mvOXLV8Lg0uvHp0ggPk/zly8677nsQXrjBOOkCAwsjz/0rsxMYNV5ZkX3oYJBjP/TZu3PzrztX/deE1o/7+zZky975GXrr78DBwT6CpJVT5mAmI6PvPCXBA9cXzcbZZjhqolx5VbN5eUkm7+sh+f/NNtPn37T1/8Y2sA+scbAvDOAPTxf34ufcBGOwLggYJymSUB/DYWQPkDjZWVFbWUclWrCCgCioAioAgoAopAvSPw8x9dOOPcn2JK/93Lz8ReADJNQKpw0My5Z0y796FZJx5zmCSydasWGG0uXboWloKXXn3/4bt/HUo8gpx/9jE4UBz7/9d7vjQBikBKCDR0E8DytYMH9hZELvzacQ899urPf/ufU044HGu84eiaALARAFx696LlQN26dDhqylicCLJi1YY//foyCY6dArF2SO67dmmPaS12E8R82ML95tufYyKaEvrZJQwryQOPvXL9by8PJRvr6gHpg4/NuuLSU5etWI+zAAoLTbnC9/933k87rNrPogDjjp27N2/ZYefwt9/zTEF+/s5du1965X1YZ37z82927NDm+hvv79OrS3T//wvPP+6uB56/877n/ueKs9xk/PeeZ1OST4w8PkBYuHjV3r0lH326cPabnyAXshlE4lB14Nssp6Qgh2bpmK7zDJ7n+rQBIJsA8Bf/xQbg2QLy80neswtQUO/ibQX5YnsA6SxTC4Agor8VAUVAEVAEFAFFIPsRwAF+48cNLyyk1yFy4XDZR+/5TTnG8RUV//77j4cONtME+H7j6ydi5S8m9lYYAoVFBc2bNb3/9l/gFIAoHtgU8JCxw3AqJ/Tg3M1BA3pGZdRFEchABBq8CWDdMdPGC+6oloeNH4GJ+k1/ulpcevbohMmqbPK3bCWdCIgX1+KFXe7OuvAXxxx1CD4BEBfYC2Y+O2f3nn2QmXHipH/c+vh3/ucvv772mweNHrRly46Hn3htwaIVrRv0AfJY6n/ZJScfdeTB0XJ82SWndOnUHgJ9e3f5zrdOtQI4L+DXP/vGxAn+SX6TDhu9e/c+tLyQQaOM3yX7S0tySnHCyqUXnTx+3DBsCgDH9h1a46TiaETdu3aAjWDP7v0hr2TkTztlUmlJeP9/UHbVt08/YIQ5KgL2CzxCORKJafP0qYf84Opzhg7yu4doktRFEVAEFAFFQBFQBBQBRSADEcC4ET+hhNmzpUInZWIvsOIB/rlUCGUl7XQgpAqTAqsk5rmbGYiJJkkRAAIN2QQAAx+moLD2Waax2xxcrIkOS9aPO3q8WPuw2PvoqeOsJD4NwLm75515tHU5cNSgQw4etmnT9ha9muLLn4fv+tVvr7/r6h/eiC8CoBD7xv39+v/54bU3Y6F7Qy1YWPCPn5i5A6pXXUYz5+iFnQJcxwH9e1hJtJXxmkuYYKKqxAUfF0S9kpE/9cRJ0YBY5eWmHP1EvIxEw6qLIqAIKAKKgCKgCCgCioAioAgoAtmFQEM2AWCGf8+/r3X5wKb0cky9dfzz766Qe2zpgR9X+M+/NV7iiBUE+LEC/ft1v/3m/8WjPS8U9zjfztWg94qAIqAIKAKKgCKgCCgCioAioAgoAopA5iDQwE8EqAOgcehgHcSiUSgCioAioAgoAoqAIqAIKAKKgCKgCCgCNURATQA1BFCDKwKKgCKgCCgCioAioAgoAoqAIqAIKALZgYCaALKDJ02lIqAIKAKKgCKgCCgCioAioAgoAoqAIlBDBNQEUEMANbgioAgoAoqAIqAIKAKKgCKgCCgCioAikB0IqAkgO3jSVCoCioAioAgoAoqAIqAIKAKKgCKgCCgCNURATQA1BFCDKwKKgCKgCCgCioAioAgoAoqAIqAIKALZgYCaALKDJ02lIqAIKAKKQFYgkJubG0ln1CUiog6KgCJgEND6okVBEVAEFIHaRUBNALWLr2pXBBQBRUARaCwIYPbP83/8wh/8op8YFoHGgkeG5dNhh1gRljIsjY08OVyDhBuqR6YGNXJQMin7hiBq4IQobu7UZJMhHEnvY2oQ90LCjhKUIQSZZNhWrn45UhNAZhULTY0ioAgoAopAQ0DAnWDySIx/5KYh5C9L8+BPV5gNO1jm+aayk0GsMjWSHo8aM9XU+Uz90+QwY+mwNUgJqjeCAuYYNtR4STHtnemJ1GpTbxQFTWbxOKoTgtQEUH+lQGNWBBQBRUARaIAIoFePMwhmdzNKiyfTAAHJsCzFQF74sqNkYinDEt0oksNVIybynqPDXWC20yjgqf9MxsXc8BKDpvpPdKNLAVcit5UztERrVtSl0YFVTxlOgqMY/VSaE1uQZn2qThFQBOoAAdO8cyOilyJQLQReXd0iL6fSXBUVFZWVOZX4VYlf/MR38guP+BHhHPxFfPDg/3zr/apWOuIEmjCwR1FOhfUsycmbu2h1HNn6dPaGvlQTS8vjrYmN1FMOFm88XVGZ99ii5gZXYoGYYcyJHHBRUl7RJDcXNJEb/ni+xI1HhzAk0AhRaYFpcPeOXZsXWlV5+QWvzF+ZFs21ocRlZ195ZfwZZqzIE47APt3Y7ItNpUQJMCceqLJAC/7kw8GpQfRgHr2a41cdn69YKai+W2FB/mF9O7vhP1y3bceuPdXXWDshfYxzcyu5lkjN8CcwkarDCYlvZfPSuXpXk0cX5hM9lWhG6Jdp0Cor95SUNc/PI+6ENXBGDBkGmUchk/9IhYJabu3SeI3u07VNoZO9/ILXMrAq2ffIqDx+qxXCPzZJjFVcrzfXNcvPFYCloyEaiKSKyu37SlsWgiCvA8JNeV13QEj6lCG9KsrLLOPr9pQuWLMxjQUgLarcGlRWYe3LadGd8876pnk5TaQSETFcZcDRDtSgPCLPcoQuqqI+OMqKcULNOIpbg2rOsZoAao6halAE6hYBak5Mo4DbeLOIuk2TxpZ9COwro4LEXTj69DzqvyvxSLNNnlrihn/TfEb6fe7xyQmZ5ZvASDnNQ+TSijx3lVppTt6u/b5FIFPglvExVUmZXkbqo1TRFOsp1JVUFDLCjLgxytAIjKipyNldUlmWDz8ahMGlotyTFMI8XkiD0ERUpQczFJuyCp+ZvNyM5EXyGoOdIAiGneqMsTDYLmeOmB6pMgQxqlEuTShDNUhqE1cZz14jSRGO2CM9BImWwvI8lyY4osxkXA0KTC9jZp87O2/yGZVI0P2hQkolosYLphlu38QWs21fZWWRIQj6Zfov9jTiIR5B6eaopDy3LN+vSpUZWJW4ZtAvM/2PllGmMHH75k+AAgTuLyfF3ERJvwMicsmeVlG5s4S01m8HhLShBlU4bR2avsyvQeEa4TVxYXefClsJA+zIAziSPoQ4qqB74WhXSU4ldUA+R7YN5CaxjgYJSGQWjBMirVwMLriJi+FuOEnEUQzaknZSE0DSUKmgIlDfCMhA1fx2ulVrCBAvfn9ibus7yRp/5iNAY61AKrkrol7cu6j/yUWnzoUKgzT2Yhkqa/Ro+q7oALFG2Q/0iBxXxl1emjipfnoJQUovpZh/+0kPZMoNE8kbYxt2ZY0BICgilpToZPAFJ8MOK+AAEV1h3ck+u1mgnGYgL5KVmOwwXsJOIOWcE/aq+hIhlx0KJ/WCQ+PRqUEUndQgqkVCFhMEUkgy3QRxApziKEkKF5yqs1kXEgwlo+5DbzlgZ7/yiAT/dgqzlY6VXEab5b1AEpPwJVqYG+YB8xyHIKIHgS1BXMfSeEGz5MjoDD6lMaIaqfIJ8hkSyL0ihieDi49tKq0NIezUJcIkiLOtPpSRuu2AAgRlYA3yCj+n008sFyVyYcDMDd3zVa3yQGzbDslG5tdDUlwPgwTJlJ+jDBwnVMmRQ5blqHokpcps5poA9pXn7qGXVA6zpqx5RY7/ynDHpZ/vqTkJIej0GEa8AOvOqhTyVEeD20ix/AXtV35+vp8M7660tKywMAByWWlZQdBF1ZckwQAAIABJREFUZMvLy3Nz8/LyTIIK92/PzSuQulpSUlpZYRYjQSFkYsYVjT2xS36en7ByT3/iIJ5vtHAmgCc5lbGk9u/bD+cmTZuEPGGzh1dRkyb5jgWdZCpz9u7dWwjEPYRLS0rLysqbNCmCJ14BlJWWssKmId5BSmlpadNmcI9mLUbKyssrSvbvb9KkSV4wATETDOPovn37ioqK8guohEhcRU2KaNhRWYn04Y0RkmSpj8RHSZJk2V5S0hlKrDQj4phcPiJRqUNjQkAKiTdtMVXYlDQZTfDIDC48a7GlMCeXVgDyoJr9bWFLbyuQm4PW0H/tj0cagmTY5bQYplLKgIuSicTyqMlPNkRk4pdCRgh+m2n74CighoTilvkLx0kBguyImSYt4HGegkSkkJ20JCFZJZYd74YSbu4lE/Qg/8MDBsmT1ZAgSp8hYoGwZ5Z5dEH/eZAiE1EGTmoSTSd57m+rUJqrD2ppJE9+UUyQn7r1stQw4PyfcaNL/jBngqr9nWQaPUJ8caFGYqFqI5NPKQSY/wcJMmJeG5degiRNQY5MTpPMXd2IEQ988U2AIOZKiPIE+MmRrzKNJG96GY6C2y5hRtBgBxLCIzOAilMnHZDJhVOJiCybvSpzVlcCHuLyl9Noky7p9RiBsyTfYSmZVIpm6kNYg9BgArKf8AJ34Ygbu7riKKvGCbE4Mi2eT4Rfg5Ihp2YymWsCeHNtM2TNfmeC0iczbboppyk3nr3f/od2VEi5xdhTXtHMfKliWg1SJmDxX/zvVVzSsqA86GaFSJzl5JcJEhPtTz/6bPGipSedenxoZr5uzfrXX3nj+FOOLS5uKQG3btn2wjMvHXnUpM5dOrmqMP+f+dgzg4cOGjZiiLi/OfvhbVu2IWwoxkcfeLx3v94HjzsoZkpScuzSoaeVX78phY9sW7dp3ypnrw1bUNhk2catKUWdjPDGDRtff3UOJsxTjzmyY8cObpBlS5a/M/e9Ll07T552hOu+4MtFH33wcZ9+vccfNk7c33v7g1UrVp161inyCEiff+alg8YdOGjwABsQpefpJ54rKSnpN6DPQQcfmEzaXn7xVVDZsVOHSVMOd+Vfeu5lLItFgl3H7du2P/fUi+MOPbjfgL5wn//Fwo8//GTGmSeLYQJGiscfntl/UP8xY0dHo/YaDNP9kgD3uZ4kbpzWPRLe6xsiHuqgCPDIy4WBi5V5GyNFjAZd1N/zwNgMztwhEJpIGQ9QSHlII65Q7RZgTkui0p7GqFNS5aSKbwVHvuN6S478YzydPHi3sfIFN58fU+nNdJG7JolWuieJgHo1CmUahQA7KeUosXAumWL8TGQsL5wLm1IuwuLgJV6YYb74xzDFUk5gN7MGGYcbBhwiMlygCPltP2vlV8qsWSI2AwqSZkGiUSSN3nT+wRA8lHJ28IlLZ2Q10OUkiW85hcaRnz0Xdg0nP/Ac8Y0mi1gRhaxOJvdUU3gdABEFUshDEgIfx8QZVVdDF1PmPC3S3tZQZ9qDJyBI+PGKt8+VkwYp/ERpNGGmCkQ92IV8iQ8pD6KATM8Oy/JkGrygVxylKTpT6p34Qk1fispqSzw+QVR9uNKY/yzpEyF+Ql8yiePK41+sjS2dzJGtqcE6U/scmWyYhIXqVDL5qgMZxkouIUFKNdPB6Y9yJEFM5li8NtKZuSaAQG5DRc/1M2U6LCENj8GdCiEVVVOAmQxp40WACym1I04jIm6eB4eMyQCK+86du0r2l6xauaZvv95u0hYvWgL9u3bsbNWqWNx37doFl0XzF2P66kquWrEaGnbu2GkSzOXCVN4g7RCojY7cxptMIYvikFLwZKKAzPwvFgwY1H/92vWYM3c6sqMbatfOXcXFxV9t2Lhj+87WbVpZLwDeuk3rXTsIZHHEjVzyyO//c/Pxwt2vkDkrl63C89Bhg+d/uWDkAcOxuCBxCjdt3LR187bRYw748L2Pt2/b0aZtaytPajm+gAZJgR2Q8QBaLogVFhViLUMoSb5C3Elx9Zwc1RSPH5UR8/0lGcHQiXOmvo0FARQcd/2UFBLTu0uRkk6d2yEZiFGp9RpFcpIWM9AuRhuGGuGJ8RYqjV8XqDHOxCNsnDRSbZV6Z+6QfPKWH3tvuhKvylIebYMg+XV1kkJvgkna7KSE7iUsKZAuzXZh3GG5vVba2EFM7pIl7pAykZcokiF2CExusEnSIO7exym9DjdUC6ja0H++t3WIJpdMu5HmRyKExSpEmD0NR0xc2jji9PiLCg0UGclUINP8wDjgl/wl2IyL8CQeFioWFnmfRpNhqiyeI6vzKGKF5CP4S7TeZN8niCP2CCLpdBKE6Knj9xZ+epnLvKrkZtsniAqYT5THAkPKsDFU8tdDmyH3LsOA8wwxU4OMHzNLFMk00zR9UuNIGN62vTN60k0Q3iM6pHNJzDiCAkgigR565pY4YCRxsRcJGEd2E5oCWhySvDZNnGJxxFYZ7pWIJ9ZWlxxlxTghgG56OfK4qt7fjCvNkWx4ZdeWSS7BphA7BdUUairZxpVkWFaKO/t4D9yySJ3waoQI26rhBqRwko5wajjwzh27mjZrtmj+IgrjXbt37dn41aaiosIdPCOVC7NTSK5ZvXb3rt2ObO6ihUtatGi+czuZALyLcuHKyD3nLepcHRcHjNSCUwrcwGlKj5uIbdu2r1u/YfCQQYOGDFy3Zp0YR6wAIO3eo2uTpkULF/iYr1u7Hmv+u3XvumPHDouR1+5RUKze//Tjz1oWt+zbv7cb1/x58wcNHTRwcH80WwsXkNUm8TXviwX9+veBeaJpsyawGrjCjEoMOAxiIsppklt0eJ9/+gW21B48dGDMSEmO0PZZ55CCPvvIAwvQvX+59wEpR0ZvFYFAqeHixhffcFnj31KqyXZmfFgi0AyYdcdSXtPzO6BfIqTKkEk/nGv/hzDhH+PG1kaDntx52AqOVZY/5iF4ueqMcuHKZYe4CSRMVoWnB7os4EV4SMSOMMMDembGXJYXPIeRr+KZyfAuufd+e1HwfI8diUWSNQWF5lO1ULCDTFF0mfVDULg/lDoGh50ZNb8GCYgGNANjFZRYNqyc4Yg0m4vVCi1inufoOVkBgsQhvQA6BcDDIbMI4lbE4cgnyIDEU2IBUPhhND1Ak6SH8ywXBReMjTpPO7mjOaXiQKgZgpy01UUNqo0yULMSFauJk8IsBcqww7CaS9hJmhoraGjxwGdiXLXWQTkKclqHHKXMauauAuB6LsYkvwga6xI7mHaAhNj4xPLGFmVCoHj6a1LYlssWe7bUey0bBTMuJkZrNmYpuowZmO/FgVV4Fyaog4cM/PKL+Ru/2tipk3lfvXjB4u49um3auHnn9h2iBeKQ7Na9y+pVaxfOWzRmnFlzvnkTyWCV+NLFyyT9VrMN6EaH+3juIbHEj4E3OYlFo75Cj7gD5qhAzVzmfT6/V++eLVs2x2T7s48///Lz+Yd6a/uhGAsrOnfu2L9/vwXzFh144Eh5b4+1FX369iwuboHtEvDtffNm9CEJEoaZ/9zZb2OPgC1btrZo0WzcIWOwVYBN3apVa/bu2TdwUN+CgsLefXvBjjNsxOCC/Lj1gmwTa9afcPIxMN8PHjzo008+HzV6ZIuWzQ0SOTnbttK3Hm7uYZiwvpIk/H7v7fex+8CWTVsQ78FjR8MAlBhDwli6Pu+3OJjO2aFAaoJQEiYm/OwmU+8bBwJSBgKmfdPKSXPJlcZ/uSx2fX7rz/hgk37Y+9GskgY4mbDkFWkmawgoBhJuG5Vnjzuqod60BqfqZqou/ZH/Ulu5i6GLexv88i5+IWy8nLA2XU419eFlPcCeuydSxuL4w1yBFuxnTtslEFUkxWz4wdPIDlKCd5c2tfQeM1MblkTsWAaEGuZHsKWsiWXHx9nLbuycki7zvYynh8lhyogj4QugVTBFrA2eZq0NP6e7+lBpCBypwQmKnX4vd/Xx10kS4y+cCSlmwkcP7GUug55lJ5rsQDYJaApOf0iPXNBlRodUXWwq8rDlucRH5NQqQZwjlyNq7zKQINuQGBb42SGI0+xTE8wCuTPgLvKWhOANyUrHwi0kBfL267IdEByBUp10QIgKwzyc7GFTKZmMk/r6cQ41cYyZgMeJZQOaAd8g6pcwI+k7OCy5jn7+uTmj5RcSDzdawhlF4zRhdchR5o8TasYRMxigw69KNS9zcac6NVddIw1UnJyKx8tWuYiRO5dpszaIiyK86b+USxOvrN8xOqQx8Xpe0sEeUET9MRdqEx3VFu9eYJdiTX2ETZEjn7N79258yT9gUL8Vy1dhRiomgLLysiWLl044fDxmnjt27LRQ4L5n7x79inovXrhs5OgRWCMAr4XzF/fs3bNVq1aYu+715q42SO3dcCtenYswcoNWU03cqLHOH19GTD9uGiSwvcLAwQO++GzeqANHNG9uZto7d+4sbtWyZ+/u876cv2jR0uEjhsK2sn7dhoPHHbhr526E2rF9h5gAWEPeoRPHYUtFrA5Ys2rtqy/PHj5y6AGjR0j0sDUMHDQA83A8Dhk2CLsMLFm4DO/k4yUO8j16dsNSAggMGNz/88+/nD9vwZix/g4CxS1bjht/sBsc2Zkz+62QwrHjxqB1hheS/e5bH6xZs27CxEO4YEcuceTf+CV//TadXSQg8+I3FuwYS2EkBnVQBAgBFBhu56gN5KJjhsjsGoHIa3IhGmx6I5LVdKCu3YmWJ2XRZFRTebqC+a0oVT2pb1Lz8NtcXC/pYowDtTJGfmI4MTW4vJkK4e0pFC/0TWycYS6MN/dXtcAO0gJqLIA8yIyZ6HRhXH09HiGEl/wTEiwhQgf95lzYGy9KoYyfYuXRusn4AGAbLd4AAwTAhdyJCWgTA4CYabgGEUlMU7ohDNGESDLTWBObI+HC5clMZpgKxswjjJgh4uJf8GRChAoO6GnAXxpZBuBnjnjIWasESYLcqoS9TxNnJH4Wa9EnNkFUnfzLcMAOFszgk8laiCh5NOxwA+c1W4YtA0ggGKIgqLgccA2SSpSoCFQTH2LHiZqfaiGaaqaOghl26I5uOXGcRp8cfpBmWrLjeXFoyU6iTImIU4N4iiRRSNPFEmZmJokiSuRzJ/IxBNVCKwftmT9OSJYjy4uUM1N/fI5s0fMVEto1ujLRBIDseUWGS5N0ntYmYMojyhwPTM0nKCToOVCnKxcVOVu2uQ9gtMSIQEWHnkVCLAheU0RC0qx4QTgUhyYvowH3mMVhktmiuHjQsIGffPDp7j17W7ZssXLxamwv371n9zWr12E7Ohh3JeDOnbvxEXuv3r1gLFi2dAXmnPv27sMmAtOOnVK6vxTJwZcCLVq0IGGpsiErPiWWPSLuoj+l35J7CZKSQjJch94CpSM9NvHz5y+CcWTlylX4geO+vfsB+IJ5iw/iDfN27dqNjSBbtW7VomXLXn16LV6wdNiIoYsWLcMnAMWtW+UX0DEKO3fs7tqNMBe04NgMP82bde7SGcBiTQHMCs1bNN+w/qvNm7Zg+4BPPv5MYseCgoXzFw0aOjD8/oS98fnGyhWruvXoZuVhlViyaPnIUSPxVQJFl5OLb/vbd2wv2uQ3jidgxrCGzU9SXn4+gqCQdOjUoUmzpu+99T6SFNokUoL7BZjIp0j44j9UdvmvHd7Jgy3zrELcjDZTnuVJfzcuBFASrH1TioZt1kyTZub+5MmNp5QkfJRP26+a4kdNIzWGPEbm1tA0lVT+0wgoYg+sVKqsjFkr0xhjTVSZ6siNAOmhein4+cMvI2Nm8kaChQxuBm8vHfIIatjBn6pQB2TZgWnEPTaBePPYIYb8vjRd7FBD5jT4tLdKWtv/mrAQL6xBnhpMurymmG6pkAlV8PQ48QbM4fIMCQ9QeEm5JxnmkMcQMszww1FUdOC8Od6CIqBj6ml6iX9QxtWH5dNFEGcxJz9IkyQyg5mSekAcMBaGE0bFUkT38oMtfcRLoJcsc9Awigghwzpj2KSWjsdjXBbwH/wzQRIxxUyUkBjRwwRBZ5hXE2PN/lDNcetOhLKaqU9v6BgEMYrECC6pRpYgtBIGZAOzlxiPDzdxrBpYs6j5xWppqsnlIS8v2AHR3Jw7IGK3ljogSgwaN67ScoWaPuueCTdCDxd/RoxJMWDa5sx38vxYNJB+ATySJdZFfBBPsrTdGDcNZw5HRFplhRQADlBrrZxkNGvGCQSi9y/EEbwcmnxPj84wIXFoCotV9ZyJJgA3zVSSaLTD7a8zfuWSbAo6tdDU3NASOxzAxmKmZQqVbfPo1WhqtbDMx5RripbKtwyCqZTblkV02npiOwsKgkl7y5YtCwryBg3q/8XHn2P9P2aqixYswqcBKJdt2rRashCbze9v2rQpZvtlJSXYvq51m+KevXosmrdw6PBBWCzQrl2bjh3b7969BxHgbXbX7l2gVj4MdEu2wAIZKiru2zHxSP03jU28KyWFKKluv8W9WLARST0xNgRQWrZo6bCRQ5t57/xhNMFeiUsWLT1gNPbqKyKbS14uVgEg0qHDB69ctnL92nUrliw7bNKhcMGa/MKC/J07dkiS5M2hm7z27dugSGF1RsviFvM/n9ejRzds7G9jHzJ0IL47WL1yNY4ViGZiwZcL27Zti+87fPlhAz989+PFCxdhTQc5cnUNoYFHlzVuA+iVnRVr374tXPbs3hMfRgMvF3kq+FL++ca09Z6TPLKQueTGPrpe0SyqSyNFgJtNr/EkDOieiilGx/woHTy3kV7hEguATE3tKCx9+OXmYRbjq0PDbMbu6YsibZpMxZQ/otXUOx4aU8oJNm5ypWqaCsoV2Dj6dTSQLpYkMeq4+D8RINqIHTQlFZhUOl4cnIfHPPvxOryA1ho8ICtO30H5cnmqgeLaCioImt+IxALNXalc3g2nQUiJw4efSsLXefKHDESQuch4Zq0AGKCQdsBlLAkeR7VQfTB9cWniePMzlylmQTDzCjwT4VPk7KPrU8kyJpj5G/OPr1NY8qLjwRyNA8UKwPWF6hZcebpTmwRxREGO6Dlm+uvfMTZBkgepRlGCOIxfF3yu4mSHKpThVgLSBBxfZnDrxlYAujE62QJAzxykNmqQlASnrePXhplOkK1GDDLSKyS4HZBUGaZGPG1zFYMYAtdzZjladE2K+Re7mHGCwxHHy+RwgFrlKJvGCYy5AY/+EnrcysmrXfI2gwTjlRxHrKZaV+aZAABQoDJzMfIuwMEmWXIiaGTQagS8siiNuGm9BUcKz2194KIO0ePDxmniM38k6nA4N0k4DgDzfOjB8fX9BvbHSvJefXpgOXr/gf3giJfV+L1z+65mzZpBEl0N5v9wGTJ88MvPv4K30EsXLh01ZhRc8DU4DrTHzoKSJCyALysrk3s30VRSgmcyVYt3CuQqj0aUQC2EaVTrXdLCJJBPyQvrI1q3bTPqoAPcUF27dZ756DOLFiweMWo4bC7FrVrJ+YuYveMt+gfvfISt/rt274qE4QLmsrEiZ9K0f1bbhnVfYdl/23Zttm3dvm7thhNmHOeeKQAx7D6I1f4wAYQw2b9v/5JFyyYeOQEfArhp2/TV5oXzFsNmUcALECTCYJY5WR7gdsxp9W9YtwEFo2On9qEYPSU+1K4ivvcdRD8PWAyznqe01YEUOewFU6pPjQYBFBXpnznH0t5J4TGNnlhAqUOSeSZaUJRdcSWjvozVpLBFG9c04IjtsvPznXYmpxIuadBbWyoC9dSphDwawuV17aaq+tVXEhQYGpCT3w8advj9i5BlfkMHB6Y5DBESlx2JIj2/0QO5x98iX5nNi+TasGMQMw0nsUQXN8pGjp7p1jhYZ2/4IG0sLa/Axb8gyaMSUxfc1pV0YerCVgDwWZmbTxQRs8KpjchEQ89purj64FW5fyGXGcyUjwCBZuDkW7rM9FIyYyhiD748suBNQWO3bBxWJpB+e4XA/CA1yCMIYt6bJ1LJifFxTN8dMRTgKJMJ8kFgxBkYAz7+BAhihCwrLGSc5I8DZnDqLnSYEb2RFUs0HgIdkCikaEh5rXRAUA52TD/H8dHLr8ztg0I1SIotwWM6IMsC0xbkJPAYqEGCroWbAafe37sxFNA4AbfMEfVd0sqZYKy9tjjKqnFCjTiyaMqN2bzUoaYat5lnAoidCSqw1NvKeyqvPea3Idyoe9hwOaOhEHx4vOqpw50Fn8V5sGSGZaJWHK0gm4A5PGuxcZCAz2MOZptYSU4tIH9MjlUA7859v++APpiUwgVe+I0tADp37Yy5a/MWWJBOK8a7duuCWeiH735UXlHJs02aUxe3Lt6OvQNZFVa549U3jhWQz84pGTk5a9esx74DXPXSMBTmqmqulBRyJ+tAQOSkIT1ICnbIw4Z8Y8ePDSls1bo19lBY8CX26hsGK0mr1i2twNDhQ+a89ubY8WPQNktmWrVpvXHDRhFAKivKK7CzALz279+/ZtU6vOE/ZMK4oqImX372fo+e3du0bWNBkJuhI4ZC4fq1G7Dg3/WCbaJlcXME4ULnX8NGDluxbOXSRcsGDxsMD4ImiIZ5tChxcGwJiY8dSktKN2zYuJRWPQxr07ZtKCX2USI08fKDmGBIpXMRKfTIv8wN3UPeaKidcUy8ZKt75iKAAmFaOmNylWLCRgEpLE7a2QrAIbjv5xaQbABGRIbL6c8rii4G5lYvVuumq51Jf1pFo4DIDTQ5eNXQdjSeA3dc8mOFo2kSjtjdY4fVcicolkRiywhgnkmdmozO0AEadribi+quiQux4vJCSUlP+1+TVFUR1ivU1EQT8gwqXfjrm4kNQezqM+OFDUYBATMwYEKYGNGJkLZymDDAB8L0Q6I8QJZ3mOQfFq4iK0l6IyKXJs5wZjMlpZwSKv+EHuHLMMO54PIsHJondhFX88e4uB/CUCATlv6ae5bnSkIceeRQRaptgiQ9LkcVVIAyuCp5FYHQo39xCRIf4YwB5os4sUxZV/Yxzty30IhedDvCNJonKydPPokaqkPWv3ZqEBIGdrxujtOZ4W2dX4PkzjLATMmT95tA9zn06SBXW72oahgAAhx5YQMsuhxBR11xhAxl0zghZY5C1YgLvUdGAP9qPWSQCYDKKPWGtsZxIfIquYw6bc5FSIKgnsomrowMGgoYo0yBZ3Mwy7KDVU6tB/WHXhviAEoaGErTxrCoBPQ0kSeL0IXpfa++PUlXTk6bdm269eiKPecOnzJRXDCrx9QUu9PhEZLY80/cIYyp5tzZbx1w0Mj8AjN3bd26Fc66FwEYEfAu+o1X54w7bFzbtq3xATx2vMcXBfReTJLuJaDaf4PDOD9HVSpECl3zAQ2g0vQhwI7t2/sO6NtnQJ+owgMOHIl9E3fs3Nm6bauOXTpYgd79euMghn6D+luXvv16N2lSKK1bp66dQB/e9iNTyG+nLh1HH3xA23ZtYUnBZ//DDhgWjah3v144zXHP3n0hL5SBMYeMidqAO3RqDxKxlSPke/bpGWUHy0MGDhnYum1rUdiufVs8Yg8CJAnCrVoVH338UZ2RzvgXN9S+N0Uh7QjfEI+OhPXiUurSmgLF8dOiPg0JARQJau1QmmhkJfMTMyA22aQhF7zlJSYLcGNIgzAKQPfcjNbCIIzKdrBllrKdoQR4VVLwZFjIiX45tRWPjiPdmuywayRrhCycfXYIb6FANPHshSWIFCNqhsf8x5h4Ipqr75BlvHh88F9C2LJhXAhIcec7efSpYC9m04WMJisYIxA/PBWRasQiRp0rLffwACVGHg/eaKcWOOJ0BHZtNAkL5iKaxnpz8SjgdHLqBUlJsCXGMuV5e/ISLHb2PFcmjRsxuUKZFX7I0SOH2zfWXAvtGyn2rPmSEsz+KebMvCyIhJ2knYt6kCABz3d3RBjJaN5M5WE/D22WFM2gwERhbDQyMHc7oFokCB2QPwlhdrzERDNS3y5e1WAKfAQpwZ6XpF+y4OSFHQy/MRjyqXE5cqCoX46QkKwZJ6TKEZc4Llg+RzEZqnbhyyATgJsHlFlrfOLyx+WTsbCNOMl7r6cqKmAFYOsgfufT+xAsuON5qmnDSZiaEv5LkvQHc6e8fG50vMj8CFiee2txYzG+JAHefSWWkXfo2MEWwZGjhhcXt2zXznujm5vbb2CfoiaFECgqKurRu7uV7Degz6oVKwcPHWRduvfsVlpaklNB613xffjRx0/96P1PXnj6RSQDawGwxGDo8DGl2E2gbWu3xNuEpXrjmgBSUghEzF4vHCVNQk0xTTUJYflOnTvhJ+zKzx06tscP3XRo5wrgO6DxznmB8MLZfvgRmQED++EnqjCvoADHBETd4QIjy/jDxka97CGOUa8Dx4wSR3vQgCuDow0nHH6IdcFWAu5uAlFtsVxMO+D+4RZYhqZyIw72N5VcIyMaufD7V5ooi5Vadcs4BEzTx6ZPJE5atsA0httXO9yi+Y2XCb+DZwl2FjVu80pa05tt2mbOWSWbj81eMnQRpl+1DC4WI3lmzP2aaboV38FDNFRF0VExD/70g98RVsoBgBTcAC4K8Wy6u9plh/tNZ4U5EpWhvAg8HkoON+ZW/hCMdEeA8sV3VB34P01G5CZ28YYs4U+CHlEUXC6/7niBWdyfVhjGPPHYUVTLFWuYAzShayvIzGXMfrH3gfMoIVjpv7n8W34fa/gRV2mxLPQMmnmX79cg0iSjOonLJYgqm9BD8iYttUcQkheqSrkZ2sQlS5BDFNADO35AJoNqFdPiX7aJ82Q9AWLC3Ic7ILjbwbzDbNo7IEoyFTM/zcxXBi7TSESQVB+Bn0FlB5OvEB3iF3DkGmS6IQcJ0eRL1iNHWTJOqIojl6GEHEnl8Yulw4pbs5K8z1ATgJd6oOYMK/2ab4Y6hIK3UyiJyhCIWwfTjVOL42kgpOgeXtzC0wJA1G/HiaJ13rmQkV8Cm/i4ueFUmAQiAUfz2XU2lV26d8WPi/7EyYfJ46gxge/b0R1PPWYfHOmIAAAgAElEQVSqK4mXw/ixLl26dTn2pC6oWtipxn4wNmX6FDdITe5dEwBahORVUSvI2yjKxX1xCsGTj0glBQHbeJgW3LTippD7jnRHIfiP/IQhrFlzEdamzw0HAW4dpYnlIkRtmlfw/FaUHJ0WEPe26SMoAgOymmJDjbuzLBYp4hlwhl1OjbL1lJLI7qamcn3EL/OfWkuqq8GggdDhTPLYWfofUkttbrnRLh2arBOoE3a433SIoIxkHi+CYFXseBwYZuQPF/yEdPj0+FVDODc1QNjlrTThIvxbgxnF4owhfGXprT5USgK8cAHMPKY8jqLVR2oQc2SIcqcuDrckSDAGnXxg5c5UIqaMkDBbzTFBNCokguTBIQhefhOXVoI40QGOaD1f1hIk8AfnzEKdh34KdUoYsXT6tczplYTwWuyAEAHXIJ9/NmtkWA1yyny0Bkm1sTWIyzldtokzt7bFS1yDTI0SOqQ/s5Ws3jjKgnFCPXBkeaniJiNNANL+SnHm2scO9CwFOpwntKLSdss7LGrFZaQaDULqpEtmqxVVcFNtuHEnR4mP6j13BxKZ1zfYJzcNoVYpnLwaP4c29amxPqMgsAoglTk8weaYQskgkErwdKW/8egxhVDKP41jpB3nG+PI7bpp3k0tESev8TGeLN94kNOcJocAyorX2vGIl99relYAaY+9iYxpJ0kvBQkO69JatqidcRqW3LyKzDc12u7D66qMg1snZQLCUHlSAqNFz59pQIgnKMwOE4FuS9ih+i3VmcXlnnst0VNr7NCQy23wkY4saf8t3N6Nyw67yX8rR6WcWtUYtUjAZ5AZfPPuAM5EjDDFk0wenIgCuHvVh4MTV67qmBHFiDspJ2IlyAulK7OZMnxw/jwS5C//pgzIH8MUiwV+xYJG+klq1KQueZyyMjt6JBLhEiAo3MSllSBKN5/caNOMtaxZSxDz5RJkCHT48YgCqg5NgF06G+pM/JbOI4OVEnN13wEhkcSOk1r6tiZLahAXbkJcUDePPkHWVwgK9uMOPZ6SEEeij2oWK4rPUS23chR3to0T/BZLuEnIkQc0N1oeLx65YZ6q8ZyRJgCTD24aqHBRN8rllFtwJ5c82vEcpBCSCHXH+QVYTk+LFW33yzVZhEUt6nKu7DjNMhKBJ059s4EcTv6DJMJFOtCcVYOCegvi9j10+mnSF4RdeTYIpBA86XhU0EHAK+fyV4omFX78518QpVse98l9AD632iiujR4BlBMZD1NRodGVGX7hUeaYXlOJskWzSgKM2lX/D7uwkSBwhZ9D3ik9UrMSNDVKOU9JSe0LB6qW2x1x1FIxuYaSn/krGTHC7B7o2TwtNNcXfiigYCs0UE0XXdw7OReRInzVFjv04tJdDSspqX2gqxVDGBtRwvgbaogkhx15YurI1ZEPxG/HFVRDRIpqjoSTwFTFfIrNOIHog2IveCB5UsEC0dTkAX1BcNEyjXi8olUTxekOG4MjL50eR8KF6ekMMbaWeCzFSpeDNbPit28BKNiDwwcICg0400wQFzGXo1w+0zpWNurXLUmCOD+Ufo81rkLe5TRxrqvfxFl2EIJtNaKK+yePGUOQ0UmshZAJP4e8U30kdpwRPlegTCMoBjsEk0mn4YIeGU929n/Lo49nFCDIxuLI6mKqDEdECDEAT5eIEGLp5yjjxwk14og58TSku/hlhAlAMuWNW6ytFgUlxnY75Botpp4LF1fqd/GXzbumsHvjXS583pAJkyWJWkKJDg9hTgb/o+rijLJIwGkUKCb3MX7aMs3HXdEkTULSKQwPWFMMnnQ8jV4wAGyw8nMhp8srt3SPEo1HcScf62nqQaMHVAHwEEAhCU5jqKnj+QmVIJaiR/yRPp4bU+eZm9JgkUzcNnsRJ/2Xy7NvWww9Jq2mDgRNNbMxGVicysmVkgGji45XMBc5h4OLXGJ2WI+3SBW33Ac5fSipryV26OWywwsidh8tCBlzE4Y3yg6RIIAZkgS8YDcXMz8iT7h7hgAOSh8YcgWhSuQZ0SQS446HyPwyOG6OGV8KjtgKIMQL16cMNNaHCSLMBDuPF3Khe1uFLA4kyv/ogqvUGo9Q75EDcvNm2jfaCpo5Isl6IghJ4prkrALAPh9ZSZBp2FyCCFefxQjFHCLYxFl2qNYwP6Z9q68OiNNBly1tIb6se33fhOF1kOekcd1hR/e3pNqvQeIdswaRlzcdE+UeMlSpTBSoTly//EFD7Q8SJM1uraFykw2VqCYcCXNSS8x9df9khAkgqcRTQaUCxqWNC3LCD+3kox1beb22xh8nwcU2v7iXmmGbJESCe3KXzkMKtSRUhspuooOvYZLKTgYIBapNKnUmsvCG6lwGZKgBJsEWYM6b2xmZe7dFF0KlaTbNPQfycHGCG+9wz9EAEdQsOQhQ92xmJkFXFBNq1mgmQx727SU9On28PLAKU3QC6tJcnDCPCq42ysyuPVjCnBrrVleuvIQPftFfT4zHXwa3oDyrtV4RdrgPtOyY2SRRVfvsIF6XF5SGjBxyBXmRp9jsCC+GHRMMHVqQF3my5V3IMgMG9uM3YX7tEje4+/NMoZQ5MpSHa6NxjpX0lN1CNCF8fnDFbMoa6yBAbIIIXVs7jAj+GIj9GiRy4WRaHu3ITeoIk8bCVG+IP/tgCYJLXTZxlRWZXpWSJ8hr2VJp4jzquAPyahCzQywZwuqgifPSgSoTOOwKhbDhEEQQU9l3CWKYI61QtAZJTTGCpIXaNFJoxgZ1yVH2jROSr0QWeWecIIUzypIttCndZL4JgMsnt8JiC+TSRk9c4NiQSLYn7iK4/NEz3fOHo7b5FsDMIxdTcjFTV6dH9jRwgyPuXLidjsBrkSzQ6SIjJeZqLuw2bsGGrgrdEMYbBj/79LYh0mpUoUO9q4MAF1q6Qjdc+MlLbrxbEwW39HopAlUiEGnaOIQUJ6cp9d/eiJ8ZolWpPlUBROy2raHHVLXVunygltka6gEYM/qUKmbGsBMlwqUpZkbr37Ea7FQj0TE48rCx6wJkaMHKjZ+ZfFYjvkRBYtKUuUxVj6CUahAhHrOxYlRiEWQ4qh2CRLnLSJSyRATXvZ+PtiAmKUhYplIiKEl26qoDMuw7OGc0QfVeg8yMiWGrW46yphLVDUcptAyZaAIwpcdrlbn1paYBDmxpggMe+a2VZx0UQ4AnRk9sHnBGkDKA9XRCI7TgPDmZu9rRLdkTxJpFkZIxQS5xt7j6HtYpC2/cV/cpmTZDVjeyi+oqgDosAHa2jzi9e7qVRy723qRfHljMbyTd5rIOk61RZRoCUiZMa4YHau/4XSY1tUgsNbl8kY9TasyaKZsda0JNbwb5naWzSpZWdmXuaqNYtcrv74O+4s5uFuJIeCbE64Gi7PidWyJ2WEFg2FFzjkK8UKHJYF4kvxF0fVgiXgGTqfhaGdxYTpi9GBwR4CxnuYVksAa5tckfN9ecGldDrGX/SG8W1aD41YcpMjwxyrZ7q5IgtGQc2K18pKDuCeJkB5o4HFHdIAgy8IZQdoYgppxGqw+xIx0Qt1q2BtVLB4QEhN5uoenLWIJsG+U0AolqEMHrVIPUapDPUaCVc6Kuo0ECcZTd44SqOSJUI62cA3WNbjPRBMD59XtWFFOzbM70qT5kBhoZ5rCz6Z4Rni+LDSskfwlC83wqOrioR+Rug8dKZGDgRQWkihTYQRhrMwOy0JA3Sy0CLo4uVha0eDck7K2aE5mUgsdTq+4xEYhi65ZrKbTy27gHmpRgZYkZgTo2JgSkkJh2kjNOjZ48s5/U7MC3TTQw9eaiHMIFLDg4SyeUSJhb+EOP6YwpTbqcihnV6E8sqfkUDL0A8tcGt+xI9uOwY8ZvzlRTIq2LKh9qlEKP0czXu0tCapA6nx0ZbRG4QXZsFuAcqj7iRTR5RPqDFvjxaCKYgDrhyMmCKRm0+VFdRF09uqtImuPNFcgr/15k1j9KUNSUZjTYhPr2GgNV9bKQaigmJMBIwyFIKoOXO/krv6PVxzZxPExnQPDLIlNPHRClIsJHxCFVzmtRPliUIhH53g4r4eLH2Mdq4kIcRWoQwrmtXB0NEgxHTi6IsiqAiCBThw5VJC0mR8HkVaEhxbxkkAlAMua2DqYwokRyuxA0BBD17MMzdTtCle4WHrwXTmDc6jUuJghk0ADLCnbnHRdN77n0QowXGpgXYk7C/A5F0A4/p8hBfYm7Zw2m9BofdhN8Vegnm3buztx3C/UFb23E6zZtwXuJzbpx+8zlONAaprfxqI0cqs46QQAFIcE4jIqNHYpRx+4NyyRtwTa69soUiq7bsFDHHhhX1AlSNYkkmFzTr5BCv7/xa6yTtWTYgTZRGDDWkG630/NH0TXJRyhsaC+YivD0KY1R1Z4qhw2OJPBMxCUqaiGCJJWg0h8J0INJfJggONc+R4iERjfBfplKTKJs1R7a1dIct/pQr2Y1Sg0K5UseLcy2lhFB4kdOvpIwR3VCEJW6YBOHEWvDIYgADoxAbNZC7AgOXC2chtFr38g93AGRm1MAqlW6kgtEBDmU8BZjyYXMBKlgWiNNnEliMjUIoiIWrEHkLFrqmSOnoUM6GwlHaSliGWQCSCI/KG2B8Q2XSwknL/npUVpvan5oLwD4ekF8PyMEGfSSvPA1qphGvRDwfX0Z42wTjBKXjVYAwse7Uqo0hItbybKsziVR0DJPxJZzU9y9Yh985CcWleY+ATMpMZ55eGiK6hKBUPtoCh+nINwg12WyMjIuFxw3gfHca54JZSd5DOOxEM89ec2JJeNxpNUnhFs8IuK5J4Y9eV8lKCWsosK1SlCIHcRuo9MalJk1SDmK1hHrEq+yxHNPoKqmXplrApApiplay6yGDVDedD3eh3bmExQ23uEHYZzGQiZSnq2RF2HZeT6JsbS0KSaUxGeMBOLGD7YJEiNDNk6o3D38UnqNL8D6RS83e3aErml9qc/wrtUlnA7HTyb/VEK5cDs01UP7Ek6nPmcMAigbwXddjpmfS49NqbsigBw9n9oefEnj7CeDmurML8Pxk2h9vJsEvUbV7AAJ1hOfHbJi10ZxYxqc4hEsLbURY/p0JsFOcpFZRW4lEkINrZZlI+Fwwbe1XX24PkcKQHwAkst3HUjFSWLYOdS9xUgYQkSbOP9tjaMwZiWqdYI4ycGqlM1NXJggzl0sR6GqCnYIGFN6Y7IDJXVAUKSty3yCEiIerCVUheKLM301qkF1xFGwoeOnSLsXzHh9P8VPX8QnMUE1z0jGmQBCZQ75d5tsaQsCq7Z4Cu7g5nFvioEPYMAWQMjRoiP5EMB8/srNMS9oYVsANHEHwp8a8DcBfIVWvFCSMry8Sbojv/Py8q1bpOBFpF0HwBT4EKC2S2nCxDROzyBhIMSh0us43WIZkk+N78YJccPPtS0F0WmMZN61wEbhCI/MohI1dEEBDpThwHC5hrprMXjCyoW2Uq4qE1AVOx40caKzC9GrjChlgRAvwWlMytrqOEAcuCQVoZ4soaxJN2RC80x4iJ76rT5UPtzqwzS5PUUdA59CdAlxF2wTivhRiViM9o2wCIwto8mr9faNogwSQk9BzqLJygSXhOhbgkK1KZpwq8YSZINQSbUExYmuLgjKxj4oDlwW/yp5cZmKyxG0sF/9tnJSh7JvnJBWjqI1K3mXjDMBIOkAJ0aTLUWNgXNrfuQjLiqTSebfZ8FGiXaHlv5TQ+ztjO2tAHA+MWAReyFJycaYZMIyXIxbRbejyoZOK8MxTTZ5MaB2uaiqYUk2GpVrVAiEmly/aQuWJ98aKxK1XNp4jOEXeLqv5Rhrg3Q3CzH1V5mn2OzwENkqDFMDjyr1xkxNMo4hXmo1rmTSUwOZuOykUtZCSFtWQsrDHNUeQQJIkCZmKZVc1QDV9AaNy5EXTZVAikA8S41NbV0TxIyEc1dlZtILbjq0hbMQ0VllniAQZceUWEdb/ROUhTWoSnYY5whnEYds4SgbW7l0cRQhrWqHTDQBVJ3qsATKb2hOTqW6CinTIRoxnvazmQFs0AP/pzf8XDsCXxTA7MBWCLnYOxxXNjy7xQ7LIZJPcnALGzlZIYXgyUekkiEE4rbUjocpi7FEjbEgydKK8uHpUiIaPAJueYk5GgMCyXRU6QUqFGPdJyC92THaUp+IVclOXSIjH9BZZNBI1GXstcJIRGmSbWQkXCKHOkaJ2u9QLxB1SZTejPZDzmJ1cYnSbOUzp32jdylONmJQlihDGe3HzUIKKayyiYOucHlOQX01RUOMhJq+airNjGBSg6rNUbxM1D1H0YJRL2mIB0hN3FNip3oRZagJADmPNtPgNbrmxJuLe42N/SsF3EGFJANTmsrS8tz95TSVt8ZFuuG5PbsG7AoiZ/VFk1c9Auox1Pqde23s+ytSSEizSuwk6H9EUJGbn1LwFGKqW9Gd+ysrXGtOZU7rpnWbgipjM5P4iFyMvpYMVSG58HNYTWV5RWWBbIFr2h7Tlkaa1Ko0hTXrsyKgCCgCioAioAgoAoqAIqAIZAQCGWoCADbW/uFOtt2pSNQcEECURAMTFfvJAMwLkMTr/tV7WlTu5lua+VM8lTjgiC6aEBtHfuQ0sAGCvTki728g1ux6WFu95A7rWtSyqLkNC3vAx2s2VU9VRoUqLCwc3KGlTdLukvKP1+zIqBTGT4yUyQR292Qn7RO7Fe8sjW0QIhVsFedkJKswfprVJ0MRCNmeG4C5MxOAtqjW8Ct90WNN3MpOWsgNlfka6nS1KUE1BFOCp5EgqjvBd9TKUc05ChNUgwGCNG5WobJTc3agIUxQzZQKR1aHclQzOE3o9HKUTJIy1wRgUw9QYhav0JvJJGbkaJNkpsQ38ouUc1tFj3i7nZtD0588TPuNNEVvAyYDaSOQCdX+ui+2tYaxazaKvkWvtWizTzEVAVNtsi/xmuKUEKiv+s3mJi5lfAWfUspBQxauF3YCvKR7cNnA2KoXgrjChBdOh/rtBoZzTbJTXxyFv6kJNHg1yVCDCltf7FAdivQ69ZiYTCa1HmEJcRRhLJNhq/+0ZYEJgOuhj1RMc4DU1TCcwVJJOtgCIFv6mz3+6WN/uMKT5/nQbt7ReBsBwAWn59mX/yQlywEkVUlYHsLJagjPoaF5Q8iSGTI5Rc25zdgMJtHyJpsNl1Pk19Mcf1Ti+SSRhozFTxOmCCgCioAioAgoAoqAIqAINC4EssMEUA1O2AIemPzQZJ1dZI6PibzM/XkDQG9ZP9sBzAVnhJHf7MRi9Mz2AvmcwBgCqpHC7A2CtRIutvSQ7DQzszMdfG2SVflKHwHg0sPBpzU+wcJ9fP/MZlxTpwgoAoqAIqAIKAKKgCKgCDQyBLLPBBCabMRbFJAcjzTj54m9ZxywdxzevOLnWY7cszA9sxnAswVYq0FysTYAqZAJQGwiDSBf9t035YVoT9/UujbRSY8Nxq9aVl8w+ywQN65QzazN/KruKhHYW1K+t7SsSrFMFthbUpbjbzmSg8dNu/wdTDM55YnTZrqNxEJV+eJ7tX31xO++0nI3daVlFQ2DFzdT5ZWV1c5UWvitiv+q/YubFIWE9peWVztTVcdXtxI1IQgpxca3mQDFHjRxzrW3ARFUUZlTE4RryG+6CiMatyaF/tbXaPpqkql0pSpdemoCMjZSLy3LiO64oY4TqmS5rKLcf2MdW5pmrrF9PNfsMwGE8hNv3gH3iJeZzwgk3rt8+SCAXvezOcCTkdf98sxrAfLysEEAXSKC3xSExPH5QHZMFBMXheR9CYs8/xRAPOIn+eAZKxnKF/LYMPKVJOD+vJ9n+hIKjnRFVcR0yxKLSTQ3Dc+lQ8tMO80iZYxDfRceO7RolrIWDZBuBAqCrX1FTqXykm6M06CveVF4dNeySaEylQZk06cC6yldZdh3WglKH7pp0ITGzdWCpk8JSgOsaVXRaMcJBXSUexUz/CqRbggztyozmYpAoEUOzH3YqOC4+JKxZkOpxKmyikB9IxCzDFNplx8veRFrQAzjQH1nReNXBBQBRUARUAQUAUVAEVAEFIG4CITtxHEFG54H5jbBrwg8B/qLmY/nyR8J8AOmO7ROgB95OQA58PKB6IqDhoeXnyOYrkPW68jMMCuzz9w6lh02+WRlTqqVaC+vyDJnnJ9N/uXe4COeJBY7nsYEWmwE1FURUAQUAUVAEVAEFAFFQBHIVATqxwRQmJe3fc/+WsVkf2VFxd7A8eZ2vu9P/PkO6/hlhs83lChZ8O/8kdUW3ooLE4rlarwMo1ZBqCXlpeUVhYWFVnlZecWu4NehtRRvbattnpu3cbdfLPc3lHylhBum/kUF+cb24VgB2IWNAmwiMDeNzPiVEpIqrAgoAoqAIqAIKAKKgCKgCGQgAvVjAsA3abWNxc79pcVNA7EEX/nL/D1oAjDzf3yQRUYBvpBM/w+lWdwk9Y4toLazk1H6iwrzy8qdHaFyc1vVPqF1gEBBQUHnYv9j410lZVt313pBrYN8JRmFv+TBe41vJ/oy/7cGAU+SVgXEVB7PPaawOioCioAioAgoAoqAIqAIKAKKQJ0hUD8mgDrLXtIRYSZjt1XgWY3s9Gdm/OSLWY07/Q9ojjMRSjr2rBMMzv2Q/QaBAOXKyQjdN4h81bB4MSZmqs+QyH1o8h/bFlDDqDW4IqAIKAKKgCKgCCgCioAioAikFwE1AdBk313PzxMc2QiAdgHgmQ3m/sYKQHNCWU5AbiyaXkKyQRtQcU8EIJQayFQ5kBFnupsNrKQvjVys5ZeUbqLXUEzu9BPl3BjN0pcM1aQIKAKKgCKgCCgCioAioAgoAmlHoHGbALwJPk1qeNc/XHIaIFkB4MDzfJ7x2Im/EfOd0s5JxivEMRKB7QCj08GMz0LMBObl5oQPO5QyEVM6sx1RcmfeetOJ37wyYKzhNH/x9pzNa9cccepZoRyU7t9/3/9dd96PrysoNAdK/+fnPxAZ2HyaNG859OBxB005Or+wyCPcmAXmv/d2aWnJAYdN9upGFdDMe3fulh27O0w9ypVbu3TR47fccPxFl/cZOtx1n3X/nSsWfHnJL/8ojk/ccuOapQvlvqhJ816Dh0444ZTiNu2qiFK9FQFFQBFQBBQBRUARUAQUAUWAEWjcJgC3EHizfP5LJgHMb/BtgLwGlRu8/s/aKWFayzsMAA4Q5pSEtMZQP8qC+eKJrvBfP8mpSawLP3rvszmvDxg1ZsShh4f0rFm84KPXXj7k2BObNm/hesE0sGrB/K0bNnTq2Uvc1y5dgjn/ocedXF5auuzLz168947VSxad+p3/YV8Pm9zclx+6BwIjJ0xKEq5ZD9y9f9/+CVOmufL79+5ds3jRvj27Qqnd8tX6dcuXWMeNa1ZXlJWf/YOfVZaVrV+14oW7/v3lu3Ov+NPfC5s2DQXUR0VAEVAEFAFFQBFQBBQBRUARiCLQiEwAdjYnC/kx/TDf9tOdHAbAiwH44smJPJK4TATZOmCe2Bxg54d2H4Eowg3QhZZ8B+fGSc79Mh6L8IQ/e/P15szHWrRqPffpx0dOOCIE++Z160r37/v4tVmHHn+K6/X+i8/icfO6NZ169rb0tmjZqmP3nqC7S9/+8Prg5RdO/MZ3ipr6myYu/viDnVs279m5Y/4H7wwde6hXd0hxTPvJoo/f37F5E8m/99bQcROqUSQKipp07NYDATv16oNzPx786++XfP7JkIMPqYYqDaIIKAKKgCKgCCgCioAioAg0NgSwplsvF4HAJJDnMGIL4Emv85NLb4ytQ3jq2LAxRc5DV8PJb5DlLM3XivlffLVq+XEXXbphxbKln30cygVm8h179HrvxWcqKvxTM1cumLdj6+bmxa02rV2Nsm1Ktin+pgqUl5UXNmliPxNgtbmzH39ozNTpvYcOx00ycL326INjpx3bfdDQ15OTT6wTKwIg0Ly4OLGY+ioCioAioAgoAoqAIqAIKAKKgCCgJgBTEvjNtrzu9+f2shrATnf5EVN/Xi9Ot3nyw87mvlHc8HaA7tUwch3mMGtpfXPmowdOnjZs/MTOvXpjIYDLTkVF+fbNG7G8f9umjQs+fNd6vffSM8PGTWjaogUMBKZ450rjQE9Y/TLvnTfnvTf3uIu+nV+QL3YSVIfVixesXPDloceefOhxp6xa8OWKeV8kblhXL5q/cv4Xhx5/8oHTT0LA5VXJJ9aG7QNee/S+MVOm9xo8LLGk+ioCioAioAgoAoqAIqAIKAKKgCDQiD4EiFJOcxve7p/eedIGAPxIXwXghtb2i7NIiXkgqqQxbhDAc0QXitBjFKWscKF3306+OJfZt75j/YqlSz//+IRLLkfiDz1+xhP/vGHd0iXd+g8QCrZuWI/F89gg4JPZr77z3MzhhxwGd6zkxxZ9l/7uhq0bN9AqAJNryjuW9+NT/LVL8JX+npETjxg4aoxHJVUXvPkffcTU4nbthx1yWNvOXd944sE+w36dgOvXHn3gwEnTID9gzPh2nbvOfvyBPkMD8g/f8MfgKoOcvbt3FTULfOe/ef2au//wi/XLl279agMm/+OOOSFBjOqlCCgCioAioAgoAoqAIqAIKAIuAo3aBCBAYMJjrQBwwcyGrADy+b85+I+dA5e3jwCbCSK+DbyM5WHjfPOKmHJKYDmPWZx5ZMvJiKz4yLrsvPnkY8MPORwTcqT8gIlHvvzAXW8+/eiZ3/1fyciW9euwc16rdh0mHHfyYzf/Zd3SpbAOvP/y8z0HDunSp3+Hbj0+fO0lWLXsOQJDDx5/1NcuLCstXb98yUv33fmXKy668Od/6DOMNu3ftHrVgvffufKvt7DlJPewE0595vabv1q5HJ/oxwRt4+qV89975+ob/wVfrD6A/NMReWw0MGD0QW7wmbf+fekXn7gu7bt0P//H18GQsWn92rlPP3HLj6+e/rWLj5hxZsxI1VERUAQUAUVAEVAEFAFFQBFQBFwEGqMJQN5xyqaAgdLgeZAVQPYFDIq6r40THlAAACAASURBVITt++EYehp8EYPVI2gSyca35VGWIqsAoiKZ7rJlwzps7N+lT7/7r/+NpBWT+S/fmQt3vHWHy8a1azp06Y6bEYdNevHe299+/smTL736g1nPY4U/infH7j1K9+3buXVz6/Yd3awWFBb2GDjk/J9c9/tLzn7lobsv/uUf4PvGEw/nFxXimACRxBaDMKXB8bSrrokJE5YMQP6Fe26Hb0lZRW5ZCeRnP/Hw6Y5805YtW7ZuG4i6yJxQGNIJIwI2BTz5W1dsXrdq1gN3TjzptLz8/JjxqqMioAgoAoqAIqAIKAKKgCKgCFgEGqMJIDn6zbcAyQk3OqmGMecP08Y2AOvI77az7EOAuU891nPwkEmnnm1zUV5e/vANf4D7id+8Ao5b1q1p36078oVZ/dijj58z85F+I0bl5uUPO2QiHDtg83+83l+7qk2HgAmAteViK/7OPfvu2bkd9zs2b/z4jVdO/MYVbTt1NnHl5uD+g1denPa1C6PBsQHBR6+/fNK3rmzbqRPkd+wtbdW0sA3LY5VByOJgE5/MTff+gxd/8tG+Pbuxl2Ey8iqjCCgCioAioAgoAoqAIqAINGYE1ARA7MtMz54RSC728D96CJYQ2iXAPwUw2yaJaSjtsh+iq6hhgJAX3Asg9JQG4GpZxa7t2z56bdbXfvzzAQcE1tIfPPWYd198durZ5+OYwM3rV/cdPkr4Gjf9+DeeeOj5O2+bcOKp+QW0+R9WAeD3xtWrWQOXe1rxYSrAprVr8AU+vr3H85tPPda9/6CxRx/nWkm69u2PBMyZ+dgJF18ayuucJx6F/LijjxP3Tbv2dWjR1Moff1FYPkmoSvbuW/DBO9Cs8/8kEVMxRUARUAQUAUVAEVAEFIFGjkDjNQFgXhNawx81BKBwWFuALSj+TgGNuOy4Ez+zk0IDQMOZ7lJuUESyyrbx1jNPtO/WbYC/Y5+h5NATZrz93FNvPTtz2jkXbFq7duxRx0u+WrZpO/KwyZ/OefXgo44Vl1btO2LvPewIaDO+etGCuTMfKy8v27x2DV77Y7I97awL9u7a+d6s506/8prQKgms4R89aer7s56Zeua5zVr6B/Xt2bnj3VnPnnn1D0NlROTfm/XMlDPOTb74YPNCLF6oKK/YtX0rLA4FRYVf/+nvkg+ukoqAIqAIKAKKgCKgCCgCikBjRqDxmgDAuszvEhkCrJAtI97BAY250GDi5879aOIcXimRrfC4Cz6yLl+Y0mM7vSgXbTt2PvnbV+GFObbQO2T6Cb2HjrAyk087Bx8CFDuf3x9z3iVNmrcUgSlnngdu9+/bBzq79R848ogp/UeOBvXYk3/yqWfLaQIu06hQk08/B6v6t2/e5JoAtm/aOPm0s3HoYLRYIAEij48Cpp51foeutAzBvYaPn9ildz/rMmbq0TjUYP/evXBp1a79yZdeNeigsUVNAkcGRGNRF0VAEVAEFAFFQBFQBBQBRUAREAQatQlAC4Ei0JAQmHD8jHjZGTNlunjxrN6/2nfthh/XZdz0E+0jCcdaB4GzA7r2HRAzLmw6iC8OQl5Y8I+fuPJnGXmYAKIyIUPDQZOPisqoiyKgCCgCioAioAgoAoqAIqAIJImAmgBojhPd1d++5TYbBFg4Y82IksS64YhFVgHEnChmX35D+cq2DwFqG3B36Uc0Lq0ZUUzURRFQBBQBRUARUAQUAUVAEcg0BNQEQIzE/CJAqEow7QlbBzKNW02PIlAtBBKU+ag+nflHMVEXRUARUAQUAUVAEVAEFAFFIGMRaKQmgLy8nPG96Jh0e5VVVNj7iuiqgIwlsD4S1rZFU3eWiI30x/X2Toarj/SkK8683NzmhX6NKG5a1LaZfmQeF13AFdevKo+9ZeX5NQhelfr0+Ldt3sRVVJifN7pH9KzE9MSlWqIItG4WwB+Pin8Upbp30XpR95hXI8YCjHKC18BObXuWllVDlQapJQQ6tmzmam5RVKBNXC1BXT216PTdgN3btGhe1EgnTdUDsA5ChcYJqER1EGmDiaKRgtWuWbMebVsmyaK+7U8MFKZyfdvrkeyJQWoIvimtDmgIGQ7mAUPqQZ3aNLx8ZUuOipsUFiv+mceW1ovM4yR2inolPeaJHV5daxmBpoUF2sXUMsY1Ug+TTchqUyN1GrgWEEAlqgWtDValgtVgqW3MGQtNVtWI05gLg+ZdEVAEFAFFQBFQBBQBRUARUAQsAmoCqLowNPKXn1UDlPESymDGU6QJVAQUAUVAEVAEFAFFQBFQBBSBukAg/LVYXcSpcSgCioAioAgoAoqAIqAIKAKKgCKgCCgCikCdI9BIVwFURDYyKykrr6xz9DXC2kAA3BYV5LuaS8srdIvH2oC62jr3lpaVV2iFqzZ+GlARUAQUAUUguxHAlrrurrqVOZXaLWYUo9j61CVod0nZPt1QM6MYysnBJkHugB8jywxLYEYnp5GaAHIje/6/uGDlnhLdLDejC2uSicOWrScM7+sKz16yZvPufUkGV7E6QGDTrn0dWuhpC3WAtEahCCgCioAioAgoAikjcOLIvs2c7eUWfbVt4VdbU9aiAWoTgQn9uvZo42/uvn1fSW3G1tB0N1gTAN77btkTd9YXOuoDrG7bu3/X/tKGRm+jzE9JeWEo3zv2lSQoDI0SpHrOdNPgMo16To1GrwgoAoqAIqAIKAKKgCKgCDQaBBqsCaBN8EzpEKGtmhSFXNo0bVKUF1g93mjKQEPLaPTgVtBdWqargxoa0ZofRUARUAQUAUVAEVAEFAFFQBFIFQHdDjBVxFReEVAEFAFFQBFQBBQBRUARUAQUAUVAEchKBNQEkJW0aaIVAUVAEVAEFAFFQBFQBBQBRUARUAQUgVQRUBNAqoipvCKgCCgCioAioAgoAoqAIqAIKAKKgCKQlQioCSAradNEKwKKgCKgCCgCioAioAgoAoqAIqAIKAKpIqAmgFQRU3lFQBFQBBQBRUARUAQUAUVAEVAEFAFFICsRUBNAVtKmiVYEFAFFQBFQBBQBRUARUAQUAUVAEVAEUkVATQCpIqbyioAioAgoAoqAIqAIKAKKgCKgCCgCikBWIqAmgKykTROtCCgCioAioAgoAoqAIqAIKAKKgCKgCKSKgJoAUkVM5RUBRUARUAQUAUVAEVAEFAFFQBFQBBSBrERATQBZSZsmWhFQBBQBRUARUAQUAUVAEVAEFAFFQBFIFYGCVAOkRX7L3n3FTQrToqp6SvaXlYcC7isrK60IO1ZPebaH2ranpE3zoprkYvu+0tZN643ffWXhtINuJdeCsnNvWbsWTcIY6bMioAgoAoqAIqAIKAI1RmDL7n3FzeptEFjj5BsFRfn5rqq8vNyGNJLctb+sZZNqzgF37istrr9BvktK08JAFvDYkDhKUJIrc3NycvE/4VVZmdA7p5r0J1aajG9hsGolEySNMqjJIW15eXmFgcqextiyTBXAqSE7eTmlNdRQE8hAZYTcmuaoJunJtLAVuaWZliRNjyKgCCgCioAioAg0DARycxvCoCs0w8K8oR5HtmkvGPl55dXOTm5uWbXDpjcjoclcA+MoAVa5OeFpbALheF7hyVI8OXVXBBQBRUARUAQUAUVAEVAEFAFFQBFQBBSBrEZATQBZTZ8mXhFQBBQBRUARUAQUAUVAEVAEFAFFQBFIFgE1ASSLlMopAoqAIqAIKAKKgCKgCCgCioAioAgoAlmNgJoAspo+TbwioAgoAoqAIqAIKAKKgCKgCCgCioAikCwCagJIFimVUwQUAUVAEVAEFAFFQBFQBBQBRUARUASyGoF6OxEgjahVdepBjKgQpDIUjFxiSDYSpyqPlqgeDvUDaYRcprt6OciIUNVgp7KiYuOaVZ169o5m4KsVS5t379G8Vav/Z+8qAJtYmjDQFtoCxaVYi8vDHX7c3d3l4e7u7u7uXtxdH+6uxd2lXv5vdy+Xy90ljbZpuvfySm5v9dvJ3Mzs7KzsUaCf//uXz1JnysrS//z6+eLBXfbdyckpboLEyb28lbUh5eObV4mSecYw+owP1fyf3rz+9PYVq9/Z2Tm2R7xkXmljxBBO6bh/5QJ7FCN6DNfYsVNlyBLDiZsvVWeDJ3IEOAIcAY4AR8BBEIhA4Q1qgkxylN9HHozNECNNGlxEIUPmSNK27p1JI7CLzLaeJtkgI58JIKLozC6ow2ad0EHVAm2Z1YO/fJqsOFcyMI3hEXcunD24ZlnvucujK45IPLluuW+GTFVatZf18PKxAxcP7O45ZxlLf//82epxw9L+kzNu/AR/fv16/uBOYs9UrYePixMvgbQgGO6GKaOL12yQp1Q5Y4asL/+N08eOblqT838lYzg5+//+5Xvvtntcj2YDRyb3Sotq0ZMkqdJ4eqUNCgp89fABUhr1GYy+GdMiz8MR4AhwBDgCHAGOQKRAgEuPtpgmM8RIw93g02QYH/OeWn2aDHeDr6QZxoc/5QhESgRO+mz8/PbNnfNnlb3/+u715SP7seYvfQTN/Pz+nZ/evQ4NCZGml6rbqFGfIW1GTOg5Y/Gn1y93L50vq/DB1Yvvnvue2rFZaohVNiqmGM5ft0ufBj0HtBgypsfMJb9+fN0ya5JY8J8CRdGT5gNH9Z2/0iNR4o3TxhvZooHO8EccAY4AR4AjwBHgCHAEOAIcgaiGQKQxAbCFZQNmJ+r+YexFtgHwiyKgpHgkiWirPZeXMCZzxIIdeadbjjW9DxPwJzevfX7zJlOeAie3b5TVAM3/15fPoX9Drp44JH30+MaVH18/h4aEfnr3RrXRBMmSwzP/46sXsqenfDbmLFbq/Qtf6PaqBc3LHy9x4ix5C71/6askURdX1wy58vz89gXOAsa0yPNwBDgCHAGOAEeAI2C3CIQp1aDnEStGovXQCO+BWR1QnXRjAFcWDLOUWR20qJCMMOyBTswYjxJqliICri+Dhen2uxHAKfrfWE5EQdWnhSp1Ax0s9BWjmWLFCPkbEiDN7+YU4hIt1EI07b/4n+AY0XT9yGUwRld4mQNIRVq0GNFCnKLT5WJMUXT5uOPFCgWe8lTpvcHZMVTQiGfOTn9lk4vpdjfcHyOqtXWWkL/RAkKFre9iW+bNDlwA8pWtlD5nbvjPP711PV2O3GKFn9++whRnzlvo3N7thSpVF6f7v307M+UpePvcKSz1J02ZWjlYqNxvnz0uUbuB9NHz+3dePX7Uv/9weByc2r45S75CyoJm54dJInGK1EqChJ/Co+tXvbP+4xYnruHm+FOOAEeAI8AR4AhwBOwQgZhOf52j20rIt854QwL+SsRfl2hBdi5JhvyNHhAqX9k1T4xkAEaPHuocLZh8Z8uFGmnfwyWauzPRmCxRxKwyR9FDA/9KtA3c2vkcYdR+IaB7nWkyZo5QUKmLWYih/ZoAUrgHFUlmy1W+P5+k2FVJYyGSkaP4hkfxo6uq3xrKIoRITVhK1Us6wsLJf6eMTfmCniv6Xx0/cz25bJb855u06jIpbNaQ9Sr+4Od87FUc9fqks6PJoW+CXj9+9PT2zTpd+8RLlCRJylQnfTZLTQAf3752i+tRoFyV5aMGYN2eKe1f3r99ePVy58mzYQL48PpFtmhFxW68ffY0MCDg7dPH108fh/5ftmFzaQ9ha8hbujyiAxSrUXfTjAkvH94TowmqDsTI/P5/fh/fsu7F/Xsth44R6/n26QM6DDeE66eOJ/ZMUaNDd9UmeCJHgCPAEeAIcAQ4AnaOQL7Ev1PHDrTrTvrdknYva+xoWUlsIvu9Xv5yOfs2tnr/1MRI9ZyS1LhOgRW9/iizEVOAig+xMqPtU0J/RJN0MGG0aDXse46AyM5nHn7BeuCj0yS1COgT9a2CrNxcZJVKeSV2jIAesrPjHvOumYQAnP9zFS8dP3FSMI7/1aj76Prlt75PxRo+vX4VL2lyONLjsIBze3xY+vn9u2EmSJEuo0eChDJX/+9fPn77+CHAzy+Wm/ulQ/svHNgrVgXnfxgOitWoh5QcRUvC4gBHAANdNSa/z4IZq8YOXTdpVIDfnx6zl2TMnV+s8PfPH1/evvX79QuHBdy/fOHIupXBQfYtPRjAgj/iCHAEOAIcAY4AR4AjwBGIcgjYiyJmv14A9oKQg5EmXeUnY9J1KKHeWDoXs0Kp2p+IG4Eiv7w8vzcdAew1EwoZmB2JKVc5OzhaDyEA63Xry9R+hNOPGcv19PbNDXoNZDV/evMqgSdxiihatfaOhTOhlmOT/5VjB+t374/ExCnTfHr5UtpxuAkwPRz0cHj9yt1L5yZIkjRLgcLIc3L7plSZsgQFBrC2suQvdPHQXhz4lyRFKtWhG5O/Tqde2OqvWjxl2gxFqtZkjxC5YPmoQc6xYlZp1UE1M0/kCHAEOAIcAY4AR8A+EVD1RrXPrkaqXkFSM1aMlC416xsjnyZ9yFiUTjyt6TTJPfuja920DYr6FrUuKWyPJgBOc9aaXUP16KL8V2c/Pz3TT8cdRats8tkxhKq1numdHR0GoeHgZPIYuzi1Y1Oc+Amwqi92xCNRoptnTpZv2jpB0mRI/PTmpVfugviSp1TZQ2uXXTy0x9M7vWvs2JnzFkAiNg5cP3VMdRDEp6B6HXjyP7x+GSaArx/e3zxzPGXajDsWzhLzu8SMdXrHljqdeylrMDW/sgZpSoZc+ZKm8X54/UoVw/n4U44AR4AjwBHgCHAE7AkBLkaGx2zooBz9r3ahTytGapb6IPLLV5T4HIX7HJEGRV1Md7rIoiuEfOU0WdhJuzMBcLKzcEYNF5eY/bRKP9EetbgTwsNHsEVpDVGGK+ZPLUWAmAUlsyBWpzs7IoOgTFxiQcTdr6+frx0/ggP80mbPJRb/8/PH5HbNzuzaWv3fLkj89Pp17kop8QXqesHyVS8d3f/6yeMilWtEj0H2BCVOmRoe+D+/fI6bMJFyPHC8Rw/jJsBmq2hndm3xypK93Zip0mwH1iw9u9unXOOW2FAgK25qfmXr0hR0IzgwMGEyYtTgF0eAI8AR4AhwBDgCkQIBLuTbbpqArR4xUnD/ZU1r9EzBm5fJkmxemFDJ58h2c4SaJdOkq4hB9xLmRDTZaEV9cZokgr+l3eSxACxFMHKVDw39iw+jP43OKfxLEwlx0hGRr/SO/RGoMnINNtL11qjZEXizMDF0isiFL6d3bUvulU6q/yPRPa5HnjIVrhw5+OfHj1/fvyHSHtsIgEeFKtfw+/3zne/TfGUqMqySpiJnAXx4rbMXgDXx8vGDDdPGYx9+wQpVf//4fvnIweI168sQLlqlFnoihhgQn5qaX1at7BZxAX3mTvv6/m2puo0N5+RPOQIcAY4AR4AjwBGwRwQEYcYeuxZ5+2SCGEmkfI3cr5kLPifhMPX654hpZ+gCnRcyGVpRn6Rq7qw1TXbnBRAO6EftJgSVXnT6oZQkdwGiEOGBzvaAqI1b+Ize+NmRT5Df71+XDu6t1bmnsqPFqte5eHDPf/t3ps+ZF08TJPNkeeIlTpy9SAlXd3fxdD14AeARIgKm15wjuGbCyBjOMYIDg7C/IHWGzHW69IYV4PCGlfETJ8mcj2wokF4eiRLnKlH6woE9UM5d3bVhaXEAYZj5ld2WpZzateXcgR0hQcGx3N2TpEjdcujYdNm1hx2GWZxn4AhwBDgCHAGOAEeAI+DQCJgkRjo0EvY7OJPmyIa6WPTGKw7YAqXsnokyJImnr+Yvfv4J3VWCfkkNG6njBBa16aGA+jrn0Omr77gJar2o9VOfEnonfPnqF5DQPRaFIbpgHND1OyHbwpP/SBnH8KGADo2jDQb37neMQ76x1GaHTZX0L2ses8P+E2dQ6JZhN6FPv/0Tq/36bDAmXiVHgCPAEeAIcAQ4AlELga9/AhLEZmKkduCypcuiyX6mjhMUtXCx8Wif/3A6+TKmkWLkD/8gD7eYQiApCJhqgqOHs38lb/s+FNDGkNqi+q0PXP2C6SxpQafSvEQR05kN8kCTX/Pg9OM3X/wCwuheWN4C9usFEFbPwxg4f6yKwF/sAmC/ePzLKEn8gm3mdNcJ8yunD8m+FCFVQo/UF4UYsfhlXQRUZ4dMitwdg+n8ZG7of2RGMSkiM9FOqXX7x2vjCHAEOAIcAY4AR4AjYBkCzKXZsjp4aQUCgDVUIzBKhHyJGAnpkUnvVKWkihYT8oVUKkwiUSNPclFfAbLFCZik0NAYRKmS6F9sFVYzG2IbdB6IfE/nhH0V1TGLZX17NAFw1mAxgemtQDiIQlAaSTZKU/hHG1uO8QQNxRErgGAsYLXSx/yyPgLE9MJOcyG/dQaz8EsXfueUZRNzADg2MlCuzqwDFjMC6w+H18gR4AhwBDgCHAGOAEdAFwEu5NuIIiAREhsAEeeVYiSV84nESD7aUwHoUp+OkE87x+fIRnMkgAtpX66IUS1MVO9JPjpNktU91ZmypJ/2aAKwZDy8rGEEYHtCBqZBMvoSdEiS+jdaDGKXIqooIUWi6jM9k95xzd8wtFZ4qp0d+tOnNQqB/wVDDZkdgXnTKSGzxIK7kgxWPzDECmPiVXAEOAIcAY4AR4AjwBHgCNgYAbKQpBHy5WIkREXmM0rESCL5U1GffMNXjSYgJNm4m1G8emKlwYeqWxR/wS5DZXhREdNI/RpRHznJFFrVOsNNAFGLFIWfN9MVqX2J6ZSUCKMT3kFokTEGjRJKEBL5Q9SCKzxHG9PZKWX8uKRFqvzjj/AP+R5DYBJklkgymy/kgNGG3bK/mlt6p+dKEsfN1dlJz0OezBHgCHAEOAIcAY5AhCHgHANX9E+//INCQtCJkNC/AcHkC784AmEiIOrwggZJxXdRhteolbJqxCxMngyzEZ7BIgSIigXIFYoY0cKg5VNFjIj6kPzZ0h5aEzw41F02zO6NXZgApAvMIvky64jZA+MFVRHABhSmYBKdni3xS/JR+mO8ANuJQHwsgTINGWegJKxRR1Wb4ommIRA3lkvelAlRhv30ATgNDgL1n/4VL2IQ0EmIQdgEijErAf0qGBE4NzdtCnhujgBHgCPAEeAI2BUCn3/7H30gP6nXrnoYZmdUhHxpUpjleQbjEIBYLgj5ZL1Y8BqVFWVWAJrIxHh80bgB8EkxDmcLc2GO2PI/U6MgsVO9i1xs0oTv0UhcBybP0xSdtVi6kYDMISlj7mUXJgBzO8/LmYwA2ANR3Jn7OKEbHZISqmNbiQjxEV2TEhn7ny1Mm9woL2AMAoR3h4SQuSETRAyA1Mc/evRQovJjuV+oRMO/hakhk0Omh8+NMSDzPBwBjgBHgCPAEeAIcAQcDwHIgiSkFHX5p4t0gpCPhSPci+NlqUyDpKuBEDS1j7kwaWvCIHYarMYKC/tsoV+rxpMHmtkgqcIdmRZBK7Be/+zSBMANUdabYFlNAt0RxiDwB8okYjDewHgGVH/2hdoICa/QaJtq9gKbdTUKVsxmhy7i0//AtqnmT9g6ZRjslvEBLY9gZho2W5rvURA9PmSOAEeAI8AR4AhwBOwdAS7k22iGyEoSkRXZ4jGV5PEVO0mxlESsALg0YmQ0OJyzeRB1URt1ilcrQyAU66yhZLWPqVdUbJcrYkIRJIsO10QD09htrISpXZoArDQ2Xo0qAlStJ1Y/puhTHTOUWQE0qj5SiIJJLYXc218VResnAnESH4TaYyn/joaVf3JyCP7iKzMEUIZNDgLU2Hi1/eD2GevPCa+RI8AR4AhwBDgCHAGOQKRBQBDyyQIeESMh4RMREstIbElJsL+wZWcq6lMdlF/hiQCbI7bEz9w1IOnLFDEyNYKRxlbyvT2bANjKdHhOiuO3JQYLZT95/O4ReEJqBaAQEEshcy2nO4SIwUC4FXiH4wMVISOEwk+AZhcigdC50bEC0BTKO4R5YrNFLALULsC6TTJwnh4hU8gb5QhwBDgCHAGOAEfAIAJsA6PBLPyhyQgQ2Z2KkWRRmSwlEQdS7OilS0hE3Ge+AFQ+pDNADQCCmsny6G4q5dNk8hwYUUA8EUBUxDAVTN4XnbLpHNI9AGQWyVTRzGwB12qivn2ZAKjmyS8bIkBdzSkZCR/yj8YKoFEssROAXMJvX2siZHvTbdi7KF31p19+u+88JRAINgAyR+QiARloAEByZKP0QhxAlszCBJDvAoJCLnU8P/32T+zuqv7MqqlF03mmih9HrPLVt1/nnr61agu8MjkC1XOkdXPRcvXrrz49/PBVnonfWwkBTuFWAtKcatxjOlfLnlZaEiHTEDjNnLp4mbAQSJ0gTpG0ntJcm68+CqsQf24mArlTJcmUNL6Zhe24mELC5wK/9WeLxAIg4jv0fsBLZULiBMB8SYnOD/GQTQSS6HKRJpumLxESXiogIOj+oxdv333y9vLMmC6Vk5Mm+pWmVwYyBAYG37n39N37L97enlkzeYmYokhoqHCURqxYMdkOCCXi+oorc1orhQRlg7YLlYtYZwSVjGj55AchKGLkGxy0sYlDsNDIp0lIt6xP9mUCsGwsvHTYCFDuQDgDWTSmYeaIjQmkRviDdulYy6mJWimhPAURht0kz2E0AkIsAPrTJ8yB/fbp1CCNmWrJN3IRNk5nRmPBZbPKOL7RLfKMHAGOAEeAI8AR4AhwBDgCkR4B4UQAsrQn6JZsCVldjKSSvmAFwNDZGlJ4S/n+AYGjJ67w2XUqnkds6P8vX32IHy/OtPFdsmb2ZtNhOMONW497DJgdHBycKUPqx09eZ8mcZt603i50IaRN5wmXr92P7e4WGBgUFBKcLHHCbFm827Wqni9PZnGiDRS3HTHQXb+oHv9CkheMHWTOqJsvmQlqmCEWGpJPu7pH9DUq6lurb/ZnAmAGD2uNj9ejiwDdbk7URuI6DnoLJVYA5hdAiU2HsJh1gFagZQqMBDmutkCAzQD57ZNlfLYPgMHPnLW0DhmUN0gYg+4c2aJvvE6OAEeAI8AR4AhwBDgCFiHAhXyL4DNUGJI60IV0yMRIum+U67KQkwAAIABJREFUbfUVHMilgqMo7rMJEb1IWQNW1DMN9Bjqff1mw758+7lu6XBRMz964kr/oQvWLR/uETe24QyxYsbs3Ht6ruwZZk3uDrUfo5u9cOui5bu6dqjDGoXOv339eHz38/N//PTNvMU+jduMgn2heuX/IRFuAoaLG+i5JY9INMBQonmR9VcWqYEo+nTxT+OmodX7mbRPZ1Y2R5b0gZW1PxOA5WPiNYSBANP0iS2J+ZnQreX0f5HEaBYJCYZRI39sDQQYQyYcgNQm7NrS2GUpk9au+FujPV4HR4AjwBHgCHAEOAIcAY6AQyBAjAAYiEKMpOKlKEZaXZU0F7sVa/Y+ePxy/7Yp6dOlFOsoWyofHAEePHpZIG8WwxlcnJ3ef/jSpEE5tuwPnaV7x3rrNh1SdsfNzTXHP+kWzOzTrd/MYWOW5s6RIXWqZPce+BpZXFmhJSnMvMJmQ6qIUa2MXKichQYn+oAtJ0u+3cKSUVmrLLGDWM/PwVq9cox6qI2JMQi2F0UkOJrKbFCMhbABk6nQuUgmpqs6BiL2MwoN0tQUQ2ZJ+If8Fuhvgj6gs0Qf04mQ5LGfkfCecAQ4AhwBjgBHgCPAEVBBgEv4KqBYJUlNjKTSoyA6ohEmXDKRUkgXrAZUpLRKN4yrBH7Ii1fsrliuoFT/Z0XhEQD9P8wM8ePFRf67933FBqEwN2tUUV/7eDqwdzM//4CFy3cij6nF9VVrRrpGhmeKGBPkmWCvK+0zeV8Q/jXzaEZ7eopwLwA9wDhoMkiMOpuQFX782ul+cuKMQr4TzkCSJUMnGR0UCbsbFvlxa12A6CQR+NmMobeYJ809NQrS6bO7UfAOcQQ4AhwBjgBHgCPAETCEAFvPMJSDPzMHAR0xEhUQGZ/K+VS7l4qRTAvViJJ6pH1bTtPrNx9//voDN3594wwzg7dX8qKFckyZteHBoxe1qhXPnyczVvv11cbSU6VIkiZVsguX7+LWjOKGKzfyKbG0UPQFRYxMEwR6MkE0Tpsg7WulfPbEBjI/NwEYOWWOko2RHRmN4PhPKY4aA6B/4n9Ce5Tc+BX+CBD8SZhGtEy5NvP8J7PzMzAkNLoQuYFlQHRTEtAxBh7if8l/ZG5JgAd99oGgkBAcChAeg5PR0d9o4dSulcYG8ywJlWHhFb6mGll3g0PDa64tRIkV1yOEmFo3/RFZPHHGtBrJKVwcooWIIbwxuJExgFkxj0eIi6y2XwFBkYLDWInMw9UMnCSOmwztSAE1+hwS+tfJGsRp4W/EJMpnscLEImBmkQVtsc9BePX8Evijlk1S2ZKFrId4ExCMIHX8sjYCTIwk0aRJzcwCIK7lifKI7N1l7U4YVd/zlx+QL1nSBPpyh5kBBRfO7Ltw+Y4du0/v3HsmZkzn6pX+N6hvc+wj0Fcn0tN6e1659oBlMKO4gZqNfcTmiFpliCZG/6ciPy5qA9Bo+8hIDQXGVmxqPm4CMBUxR8hPiYqs/jM6YxZCQnrkf0aENjA3OQJy4TEGxgfY7DA2jZ8/ZIJ4sZyJ2o//wdxxSkAMJ3oL7sBiOjK1n7IKpJFLvbc4NytR7DAMpeolTUx1j6XDXnCbOE54tGtiN/VmtwpQMN3EVBxvo7dJix/EdHaS1uHqEqkwt5K55OufgATusSzGMuwKIjuFiyP86heQwM18xL78CUgYLoBLp8RZ8bOK5eIUKTiMf1CIq4vO7zRsUlPLERIaineA2hPrp8kYCxqIFFCjnzht1ypd/eEX6OEW0/rIqtWIAy+lye6Ri43TrkuZMBMqkUj0Gfo/yfH3byxnHNjGrQBqFGBxGoGZCYNkcVmzqkyngD7SJx5a3LApFSRK5IHsHz7qPbc4zAwo7u4eq3fXhvg8e/52647jS1ftef3209qlwwx05OfPP2m9U7AMZhQ3ULNJj0T9i8wP0cbIP6iBKWLhM03cBGDSlEX6zKAq8bcvaP6U8KTp0kGGDxVGelhtNwDCJCjLVr9EpqH+mKdyBDgCHAGOAEeAI8AR4Ag4PAKCeUUyTo0ICRlSv3McU0bDHR3vNMmxjnXv4XN9LYeZQVowrZdnvx5NMJTFK3Z9/PQtSeL4qtXiaID7D1/UqFpM9tTI4qp1mpqokOiZlUaw2qjXZps5CicTsvqQeGpEIECJDwQn1SrVNEwxg4JaI6LXUaFNouoTsLWzQb+pTQ6Fgz3Q+zgqQMbHyBHgCHAEOAIcAY4AR0CGwLfvv3CknBVhwcb1oKBgK1Zo/aqIaK8mRqq2xETOiJPw3VxjVa9cdO+B/56/eC/r4OcvP65efxhmhhVr94aE6DiSpEqZBFUF6J/3Zav3gSoa1y+HbGYUVwXSjESFIkYkeTpzqpe+dNXMJiRGORNAs3/HqLqdrN9yeM2GgyYgFzmzyniDdhAC5enonPrJMXIOPnL0GlMgM9BI+234aeQYIe8lR4AjwBHgCHAEOAIcAasj8Pb95x79Z5Wo2LVcjV45C7eq0XDgsZNXLWkF6uiAYQvKVOuRt1jb7IVaVG8w8PgpocJpczahLdXKFyzd3nvQXNVHtk9UCIqCCmkrTdLsEfXq0sDZ2blr3xlSK8Cr1x86956WJHE8VGs4g4uz87CxS4KDsaOEXPiCiACZM6ZOlTKpskuw4Mxd5DNn0da+3RtlyZgGGUwqrqzQ7BS9ihirUW4IsOGsRa2NAN9//D5/6c7aTYewb0Q6eTAjLVy6M2eO9M0b6z1MwuzJtuuCdBMA239CNU+yIwUdBoGG516hIycu+/sHVqtUVIrVnXvPho5ZMqRfSwT5lKbPnL/56vVHqxcPYYm1mwxmX7AhPm7c2OVK5WtQpyyCgshgv3jl3oRpa5bMGZA4EWEr7EJVtaqWQFBQaeZN245t3HaEpYA3JUwQt0LZgnVrlGQpRjYna93IWx3Ytb96jUUAfEG7pcvIKnk2jgBHgCPAEeAIcAQ4Ao6PwKWr9zr1mp4re3rsBk+TOhkcAXx2nezUe2r3DvW7tK9txvhv3XnaoccUeJWPHvJvzuzpUMPlqw8mz9zg5ORU4n+53rz7+NT3rWq1ceO4Gwh0p1rE+ok6yiNuWLRvKlLK9UzrN25MjdDVfdaN6dxrerUGAwoXyOadOvnzV++u3Xw0aVSn1KmSoQbDGRrXL9+l93TYesqXyo+gWDDNBAWHLJzVV2za9/m79t0nBwWFfP3285nvmwzpUm5YPjJv7kwsQ5jFjRmCFfLQmSEXmRTdabJx0Aa5pmSFwdhxFb7PyW91w9YjXdrViRVLG0/46MnLb959iqOIeWvHQzG3a9qVfaLjC0o/UfjNrdAa5WbN3xoYGFi1YhGp3eH3H38w358/f8taePn6w72HvmIi8jSsW6ZN82rw/IF9Z+L0dTduP5kytrOs1LLVe+J5xJbq/58+f1+ycjf+jh3WTpr5/YcvqHPP1slusWL9+Pl7z4FzMAA/efq6f88myGZkc+agQpk1nR8WxYVFCLG+LYbwGJ0XgzmdNaYMxqIlNzq08GnXmL4ZyGOj30L4jF2Jcfi0awBPIx9ZHfZwGHgkpXA2I1YHnFUbDrALFEWEWB1Ghrvwa91IslZksy7s4TleJdqKwdldQiRFm5wVLpla3Tu7A1nskHXRNmOcWATuP2xhxnSpFs/u70TDhSIyfJvmVZ1iOI2ZvLJY0ZwwDZhULVYHBwxf4Jk80fplI0SVoUzJvDi1fuzkVTABGKjNwOn0BkpZ/gjUAkGakA8NLUcDzdFw8+KpAJa3YdUaMqZPvXvLpBu3HkO6ho928SK5xg1vL93JbyADZhkKPyT/23ef/fnj36dbo5LFc2P7AOvg0AEtEfkP30GZSRIlSOGZWLY6aLi4VUepW5n2J42ukXPYqO+v9aX9MIcQtUwAT33fpE+bwvfFu137TtevXUZEZ82GQyAyxJPED54xDjzate/M6g0Hnz57k9IzcZOG5RvVLYvf1devP8dOXdWkXnk8PXTsUpzYbs0bVYIKOn3uph17Trm7u7VoUrF10yqs5pev3k+asf7WnSe4zZ83y8DezRhZQ+2cMH1Nwzpl9x44d/ves1ED26zcuL908bzQgVlBkMKIccvr1SqV00SGFeZ8SzNECMEpe3j63I33Hz5//fbr6Mkr5UrlV2YIMyVBvLiYVmTLlsUbU4xl/JGD28R21wafh1vR8VPXcPiHtKqVa/dh+mAh7tm5gdQ0wPJ4pUrKzhfN8U+6cxdur9t0iJkA8DTM5sLssJEZNAYawr+seYWL/m/NDvO6OAIcAY4AR4AjwBHgCOhHYOuOE5C6J47qIIrxLC82fuPcuNkLtiybN5CJ3y0aVdq1/8yBwxchBhcrnHPciHYuLira0O59Zx8+frly4RDpkiHqxHqSdJ3pwaOXsAjcvvsUZ84PG9iqYL6syLN240FsSUCAOtZiswYVtu06eRhaQxy36pX/171jPXa0k/7RmP9EkO2p1s/ESPPrCpeSrrFiFsqfDR99rRnOULjAP/goy2bN5KVMVKboK67MaYuUiLXNRK1YAFDyU3gm+V/hHCvW7hfn8vGTVxev3q1dvTjifLx6/ZGlY8fI6Ikr27eufmzvrF5dG06ZuWH2wq149Mc/YOeeM8PGLi2YP9vmVaNy5cwwetKKngNm58uTafuG8f8rnH3c5NWv3pBK3r3/gi1DnskT7902ZceGCb9++9VsNAh7UUglf/xRCZT8BHAyL1PQLbYrLAvT5mzE75a1fuL0tX2Hz2fKmNoWBGdvdS5ctrNB7TLw9l+0fJflfQsOCnFzixkrps6R0Ws2HkqZIkmp4rnF+jEd6zYfHjW4rZOT88p1WmJQ7UC2zF5w+lJ9pNqcas4ITGSLY+LfCOxJpGhaC5QFi4qySsJzsS5SgKzspIVUKi1uKJiGsuGommIh4CJshLbpL4V9oiqcxo7bQtgtLG5sLx0ln+VwaWtwFExsNw4Z2oQzhO91/eYjLPMWyJtF1iwSoeYhvBzSmfjdb+j8LJm8sLbfqF5Zn90nN2w5qtrTK9cfODs7FS2kol6K+T9++rpo+U4sEa1ePBQyPNQBtjX92q1Hp87eFFscN3VNlQqF9/tMa9eyxoJlO+CvqtoiT+QIhCcCUc4EkDJF4qYNKsCwd+7CLQb0mo0HSxfLy7jGk2evkYhTJect8RnaryX0c/gRwe2nb49GOGeCKfDI0K5VdazYY6cKfsy4rVi2IHKmSJ6Yrf8/evwSidPnbIKlcHDfZlhqhqo/cWRH7EVZvmavOLvtWlfD+nOHNjWwgt2ySeUXL9+fPS90CRaKxvXKwe4VnqQQIW3B+efqjYctmlRq2bTytRsPL197YHY3QkND9x86D9eMYQNagWuL9fj5B+Cw0OaNKkhtrus2HYZzV6XyherVKrl+82FsOtDXLogBoQoqlCkgy6CvOX31hH96mEI59UWy4YUhS2uX3dqwYXOrVp0jqVijmkGaGOGYy4bOHErNxSM8yumD1EjYwwTcplQX6SgcM2oh4Ky4MbMTHtSj24YOuwn/5sNqURV545AM28ISVuOWPg+1f1YiIwY1uI1Bm/6owwDcUjTDKs+8gsPKZUfP1cAmaQxJfU+tnv7sxdtUKZKqrq7DmRcCPAL7sUbbtapWv1ZprzTJsBoPSf7eA1/VzsCrFN7jqhWK+WO6uEwe0wnuovjAuRiu7B8+qRx036tLw6KFciC2FIwOjeqWW7f50LdvP1Ub5YkcgXBDQMX1JdzaDv+GfH3f1qxWvHSJPAgTgrVf/CCxGrx9zym4iKf1Jp7kMAFA4b96/QE8ArDnXFwffvf+c0BA0L0Hz7GYjGxx47qzzseOTbzN48R109ySLwGBQfh77ebDIgWzi5vbYQXAYjK0XHHU7m5aT/XiRXPiUMr1m48UK5IT5glENJk6Tr6bXSzoSF/gAlCravGkSRJAxwYjXrxiZ/48/aUD7DN4nswFC/vz3SVO/sh85OSVO/d9seECLL5a5aLYSiStAQ4XgYHB2FUhJuJ25bp9A3o2RQqsNjAHbNx6pG2LatJSl64+gO3g1u0nW3YcL1U8z/CBrcWnhpuTVmKn36nkoNI31USVfMYmMQlFzE0atXYTxnZFXz7dLRbqsEjKsu6r7svQNzIZCPKO6Csmz2fsvXxqIxfmevbCYRBKzPUhxwA3NJX6ShqLsTZfJKBwdDYsIldGflUFXBy2PvwMYY7C+oqZDrtQgqIvLU1urd6K2d3TjzwjGyNhVx0QG7iM/HR6qlrMkrFQ+4qNm7CgfwoGIfaWEoXKJlukKwqRDqgix6CWIyD2V7WMBaNRmVlrN2FB72hRg1xFRtt6cbO0E/Lybq4xX/upL+f89vNHryCx//7th2KJE2kPjfeI6x4YTIT2R09eQs5nlSIKHdb/sDuA5Ze3JLmPFy+OuObk6ZkQT+AcqsxPd+MLV+niebC39NHTVwXyki0D/OIIRBQCUcgEADaEKADQtGHSa9G40rgpq3EKxfHTV+GrD1sAJgD2Oez8x5fX1JPf1VW7CJ88WaKh/VumSJ5INk8yTiflirAglCqeV5rfwyPOx48q1kHkQT3o0tgpqxCLDi4AVSoWhlYcUTQRbu0ixt6xU1f2bZ2CFjEp0MYRsgVcGHEZxD6MGNj6f0XI7IjXyPHLL1y5K00pVzJf3x6Nodjfvf8MZ7SUrtodHlmiM9iajQdqVSvuETe2WGTbrhPOTk4wFiAFxqDypfMvX7MP+Es3g2H64DxWpFAOHBKRLClh6+JluDlpzgj8rhR6tCIRuqUmT9AXlJppwNxhyOQYcmvV+s3tFytH4ivQmDmKS/MzZrKjkFvy22aFxARlHeoSjzKfALdaHxSdMjKBgqy97AxzdIzFKVIbDQVU2n0pd5VirgTSeMBJE6Rx62BO4JX0xv7QDhtwhjkbiBJwWl47WfqQ18FBmYlWYEXYWYdQoWze2dqttrsR+c0Y9qIlQhF5PeBRAFWfqSbaAG3avs6vxq6YuTonB2paZi50Xh+RqwIpx1w1k+3Rtj/GooeNS9AWeYJMSLbpjzJDulRnz9/G4o0YEE5sDm62cARQda2NEUPgcRu3HX3/QRDR4ZkLGTJdWs8z/93EsQIwBxjTc8P+AmINOCwA3+EXbEydPA9HwHYIRCETwLsPX8AavL08gWb92qVnztu8Y+8phAOB7sfwTeed4jHdCJAmFTklrmih7P9kTSuDHm7hRk5GwgQeX75+l2b+8PELcyJQraFOzZIIBzB/6Q6EKty8arRqHgdLxN6KmDFjTp29kY3Lz98fr40lK/ZMHttJHKmHh7ssVl8sV519/mJOaOy5c2ZcOndAgVL/zpq/BUfC4NGFy3cRqWXGxO5iNkR8xEEAYPrd+s5kia/ffoTlZdf+s+LJf0ivU704CweoD3PV5vRlDod0vMTcnIlUjLao+EkuuQRD+xHg/NfdOVTZJetoRZJ6Y/wNihaqVSBw6056aBfX32ihfsHq8R1M6p+rM07VlA9KCntw9L/OThRtRTaSZlJjRmSODswllbpED7YfzNF9P6yOkOi35l8uMf46S5ZTWEUyOg92oRSuBrh1MbdnCmfIBIX+DQ61wnY/CMmuTvAFl08cQz6IAa6ZDHkmeq8oqprLhEQX/KxCA6UF3JxCg+2Dw4D4/IPNh905erSYjGlIhqdk5iGhf50UvwVWwupox4oRIkPbfhhL8N+/QSHmow3EQDmqlCfFPFRK5Lq5rY62c7RgKdrR/4baD9oY+p9g/DGLjSs5iCru5iZiMQ+uu3sP/levZilpHR8/ffvv4u16NUsbrnhY/1ayDGVK5F+9/iBMAx3b1JQ9QmQxLCgarlDfU9+X7/CIHXqnLw9P5wiEAwJRyASAMyERJjRNqqSAFeHisRFo9foDUAhrVyvBgE6XNgUsAviO2H4wFkJRnDlJqzqOmrhiQC/iOm7khZMn/7t4BxsNEAsARXDo4JNnb6THEMjqYV1asW4fookqTQ9GNhqJsiFW6s59Z0YOaoPoDGK3YSLZtvNkr24NPJPJHS6MHBp2DWTO6PX1m7DjC1OMMDCZMmjdCg4cufD9+6/pE7qJpl/UPHP+Ftgj6lQvYarFWtackZ20RbZYzn9rpjXeqKzuLGfljv39EY343AkXZrSm3KRm5QaNry4oNPrWx3Gp6IZDc3TKqQrVkAVltMGEmbIpvsdWs6cY3xMr5/QT4omwarPFiYaP/Vz7nsf5HkCFdeniMrsHoAxTyVKSEvNMHv7/JJRQld6xGZNHb2FjH9gxhbMh3P0S68YndkKSjM5V1vGYwqPEHBPi4RJcIZXAVPWAEy6Ay9r2+yZNKEM289nF9T0wxj7fOPrZSxikniaOf4GkJHKwPV1g5kRvES/7Yea+P1z+e8c2Y6oycx20VYm8appvmpVgO4Fc59UJMd1+0AZAeHXiBUqQ0mXj+l6dUkxt6jyCbbzFi+bC8l7xIjlF500I+RNnrHVxdu7eqZ6ps1usSA7s552/xKdw/mxYYRKL4+Tppat2z5nS09QKWf6DRy5gowEOLzSveGQvhbMS4IItG0XHf2slSuhh66EhBty587fhNWzrhiJL/VHJBPD8HTRM0dkbp/et2nCgReOK7u7CGZLp06bEPnPECwHvgLY/etJKBPasWa3Yn98BO/aezp8ni6oTkb6ZxgGV9ZoN7TVwTt/ujcEnh49dCkUUxwfqy490PIUJoE2LqgbyOMyj5av2Zs+WDpFRpCPKmtl7++5Ty1fvG9KvuXkjRfiWe/d9mzasgOKwMiCS35ypOmwa0Qca1y9fspj2dADkRPiGjj2mHjt5tWypfCa1K23OpIJWz2xj87rV+2s/FcplEnGVmjwQYZW4VGh0JKuv/dgPJrbviYJeKewEUq0cqYs5k93ls2X7njpKC3LkJN4Y5OQoQupUoFfqSIq5chRIwmMcMtijU68h8iH6k4K96HPdCo+eOkIbKmhTypagrSBypXuFIyARPmPQZQ06Dl6MzNENZiaQ5rQlQ5k0uiNi8tdoOLBr+7o4VBs7OnFS4P2HzxfM7KM8+9kYkGZM7Naj/6yGrUc0rF02X57MICWcIHbm3M1NJvrqzlqw1d8/KGmS+Jt9jp88ex3mA2nUamN64jB59h++gIO6WzfX0XTCB43rNx9DyeImAJGWopAJIK1X8i7t64gjhxPOmKH/FiuaU0wp+b/cv3/7h4SQSB7YAZ45UxpE7Ji3eHvqVEkb1C5duUJhpCNwCCKIYssAKyW7jROHPGW2PfgI7feZisNIB41cCLtD4QLZ4ErEdighfIiYTfqrvnj1HkqVKaETQcBhfvbSgSAU6kafY8qQh+DR2Le/yedI1w7amQoTgeu3Hi9bvQcRHH2fv4NnAeKy9uxMzL3rNh5KliRh2ZL5xRpOn7vx+OmrZfMGyOoE5kB+0YqdxpgA9DUXZj9tl8GWr1Tb9TqCa5ZIflo3ACKuaNFksiP6SYV1yeq0tuvcDmDKNAJzDey6mBNrC0Oe6Ei0Sv2Ym9JiFM8rAZxAKqIBcKm9RbwI0QsaqUZHYqYuYb44nZtISXrYi4bOKZPRqExaUpeUMrG9KJydsGkt01YQOX2sQVtjdpEYAqIwcmYOXcvFdViK9NVJmLjczqXbmmZazOyDvmKIooVNoNv3nL50+R5CfSdPmgh+tVPHdRH1fyZ+p/XSugwhPn+CBHqd5VAQsaVQFYJ5r1q/HwuBeXNn3rlxQvz4cdEHHAeG1UGxM1ANINujCeWjlo0rX7/1CAcT4iyqtUuGK08u1Dcih0xPkiRBq6aVHXJokWtQUcgEwGL+SadHtiafIX0qqacQGAc+sulEGA9pHtktnPmlT8GMhg9orSQIHBaodElCNHuYGwb1aWZkQBFltZEoBevzndrWRBw+ZZ87ta0Fro0McNkAM5VyapYZPDdLRi+xIPLgO2w3+Js9W9rqVYrhEFcmvMKbY8ywf7H7Q8zsHxA4fkR7ZahFYD56aNtLV+5j40bhguQMWBcX9YgDBppTjiW8Uoj0Hl5tOU47otCoUe2VQxP1Ho6wEhxzUkSxzyDmjJg55uYgrCxjNJ1zwJXgmZ9iHOy6pK7VY81vN2qWNBptTuRWIBDj2DhrKAIAhziHuE7S0E7SMSvFb8POuSgLGRLBBWTxBVidOA5cWjkxAWi2G8gexY8fu3fXhlZA36Gr2L3/bJrUyWO6OOF8NHhk5/gnbatmVcTgjojLiLgMt+8+dXd1rV6lKDZ9MDDgr71hyxFYWKLHiF4wbzYc9S1Vo67ffAST0OfP38uVyi9jsRD41246hAqxmluuVAFsJGEVohupUiRBJQePXoSekidXJkdFPQqZAOx5Cv38/OG8VCh/tmqVSJh6h7/g8I+P6jDhnSHyUKWhBEVkjFU1D6sZrhyyJsqXLqDaKBKx4wsffFE1/YilDDSnr2aebpcIYCVDDAGlNaDQLf+aW0gveGOw9SKs2BFhhptaLJpMYK55B8swR7XEHZ0AzHLQdWrRIUBMtKj5qFeYrtcxOifIagBgTi3CFIiYa1ft+BqpZaRCOYcSdiRS9kKXpQXYpexFbJTbAkzBnzoBKNEWiJzpqyLaOkTOcTYFZwl5go0z7qH+6tQQNaFywsY1SxQUfH5xBPQiMGnGuhSeiXFievkyBZ48e4UTvr58+TmkfwsUQPzFlu3HxYnj1qxRhYCAwOlzNyHEO2K6YWGvfvPhcWK7dmhTE1t6J89ct/fg2eXzB7PFPyjzfYfOq1G5GPT/a7cewRFYbPvlq/dN246Buzfiwb19/6n/sPl1a5bCKiwyoBs4NjIoKChd2pS37jzjJgC9E8YfWI4AopVOm72xTMl8jerqbIy3vGZeg2MjAMFHq6869lCtPTpIIqGhNKIRkcg1cgmVXKimRHFlycJT4qCu3abOClq7Vw5fHyTHv6Gh1Mdf6wStHTWR1jUUTWGnmdgEaeVIh0fJigOkFgCqHVHNk14QyAnKjK4p+VOy1/wKdJ5eM24DAAAgAElEQVSxEvyvqQgQ1EX2oikssBeisBK4GalL2IupjfD8AgJ60GZEzhiJLtqEzVCCJz8JeQhBDmtYCIC2/4K6Vdi48OoUuTvjKjoxAsKq3PGeu7nFwuJTwoTxHG9oZo/o+ct3fYbMFYuXKZGvasUi7NYphtOSOf1Z1LZXrz8ibsKQaMQEgHPcnZydtq0by5wCWjSq3G/YfLhmLFi6HZEFzhyeDy9sZEvvnaJSnb4IK96gTmn4ViOmGzZ6jBrcBo9qVS8+eeZ67OZgDQ0buwyHgi+a1Ze5DCBYW+tOE5AnayYvZEgQP+7y+QMdXsDmXgBm07DVCiZJHH/i6I5Wq45XFJUQ0KpSUWnUVhgrlM1QrFFQUVzQ+IlAyHbl0vqjE32VPiQ3bE2a2gAEkVGjMlmhM1GnCoiO1AJAAdZonuSLRtfXosqsMCynBiA8pQn8Mh4BiOvUniUGsxBImuo/BHkqyRNKpxNCEKbmFl3TGKd24xGnOVXYC4GbwEyomLEaxk4E9kKLCXNgYmNROzvBU8vMJUI7Q5myeErkFF8NkVOWwy9zECC+XACTAqpk46xGgacwwFlOlln8bk7LkbIMJHwEI4yUXbdZp7EdQ+qTK4ZXQ4O5cqQXo7Z7pfa8e98Xid9//D5x+hqW6MVNAU7OMaZP6IpHx05eK/G/XEz/xy02dEOZP3byCkwA5y7c/vr1pzToODugDdlgHTjz30149T54/JKNEue444SvU2duMBOAt1dyh9f/MXBuAmCzz/9yBDgCUQsB5pQuiISCMEOVIiowUu1Is4ZBV0qp4irKj3jIvkct0CwcLcVcii1BGveiAkr1UoItW2HSyutk5Zo9Yn8t7EhUKU4FcbL5ggIqjJpQMsGd0D7NwB6RLxR6QucCrbMSUU9qt5w+JOxF1D41Vhb6K6AshXEVxl5omwRqrpuaCr+WyAUIGRlT9kHMAxRwhraWyMnPgfJwgbGY2mjUzc+8Lgj7kNgBJGycwc5epISrsHmgc0FA5+wk6pKOZuTx48WtVK5QmDiIR3f7viAnknqn8VQW8X3+Fid/S9OTJ0v48jU5dBAnwZNSqZMpSz19Rh7BCnDv/nPxaYmiuZMkiVrOGtwEoKQNnsIRiHwI4E0b+TodsT0WxBEml0slb6oZkb7hD0nHjVaI0faZA276/AFKsgQqYo4amMLDLC+C/kmkRKngKMwFV41MB5zCTUhZQ8RE6SSqPvWngF0lBqKlEjpXELn0F2FGu1G+iC7sWsWegU3om5K1nM5JGv3wy2gEKKQUTIFTUyKnxRmWJJ3eydHmRG40yNKMGhqm70UGtIaN01tmHKCAq746zWqUF4p6CIhyV9w4bhj9p8/flRhg6R5R/aTpiBrIDoBwcyVbA37+8nNzI1+kV6KEHrhtWLesvrCRyoYcMkUbLN0hhycO6t37L0dPXPnv4u0vX39G1EjxfkLYv5AQsjMzJDgU3yOqJ7xdh0OAvYYdbli2HBA2NJILP0v6hy4Wsa/slqqq8C+lMg2+EpmSZONQmz8rZD2OoU4xZxedBHBFij77iJBTRZVfZiNASFhD5iLchKzJRf9iYwb+ClYARuKUzvllAQI6sOthL2w6KGtBS3QOOOpmYU54t0jkjLFo2YvAZwjAjIMLf8WWOOgmg87QFt+XDFuBjTOyJn/pa1Tz6oxw8g4MDMapfvsPnb/3ULvqi+4hmDxEcfZhwrk+ODBAfRn8/ANUS0HOR/2qj3iiSQh4pUqO89cOHbsoLbVl+zHcwu3/xq1HjNhw++dPwJOnr//Jmg7fs2bxwt//LtxRtoUTxxImiLt1+3Hpo1t3nrJ9B8r8jpri+CaAi1fularcrWSVrjPnbxk/ZU3pKt2mzFovkosZ8wouAH5hRg0vX33IUbjV8dNX0ajP7hP4ju0oZnQg6hTxff7u+Kmr7HPuwq037z4ZGDvAxGYhfRnw6MVL4hrkeBd95zresGw+IoobVTt1LvVb1hsix4jSOvlm8046WANUTNRcTPmUpGCw7Bk1xwh3NIloR8I/DoaIrYejBZuaV/RcEgWJUDUjciEvw57TuokzxdDTIXiSpJ0Cgda1KEtRN7GxKJ5dSuRKCtcArUPkGnYi8PMoDqCJwxcw1sNPCLQSs5e0bqkhALlMbNb87DduPa5Qq3e3fjO37DjeoduU9t0nBwUFs+rmL9kOUbxouc6Fy3TMkq9p6ao9lq7ao9rSstV75y3xUX1UqHR7VdVx7NRViD+nWiSKJ+IYb0yK9KMKoIgSdv5371T35JnrUN+wvf+p7xt8efjoFTJ0+rfW46evZy/cyixTk2auc3JyatW0Mh7heK/8eTJjFi5cvgvFDYf/4ZA/VicchYb0bXnp6v2hY5bgDPJv337uPfjfyPHL0nolj1JT4+AbAXbsPj1gxAJE2h/Ut7lrrJiYWngBjJm0cvmavW1bVDNvpk+dvd6u2+RDO6dLI1iYVxUvZRiBXfvO4IdduUJhuAPBj+PG7cdVKxSdMrYzO+1DVnbX3jMjJ6y4cHwxbHvKajv0nNK7S6MObWooH0XSFLxBJXvsIukgIrLbeGEQ50Vhnz/ZGk3vtLoOk1EgzVBnaaIJkYt4NrKAgOEnwUQkTNZtm0iHxCmXEi/zHVVvQBMLgJA5QCeZgbehEur1RPFUKo2HakibErEGduosraFhQRNicwIbAAVa2CPNQTeHiETYBUbN5oBizi4CMLV50RmJQafDnIbMKIM1DGdnZzHmljE1/Pj5GwK0v39QxvQpcXCvMUXCLQ9wU0WbIKwBnHVGwt4lXCXcOuooDRHDFty2dF6dJISolH6ptg++TdJEwjbM820ET0BAUOfe03NlzzBrcnfQPHoFqXLR8l1dO9QRW4TcGDOmMxaQ5y3ZNnH6Wnf3WE3ql5f2B04EK9buCwwKbtequhiRjmV4/+ELCq5cu3/y2E7SIr//+PvsPFkgX1YbjSvyVpsts/fdB74y40jChB5zpvTE8XuI0i8ODd/FA/laN6vq4uy8eMVuzF2CBHGrVCgytB85KaB40VyLZ/eDRWDdpkOI7e+dJvnmVaOSJknAKlk0u/+wsUvad5sMmi1ZPHeDOmUOH7vEHtWsVgyTPmPe5k3burq6xiqYL8usKT3ZlgE06p1aJe5A5MVcX88d2QSA/SHjpq0GoYwa0lYcP/TDaeO7wJ4npoCdvXz1EUK+6osNv3wcR5kgfhyRpPRBiZzOzqBAwbHiw8ev33/8SueVEuYrfUVk6a/efIRt0it1MrESMYOsciMrdIxs08Z1xQ8VY4GVrkf/WfnyZG7aQIc7s2HWrVUqxz/pVfV/x8BBZxQSUd4BRxcuQyIrFVRGpKIMVUnJd3IRuZyuhrJ0ekse8stCBKjDrgxzwB9DKjsK+AubpZnQzqE3F3jqJM3Il5E4pWtATt5KClJnhM9J3Vy0xXIAkjqyMJZCmAmz2OJesCcKJE8yEGbObsODzrEahmXPLu1r9+rSkPX3zH+3Fi3f+eTZa4QuL1syH1bVpNYBON/1GTTv8rX7qVMlRdDsx09eFSqQbfKYzojprQ8mrKo9f/Euc4Y0kNT15bFquh60NcIYI2vWIiXu8EPbqsO0l8qoXVHOxqNFZ2YsLS8nsNM3acQylHsPfKGlN2lQjlE1OtO9Yz2oi0o0ofn369Fk36ELB49ckJkAtu8+5eERGyfJb/E50aJJRWlZKAhYlNpz8Gz/Xk3YFnT2FPq/f2DgExp2jl9SBIb0J6q76gUrgDQdsyCdiGaNKuIDC6Zsb3+p4nnwUbVsgk3NntyTGK3+RmNrh1L1AeuL+GAfR6yYLlK1S9YN1a46RqIjmwA2bTsKj5Eu7WrLpgozDUseS9x38PyYySs9kycKCAjEsROTRnf+X+HseLR7/9lJM9aNHNxm5PjleGV+/PStTMm8i2f337br5IRpa5GhSZtRqVIm3bpmzOhJKx4/eQOHk7mLtyEu5cqFg8Fx+g9b+MfPL0mi+PcfvujRpX7rplUMkwvewUNGLQKNIgBmQGDQ6KFt2YEZysoN1+PYT8uWygf2/dT3NRsmLCax3VxdYjpfufYga2YvHL4aJ44bfuriLxkbe67deJQ8eYKyJfLLkLl87QHWNDKmT12kYDYcPQoDpHhYCGjmwpW7799/zZI5TaH82SIPpFI1KvL0OuJ6qpELNWueMSAa4hMDK0oQ09lTQfknS/86UiMVbPhlMgKAjUIqrjNDFwXmcMcQrAD4gQvKEoWYwsy0JAF/jrxJoGvMWFQUZ8gCTgJ5KLMCsNrwFB9Z3EtShCztMeTZX5Maj9KZpeyFAClhL2wqNOhoyVujKZHn4YYdXGRHTVjer2fjtF6eB49cmrVgy8vXH+Bqxzrw4NHLpm1HZUiX8vTBeYizjUSsUixfs6//sPmLZvVT7SQ8q+FlmT1bWrx8503vU6xIDtVsVkyk1AsDl0jkYBl03YUROX1KmyMWFkbkhNqp5deK3Yg6VQE3ipycjUejdgFC7cJkEJ5DgCb0TMCPEMARfB5Nw8+8WJGcbI7QPWiSqvOFHmJLaSzqMixekCqXrNrVqkll+I0vW70bOqR0YQ8mgGxZvB8/fbN+82EcMieWWrvpYL5cmSFq+gcEMh9k1RZ5oqkIKGP7sRr0peOpclVV2qjMrcPU/kTq/I5sAkDYD9AETonUN0OIDtJjwKw5U3uy0ynmLNz2b9eJB3ymeaVJ5u8fAM/zHXtOH9wxHQdOzl3kM3P+ZmxHr1W1OEJTdu41feWiIem9U6BmGA4uX7tXuEC2vVunfPn6A+yjTeeJlcoXGjGwNZ6ev3SnZYdxCTzi1qpeXF837j960bbrhGH9WjKuBPNkt74zfdaNA1uRVa6vhiiSjo1AYNBYpmDjbdRqxD9Z095/8Bw2vGYNK3omTzho5OJrZ5cjagiyjZ60cuPWoyX/lxs/fp+dp4jfmuYaMX75xm1HYGRBhMg9B84hpsiEke3r1y6D50dOXB44YlGu7OnhErJ45S5IRUvm9DPAWewGeS7KmDoVZCWDeuIyr37Ii8wCgH+oFQCiDA2UxkQaJrxQRwDyP7/MQ0CzR1SDOeAXVFFqBSDToRXW6dwQcVJsi0qQnNRNwR5SOhZAiHcLXfanIjmhcFyEJ5KFO1odAZaK61S0J184nZuCs25egqaEvRCFiPIVRr3ku5OGo1CXIw2dC5qS+Q2bXnLhsp1rlgxj6j1s4ljAwILnsAEtPeKSRf4J01bDOI4Mol8AvmA/HaQU+DmLZ3GLzX7+8gOOtbAOYMmka98Zq9bvDwcTACFYgcgBJNU4NWwFnFyidgq0jd5yTm46pWhLUDYOlLVsnLw9CXlTlqLhJgIvp/9EIOA44L1ooRxTZm148OhFrWrFsTlcn0SH1T54p//48bu5roHg4JGL377/Jn6m2TPUbTpk76FzNaoUE+F45vsWPsLweVm/5XDHtrWYyypW9aBBtG9TE8HIcKBdloxpLAGcl+UI2AgBY33UbdS8TatF+LfkSYUNIaoNzV3sk+OfdOLplB3a1HR3i7VstTYWyPgR7dlLrnH9cqjh7fsv8CTBdhR8j+mi3Urnldqzc7va6dOmKJA3y4YtR3AiRc/ODViL8AvATpUFy7ardoAlTp+zMW/OTKJVsmnDCqhq3WbBT0lauYFKHPgRzCgICjB87LLJM9fNmtwD3FwcLCIsbl49+uKJJW1b6kR2wJaBtRsPLZkzYOGsvvNn9O7Xo7EoB+BUCIgvk0Z2mju115olQ4sW0h4oCo/HXgPn9uhYb9m8gSMHtd7vMwWOBtPmbHJgbKPy0IjzKPuPijPCRSRGIWSXIK9rngArRkUsISpDZ/bYNYgDYQiLBEgmvWsgpYvRdDoE8ElLwnezG43KBbVUTXUhBrg2UfgmJrOfAQWdye9sNshtVEbRnLFr2IsWYspXhFkQ4GV4M2xpRkb25rRnbpkBvZsy/Z9VkCF9Snz58ZMEKoajHDQZuEwqowZASlHq/yjy+7cfRhE/Xhx8//PHP3HC8DhkmyJHWIsEXZoiXFrMaQKl5oiA2twpsrty+l+dAuKkx4SqKT1TtCnuEXYtnNkX21suXbnfutOEfCX+HTBsAaR0aW9mL9iCBaTiFbts23kCG8shtEufLly+s0WjilgrxuIQLAhLVuyWPoUXQOqUSZs3rogj67AdgD1as/FA7Rols2X2wi0C1EfYyHnDHAGDCDiyF0CiBPEePHxhYPgwCpYpISwpIxusdzhe4sFjbREXZydWnDmK4EgQ1dqk6yUoniZVUuk2OXjEnTp7A5v5Vcsi8c49X5xs2annNDHD12+/Hj15xW75YgzOBQiE92FIcGBA8IIl2xGXQbQCYFNisqTEO1EmjqxafwCcWlx/SJ8uZQwnYVHr4NFL2K+FQCAMXuwgEmHHzhFXV5emDYVAA1gGqVWtGJy7hvZvqW/uIjadvFUlhviI7Uykax3efXSpk6zQYa0f+0YFKYUuRlNXRo0iRNdEIcQQ1wC2pzfSjdZOOkylcaBL/iN7R0m38Id67CKoF/ylqdio2c7DFpRIHpJT+AnbyVAiRTcI3HQ5mvrjAkAY/YG/4HohBqAj2ZjDC2EpTFjnaFswwwR1DXshvuca9kJWSYE/1UKZlkRpm3EeSuPhDbtsffLi5fueyRKl9EyMvrDj03Jmz2A8EAjflSpFktUbDmz2OYbFz7HD2xlf1pKcDG0NkVN2TaAW1qZ10SYciIGuATu8MbdkpPZQlu6sBmgg7BDy5hRfnZS8hZcl4epsVyZhPMhNOUzEQI1N/r27NsQH6vrWHccR8//1209rlw4TwaxTsyR2kiZKEHfJqt2eyQnxixesYE+fvVm5YDBLadOiKryAT5+7IZoJnj1/U6pYbnikYglwxZr9daqXxNIRjqDat3VKihSJMWRuArAHouV9UEXAkU0A6dJ6Hj5+CQE8VOP8AQ4Y7ZjTjggNbr//UDmoj7lHqiIoS/yMOl1cpIm4BSsMCtZrAoDfUYVyBf5tKYQnYGX53iERw0b1yrJpQrSPjj2n4nNk10zD0RkRsqhezVKq8/Xi5TucCKr6KsIRI1jEKFO1h1gQAWCDg0MRURY2GtXaIj6RiesR34/I1wMiCVIbCiQZyDHazdFURGR/NKMidxEioEc+WA32mBhV6IkARCLUOI8ysZAJiDIxkcAeMUKjwWFEpodAlFI5/oqeulDyqdIpYC4ZDkmJTKOz474yAyJjLyS2iIaS6XRQhiKQtjBBEaD+y9FDaKRLV+/NmNiNde3Fyw/IkcygK6WsCuy4RtQ0bK/DzkfsqZTJV/L2rHUPMDX/sT0uBEtC5EzxpMxc9spnnN9aHYhq9QBQaPtkexFh49D08YVSMyFsSs/Si71n7YKvYGsnAv6hg4tX7EKEL8S/ZB1NlSIpaBUxMrfvOT164op1y4aLA0CkTCxBla0uhKnDaPEIQemZCSA4OASxM7y9yKbglk0rd+0zA5v/j528gq3BWHlCIgxqOMFOFxB+xxGwFwQceSNA3Zql4Lc/f8kOJdgwDZAfZ/LEr9/oHDUP6x3C3irzK1OIIKt2eSZLDH9yKRN89eYDwtSres2xCuB65+v7NmsmL+lH5E1qjUTRNOzgalyvPM5fuXr9oQEIAD6cBoJD1V02Ysd2+0m9HJUXqMU7jeeJ/XPEz7kjC66eWWa/+j8bg/yNqxwZT1EgQLR88h+TWMhKKfvKBHfBBCAs1qkV1pRUPOMJBhCg4iH+xyIShVjYDkDmQoM/eY4ahInR1EXKkUz8Mg0BAjcFnCAqOEQTEZZOhAZkDQOhaeKl/a6TbFr7UTc3RVigYrp3mt2LZE7pXIEsyxkhqN2592zgyAU4LLl65f+xDiRK6IEvONvIyP5g5bN+i2HVKhVFIIBz52/jHEEUPHD4gpHFzc5GWQODmhI5AZtwGA36lJIlRC6iziaFMxaTkRe4CiFpijJlLxRwDegEcYq6jGnLbk1u2YwCK9buxSZ/acFUKZPgFiHAZbVBwhzQqwkCZMIWxh7dvP3k4pW7B7ZPO39sEftg2ymOGMPuVDxCHuj/IcGhCDeA7wgvBfcZn10nfHadbNGYnEuPK13aFNwLQIYzv7UfBBzZBJDOO0WjeuW27jwBtx+RE8GGB45w9vxtzEHZknnP/HdTNNFdv/no+Yv3NaoI7z99k8QUQtlWIjFzmVJ5EcNv554zLAX66qFjl6WxQ5TV1qxa/MbtJ9i+Lj7asfv0lh3HlTl5ir8/4dqG7SMw9+NoUAg0qnDBXwsz/vDxS/ZU+m7ANhDsv4CrmLQgpka1HntLVLxr7a2DdtcfJq1o9CBBgKGCCxFq8BdWPq1Mw0QXmm53I4lUHWKESiAW5UXJDYbCMmjGRNHWypEcfFMnm4FL0WaEzb4KqGpuJJK6MBviBGgqMLXhKJ5fl72ImhFlIBRtAXr6K6BcRZwY2U8gPICE5NO2y8QSRXP379lEbA8SFL6z7QDGdGLijHX1apVu37rGxFGd8Bbu2mc69j8iprIxZS3MoyFaDbHqMGoGLMVZykmE75ylmIy97NUpGmAETs1w1kCtpXPtq1MgeJMbNqsAonfhZHgs17PS+LJz75nMGVPjSC9lfZDVcez0hGlrEGQaT+ECULFcQfgOwEdA/MDDFKt6CBeNDIgFCI3Akx6WgTWkFk0qbdt5Ej68pUsIO0zTp0sBkZL5DiibiwopdNtIGL+yTduO1W4ymH0athqBw79nzNuELcDhiQ/ChOMItvBs0R7acuSNAMB3xMBW8ePFxvF+MATkzZURTo5Xrt2HHzg7z6ZX14ZQ8Np1m9SycRV4MeFUP/iclyslP0BONk+ZMqRBjNx1mw9//f4zhe6uIeSEIRCB/YaPX/ri9XvECMGmOK/Uybq2r2Ngsls0roizCXoNnLN731mvNMnhSufkFH3p3IEGikTBRzC1wndj6pwNiLCYN3cmwwg0bVRh2JilsKSwgxhg3AkNEXgQDnRZvf5A++5TurSrFRLyF3u6xKoQ9BERjAePXLRgRp/48eOCbYEx4VhXxIAx3FzEPw2Lw0Z8D+2vB5hf4i1K/kIyJN+oFE7dGYlQQ5xIpb3Gc4lTuvgojHeb/Y07IntERAH6n4A5+kJgpRiS+NJkCgSvdRFrDe5MjAhTmIjI4dll2yKdo3cUYiLAC+hSzAVIhX+0NM6hNns+BVaiYS+EqAldk6mgJK9G52Jj4c7Msc7fssPYLJnSYAsAOzqb9aVIwX+gJiH4We1qJZw1cZHYIzjiQVZhbgIsBYI+NkWz/XdQkObP6NO0zah23SYK5/OZDaUxBalKKjJzUoKkkH8In6H3FHlpHq1fOqdzYzCW5qGISV6dbM8F3WzE3qUi6sIrkzJ1zUUnJByvxvXLd+k9vVyNXuVL5Uf8meOnriKyFAJF6+vC8AGtajcZAuUf5oDDxy9vWTNGlhM6f/NGleYs2gYdFTTvlTq5eOZc/dqlcawmVAAxJZ13ShwK+ObdZ8TI0Neio6ZjC+2QMYtPnL4eEhzSoW3Njm1q6hvp+w9fcIb3ltWjY8Z0+frt59t3n7bsOLF4xe5xI9ohtoK+UtZN933+xslJiP5m3ZrtuTYHNwHgd9irS0O8lq7dfHTvAc4IjDV8YCvxdFA4529eNerQsUtQERHzFu8/Mc5cqeJ51y8fIZ4Oii+4hS0Qc4lgcqsWDz1w+Pz791/+VzhH53/rIPKtdI4RTL529RLHTl5GuMHWzapUKleY7YhD4DpUkokeUsjqd3dzxXd0EoHuG1+6g4ClIaEhrZpWhgWRcRBl5fZMTDbqGyK4ouaQkODkyRLBItu9Y33Ztj5luw1ql8GBxv2Gzcf5Ds4uTrAaxCBH1ZALRwbu2DB+4fIdew+exxlI3TrVO3j0YkwXcgwsnAvwYug/bGGxCl0yZkj15u2n/HmyTBnbRVk/T3EEBCDIUMGRiidEqqHbR+k/9KJiO/ufWAhEKYZmcQQAImAMBFec/yegKYjlRCulSCNIoAZbir98A28EdNgBmqTETOPRUZCp9YXpogxzRsxa+naAIdvDEBjsjL1QyJmRkfEOLZ3Trop0T8heo7aGzyDgz9iyw/jEiePD8C2L/I/b/j2adO8/s9/Q+eOGt0dMNdYlnKoze8FW6X5ppENi+SdLWqyvtmhcCQIP7OZjhv2LghXLFrT9QKgNQEvkWlZCubgAKrrBidw6cwFESQhd7asT0DIaZnSuYS/0tSrh4hHy6oRVC3IdXPdv330GWb1Pt0Yli+cWj4LHUX+FC/7j4qLV/eAoum3t2JCQEMjnG5aPUF0BQlBAxKJ2c4tZoUyBooW1Z1QhhvSmVaO9UpF9AeyqUr5wxvSp2BkZ1gE/8tSCgAsXL907vnfWlWsP/u06CVgxxyJ9I4AVUjyvEfu4Bw5fNHT0kn+ypIPLhr4iPN1CBBzcBMDQQThAfFS98cHF8IpSvqWgDUq9zfF6K5gvq4g1mILIF3CAn3IOpBnEp7AdipXI6kceqKn4yKpSrVzZnKOmdO9UDx99oztzaL70Uf3aZfBhKWD6MMR0/rfWw8evcEADwhQP6NWUPbr/6EXGtKmGD2jNbmF6xJd48cgZyLgK5M16aMc02G4QKjJTxtRKLw+WLUr9xb6J5y/e4eiEMC0vqrB8+/bz8vUHt+488fMLhGGlWsUi+k7llRaHG975i3dy/JMeFjfVaq2VyJRPuhhK1H+yTkqrpulUcFdpyTqSJIKG+P0JwF5B84CV9uvchVuxY7vLhBUsPmCjEyJ+yzwev379GRwSIttNA00AvkisToj+CLeJfTHsFssmKhiQOGEJs2XxVn1kOFGj5hCdnwGvQZ1J8kQLksNuG+GRLeOo9hbxnO7cf57CM5FjMAGqBtGBUszpMp2AMVGRCOnrXITyFZOgCpTxifo4CUL2PvV9W7JYblYV1pOv33wMzvzU93WiRPFKFM2VO2dGA62I9IkOw0TBa1QAACAASURBVMoPwy5WoQ3kD89HjL2gRUboWvbCMFeFWDEXtuswfOvg///oyUssbzRpO1psKFP61JPGdMJtlYqFnZx79x86v1yNnpBeEiaMe/ee7/uP31YvGiyuc4qlxo1o37L92OoNB0Cg+vjp+9ETl1D8+MlrfYbMHdS7ua05ObohEjk1MkqInKKtArZtuIqB+cIORJGvSrPhLblz79lnL97iGEXsRYXEIqsEP4ebd55goyJOcCxSMLuU1YdZ1kB/LHlEX5cCB6dOdMK7ktA8I29Z7QILkrN2S/pgfFlVARvFsXufnX8hrQqHhbNb6XmZ0gxYPpRqBNJHCOklvU2QIK6+nMZ3PpLmfPjkZZbMabDqloFGRgwKUo/PpTo6sJdhA1seO3115PhlG1aMZHnwK5g+d9Pte0894rqXK1UA2oEYZA3Sy+yF2/DI3TUWoplg6dfJmexzx8tl0oz1kD/xPX/eLAN7NxMlH2zTxo6PY6euIppl6+ZVZLIeTiJfveEgDoMAeTRpWL5R3bJgINALJkxf07BO2b0Hzt2+92zSqI4Z6Jpu5L2ihAkg8k4P77klCECNUR4c8OnT97UbD+KcP+zXgp/SnEVbYbjF7i+xIeg/2bMJLwBLWneYsjv3np63ePuDq+uxP8XUQR07ebX/sPkJE3jky5MFJ+7sP3R+5rwty+cPgln385cfN28/hqKlahH4+PFbu26TYbwPc2OOqV1i+SGmCEIhVYWYMkoVf4mwKFeL2JqGin5qah/wdpk4fd3nL9+xpQgiwshBbcUDLE2tiuUfNWEFHA4XzOwjLQ6EO/aYClsY/BKl6bMXbfX3C5wwqoM0EbIpAM+TK1OiBB7fvv/EgknKlElwnDJ0g5Xr9rGcOEgJOjN+LK70gIxC+f8x1QRAZHSdiwnqonaq+SLLpCq+6+Yx7w7+X9v3nGRlz1+6myhhvIz0XHRcWTJ7de41tVrloqK50LwmIraUAnBC4DJvC7lqxObI2vo/cNDHSYaOWeLm6spMALBP9Ro05/7D55XKF86QLhVkvpYdxsF8D/c95en0DFvQLYJv4/Dd4KAQbLuFu9+/LathT7t8XAZnAkFhTp29njlTGitZfOQ6J1U2BfYiGl/IXEgumsdgL63xEPZxeCOmoMf+gfWJxnFp3eBL4i30+YJ5s8KP8tbdJ0GBwXCrhi+e6olFUH6O75uz79B/iCyA31GLJhWRghDLZ/+7deLMNX1n9FhjTPI6CJJkBpAu/A9cKacXLvaMUEj4gE6bxYaLuk2H7veZIrPJIm4RiDytd4oyJfJ8+vIde6Gnjuv6v8LZWV9//fYbOGLhiVPXsOycNbM3jjRav+lwmVL5wNiRwXBZzXCt/K+UbJnmTzg0saHr2FnkgJv0g7Ryl3l1EYBAjmzpFq/cjfO5xkxeWeJ/uTJlME1bhu2gZLFcu/aeRXg1nLMOP45WHcdDt586rgt2CgwetRjEv3rxEBgLsNQBLwPsV4JgjyiP23adGDdtFV7c795/qd5gIJYGJ47uCN41cOTCmo0GHdwxDTXD0Ny8/RjISFPGdkqTKtmBIxfB4grkFRSBuYt8IPaMH9m+YL5s2PTUd8g8/Hh7dKoPLxIEert773nFcgUqlClIfOsi+cVNAJF8Ann3TUQAutaZ/24UK9/Z28sTb1N3d7fFc/qDI5hYDc8eNgJHT1zBCY4Qx/t2byxuMYWxFhI/NuBA/4fsfmjndMO+YWE3Y0EOQfzT/EPXjdS1UNqIVKQxv9U1Gw6OnrRycN9mCJ0FwiOBuIcvzL50WPj4Cn75+nOLz/GQ0NCeXepjGV82jO4d67KzjmA7b9hqZN/Bc7etG7dq0VCWDdtqJkxbO31CN+WyifFwULAhLUIeZwI5+SaTHcXatJK68Q2YkhOxQli4EBTKWaRl8SI52eInq2P9shHhsHRpSn/NyUsxlEnfSJHrqOZUbY0yCJeN6LyQ5FAZFqUbtRmJvu7YMEFcf2vVrHKrjuOwQXTutF76GixdPA+Wd9jTcZNXL1m5G/FiEJdHX35lemBgINgRfNcb1yunfGpyClE8NbxE0Dt1lqWVFYajKhpNXJYEWzZmiRJmSgT5x0fZbVkKFuXq1yotTcQW6IZ1Be+8MIubl4GQspzIGa+2Dsc2r1fKUsvX7IV329LVe5n2LmYYNnYplkmx1Ml+pe1b1UBkKGYCwLiatxsDu9jWdWPhz8WKYOlixLhlu/efxWqngbLKDlgxRY2NU6JXv+xrItT7yFOtjUCWTF5wUanVeDAOYmzWsIIZJqAMaVPiJ/D2/WeYABDeC0p+hzY10E1EIZkxsXvFWr3PXbiNnd1jp6zOmyuTuKqRLUurFev2oeD0OZtQELIWaTp2tIkjOxYt3wk/QyjzOLj0xq3HOzdOwL4PVAgx9dRZIS4YljrmLfGZMKIDlHw8At/r26PRuCmr2zSvyhBq17pauEUosPacyOvjJgA5Ivze4RGAsIgf86MnryGdpEmd1AzG5PAQ6Rsg/KBw3mKyJAlwcA6WTJlPI9Z5cARU9BjRsF7EjmyA8wWk+YnT10IQl60yYZ15UO9mHz9+//DxG1pBwAUE2oBKKatZdZVJX6/MS8cbQrPmZnDpzaqy+c9ff2bO39yuVfXWzYTXCd5Ao4e2hY1ZaQIAsIhhIS5LosMvX31ImjSBJeCsWr8vX55McHFfsXafqDUpAcTOqQplC67ffBjxk2WRwJSZjU8hgnrYlhQDoqTxTVkhJ0IThdDDX0HMr99+TJI43tfvv06euY410hL/yw3ZAkSLSCKx3VxLFc+NAKJikxDZL1y5+/79V7hBFsqfjaWr/nawgwPbjuLHi1uudH5bGiKlNhfDyIS3sL5640H4UrIoPJu2H4VFYMOKEVL/W3ia9OzSYPjYZbAegnsY7j2eNqpfDvLfw0evmAkAQWEg6oE75cudWbQ2gqrBeTCh3378fvT4Ve5cGd68/Yyynz//ePHyfUrPJMyJNMy2DGTQsheCqIzDUApnjIX9JOh6tGSV2kDF/JE+BCiR45KjLc9Pp8Ygz5eXsMI9jkjcsOUITkzcuv149471xL0qWI28c/9Zh9Y1xS7BMgujOWO8WHKEIwyMsKL+j65gSyn2XFy4fMdwWSt0Wk8V1OCCS4Gh8K6UUTInbD04OnTy1NkbN2w5DN+fbbtO4qh1cFQs5v/x8/dMlsjUcSdNnAACEjy8cuXMsHLdflYcv3b8ELBEj1ALcDQYO6ydtNrWTavg9trNh9g1I/6yYMrMltmLbXj87+JdiJ1M/2cFqZcWua5ef4BjxXHco9jWu/efYXeDf1lyumrCgrhJm4u837kJIPLOHe+5+Qio7hEwv7ooUxL7oG7eepIyReL7D1+kT5sSEaEgowwevQjuUggQvW3HiR8//0B8h6v/hSt3wLJ7d22oxAZ2ARwWjSVlPJo0fR20zfkzestqnjBSx01dWYkNU4gcQwV0cglvBWs1h6UbQNS0YQVUiNcMVuFw6VNsdu09M2Pe5hULBrNtAnBOO3bqyqaV2i27pvYKm9/Wbjw0eUzni1fuQR7t0r6OAbXz/gNfvPCsqP8b6i1Bm0qK5Eu4euca6FWTtqMqlys8pH+Ldx+/lKnWA7OGjQOIZ3H85NV48eIM7dcSUUXTeaU4fvoq9lYc3D6NeaofOXF54IhF2KwLwsbBUdhJsWROP+x2kVH42qXDuvWdiRNJShTLHdPFGfsYsb8aRQz0x5qPCMwazAnyxIs3TN3Jmh2gdcHJefvukwN6CQv4W7Yfh1URAVlkDdWpURKLMJu3n9D3S5Hm//DxC27TeZPYvSMnrDh09GLNqsUCAgPHTlr1b8vq3TrWRTr0f0xogzqlDx65CF0LChWWhpCOk4Pgso7AeIbPnZV1z5RbirPdULgpPY+EeQUiZ8ycIh8RRM6AA+PFK3L4wNY42GjNxgNYh2Tp4P/eqZMfPXEZSgtUFJYonnm0cdsRGMjETQHiHODFwaxmBspG0IRRbxfGWyIO7QgaO29WQAACxsJlO7avH4+oCn/8/eFIv23dWIT9xxYhk3yCEMwLSyCwlzG9Xbr4ASKDcwF0+NdvPqFV5Z5fJEKNR+R16ax4eMT5+PErefTqPQLNqE7Y6zcfke7qSmKEswuRyLHFIEXyRDjfULVI5E3kJoDIO3e85xyBCEDg/ccvE0d1xIbw33/84TEF/b9ti2pM1SdOX02IQy+uJ0/f4G8Gzc5qWUcrlS8ECy48b2dN6SEuzUlr/vz5eziMTVzNIGtCRHQh/9t0fejZs7fwYcNhIjj5FiFqYrq4FMyfdXDfFqqBPzu2rQk/t75D5u7ZMhm7o1dvPIB3KjtexDxwNmw9DM92OLZly+q9cv0+nGyqek4PNsjNXrgVW+NmTOhuXkP6SwFy9hLVQK6zC8Cu36+/fv3BYSKgD+xw6dBjyv7D5zetHIVbOBC26Tzh+i3sJMyKEI+9Bs7t36Nx88Yk/kLvrg1qNBw0bc4mCBC4lVI44pIeOHIBx9DAmxePYC/bvf9c53a19UNn1hOCt0DTAvIsGqC4gMc0UrPqtrzQ1h0nnGI4wb2TVYVDtksUy6WsFpIftk8jOqDykSwFoacHjYBFMit8WLbvPgWC37d1KvtxQWVCaIz8eTNjXYiVCgwKPn1wPn5QCARQtmTeHIVbwcvUOhsBNN0SiJ1EmkLkNCV7sWuCDxNt+8nAiFygZYY2256uXKmOiE4jMiu2FkP/hzKD46KwF6x9q+piEJz+PZt27jOtdNXuiDzyv0I5YBMUg5w9fvYG4XIMdNlAWQOlLH8kfXVqwBe96iyvntcQuRG4fPU+VhdYVMUJIzvWbTa0TeeJhfJlrVyhsPEDg///oWMXm9Qn6yVpUpNDFiAr4sQ0WQ3IhpTnr94pa0YUqi9fdSRJGIhxKjxywmQAV1ZlEdIWPdChaKHsUh8BlhM+YqpFIm9ipA9mEHmh5z3nCERGBFKlSMqiJ5IzNX2OQrQV9Rb4QnulTsoG9Z6aWuN5xDF+jNKajS9lfk5BPCcVED1JWPC3rVAOszT2SnTpMx3HhV48sWTNkqFv331G/Cf4uSkHggWi6RO6wtsTy8W9B82ZPLqTJWcLw+lg2eq9/7aqDq0VznhY3161bn9gYLC03aWrdiOsTq1Gg9ZtOrR07gAE9Fb2ylopDHAN7Naq1Yb1QHxh9iF4HqIZBEVjt8zOhSMVkLhp21FXV5emDcuzfiDUaK1qxRD9kd1KKZwtaOB8NWwPxlM4C1hf/9eAQchbQtcUc9vSuTHTgD6t3XQQnqLstDmoSXAKSBDfQ7UskMT2CtVHSDx55ka3fjNxuP3C5Ts7t6uzZvEwLJNu2HoECpVoXENgUSwobfY5LlaCFDQNPxeYI/XVbH66LuiRiM7NH3KElhRInNK1vaEN539EHapcnrBTbAGDR/RmnxMiWmVL5YOhCjEU4NUMMkagIpytiKfg2LCqKzeISWHWV9a2U6H76iSAS/mLbdvmtUcCBDyTJ8Kex7v3fdFXCIrL5w8MDAzCjoCsmb2M7D2M6R26T4FLae9uDVAECyfYC7Nm4yH2umSVwGnr8rUH8FX0SpNs07Zj2K/H0mHSHTF+Ob7Dm+a/i3fwWmHpqPPJszfMfQa2YHglXLp6X+xPqFA6GnZK4u2MgDLSro6auAJvKCM7H4mycS+ASDRZvKscAftC4NHj12C+qlvTmbL6/OV7VQct+xpGOPbG2cUJL6QBvZtWrVgEzeK0s5mTulep2w/Hz/Tt3kjZEaA3cVSn9t0nQ10pXcJQOK4whbAde079/u2XKUOaew+foyE4lyIiDlZKpY558JRGOECE/a9ct++pMzdYaEBlr6J4ipOz9hBpQIHNHPgLsQN/sQUdIJep2kOECEvNwcGh2EkoAw06P6LWz1vsc+DwxTKl8jZvVEn1AGoHhhreE/ALFY+rABsBtb96/UF1yHDd/yert+ojJCJwtDKwBc5zqlmtmLRIWu/kOJhQXyU8nSNgCwSgmSxdtads6Xw4I43Vj9MrsA8OAdLEkBMwVGHDEZ5iV/OA4Qv6D5+fK3sGb6/k+EXgN2K4V/rKGi7Fn3IEbIcAzOUINgS5BWFcPJMlvnztXmBQENT4Tj2nLpzVT982K+y9d3Z2/v79F3zicFZfzSrF+vZo7OYai/Vz/MgOTduObthyRJtmVV3dYiL+FAL0YKEChviRg9q07z6l6b+jWjWt8vX7T0g19WqWRqk+3RrVazYUwTURXANuh8PHLsVGMybwNKhdBidrdO49DS57cDHA2VUPH79gy/4IxoEIVojZjD1ieIP8+R2wY+/p/HmyqAq6tsMwfGrmJoDwwZm3whFwQATA1oOp5qO8smQi4YuvXH9QIG8W5dMom4LXIcaeO0cGEQG8k7AUCXVFHyaXrt7DEujxM1exEV3fAek4nMawiRquBItX7IZNfcyklWJDeBMvWbWrfu1SsiO+IXrC3W752r14WUb2Y2/1oWqjdCw+e6fx3LdtijH1t29do3H9ctgOAH/4uk2HTBjZHscXGVPQMfKs3nAABwHChigOB78FBBmByiSLxoezneAmU7tacZMGDrMLjC/SIvB5ke7wNKm2KJIZJ2+tXn8QIjh2DNWtUVI8LwNbZ7FviIEAIkdETByyzaI2gLdMnrkea2s49yuKoGTSMPccPPfl248bt57gIxbEgiQssFAwYDoUj8vBU/Db0UP/xdFl2E0NPpw5YxrsF8PKp6gISZs2XNakTvLMHAErIgBtedPKkavWH9h38D8/vwAc2rp60ZDEieLDLoDArgjRL4t6U7jgP2g9KCgEn6RJEubNnRlKeJrUOpFxcmZPv3/71EXLdq7ZdBCuMYizi5NimSMe1iq2rR2Lyhet2Ak/f4TVYDsOYGff7zMVIXsGjVyISD3YU4Odj+ynBOevzavHzF+6fceeM7Fju7ZsUgUnmEaPIWyQwz4+HBALX0ich41Yhg1ql2YVIgYQYnlmTGfa6YZWBNbqVXETgNUh5RVyBKIKAogIiJDmcIFWOitCWYXyv3j5roa1y4hRjhguYKzlywjndYWEhEQVsOg4K5UruGLt3kdPXuGEZzZwnNKHKH3p0qZQxQF74eAUumfrpK59ZvQcOGf35omqAfwQMhcOF7IasKAkphw6dglK1NkjC6QnfiO4fdsuEw8fv4yjHGRlu3aou2PP6dGTVrHT2lT7xhOVCECJxRkB0KAgfIhPb9x+olzhx65CiDiYTTgAwxkeQv8mn+NRxwSAtU14ASybN1CKIZxQcP7flh3HG9UrK01HrD7IlCy8ghJzfSleqZPhfAHxKTRV3xfvZNGhZGVDgqMWO5INHztW+gye1751dRyR9enLtxVr9kF3ZUdhvX3/BUvZLZpUhKDs7x906do9RLho2bTSsP6t4AOOR9hMwU0ASlKEc9biFTtB2NAcpE9h8lu8cidMADD/QdUXzw0R83jEJQcVYy6atxuLyGo4Dl1aHO9cxNF0d3MzUFbZGZ7CEQg3BBDqomPbWvhIW4Tjm2oHEL3FmNNJ4VuKc1tVa8DBMVPGdlY+gh/N8AGtlelIwdKLqusly6zaJRwD1L2Tzg9ZteZIlMhjAUSiyeJd5QjYFwIN6pSB1XbSjPUQr9EzbNZFgECxiywEWqPWI27ffcoSsZqBI/FwXhr4cpw4RMT58DE8wv7ZD2oIo4DlMhxXC2d79ArLkqMnrsB7pXkjEvNGdiHP4JGLETEOe5gRme/r1x84Gleeid5XKJMfy3TAlk0EHNgQcQqCo5h50fKdjeqVk+r/eASRPWP61IuX71TWif178MGDfQc2COVTnqIPAazqQ3YfPHIRNvEiDxSAjVuP7tl/Tpkfa4Dwe2TbNzBfP378hh1Hmc1RUxAUHev/xYvmlA4QJ19g2XnCtDXwjBDTQcmr1u/v0bk+/DNNQqNBnbII+AQPT1bKZ/epj5++NdOEaZBV5eoaC64HHz6Rk0qj7DV97mZsUEKcbeyhxZnYa5YMO3v+FmMpDJPiRXLBSgVbzOzJPZFz1boDYbqpR1kw2cBPnL4Gw1OzhiQ4qPSCUQDHVcIIW7pEHhwgcua/m+wptolNm7MRDB/HjiIFoSvxi1iwdCcMLuJmIhxy2brTeLhgGC4bxZHnw+cIcATCRIB7AYQJEc/AEeAIqCOAXYiTx3QaOHIhzihGUBYIi9ITU7GxaufG8b0Hz6vdBD5g8f7P3nsA6HVU9+Laql1tX63qqlmSZVu2ZOTeMNUGA6alUJK8dFLIey8JSYBQEvKAFMpL/hBCHknICwTICwm9GAO2gzHuRZbVJav31Uq7Wm3f/f/OOTNz59av3e/br8y1/O29U87M/M6ZM2fOzJ2Lw5CxOgrL8i//7LdADu9DYgXjLz72uZuuvxIfCIguoBpD//Fv34m9cHf/7DtXrVx88tQg1irxfbjw9Abukre/42NYjpMFIsyX/uw9v/aO93zy1ps3Yd04AMxbfuaOw0dP/90/fPWfP/+dS9YswxGDOCbqg+9/2yte//tIiZn89l0H/vbjdG9f2ET3q7/46ne9H+zbLhvq7Ng33n37F/7tex/+yOdedOuWopyXVo3MxbsVn/6bP/ij9336tjvfjs8H4g12vEP4kQ++PdxWvAWAFxHhBVizail8ZH193e9+x8+Fk1VlCLa9YPETC5thqfvI//rtf7ninj9636c+8jdfwCsVOFAKXpJPfPR3oTdyheIX3nLnydMD+B7VzTdciYIwy/rYh38nfMizkEWC17zili99+fuYaGFzE74XmGtxlZ4e2hvnYy1fRm8qyYW9sviAaNxBby964Qu+dc9PcOD2in46YdtdkQjA94pPAGDsC8TiixX4yAViv/BPf4JPmr/z/Z+Cju3t6dqz9zA2B33mk++UMzKR66MffPtl61fh0JDP/PPXMeBi1xhk9UPv//WrNq5FbHLeyCq5QIeAQ8AhIAjUveWz3y0GFlctW7h+UfRHF1Hc2dGx3gUtplwzxtCSCP+PqFXtk7cuu1iMutUyzb/+wTl8/Jmvenwuh/7U1/NvA16DwV/8Nzw5r7ulkV4P1rGIpvR8IRF+b++/sLx9Wu4j8aTvwrorFwSODE59+akRRpg4IW8lMXfo0/HDU7Nd84kp/ES8EKYw74gjLU3zfvrSuekv+DrgU8/saW1p3nL1pVidaGho+KdPvdtuOlY2MMnBuQFYc8br6CYK4fh4DDZ3lf6F8/Gp2b974HxyXwDm3BEavI4A4Sfe0CWteN26kfamfGQdaBw4dByvvWELQC5ikpR2aHhkz94jeOft8g2rC/l2YFIZhcX9yyPDZ0dmGD+lf+hOhLwBog508ZE4knkWb9+FOBS+uW9i86Lg0XqFVSr93GDurj2Hzgyc33DpSizoJRSA0+mOHD2NGQL2MUq/TkicR9RjB8Z+vJ++OMCQenhamqQOgA9PznS3NAvmzA6Rc2+TYG/L9F1rSqde8JLz8weO4fMZ69f2B94azRUEvP8CP0JTU9PVm9YFdsEESKFQnLuB73TiJLbAYQS5FjowMv25h4dZV0Qo86l5dc04Q5KUOSCnoyW1tFMXwHVpz/RNy+fg9Ok3/9Kf7DtwDBuOsB0j0GS8mv7WX/nAZz7xR+ZQ0j9876fu/eFjD33/05i7XnbNW9/+tjcENqvnClre6Xccn7hnBx36HUBbhHxocrYbQydrFQlBShFyknPO9tbLR/RbwHnXoqCMOP8Cw8GJU4Nwi+Pz46piFknYxXCg46uZOFNt08Z1tnxmzFtQzaIyf+r+8xMzMhL61LhtRl6YnOmKUCnUJQzJF/aPrerwfZImqjQXlgMCe05NfmsbKerIvgCxJ2Wj+8KFqZnO+U2kpNiwxF8qiXW/KbKraeyuS2gECVyUIh/DJ0inNp//4cGhCxP0sV7CXBuVrJTQh+iXIixDiDQXzciU3hJb6Ef7jg9eHCdmWfwK4hnnwdXp3C6AIGLu2SHgEMgJAWwaD5uMNgVY3ljqD9NE+ItfuCUcXgshmKjDIZJuS3FqoHyvMV2yjlquCIC5skaXMSM+dIx/GZPVWgIckAa3YCqeQbxzlOVHSVBopJqqHfD//AO/ic934zgGnGRxy02bsNU//IIudift3Xf081+6B/P/j3zot7FYLd/CqB2UitFSTOlxZBr+xRGHoR+nKzLmjaPpwh0CDoEaR8C5AGpcAFzzHQIOAYeAQ8Ah4BCodQQw8//eVz/2wI+fxhEA93z/UZzb+nM/e8cH3vOrBpfPfv473/jOQ3jbZfOm9e/+g18InwJb6wi69jsEHAIOgcpBwLkAKodXrqYOgbJH4E//+FexLansq+kq6BBwCDgEHAJBBLCB5eUvvg7/3vuHv4hTLfEhwNe/5oVbrt4g6X755+8yLwIEc7pnh4BDwCHgEKgoBNwXASqKXa6yDoHyRgDrSHibsbzr6GrnEHAIOAQcAj4Ejhw9ZR/+j9cifvvX34gUOEnBIeUQcAg4BBwC1YeAcwFUH09dixwCDgGHgEPAIeAQcAhki8Az2/Z9/kv32qkPHz2Jx9WrnEs3WwxdOoeAQ8AhUEEIuBcBKohZrqoOAYeAQ8Ah4BBwCDgEUkYAm/9f+6Z3njoz+AtvvrOnu/Oprbvf/6F/vG7LZbfeFPw6QMoFO3IOAYeAQ8AhMBcIOBfAXKDuynQIOAQcAg4Bh4BDwCFQHgjg236f+8z7PvzRz732Te/Cx+f7l/Xd8ZLrf+933iRfCOvoWHDjdRt7uoPft0fd8UUqROEr9+XRDlcLh4BDwCHgEMgKAecCyAoml8gh4BBwCDgEHAIOAYdAtSKAryf+9V/+D7Ruamq6sbHBbuYVG1b/6z++P7Lh+FZ1XFRkehfoEHAIOAQcAuWAgDsLoBy44OrgEHAIOAQcAg4Bh4BDYO4RCMz/575CrgYOAYeAQ8AhkDYCzgWQNqKOnkPAIeAQcAg4BBwCDgGHHzeotQAAIABJREFUgEPAIeAQcAg4BMoSAecCKEu2uEo5BBwCDgGHgEPAIeAQcAg4BBwCDgGHgEMgbQScCyBtRB09h4BDwCHgEHAIOAQcAg4Bh4BDwCHgEHAIlCUCzgVQlmxxlXIIOAQcAg4Bh4BDwCHgEHAIOAQcAg4Bh0DaCDgXQNqIOnoOAYdApSEgH77iWtdVWt1dfR0CGRCwxDtDShedGgL4Vp675giBOqfGS4W8SLkDvFR4u3IcAmki4D4KmCaajpZDwCFQMQhgYqQuqrIYMc5uLzL7PMTpDt8U56vIhdYweQ0vYc1CLpg7V1cJZEKwF+nWyJeg2BotwqCtNTnLu7uKgQDrbKVa+JY1i0O7GFg7mg6BIiLgdgEUEdxyJK3UNClrUeNcSae7y4VXahxlhmhTplzqVuX1EENGNZItdmFClTd7bpoXRJee+Z+aMDmNVAS+sK1uBNwC3EK+CMU6kjJLYhwCEu7kPB3p8M0/RZdYgs5ahZFXeiedQh0VG2ONhoi0UylzKR3aO0N1sJT+XFbJle1DwFJEMhGbKw+a2wVQc5Ip2sGY4DQqOjukHKRAc0IMdeEK/zr2FIU9sdgG+oPrHunBnx2WTuDTQ1xRyn7y48BPB/xY9ULkGWTpDF6XcMgXiHxo2hmDqLN4CgU6To8HRVrKiWFDgZVw2WMQMOJN/YE54tNFjhsxuJU4GEzhi4vlX3owPatUbHIugBLzvVyLI8kT+cPNrBbMcq1trdWLuDOrFjHiRt9awySN9sr46F8aSlC9CVFp1KY2aLBuCc5I4xSONUjWBjpFaGUMtk6Yi4C1IcnosqQbUefVuBjUJWExK1TNtD0t4cEbA3Q1w1DStoWGzmTAk2NLWvMaLYw4IAqIfz29VKN4lHGzzUQsaCYVo87l6wK4OFV3aFhXb3Z2Fq2P+lXBEoVpEqXTP3yvL6bgvxZ3tNVLWg6fmVd3angkmKjCn1n1WgOj2N9xlog0VpLzuBrX+mMX6lsbMSkFTySJ8EclH52cnZqie80WSZUbd+KKrprwAGsGRma4aVpBJ7RThl8/dwAxukwgk80dimJmzcDFE0xnnsO9JKEeFRw1Pi2ucdUEZZ7TuOgLD7Qw3CNGJ+vr64RxKm0AczwK2kr6o5GuFdhnSfTsxmZli9iwT87UBeXc1isM78zsbD2h7tf5/uGggmU3l6pPTIdSs/EnP4gLqgIKirA8ZhLVC2LrLcb6RL0mYb84HqlGSLcT9DHd3Wj0qdk4IQd7dGZGmVG3yNUk2mNTQUAJSUKa0Y66AlFQKSTA1hUeOoEzOka8Gg/WIarY6ggjcENqXAEe18JIRpwZbVDplaVoWYyzs9Mzs8IUZ0bGoYpwFltPdk8MicbPamBNIGuixqbqz44RfWs0JYaMjNdTX9CTMk6gHykzR+obu6BgD8qmEpWfJsCmaYJG+lE2bcs+ZTbUfGnK1wUA7XD64gJI1ews5iyzMzDr8MN/zF8JxbMOIVscTyyNhLH8ajENovOSjYvnY0Kkr/F59fdtPx1MVOnPPLmhSw+HakzUf1gOPQ0SaC4p7qjYvecX7D1PbCGgiSPEAfU4MzM4OtHZVK+jpoV38shagW7lD27pRv0fKLz6H21eeEaJx42A3ggCYnNmfLruK3vbPDilpyjuEGsQgP/RPQbHpog7M9PCOKXHFUc0N0Tfy2+w2Ip9ZrzYFvEMEhJw7iICptddKMhKZxrN2c3T9w61EmQiwaympCOwjNP9yoXdB06eoTSkvbiP4EfGTg2vwn52dv3yJfuOnZTekSXKl/Yv2XP0ZJaJ1/eD/qmc6M9valzc3Xn49NlsigCsa5ctQhFeYg9zhCnYDdQafI2n0VHhwiTPvHk7zjbtHGxWTWDAPS1Et6Rthsan2htZ/zDmwgsyT3DPlwFclVOYnOfEgnDLUg7RQIXknMBWom4bH4K5zmUq4/UQDjo33vCVve18S7gytp6ok8JvbiDxVmqHb2RwEG2vEKfsQkIoMcEUrrlnQRzsrEXQQg99bq7AGwBZAVFXd+B8w4HzrYIUAhXeLL1K4hlqyDpIc4iFdnGE3DBp7qEWND0YPRRJlqOEnGU8JOLSJA7+6t4F9GT0AmsODmAhZzUyMjHV2kCLHhQSUuNqCOAshpSUUPhvHnq78EJ9FBglhlAJMz9SEhkkDewcQikjANfZDeUdZ5tFuj2lwuqa8Z65ODHT0iAxwgJWOnw5M9LmjpJsDXlI0oVrEQzRfGLuxVzjM033HGhi1Jk19Jeu8+NTHY11YAV1B0vt41ZprKiJGAopbLCNqaUVvGrxwlPnhsYmJjMnLWUKGQZQYoBNHvKq35SyUiirfF0AFhAMnna/4hYiBhhJEagbxo6DSTdwCtMNKJl6YNXsv3y9hbdaV9ulm8SCp5vHf3W/90kep/EBlQhJMLGHHjGE6eCG2MJlU5jhmuIZB+OK4I5HrVrvIrmjG0uRxA/FOGFEgB2KgEeH4BSZ9+ta4hQIYRmWKFIqUt/cWVQH4b/ciSRR1bFEy7/8JRQEB/WHYFZ9Qt9wPGNlC6D/iaOVNqJUHGu007zNq5edGRq+MMrLghRXR2tJosQEYYZdIL9sxdILo2MnBs/bxSXfb1m/5vjgEHIlJ5PYDUR/PCf6q5b0Le3pOnxmMBv6S3q6NqxYtu+450jlJtOlbwQDBYUEEygi5ZxWUnKgD3a7AohSQq5GA1IsjCryWJqE+ameEVdPfgFOZGScqBaoem7euH7/iTOYj9k1nKt7CzQNJGPLyNI/lkH5ob9WTJZVZpj5orxijTMV/T8CIeTSu3DPagfRRVMvDfX1N2+8dI/teMqyKakm08hbsIuKISQEaEGfobPkXEMpf4VTjKVoZBlGBV4NvZFq4oA8cD4CuThCztTntbfOh8KZc6gJHBFc9VdBTFUkZDlUAOFqq7QaQw7zR3hB0XeKqWJlMugBNa7sz+IMnXno7ehm5BvqR9vIrpJqwVsAF+Q9wCVJBrwJUF/VKJfFP+YopxF5N8OrdBGVmR/ybWFF52OstIgGIaBIT/GYDpNHg7lPaXVE+UHaaCe2LbkWYuMLr1RxSKvHa9AocLzNUPM1S/uwbrH3WLbrIhnIpRWt5ZnZ5JNuhlWCg4X5eOnrEcGUeT+XtQtAmuwTOVEDyoLTPZ9kUTY3cw6WNUHEBi0sd3W0e9Gz2/DIiqbaLks1aFiMxLFqMG32UMsBB2TSFqEG3RZwVQKpZ0oIwqwpcCMKnfIY7VBt0GdqjwHKVgC4p4vZQr+GFxLMqjV8GVISpSCWzsOgEzWlfYUmcgjjKC0xQ1Ixj6rysiDiW26nBMqtICtRKsQDwuonFIi8YY1iwcZoNjU0Lulq7+/t3k1r+5KJYCcN5XUAmY7Ckq9f0dcDf8HJc0NZ4t/c2Ij5OdzeOw4dy5gFJa7s6x0YupA9fdBcvXghingwO5lYvaQPlamXSQhXyMacZdmHueIC//ElR4gpUd9YpHxtZaR1CGckxU65yPOIR6sTyCknCnAplHmREbzYBD3tbb0d7f19PVlulIgllFqEjRPfc/Pkjv+aQD/mKs6rhxDSBh2FI0Qe6UbkX4hzITwXZZpAXTZNy4MiSUjLEOCVkcYdwO/tABfaBi9cTINenjQELs5sENawAxn+Z/4aeY8ojCEVMpZkmzBhAdFSjOUCreFVCznzhJhBIyw9FH6tXty3tLerpblpfJLf9Ju7KwltpWgEbYHJdAHNEavmQsqWc0QiUIk6PZjUIt4i34KqsmMM/qlDgprkobfTrYaNdliNEz4kXpwK2PAzVSBa5hBlD538SKJKgQQ7frWWITISLsSZKKtvBFMR3iiaYTxOF4/yoma4oxhAuBBedMlfwxGuuKRnDmV1CRu9QZa5q3isCyGmEGnuFPwfLpPFFgSb91kVn2MiWCBNjQ17j1tbEXOkUKTkCnaFhUiv5oXvibEVYBnnol5l7QIItZzkWWsKyBeBRLqCAvU98tAtUikThTHUysWW4hD1qgwQsfMEiVWCaSnfM6pa5uy+mhMghLkoAKLFJOl/Qpz/ynSTpz4h7iAoMADnVHSFJrYYwRyRH8MA4ZQK5Hi+z/Ei6CWzgEzw80Uamykyk6j/yC+np3D+k0+ROdawdMl9AKLBqn2Chwgt3WukCRJOxSgJFhyraxwCh3LbBkzd8p4OTEZXLOzafeyUkNGrR0B7hlKz+qKuM69ucXdH6/zmVYsWPrb7YJagrFyE+XYdZuk7D5/ImCUP+qCJIrraWttaWi6OT2QsAqNva3PT4q7OU+eHVWJbhhSSgie/rS9oE24s7vrRKohB5ox8mRtlSBB2WsAFes0qTixFKaYoMizYSshDZHVA1n8BPtKi4UfOnMs6U3ETemgRBoKqvtOYUw0szOVeqsU5DM5EIFBdhGgrXMUIk0hnMD8oASOvAzgEz2weChOV4AdI5/WIeSnyrVrcd27kSF4E0skUhN0TP4KQ5VvaLiqFQBbx5OKZMZqE3MiYqO+ZX7i0ruZHDqHcxBL88g+nUmjrBJxI0hbySw4+KLS+Xmx7KYRO4XmDaKtnRlWw9vARmBl2L5u5F1j41/thA1ICCFVEiOmiEouXhTFWapzZpLQK/0kBbUEpP71dOMI2hQDahAwHwW3NMKuLAdPA6jzCEQt5DXRiFTUfiThbKFSIqHrNi6CRzwmIazV1CSO4ySxy8mMYJjecCP8rXhQKkN2PiCwJPH6lEIsLkA7iiOIJ8ZEqWEw2LZjfvKirA7sACm1i2vk1m5g9hALhoAthtjB7KEbxyY7U90X4W3ZIeW0kmfL6sxIfRojSyCIDoUVptPCpWYz6o6c20i1EidgYQkBZgamLDf56O0EV3Nvto3sjZCKBWtpUFEugdFRuO2XgLB5KBhOCnvkD1GiCL7xSoZKRV+E4Ba8K4QK8YI6yCHlUJe3BNCOK4PBqvpgbfJEkM1DqVgBkxSD4ay5IQpONsQ1CRxxBCv2/ihZThh84ExfB/KD0bJzLJmkhrh51SZX+148biTW3iIIZCVy0dKyQ4TtKoX4kcTIGDJgmKjZLf28XAvDLxARpHKKDN3hJ7AOYY7KNxFhka2pqmJwKH+MWUfqqxb0IXbmoN5veA/M9V/qY/OMfFbG4d9eRDF6GpoaGpT2dkvjUkHIBCIqm6gy7CmOIFeZIoPFWUPOjDXsyCwheSsE4G2oK8/p6vLCIQL1QodSS1Ao5iFn5XivFBbBo4UN1+/KlkWa+SMAFGJJteIzoYnm3OKGhyB5wyiFlCXpMlrOzhccj6Qz0PV4eRbgSdYt8gbDbkEE48Yi+sPXAnLkAVNt1tQLqhdAQgETx8nyGZFUQsxsTCGGY7HjJIsVpxHkMJSHHDWFPTFD9QWVNC21SNaQNFu7n803m6opCW/V+AhVQKIAZIUY+AmqqvS3w8hhCW42PigIjCXqxalxTyV+lBFDNQ2+nyxcSZj9O/KxBJXQV4NR2fQm2lMi7Amj7q8lJlSr2xJ7CiJSwVxaSnBlpY+oDmOFWP8QJxShml5Z2DtZpiBLf61g/UyTWNxFDZsMlueOuYXcTZhqHUVdRo7A29cMTsVCR+QdgHyIydy5o7W5vOz8ymj+htHMqjIks9ycPf3Wru5iOk2edTf5K0nSrVo4uAOnunu+IW0+ipFfYRMpFutSAJ+IlKcURLptARX3EYIbkNqbcTaQzxGSowGBfg6h5gi6hKQ+cQJqufumPaSnfBYHS0UJcz2RUHsGQfslNI4GynIp7oxOkDFbuNXsZeARiT/yYOWyre/hwGIXIP2ELU+Bk5pJ7tj84Lf4oY0SrY6HJucRMh53Oyxzqf2ThHFXHHCP8AhYDyQjTDXav8z0LpILaE05JRlF8qTTywOMhYccxPLuXe5r805QYC+O97QsGhkc0o8R85LRILM4xzGHYvMaLzXgd4MDJASGe/CsuAPF8nxm6kCFxHvTZK4ELddud6dDBFYt6UHlKvHjhk/sOSUaNOZ4ENIFbIJbpqMJWpNsSb5ZeDblIst1AJfYKU2WUMKa6jzBfUCP6y3/IYFHMErqFyjmtiC7sRq0WdbWDC6NlcARREHAGXvSGSLWWeQ6Vy4JVoWoDLULNUPkuW9SFPSzQbPRJak+9UEbqIunAblcDnWtRJ51TiKXphoZ6Poxqbi4NnRJZoCBQ0y/pF5FmgZ2x19VkJrC0c7cwtZd7kWwOVqY33/K9JBYzG4HkYOd1N4lKG+2+ThJylANtYNfTVLhkN0lCrsVa6Q4Bzo821VOhLVUWRPXMRjWD8hiQmUXSExTqgJuduVqutRon5U+KJzUw8hgXUitbE9KAq1aRuPJ/DLanxulJA27VQQs3BXm4IKXItqREBHdd9dejo3sEGSkSqthC2TkgVbhTx67YBJkP6rLAJ2SYHQwRJ9Eh9Mj3FnSUQCMdXWOmAxUu60SKpwgULigTUspSMzVVggzI2iYyHI4upcBQ8ZeBCG62HThaILUUs/uwJSiFbYo/8kf9Cif4QSogN/rR43Yq1Ss/FwCaTVaauURM/Y3lNISIGgW1ClCrPRZGBnhKEjQOyOq3AutBMvBlmFQwnlMiWtRUJZS6YOnSK0J8z/KlhYzvJChUeYMoxwjUBKzklSFTMgNOMfqYV2q8pEzknSG1YFQOK5FQSTUQ4AGu0NR6QY2q+KNZIQBpmHRGD8NItDymGA4BdnLZQ9ClO5DZSP9IsyM5Bar+xxyKJFvhgYIKNU0JPf8RoSe4lfOFWqlCGWbBIsAyAwVhx8Mgp8NTXfv8ps7WFkmwoq974MJFgyZ1B6DM01Fm6Swmz8t4ywAuvAtw6HTm4/c6Wlu62/ggax7wzia+CN3Y0JArfZBdzeurRH9RL7Sl3Mf9otoStby3a35T0+S0byODxk2Bz5qWUKJn85fkXeGnsNeJJNgqWrA0Kp1IiOziRpZc/Se9ICuyyK5d3FnGZwFyvqynq5n3HKJQsKAcjkmzIWLRIoDpsje5cKCK8PBn7FVqi0zELdMlpSHjMHONM2qTXA7ZAUOUejGGIqURphUAu10jwC5FNzdiE0p3TkddRrQshSCpjkDPuPDl3fGt/NO4aeQjwRd6jJvEK/wUXR1KNQcdRGoht2dYaaAt77ygmJ72BV1tC4azO4I0BUSTSAg6GiPBxKBtTU79jGAlQz/813dJiBgkQBBxotWpCPxPKlunJzUOl5Nv6OT4NNCWQvLT28E2pfdsAQ2iYjAr0AkdBTghROCaGK6AzuvdSL0kXGtvzirqWfbkAne2DzmZMSPF+Fd0hY4zIxWeJH8sgurSZqRhgdYzYekXCh4dUihaX6sbKwnTUWyle50yPBHjdConKTK7nDTvZZsSKEJZPZfFAUlplp1IK6wSNIcAjLdHjBnHl0ZMwZtIvJDI8nMBxLRGEFHWgxY7NXFUKprHSFn0IbGlSaZOT6JJjyEh9uErAhxTgUoMJiFTl5Eo7rFKxkTSEEUhSvKMdjA9lihk6LIgJIOllCapOVCVC2IzM6y+EQCcZfqj6sacCrGmEgHPqc7J3OHhVCPP/BJumSIo1seWAI+QXEZSLx+bJ+ghFML39EP39LkXTq8YI0zKqTWVk5gaqv8jgBU+HOy5xaRHeJ2CYykN57BbK4/KFy4RZLLUL+dd8XLhXYBnDx3HbnSdUxAmBSa6CkeayRI60me5yCarQ0J/ZV/PM88n7YLuX9idK320q39hj9Bva5mf8bg1Ux8UtHxh9yHfdwQZJIaYCDLS9FejSmuknEJgJ6D1LQUa2BSc5g8zhZ5IksUFo3Q9BdfPq8f3ipgw/UBFsReDHmVHQJBcrs/G4EBGHNm11/oUQq6kUk+vEJTWe1BT+y3nLyNNFwEpvwI4PVBaBb1CmeabjDMpEIGVFQnnpOT6gF0zMeX0pF4EdnYAICVxKZXLZgEkMKejLlOpQJAIo6j+I0Tk0nd6jsTgqlj+qxL6wdGCixTKS64npV4GaHT6TJdmF5BNWcilpvj1Sfuinh1ZnD9i8hbpRkSW8aNLHkUSzXTUzwBKouEOVorjRDTpjuxJHidF4HEDNUUfrWMmSYE0J2XWsBqX3KnJNsjlobeDrUrzmbAMyDbIa9gFaa0N6K+IohLucEUU4JZZz/pB8VNmRoQp46t4LF4AUSHOjCRR1MLIN8QfQUpxQ5uREiGBFid0WgNvmEu+ECnD4xgXSR4b4pGqAFWKfL/SJ7KaiGUoNbtomCjtLfMlLbZSoq2Wpz87EsVJFeARY8ZsYnbgKbwFVTFR1UeSZcujnBpRAS4AEi1SuvQHP3LctGhZhglDHp3rjzSy2ZOTK6WsBkytsy1OEEog1WCtbOE240pXTuCWT2JqOEkaCR3Lnwif3IrvVgWKlIn8kdyxgHoNsW4lUNjChAhl4g6/disUZMgkJinuNJA5yJEy21SqRNWvfAAraU0UyBoEehTg8YdMRvqfKqTCJY5+JTSqrhRn9RqlCokRTESbMmovAAIUI/AH8eohinB1hBnwGFQl4d7MSDtl+a/Ecg51H4+BYgmyYeyxXQDLujuwnjM1j74cJ32IGaTKRuJVfWqyDeJYZOtYsGBkbDy+IIqxLXJYis1NTVPTsd+ls/0FWdJf0u07VgeL/OcvxlapraUZZE2FUbcjA/5PGwrQ6tfDHJDJ/J/knFWD4KxuOL25NL4UIKM7QpTFPTsL5YNvFBMR2t6lYMbooCZICLAAl65gE8/jfuUij2u4x3iSB5EiZlFgipCjHJY3AkfhjHtdusKeEuhccRUjzNkLQCqG7imhBhx9hqaj7PAF3BQn6oXgL4J6gfPL1BMseGLf4bhqly7cAlDkXQGk5v84gkijTNEsqEZcVS1FeuVBJWAACW+kJvzBR9EgSMXDrhAT/a3QZn2fykXblHrUNiUQXNW3cNdR79ufqRSRJ5EotLWQC+Ik5Fo+KTUXpJEPlSosYwmnZIy5BpwMHOgYzwuANLYaT33ozENvhxqUakAU2qIyWOma9UyFM/+Re0YzVhx1DAvx7Oy0YhI9QrGT50WHAPAGMjKJKusesIr+iv0kqVJtcoUQYwQ9EDzggRTzRkGsGCKPhimcV13RGCpRZw4CecqgB19FmRf/tY4i29KaiAmfuACpYxFQNduUQBsnAuJLRnPvEfY3UzWdecNQyOXdieNSRSFeMY5SCiX5q7KngWF5uQBIpMSg0G1jsSOABCT8SqdXj4QHuZuw2iNeAAWUiCnrBnYfKisxgBi6BVmf+sI0qFpdAKrb+dBRkGpnuacjxBTnLB7sBFJI7oQ7rAhYBQvMCOV/IuPkl+GJCasGJML7FvRERwjSf5yx1i+Gi8Gm/z3UEaj4onSF/kOACcg6Fwf4uo8iyGFCXbCme5J81tC8GioF40aSVTtDPHkTKBTewgRtxIhIakCiRNSEhbULsW12aRe9oiwXDOil3Z1Hz54TN6WYLKTbBHw6ZNubySALXhzARwRM9vANeChnDXr0e0DfP+u2suVKn+vgqxLmWtsOHw/XRELsmRjlXdjNasRcAcwRLqLMkkm3JOei3DlOibetHFieoy8hIgKslBCbIzw64FA6mgNQrAU4lxHmXDT9yFDsPF/c1WGisP7Q3b7g/MXyOYJI4aX1AKGM2jLefBCurNEpTjAe1PPjUZZ4DzPW85SdNTtfVISejuJWqReOL4Z66W5rNcs+KB3smN/cOJHdUZpS4SL8egCKWApGDDthToHc6xVciiM28hEsQC4GkDLhf603QA0Czj53wC7hnEyhTdEFCbnBZ9nCrkZrwaS/r7u+QWZgJsmc3ITQFoxEyAlv9H16I4nBJ+zpUn9Uhc2TYYtKw8YJAS+dgliEtOQFCA+dUgRTTgdwqVweelu1qih/gmhLq9FoxlbN/03JBAbFZV8VVikkwLRjlESdAYeIizoncMWMZGknqIlFYkZmX0q1phQ2ME/sH2NDss5nTqlLXJGEs/8K84zZIonoVvgt/YFC9eYv38t3xC2uCGkj9gbETMQCpef9aPvLQASPpzMdkJR3WflmJGgBBGe32cQcsRik4ymYE8o/KVbzS9HJty6cr7xcAHZT0G7VyRVirIhJ9qjTIyUNcsrOwxPt+SSlgcuTVpJBSquF16bPKckS8gLp7GIyFqvwUsKmGqtFkAAwoseDpWCtpE7iJNAWWoWPQpXwpQysizlK8gmfxAQnO1xdzBPioPBFvAc6skb/WtyRWwtF4Q/4ZC/wMoM4kfQFuvOzGCHCHwm3gRWKzAZlLHJf4qUlSRfXX6qGPQZlwkLAUzdaeCVC4lSYgZozWFh4o6Phw7zejgUt/i/TLO/tPDY45GHOoAvmC/i8QBvdlQt79hxPOnMbR6Dh69x2FhiLxwb1p/j8nMqDPgis5IPuzIU3/BsbGmkbQ9QVMFUXdrQFvyNoYw4KLIXy12Cug3WcFmqVTMNuC7ZMdUhyQY3FV3cNmhTB+1g3SztcOBlhjxsl5EhamJzjLQmegXkX/CBDh2M3StgpS3Gv68aAiL5gYElnKL3PcEkY2xn0wwn4UjdWG42KQBhDrv/Y2ZCTF6gZaRkaGGiDdmGwq8rxH3QT+xGt6u/tOeB7A8WOL9U9I6aEW/+RMEKMATaLDfSg40z9hAdGVPFImDHaEkW77Qy8Bm2JpQgyuBW1lNAOQA3l1tfZcWZopFSYxpRjkGZJNqALqsqc41k7S6gIOSPux5yhVQIP/CSSiyTciZuUgYjwM6yahKFTIx9T5eyD89Pb2dPPJ6WBxiBokCSMGCfFC/1MIR4mHO9dlngigsU7xoxkda4zUlpVDsm7MyMZDIWIviWwDBP09NJCkPuLZhpzyc8bTqr5wQqI43lORTF4FPax90d4g4kYaX6ZDyj7htInTsSYXIEXurg57UhIYTh+cn/S25EFlphPdotHyC5PdGNPxKgLmIsK4QeNPj17JSuW5FMVlacsXQBK0ERoTOO43XKMnA4jUbO8AHUNZOrZhh0DpJR4GCW8BoDXfLD6AAAgAElEQVQzhE049tL5XgwIZ6jsEE9wlEBpcSQB8+b/ImAsdIx4rJAhASsA/iuKwrNRJJceL7EQp7UFZaFcQtrcS0gN/yruKLQJdbkl1tCdClHhml8GRtILhsFaLzN/hIwGnHYxatLCOU1CWT48oHqUqosj/i7AosvA0V+Fk42zBp3S8L1CwyOj4SHwVSiDP7u821sflkT9PZ1PMHFCWIGuMJdT5W2o+xd2+byTdhzfY5tAIAxEHovZBR1OnJE+vvCH71HbRWANcElPx3HyYkRccBAEQlHEXvp4eAzmArhgqjEHBQO/xlul8BEHSaVCKIdEMQtJ3Fl+Fc48ByCFo2AnS1Fx0ZJzj1ZEw+KDwlxDyPZM302Ip5dWTBBwRpV/9B8BSAUxVtIJJIHNMv8911CBT2mNemEaXrmqJQgCysQPziS7v1JVL1iLDqC2oq/r4EDmozQDuVJ6DCIveBPajL7HBqVylKAadkg1DJAKYUGdabB402l/OqUFu4W2zKSQJkVlvmJhsIOv5CNOU4IuDzIeCBZuChA/2hQoIeqGlQaFqJz8B0+sCUw4aROdQpA0UbhRapyClBpPEW0pNg+9reqb/h+NhMaHwVMwKlgEXImge4MkP8jlkfGqKLECInux2OHFl4qikmQxyZmRHm5RdwpfBThhKbf4Dbh9WRuJbclIR1HTYYj0DZL87PGXk+mJGPcH7h3cQ4QuV8LqT0mF5Rm3vKcLRoudeUlPZ8v8prneFBZujgc1wWJxiG7tiZj0GvqVfxYp06HC5HMMKUsXQFQbdJNJtkSoJRU9kntQ1neMCjcSiFRaa4TIok/gnwnme+8xlLySAwx8JGWMCatXepBf/ajCMGNnNPySFguOoYkcgF62mSoGERXaMigXKQ4201k/cE2Mvq9kgAuqu48lijPyRzFJEgjDPH7Jro2kkpHWqGEwT/qOsFxl4xTMC8VrzReJ9yn+pJIqI84TYFuy6T7QK/gReoXAZqUsl+oO/l6BKKZLWIksIxNe/je55Abr/PiA2ejkFNH0Yx6eTCIlPsGVcMj/itCUe2F7Gz7ZNTY5FSgXj3nQx1sGtm4UmqBz8nzEpwcXti/AglWgXGwi2H/qrMKG45IxlwQEDrODE8u9VsoadoO2ZBGJpWFBWSGeTlNVQkYwhn+FBom7p3byFPLwpAgbPXDiA+0SnsvL0tIMogGB7iVEYSsws/B7gFNyEx9sB0WgddxCbiXySWuFsGgYOxcl4OQKeR84BQEF+Vze7Z24KYX293bP3dt8QbClSoSMB7sPaUKd1IufMx58lE0AY2ChjzBw0iqblMRUhbTOwxkEagSlpcyx5t/b3mazFfeAeuuhE4HAEj5Goa1xFkBRGULY++Enz/ixQJNQPdHRNibgprNF5JKdBHIPwSVafjWeFtoGwzz0dtHwj0JbhI+lTQAXeBXi9Mc/hiCAknqkbFlFhFIrjCwSyvBrAY69RSTShDORss1IpY6K1vxKICyMUL8MtAmhW+9RPylG2AzJ2E7NbTNkUA7SSIjgiRgrLHqkQNFAqmMU19THcUiBykP4lnZ3HTozVx7hKCw11oYbik8IJwTpsrmj73WnUV3N6kFRheQUVuYuANEYbG/ojW0YMlm2vEvJn4AnCkLDqWTPZ3Z4GckFYNn3UDBzZz3kxLXcExtdoLOSvInM6ShP8thfaDSIMsC1fNrAcxofN7QYG3nm5KSyuTjFHXpSrJHY3BtUVTn83JEnwx3FJXpWF8EXbTVKt9DzHNbDMrIq7jFqzAqxJokfQpgVt8Qqm54eYjqOpKywXwsCnwbV4QIuizTjQJoBKMn8nwN92WJaz1ZOQ11Dn39jPxGcNw9L5ZgVhzHH1DFMbkVv9+DIWDgcIViQt99ClzSoIYxynnUHr/ASPVIk0EcsSAWpILCn68m6YxHhkYl7u1jMFGrJmIMmiaWCnZ4UI7LBnCqEdGyWixWidBsFUqjEWfWmEEse8pBzvIZhvvhoCNPWia6OSC9JGLRihSTKuRZyxltQ4iAPcMEym8oxv9RQDBLK/6KUPbFTq3iibzRJYbDb9Vrc1d7UGDx/sWtBS2dr63CmozSzaV9uaTLBrhBX6oVUs4GdozKUpiGkdHSvGcZEJEiJuo9QSmhDG4RruLSro6mxMeEI0gxNKiQ6F7QJojDamQDXTOFTLckVQBsdudfgr5qJKrJFGzrz0NuFgBqbl4VOYn2waS4wugSOgAZVwChlM3QiizI8JK9gqZSJUuO6XkbonRkZySpmBzOCLnlSz8IhnUDxSyVVXOMcnFdTUIVovSJ+GVb4PNTahdFAwF4AuXCjOoUKU0NBMe3JsL8MdcE+miPxBySp2pbyj8cdwyYt5QHuiK5RDmIk1ugqJqVW6bJwARjJgYSgoUpc5E7kjdsrEHEaNQRqedNZVDLvkWgYrELyRw4A6wxnHEHCdn91XUbmrGbpvu8JHcNLl+7/6snq6rp7e3ToGBbFCUaZ0eaDQXgTgdEH5K7VXhtKw4zgxNYV4o4dWZ33rESlaTa4hgscT5f0f75lYHWIBYutGJgYaWT+0aS53/AX0oSAMmg4qXQqvvPqxKVbRVTVrWCrGst46uZqdC2gGAbvRwNhwFHST4kYysWdCxp8h+GpHHg74PnT55gQG5F817OgJbyEjnD4BbYdjT4RcGlPZyR9LN0/f+acrp7629PWmit95OyP8kr04YCD5ubxqeBGg8jE2MiAbwScu+jzYhhxFJQJMUaRHlWc/NG/XmMM2hKER6M/kJiMEmOH8C4k/PPEWZsvnIWDfeSkEl5Zme/Caw6SByw4NTyHu6ODNfcDjlhqtwablIYwQqPPsZIiSMk8cy5WFDJcM/ckE5NhdcKXBPOzCL3fdy+BseVkirCPw7TTYuK0m95AmcvLYKjxt2En96KCXeFmsJI627KpXFWsyQVIwh75SIbJ8UKPHEIJkN+gj5sChdwgGAk1iqYjTmPeDCol+oloW0JupNTX/W2QcE8YErwMnigWgheWIS1zik5BVIRsU3rT7NxVSgCx/PR2aWDXUi0oGPj5kQWRIdS3fC8/wepxBImvwtyDlSSbrXFTFu48kWYOSaxSNkJaq55gQVX8LBhyAz3xE9wEeIFJMUSYYrHJCKpkNo8GMdIr3Bs00IqdzGjSQpHYSi7NDkmpEhaBR/MbG2GchCuCzZLlMqfTwAZ5JNzxeMQCz9jSDd9Z7aIQ80gqiTOGG559SFm4ADJUVyROTGZL5LTwof0sm0jGIyEpbw2KT0BDkldfh4O6vTl/4DFDrSol2pIPn6QIqt6vkTfckIEiGKp4Mvp07gCMSEewEwNIUSCZzs7gczTrarEYDXeCuiPEnUoBuKB6RnJHB2oWADphiK24WeKFJ8Ik5gG7ZPhCoJpj0oP0DHLMM49ILXKsoC48RG5NUdGogT+qxV7DGWnGz/zKjQcGGZW+y4c88i2zvgVgJ1ze0wHDBiEEO6FPt5FbABCBDwpgkS3y+L0V1te5bPo4biC8jylyfp5MHy4DrKb620hPwAS1Pej3MkCHLolpLwbgobGJEB0Dtr4JIK7Q9ZKpkc6CnZyP8qjEGIltjUI6zAwLhDJ3C0pEqfxTo1D9sgkA1JHJ8CXIZw6fjIyau8AQ4CLeJOGIMuJtAU7gWkJuNAWDLliyuhB1QngCcVovtcZik0nBnrZ6iRNshO+N2gtTcvwNsEZTC9442lU0rcKeJVPXTt3JM4u0DJ+eXWPkHJBLRhF+4oXocM6RpjK3v29qwwioj0e9GVRyqAlCA6NP3IGnt6uRkyioPQE3d5ZWQToGkVBUgJNOkU1GJRk648Q7YVwoLewKSQMo6xLhAukDT7UY2eZQu5LKXBGWyKCorUgxJgE4Tz+JC2xHkoTLk4i+6QxEFgm8jlRaMOa2NKvVHr5G0DVfRPgtx4rhEfcLZhnfKZPd3ybFOtJDulMIuzULmDVCSYZbq7MF2ZQ2XHS2URTr8cmYjtaWkfGwEZJ2DTLS81cvxCaqPjdB/yiuKY5IDKErHIpqbMYqRCYoRxeAEizuz1C/ZlaDVovw8a9qDgcaZERre78e0AxcAAK8om6f/1fXMFMuHqNIXqUUKNhpBEWiRO5Y/DhC/ZESA7BZMAa4g3xKTWvdojcJSGmsxDk7q3X/FeJOSs2tJDKaKUoNKPgFTDb3DHMQpQDz46b0NOdkg5D7BlPArXQpJqPgx1+lrilxkCdKp1cShMl1DTbQYKgjZBzEEwWIJ8yjSKhZFAzySgFRlGC+rCv43qwQkan10Og4sUTZkRHvM0timVofPxdxyD9cCZHtXDCfpu5E37rC70tnpB83v0VGbGQ4NOD79CDm/6hqZH1Qzx3HB4JRGkQjhEawRb/7JJoe8I9tC1wSp0SWnjmS5qLCMvwxQq7HD79dQuktJhJRTZxLyOZC/jgvz6KOBViRmJim75DN3eVvoJFau9uLjvF+vTgGlSnYnLCkHbEKQoO8p1IoUusUEXOGIQJ2hOaMvIEUX2QMv2sjscu622kHiElaupuAXGn8QrCjdhzm9QCGyMsud6oJSuYRLwFWMkQR8tpEIpC5tRFo549HV+v8tvnBkz4EVLgG6g7Efii0yMBnjTZj5EdbBNzgxeD7tAq7s8iNImgKf4SOxrfIQ2ceeruYgAfRVjrCE2HWGowzAaQvVSWKsCgokaa5PRKELHzR4ZqKSkCUOV+8GSlki4lCRdA2PDHsYI4wfCLQzCa6THss5nhhGm5Ky5a9XAjmKZjhCAVzIP2Ve8Um/qNCdXapg3lK5SbOXwbiWLTYezLi7chUyi2EiMCvmaBxM6EML4OpkxRSWHzecnQBxNQWcNhjIgHEuoOtEYrEvXYhEgkK9l/BURDQ2otmjHU4V5BKpT0HW2SaqBorf1R/5gdfDn7OAAuhL7DohAQtjaLsu2V6xB0LumCtDIVKg7fA+gZxEAA9OfRkkiAN8cFkD9LhakmgJ/bIThMk0ip8FoBO5HlkKMzuJpFkC2xyeWS3oPTQZtAs8AUgBYLYOBG1t0nNzsOXyWE0RyTjIEyhh8cnQVGGxoa6uiUx/gJK3NNxMvTZrdamxu6oJXopEbP3C+PerBsSkyt9KTe2/rSRwTfh74/xR4ACvANNjfXTM0aiPDswhDmSE84elnynMvDuFbtKHi/EVkecmBoqE0u4SLKi47dFfNRyFvKF7a3z/V98NHVDwct6Og6fjf5uQhyqRQzPQs5VEp0yVs6lloKnjLZKwZCG1zCzhsFDtHrxMdE/IuSGAY7b9IuQlx0uGHyT8uzIaG4U002dCDtP5nX1bdj9dfB6C0SZs1C8dh0SxmZE0Oj7DO7ChNzUJW4LABLgJaa2lubRieCbQelimZlaBrRBIApt5PLLo9Y2FB4BuKIisi2KhrSKpz5SAhzVzU9vZwYqlRSJaEsJXhIlmSSsFGVDpEMEdna5iM+FuMW44i/knp/oWbjl4R2lQAIaJpUGlz8RGxOqrUDraUgCUtLwXSg5IRkKjWk28cniMrEpNBFjTqpSgoWZ7DH08wmO85eBFtTXvlPlcCJgEAeDt0KKn/k+jkcUnzWbsoWxfF0AgEGPZwQNv3ZOYdLt2c6Qe46AUAqCkkc9UT4LiSAP6CgA+0UA/2O2EFZSOo2AKF2vzyutoIXQ6r3m1saR0xnuqDFQqW+WY5FkMlnwD8xQXFMczY47lYRrOnVl7pgfo0FZKei+b/NDwyyle9xUtRF/mHqwDEfWMFSSGY7xqO6Fe5SniodShlhfPkB9MXYq3CfF2UmXdkZvAZA02Ma56yQNSKTLZmcXdbQ1xiyhI82yro6n6oK7ysPfGrBLR+wuy+e9qDNn+qCGSgYabx7b5zd3tM4ftrb3o5JxidG0vo429mIEMCcAJFdIbG1iWWKOZBHiGhJypX6oAFVqRK64ttjhGVlweDBi70Y2lFNNU1w556pGIG/0VpR6kSrlCXtOLDjrP4QiVWCTiRUJ9gioiQFUmq3JUxNy08hkacehgOHzR5IBSjW2SGgTqiXWKjYs+entVIGNJFYw2knqPqgc+Nm2RZXecGZkJG90oMDG2DF+Es44mgDL6uFwSeRhbbFJDBWmRqnYU4MM+F9sGL6nqPBEjItTTLN1vpSm61vw346WZpzOG0cGiy7htyPjEpcqXCOQYSJmqsP2P+OPyzZZDX/zrnl5uQAgeD5HKjdXNdv4ZTkFp/RZ70pfU4Qnd0pgY+ABaXtdlaTYEv2YTJUbbEQoIEXcUQ3OjIKGnUPVj5ZaGwCJIo54W0P9OUQ76DzMNi3JWp1ULqJp1jyWOxp+SzwVszzumIoIH8U7Q0wV1oiDTHnNhL0Uo8hwh9H3REl6WJqNKzNadmO5ap5s+6LwEA91dJuwCJzoAljS2YZt8/zdONJfy7tjJ9ug39vW0toc/M5fskXO9L3v0mH8i64nh0bS72lrwTfAEnJhzn9hXLnV5zc2dLdFnBpgsqO2p4ZpPTZbzL2kfvG28/vv2SLU3YddXZpvtpCDrm/AoGdrAS+hveGouLcAJCVieQ/CHF8hwFGfGDkn9FjTSwKd06dMuDWsUdiYk/QGeXlU5OlPonqJGkqYfvZXBhZ0t28Pv4GSPfUCUmYFux9vjWYSLErI/Zqc+VYsIRcMQB8qJQEPdPADA3O25yUbtI02UNJtC7md338fHjqZTkC2AYxPq6Q1dOahtxN4lGJUCPB4laK0CucIZfOqpKNIwk0yT41HdQokY5WvLpmVptjIyiVl4ewz6ZTkKshUKqSgRBzoZ5AA7IMhzCadL2kiRvqKyRSTRwlbAFAyf9C0Ne7jSnPBam2rCO4+ARem+XsMI095/DyS3IXXP8nUK5x6gRSAhzI4CANyNtF/AoSlLjgZo6Qua9pJYWyyRF34HID98n/gMSpHRYdFyJq0JyxaCLdVgwhmoPEed0RGbe54KoWyWqZ2wCMAkrHcqWisc698Ju4YDaC4JaCLsvDlJd4FLXWqjrezkXuKxfRg9twrX2E5IgXea4MPGg2OHcj3RjVJ7zCPSzojTqY1xJsa6vvaW09fwKHxRCR5JoMES7vaDvotbIQkwE30Oxac1ofS50F/efwWACkX71rvPa2+O4D7ZOnBsQhbjwTkLbL6elwkNKMx98YCW8JBTA0AzBTJSjRkZ5itXnw1teaokfWJDcTWBrzwHxs9bx4WJfDvwvhkQprSRCXKuc8QYX3gMzKMzg8of0+3WMj78hLknjEvcp5ue/FqOhBOoLm4YwE+0Dg1M5OQpnhRibAL0grqsKj74LWrGBZywl/xwEqYjpAbgoxkkj9reVdbQEKKB2wk5azR1gmtDFLzaE3OyWQN09MqhLgt24oHkRUrJDAPvV1IcdnnzYy2pgWklHj7AU9W4zxlZCNfbHolzsQoZ0ZmwSZf97c7ZpBx8kxMsiDmAoIpKSQwEdMOGOGKLlOpKDN889qSqjP9LZapv6wnaR0FBcNHcG60DE4EtLAwrMzMI+lHfjaFeWQI5npT1i6AqMawgqDL3ARThdARB0EwmTyHRi9fF4rOU4GhIUwS2iAI5IeDzZ3oIkI1SeJONImqCw1hktDCVLjjV/NssttF5lKfhKpWTpS/wcYux0egfJ6SQLKoR5wCgHf1k1uOOfxpvKg8O4sldCy5JyfGFPqQ9WJ5dxb0keUMuRjm5UEfuZJdDEgAH4f+OBZcGEn+CCTubWttaWoYnwodjxcUMvMcPREFqYCuNo+8FK30lZjseAAVy+fFGLNNaa5g+XZc4j2++Bg+kyOQAxju016SRGKljPTmm1Kq75kg0xiGoEGADV4U8kiisge3VhRBvWDamQwcGAQ2lcth9X48Wb41XFaUQdUY3LbA+4Vc2daEuP5fAeJHO8TJZNgiYjNqAyyydS+Yf95/BGkEoZIFhdBmyWbhjEKbg5XoSh3lUc1UOUp2BLBS8aWk9ClpFRue/PS2TaF09xFo68IJ9QiVEkbbcwqw6ItMsxoJoW3R9rfRmZERshkvBgJsLLzxGe0YQ8Q3sJoUob5SFB6hlCUdGYYDvNg4V5vCAkiGMElA2nCnQDYlFEFRGazVDLmLEA2MAtZGvILQxZMFaEuhDzLLPgxWN3wWQEA9BTNU8nMG4fOi6Y4Q9NQ3NdvEZ8Mdyi8Z2CKxig5KcwJ3KhnsnOueyB1tXTNnPAT9efAUNtOj7BhhpsUIZjbxqWhu2pzhKFUG3yzIFBrFjLBmMKls2Jd2tAqZwYvjPQt8hwKevjDa19aKXDgsYNuxAXBySadaQseX81oaG3DIuakCEi9sa8FMZmlnu81z8/m9wYtjOIvLxgk7C/raFgj9Z4/Rd9Gxg1fYnD39hvq6Re20xD05PTM0Nr6wTTUHIRcmJrEaiI8aNDc04Dy8Mxdoez9Vb948vNdwdmQMuxtMfSampsempjtbmlEBVOOQ9W58NObIKYD6BDyoLiTSb3Ujn2+NgutA1qdvTDD0C5ZzMyk6M0IMNU3GDbi2iEGAzbHvjO+7CXayEt9nANyqTVjIDWwZkLc0kzHiFeEiqBfTCwzgphEQS5FDsOl46CjNskCeoAxOJsPzokBVo4QcZDBR8veRtNGWk03Q486MXBTNYCpmVBCk/XzEtz9LCnYQB1N4CO04IQ9rFdCwB1BSKUQ2ADg9pjt05qG3S4o1FxYNuKW9TZXCgAeUiUkQdOYareLMyOwYHAW/xwdLck1CJcxKsi3RRkiyqU/MMe//SiH5TsSya1x0Kmh7MZwuTkzi3OF269slAyOjnS3zsYkJW5kaG+xjiaNJlSY0kUeogulYVkJ9G2ZT4XUuOxcAYcCCaOQvRkEoZyGlVMdRaDRycYSHht7CIa0ICkEF7n/2DBTBx5basGqQBvvUN/GQh0b/cKnnmJ6/JlN/qAgwU69kBHeYJYymBVmAOwHWcFrmgvQlkzHAFK/6iIh26KbewvIgGAtE3tWD9YYFsW3Hz+JAuDdfu8Gms+fU4MMjxzcu7b2krwuzaHw3DrMUbBffcWIA08XXbVpnJz4yOPzgvqOXLem5bHEvJtKYw0ssDho4Nzr+3LEzmFS/5brL7Sy7mf4VSxeuLYA+rHyYs7tPnXvu+ACqarsAxianfrDz0OrezquW9y3twEYDjK/NWOHHSwHPHT+zqqfTdgHgKwDf3rZ/ZU/Hpv5FmEVYLoD0Mc+dWQXJOViAmee2Y2fAlNdt9nHt6SOnpqZnriR8yBcTmFTkXs9UcpQD4NKQgmA3WABYwHtiaOSZo6fhI7vj8tU2TD/ef6ytuRG9IPlUzlSQzURkbpFPAW2oKRwXgs777NHTWOoPuAC+u/0AQN7cvwg9wj6CNBMsxYifW6jRohTQNrjkMS4UA9NEmqUA3Ng8zoxM5EVcZMCM9Nva+snMgPzRRFNC4idixB/b4VvIRCyuDRnDsQ8Rlgn0D/699LLVtgsAJsoDuw9vWNJ72ZJeeAEwZGSkVvIEQVM/YN+b+iSwqcA6l6MLQJoUNqFY3vQUxRLY0GoPSS+nyzCfAUGbA/xUCtVWIM8Kyx7TwlCwkblwcQHVoPllcYdcWYRk1IqQcCcDa8KF1kJIWB+oVotk+nkUySCTJODBFTqR3ccAG2RWTSCe1N8Z9YgEgTC7O+C0/5P8Hn5UxrqRianHDp3aeepcY2P9xMzMwbPDjx88ETdRHJ+c3nrkzF4kxrZ77cDfefLsySGmr0M89s2rGxmfevzgSdQBnm8s4x8cAP2TOdHH6v03tu7X+/Z9bScjd3Yejv46dHYYOxS4h9d989n9F2M/CVZ3ePDCkXMXMHPw1TYKUq8VMbF2sA24ZLTRThZygo4QiWBrNvKOOecTh06dYhYvaA6Onmjm+dGJh/YdwwaN5oZGgJkNzaKniYHUxpyGQn+yyExxyEv2oKvR37BCYLcpYV563+4jWIJGoO11kjTg65kLYz/ae3RRRytO+uFzN+fuigRRVydKRUQYIGETHASKKuQGL6iR7zx3QD7/EdhzhDSQduiie4cO4s2gsDoqNeiJUFNtoxLYYeY+aeiMIkLEC1ApYaDy0NthIkUPiYFCyhWFEMY8AHigdyK9T7CRmjME4VXKmw8Hc1cIgdjOGGJZmEEhYsSBDGzSefKeiIULzT7k5PDo9hNnlZ4Pjerj0zPYEYnVEexejNCt2RdThJTpsinvCgaNmLwJFSOjSGykRkZxyaNgUGtE1g8SYwsN8SQkRJEZKzowpAjs1pBSYP2dsYkJ3PFyx9AJKouMhdVIghi4TOuz4YskBqWw9SvZmb3EX68HmTw1gnNMMzPCm8AfiZL5fzR57ljA3HxRj2eSWuUEOhzIMcWLk5hGTpvRCwNe/EimsgzLQXR1dador35u9Afl1BxpTFAHKPo4Y+30yBiqMaQLovYGoCHVyjI2bx5VIx64jJiHaQu8QjJSyI2ES8oU5Rxt95oT2SgOHJRXoyMTSJ3m7jdvwE2V0aww7Mwmn8SkCLuN1sT0zATgjcMW4Rx1+gL5CGKTzQX+Bp+AfNrAhusVibaQsukUA22/8gmqA4NtolIKN6hEIRbaQcmUGiRIUFi8BWpDsxhoG1zy0NslwjS+mEDfDyeMRFsC4yx8j2ZkZnINhMtxIZmVXkZmBUCMZJNRPilMxApgmryQKFZOlIaisImpmYmpcW0JFVBYulljpFoKyZVHeVetrF0AebfKZXQIOAQyIlAyLZOxJuWcIFFRBytuEoeNSEmaJeY0j8mpYFDnPMEKxTxnQz88ZCbQzylxTKV8wVk2JSPgBEyWtLKplpUmgiwxLVsW5Fha0ZPnVHE7cYGiXlDDQpVmDlQSC7KpbFmgHQK1snAWMcsGbdYYnlRGivdctT0bvV1Qh0o7czaAS5pInNOujqPnEHAI+BCoABdAnIIIaOE8/LIBc4EIZqOxqkuEMg5myZAgNlJ3F86d6oI5z9YYGAOyasglcMeOiuRRnnVy2RwCDgGHgEPAIeAQcAgUEwFnRtWl1l8AACAASURBVKaCboFGvtSheBOxVNrIRPx+Sjwl2MfplZoKpVR4lEdNKsAFYMsf7uMmMxkRjEQnkCs/IpGUKzcw146TzVTTAZuiPOSh1nxZQus5KdatCkh5WBXgEsyDR1UAXSFNUIjlK5wBCcdj3EhRSCWrKa+NWCHiSnmtnuJgTxYSwCX/kpPFxabFtTj6VRZeINpAwwCer2aqMkSTmhMQzpy0ip04Toc4MzIJ/Rzj8usaXneI6Q/lw6OK2zITycCcOlEkheTAYrkAJqencfZVXNmjE9MjjbGxcbliw/N9IyigaPAYf7RVbOFVEmH15/FE3mXT3vGZ6YuTzN98WZNNKTWUpm4eDpBXkBbc7InJqbRIFVyXsiYwNpmkxHKtOt5hToA9oIsmTA/KupjU6U/O4M1378KJOwn1R4XtxKRLRQNkXX9KiGxpjHjjk1MjE94XFnOqQvaJw7YOjlHMp9XZF1m0lDh7cqQh/xF5fKoUgIdb3x46cHF0sgJYAGU+HTfLCTcyPmR2ZqauHl/qLMUF9RIoplJEHb0ywRbNHjt85bQhD52WfQFRKQsfF6KoliKscNhx0judhIvLmZGpcCw0aQfCDfkqkLEpmJH+QXau2RQ4/BUnIlfkhC7EpjjmT88GdXIoZWaWFMsFsOvUOfwLVcgKSMPUU+TyHU1fcmk/jrY2dcIHuu7deSipzlUcl40PNqfmC8F8WZNTUdWfGGCmiGSKXa+6oSf9mVmHxmHwyzdeYUdtPTrw8IETcYlft2mtfcL87pPn7t15OC6xhBebPj69duXSXlMHnHWfUKWm+vobVi0xiWEuJyROalc6ch4+miCpzPziMHb87Jb1dt5HD57aczpx1MuvpFLkKux0bbJasrZc0mvOpYu6X33lGpvej/YdG8BZlWV+FaZYfI0rlTK/ac3SF6/vt4vOs4OXnjXpqBSud6nQNiDlMS6UHuDoEguH3aBdOKnoKtZYaKT05o1tmFrepFLiwwvXLVvU3mqI4WumFTmhCwObNz5ZWK/FcgHkXed8MuYLGZZx7JUcus+XVD7VroU8Ds9a4LJro0PAIeAQcAg4BBwCDoHUEXBmZOqQFoPg3LMp5Iae+yoVA+g0aZZoF1maVXa0HAIOAYeAQ8Ah4BBwCDgEHAIOAYeAQ8Ah4BDIHQHnAsgdM5fDIeAQcAg4BBwCDgGHgEPAIeAQcAg4BBwCFYjA3L0IMNfvjYBZJ4Yuru7tMFzDY5pvXFegNKRZ5TLgb5rNmXNabkfTnLPAVaDYCGTx6lp2VQCh0J7A7HLWaKoCkXd45yY3BcKdW2G1nhqawOE9B0JQ8IEszoacA65lX2Rhx8dkX04OKUP93IlQJvTmzgWQqWYu3iHgEPAQcLqs0qUBHExiYsGjV7Hpw45Oqn+APTklLgJrc6hqvqWHi8jAgnwLqoh8YTRKUO1wobXGgjACRYI9XFA4pEhFlw/ZOWhywePCHKIXqvsc1sUVnTICjrkpAzo35NyLAHODuyvVIeAQcAg4BBwCDgGHgEPAIeAQcAg4BBwCJUbAuQBKDLgrziHgEHAIOAQcAg4Bh4BDwCHgEHAIOAQcAnODgHMBzA3urlSHgEPAIeAQcAg4BBwCDgGHgEPAIeAQcAiUGAHnAigx4K44h4BDwCHgEHAIOAQcAg4Bh4BDwCHgEHAIzA0CzgUwN7i7Uh0CDgGHgEPAIeAQcAg4BBwCDgGHgEPAIVBiBGrOBXDD6iWXLOxMRhkJkCw5jYt1CDgEHAIBBF515ZqOluYEWOrr6m5bt3xZZxvS3HH5qoVtLQmJ8TWra1cuXr+oy6QpNv3NyxduXNqbUCVELetqu339ctygYqhe8sf3ettaXn75ymSCFRTbUF/3mqvWtDQlfUmnqaEenE0WgwpqcrlVFcDeefkqgJxQMTDoNVddAmYlpHFRGRGAmoKygspKSAl2QCklJHBRuSKQx7iQaxEuvUOgOhCAKQKDJLktVyzthWGTnKZmY5NMmWoF5UN337zt2MCXntwTbuDKno43Xr32hjVL//q+p8OxLsQh4BBwCCQgsK6v82e2rL9vz5Gvb30+kAx29I1rliIW0/63ffGHiF3U3vq/f+qFP3n+xH88vTdM86rlC990zaVr+7re/m/3m9hi078wMfXB19y0+9S5rz+7P1wlVPh1m9e+aH3/5x/bidiBkbEPvPqmI4PD//lMROKu1uZXbVzzyo2r79lxKEyqQkOmZ2avW7XktZvWolGPHDgRaAXmnC/dsOKNV6+bmZ29d2f1tLqsmDU8NvHqq9a84ep1395+YN/p84G6NTc2QORet2nt8aGRb24L9sGyakj5V+b0hdEPv/ZmqKyvbd0/NjkdqHD7/KZXXLH6ro2rnz5yuvzbUkE1zGNcqKDWuao6BFJEYEFz00dff+ujB0/++1MRRtRlS3p+6up1MKXe+82HUyy0mkjVveWz362m9mRsS1tz09+/5SVwbOOrlucujvcsmG+yDF4c714wH5Y6DLjf+OJ9IxOTGam5BA4Bh4BDwCDw4kv733brVXiExdzS1GAjA/Ui2uaZo2f+8t4nEAXP9LvuvA43k9Mz0DnzG730Zy+O9S6gDQKHBy+882s/Lhl9KMZPv/klMO5RoqmDlD48PgHlKUuCf/iVB4+eH0H4X73+1hXd7eHE41PTSClLtX/xvce3HhswTaj0G8zwf3rLerTiwvikAGVaNDQ20cl7QO7bfeQzDz1X6S0t2/r/+i1XvmTDClTPAG6qilEbUorHLz+19z+f2Ve2TaiUir3zjmuv7u9DbY36MjU3Ku7//Hjb/XuOVkqLyr+eeYwL5d8oV0OHQDEQ6O9q+8gbbgNlWFBQ/h3zvT2YxoDBSP2bX7oPCYpRgUqnmbSbrtLbFll/SMn+M0OIwlTfnv8jBI+y423/mfNu/h+Jngt0CDgEEhAwc93A/F/Ui2R89tgZudlxcnBimtbWMFW25/8Ikfk/bp71T56LTR/D5HPHz0r1TB3kEYOrzP8xssr8365eIDGaI/N/eDd2njwnFKrj13AkMP9H62T+j5tqcnmUIdcMCwzgppIy/3csSItrBuqAsQT6RsUFdFRaRdcsnTzGhZrFyjW8xhGAKYLdiAABxok9/0eIsUmeOz7g5v9xclJzLgAAYUzwOFDckBaHjAt3CDgEEhA4OzJ2nJfHEy6jXjA9xpb7hJSI2qb9BZKs2PRRSmb1eNRb0s+oKndpN0dyMysodl8mB/Hs7Oz2E8qNUkHtqqCqbjs+AJATKnxxYur5geA7AgnpXVQcAhk7+DFtgsdRcOG5IpDHuJBrES69Q6BqEMAMP7ktGZVYcvbqjq1NF4CTmOqWatc6h8CcIZA83pwbHT8yeMFULjnx1MzMzlODgZYkZyk2fVTmWWvE3XHiLAzWBKyTa5uQsWyjsJ6w40SQKXZtnx8YxvvqZVv/KqgYNnYC5ISGPHdiAKc2JCRwUVkigJM+oFISEldfB09obMmiklGNHBdKVjdXkEOgrBBI7iyoasYEZdWcElemFl0Ae06fG52cigN6bHIKCeJiXbhDwCHgEEhAIHm8Qaw9NXnWWlEP08QegfApXMWmjzPATg5fDFdGQlB5nKVqYvHO/95EbZlc27hSyjw8uVEZt1GUeesqonrJICczqCIaWCaVDPT3cK2SGRFO70KyQSCPcSEbsi6NQ6D6EMBrdwmbwk4OXYRJU32tTqtFtegCwPrAzvhlnO0nBt0CQlri5eg4BGoNgedOnE1QIPb8GcgcPDuEI83iIIqcyRSbPiqTYICGKxxZSWkRFsMPDiat1sY1vMzDk6c9CYCUebsqqHrJICfHVlAzy6GqCWBC0SXviCmH+ldiHcJq1m5FAkcqsbGuzg6BQhCAmXHI2lkZIOU6SzK2tegCACIJYpFs3iWj6WIdAg6BGkcA24jiFsaxpBbQPAhJeJMtUhcVm34m9Rh8iyrh6Ds0NsE9X7lyciJ+YQHbItwmshJwFhtkAHVkQbSNZSh2G0tkFheYgAD14pjo5A2VMZlccGYE8hgXMhN1KRwCVYpApKUkbU2Y61UpGLk1q2ZdAOpQ7jBaTmLCmLgQh4BDIHsE4nRI5Iu1cYkTXniOy5IW/YRXqcNFHxgYQlUjwbFPDYhMULmBYRykLTjNO/lwhMptclnVnF6HPhl9IkMca8qq/hVUmcDxInbNHdTF42MctgnjQvEq4yg7BMoZgbjOgoN73NG8yYyrUReA+ZJEAB187won3CZD5mIdAg4Bh0ACAnEDUmR43Cp6wrHnkXRQn8jwPOjHHahOR1WHvvBnf0cwgEngrYcExCouKhJqtCLwBYeKa1cFVTiOBQkrQhXUurKqajzUwT1BZVXtiq5MHnq7otvrKu8QyBsBuIPl+8oBChk/35N3iVWTsUZdAOBfpHm6NfF0rqrhumuIQ8AhUDwE4gaeSEsa3/mLdDtGJpY6F5s+Soks3XywOgBd5KSrur8WhuEj8lPDkbgVT9JqmXKk1CU4pGoZqwLbHunYinMUFliWyy4I5DEuOOgcArWJQOTiBKBww3FGeahdF0DkJtVIqyIjiC6BQ8Ah4BAwCERuP8t163Kkj1KKKDZ9lBI5dkbOBOISbz0W+7JVFYjKyMTkgdB36RK2TFdBk8utCfi4Zvh7dc/Hv5ZSbvWvoPpEvt6CQ0wSzj2toNaVbVVjlLDbeVG2HHMVmzMEIjtLZOCcVbEsC65hF0DoqCo+guVsWbLJVcoh4BCoJATCY0/CAWZhz2PCgXOCQrHpRx70FS5UKhN5AFtc4kriYmJdw1xDk+MOTkuk5CLzQSB8uCaoVL3U5YNUwXkiD7l0UBeMawYCYQ2TcVzIQNFFOwSqFIHwkkPCwclVikE+zapdF0D4SxLJH2LJB12XxyHgEKhJBML2cTjEABP+EGnY+AugGKYWDimEfvhzX/h44aGzsV/4C5Se/OHV6pCIMODhkOpoadm2IrxTxrGgSMwKAxsOKVLRNUs2j3GhZrFyDa9xBGCcBDaFhbtPjUMU2fzadQEAjoCd7Ya0SBFxgQ4Bh0CuCOCzZFgbt3NtPRq7MR7u6sCX5DLqomLTj1SPCUvcgQpHbiLIFcMyT49tHWOT3nfpAE54RlrmTaj06kHqbJnEYnXc9zgrvaVzXv+AsUQbf4bdlxeLy5Y8xoXiVshRdwiUKwIYCLb7N3FnXEcp16aUtF417gLwvVWV0ewuKWdcYQ4Bh0AlI2DrE3zJ6UD8EjpaaSfGEno2X7IpJX2uYawLA7GB7wjWgi6lwx1Oed+li/wiYyXLbwXUnQ9f8Ham7Dhx1n2RsUhse35gGBsnDfEEh2aRKlCbZPMYF2oTKNdqh0DgfLe4b2o4oGwEatoFYH9JIu5ISScuDgGHgEMgDwTsOXPCF/6Esm3q4cB/nLadscRi0w8c6b8t8ZwUVHj/wHlT51pwAaCx9vmIzuDIKLHFSGBLWo1IXTFgzEhz1v+FbQd1RsRSSZDHuJBKuY6IQ6DiEHjW+qAbPqhx3H3fPQsW1rQLANP+Xfoz13Hfu8oCQ5fEIeAQcAgEEdh27Kz5blxGi3n/mfM4ZF5IZEwsyYpNH6WYne1Hz13AmBpsof/ZVJvcAWc8d0ByroqOdfPPOWefY0HJWGCgjvwiScmqUVMF5TEu1BQ+rrEOAYPA2YtjR/W033nksxSMmnYBACMzqsV97ypLHF0yh4BDwCFgI4ApPT5RJiEZ3xK3rerkLfemiGLTR0FmZ102XgmTBl8LM76P6hYJ8106vBSw66T3UkB1t7qsWoetfLL5f/DiOBxVZVW3KquMsardlxdLxtk8xoWS1c0V5BAoNwSM7ZSlEVVu9S99fZwLQL3gmo2NW3r2uBIdAg6BykVAtMrxoZHA0YCRLZLEOAIKLwJEJggHloA+NgCj3GzUI05iG52k9xeySRxuSyWGmO/SYTcZzqKrxCZUep0BO85lFKlLOK6y0ptZDvU/c2EUH6VDTdxBAKVkRx7jQimr58pyCJQPAtJZMBC477tnyZRadwHIlyTOjyZ97ypLKF0yh4BDwCFgIyADUpZTYnmTDUMXjgPMEsZi08cBYAcHh7HEvePk2YxVMt8RzLK9GQlWRALZ3+HWHOaQWQK+Y0EJWKCh9p2jXIJya7mIPMaFWobLtb2WEcBHAWCuHBgYwjeMaxmH7Nte6y4AcRfRYV3ZY+ZSOgQcAg6BLBDYw9+Ny3JKjI9snRoezTKxFF5s+igF9ZFSsmgufTWg1r4WtvXYGbMXIBuIXJrUEYCIumWf1FGNJAiose0i+21KkURcYE4I5DEu5ETfJXYIVA0C/F3Y8xnfu6ya9hbekMbCSVQ6Bba5nQeg0tno6u8QKDsE4JDG1/LwrbIsawZfZE4ugGLTR7VRn9EsPk8gDcTbwiu627NsbHUkww4y8Df5i4/V0dKybQXAx/ET+EBg2dawaiqGPUpQCO7LiyVmaK7jQomr54pzCJQPArJoUT71KfOaNGx6/c+XeRWLXb3hsUksvslbrMUuy9F3CDgEagoB6Bb8y7LJ9EaS9Z3zbHIVmz5OWbswPnk+u211SIkNeMiSTc2rJg2+npjxcwlV09jybAhYUGtSNyeMgM8RCsdBXWLw8xgXSlxDV5xDoEwQwAeJDpwdqpEDiQvHvO4tn/1u4VQcBYeAQ8Ah4BBwCDgEHAIOAYeAQ8Ah4BBwCDgEyhyBWj8LoMzZ46rnEHAIOAQcAg4Bh4BDwCHgEHAIOAQcAg6BtBBwLoC0kHR0HAIOAYeAQ8Ah4BBwCDgEHAIOAYeAQ8AhUNYIOBdAWbPHVc4h4BBwCDgEHAIOAYeAQ8Ah4BBwCDgEHAJpIeBcAGkh6eg4BBwCDgGHgEPAIeAQcAg4BBwCDgGHgEOgrBFwLoCyZo+rnEPAIeAQcAg4BBwCDgGHgEPAIeAQcAg4BNJCwLkA0kLS0XEIOAQcAg4Bh4BDwCHgEHAIOAQcAg4Bh0BZI+BcAGXNHlc5h4BDwCHgEHAIOAQcAg4Bh4BDwCHgEHAIpIVAY1qESkDnrddd1lBfJwVNTE0fPT+y9eiZobEJhLxkw4plnW0SNT0zMzw+8dThM8eHRuxatc9vumvj6iuXLexqbb4wPnnw7PD3dx4+cHbITrNl5aK1C7v+4+m9geYsaG58/eZ1D+0/HkgfbvXlS3quWbn40ODwg/uOhWPtkDdfu6G+ru6/9h49cu6CHd67oOWVG1ePT039x9P7JPzq/r4XX9q/vKutsb7+9MjYU4dPfX/X4emZ2WT64dgXXdrf39X+2MGTe06fC8faIXV1dXdevvKmNUsXtrWgIKT/ytb9x88Tnn1tLXdesdokHp2cOnb+whOHTk/NzIRpgimbli/83s5DgSg05GevufTxQyd3nwrWBIUu6mj9xrPPh6klh6TSukXtrXdcvsoUdHFi8tzoxHPHB05fGDWBZYtAMj4utvwR2Li09wUrFkk9Z+fNQk3tOXVu58lBU/OEjilpOlua1y/qWtjWil6JjAEtAf25eXnfks4FY5NToAwVGsAEUev7upoa6qEenx/w6cbyRy9cw1vXLlvd2wko7t9z1MQC4ZnZWYwdJuT29f0rutu/se35YR5NCrledeXq7taWH+07dnhwOCMd6MD5jQ3f2X7wjKVeMuaqmgQyau86OfjE4VN2ozDG//SW9U0NDd/c9ryM7/3d7a+4YtW6vi4MxOdZId+78/C50fFIKK5athDjuIkaGBmDJO84cTYycdUEiuo4Nzr27ecOSqMgWmv7ulZ2t58ZGd118tzIxGSgsS1NDa/auGb94m6kQeyBgWFYPvZIFwbnkoWd6D4tjQ3A82mrB4VTIgTMesPV665c1ts5v3lkYuqZo6e/unX/xYkpRCXwyAyv//7UnsnpCKMisqyyCoR581MvWPflp/eGjTSgB8sKdlFDQz0Mv3u2H3zGD+Pijta7Nq5Z3duxpGMBRBei/rVn949NTksDl3W1vWHz2kv6ulqbGhD7433H7911eHY2aAoC+eaGBtNBMCjAhsTviaGLTx4+FUxdVti5ylQaAvbkK1D3H+4+DJGrtAYF61vdw3QluQBgBMA2hb6DHSxcgon8sR8+BRvihtVLoONs1v3c9fP+5r6nHz14UgKhc//w5dcs7VwweHEcE1rMbF+6YcUL1y3/9IPbfvL8cZPx9nXLb1yzdPepwWePDdjUkPg1V62hYdLvMggKy7x5P3f9ZbBU/vcPnw5HBULgj0Bzdp0aDLgAXrFxFcr67g41kGMs+akXrMdYsu/M+aGx0csWd29evvD61UtQRHhQTygUHpBfvukKOB2+/dyBhGSIArjvvONalAKsnj125uzF8UsXdX/wNTf9wVceREj3gvmoXoAC6vZn33k0PGC/4eq1t6xd9tSR0wHDAjMNENmwuPtPv/2ITQqAoJItTY3f3HYgPLAlVDut1vXo1gFw42/CkPnDXYf/5dGd0sDyRCABHBdVKQisW9QV7lz37Dj0fx/ZkbFjIgFUCvykcJOKhsQs9OM/fPrksBqDV/a0/88XvwCeREyAoQfwC0fbvz25R8BByNtv33zzJUuNgn3s0MlP3L810rVXKXhiFgQ8MUz8195jaK9U+63XbUDvNi4AYIUQNPOLj++Kaxc7YVc8P3D+65lcky9c1w/zfe/pc9m4AF62YUVHSzMGoNp0AcioDTUbcAEAbUwd4Ub/AnPkmpWLfuf2qzFfxUB5YGBozcJOxMJr85HvP4k0YZZd0teJjoBw8FsZCvPm/eT5E5944Jlw4uQQ2Ak/f/3lk9PTn/rRs8kp5zxWVAc8d+ICgEfgd1/ygrb5TYIAfFt/9+C2p4+cNvXEmP47L9oMlzeiYO0MXByDI+CvXn/rX33/yTh3CRxqv/XCTaeGRxvr6+7edAm0xxef2B3XcCy0fPA1NwNAdISHD8AMm92ycvEVS3vf/61HoGESeGSG169u3Re2KOKKK6vw29Ytf93mtcfOj8AVaFfs9ZvXYjqB+fy24wMQ3WWdC/7gZdd8/L6nnjqs+ILZ1H+74XJoLSxfwWoan5q+avlCUPvjb/wEbML9H7xsS1N9/Y6Tg48dPNcxvwmesr72VukmpiB0q1++aeO3tx+QdZQX9Pf93ku3kOXM3QHusA/f83hOpmNZYesqU24IhCdfpoYYZKvABVDdw3QluQBEsD5+39PPHDkDbfibt10Fv+bPX3/Z+775sERh2vzFx3fD0n3brVet6un4tVuuxIo3FB+MjHffeS105ROHTv1/Dzwj4wpsCFDAKAhfqRnzYB+D1GuuusR2AcA4vpNXhiU2oQdiWMX8H9Pdx/3LGglZAlHQ/nA3YIy8ZzutnGNIwPwfI8FHf/Dkc8dpHQNNhi8DA/zvvfQFH/zuY9lTftllK+EYhikct3hiSGEXA+b/WH75w68+KD57RL120yUAwUwYEPK2L/4Q48rNlywDC9Dql21YadwWQgrmBWKB3quvXPPPPIcxlyAJFwD+2RsBbl27HDYxkmEpIHk5wqaG+9Rb92tf+AF2mkBm4ML46ResB33sd/jC4z6Lp6wQCADiHisXAdjx7/nGT+Amw4IP7D+4Pu/fcwSByR0TC3SYGv31/U9j3MXq36/cdMXKno5fv/VKoyV+49ZN6Gv/67uPQp/ctnb5r9y8EXYqZl97T58HVigFvfKPv/4TWK5YRP2NW6+6ftWS122+xOxFqkQ8Hz90Cs2EfxA7I0TP4AYL/mjLmt5O8eeu6+uEUoWfJWFxDCtyN65Z0tyA9+aer0QcKqvOr7xyDSosU1kse77jpVvgpsFsU6Y0GM1/5aaNGBnff9cN//3fH4Bajmwd+su7v/5Qd+v8t1y3Ab5++LYwH7PnwJG5AoGtTY3gO6/BlrsLwK45VqH/+4uuhrvqB7sOA4GfvWY9Fjbefvum3/3yj2Tuh1ViOAjg74au+NsfPWs2v2DF/k3XXBrwyxvKmL7CjwZU0aE+8TMvwpiY4AK4+6q1mP+D/l/e+4T0LCT+/ZdsuWpZrzGuInl0YbzQnTjZcLZ4aSCrd29aA/owI20XAJQM9DPC//x7j5ttmBsWH8JuUHEBQDX92s0bkR1y/v+e2mN2ECDX3Vetge0BTyVMONhgX9u6X+r//57ai7UZ7N2ASkcIeI0VFKwPmdatX9SN+T+WzP7uR88+cuBkZ0sTugNY/E8Pby8eAo5yTSGADi7tvX398t+8bRPmF7/9b/fXFAIV3djKcwEAbqzYYCy/b/cRmLAwzgwDsMyD6f3+M0NfeGzXu+68DgNVV+t8SCQmopjLIdc//mS78StjB/5ta5fBlQD1Ki4AKN+l/DYB9q5jJQfjk1C+btViZMd9RhcANvAj2Xe3H8xpBdsWIBgrbc1NcFVg7Q71kSXB+/Yckfk/UmJm/vnHdv3JXTfAC4CJN5bf7exx9zCb7rh8pdQtLo0JX9XbgXvstxzlPXtyYVkeE347L6wBbArAngIYSfB9rOghw9q+7r7qEllIxxZ9bIrDWpyJ7WdXCy4Mkx//4VMm/K6NahM+dn5m7wIoRutQJRguqAOGW5hNMDqxPe9H+47bi3vlg4ANu7uvAgQgWnjv5jMPPYeVN+gBdAeoo+SOedmSHqSH6kDzsTHqK8/s/x8vvvqKJT3wKsJAhGft9IWLn/nxNjHH8SbRG1+wDiYjXhkQFwAWV9ETpdM9cuDElUt7X375yqv7F1W0CwDaEm9DQFXCeyIugJdcukLE48Ub+v/5YXrTYQu/eQFnMX6h4aHD8YuMwFDet4L+37isF7HYo4vYQ2eHt/Oucrgv4R+EQwHrog8fOGG/WQCbGy80wZOC0QdgYkiSQrG/CSoddvnRcxcwPZNA8wsFC0fqFct6MIUDu/GCgJmbwZEKH82m/r7Zmdkf7D4MJi7vbNt16hy2GwSIVPojhgaMv8BfdudhdIb8Y8nUvBqGqdHnHtt1w5olGCgxC8XLAglNBv6ffXj7SyIyrAAAHjNJREFULZcswxixpIMG8TiQgTkEHglQLoQE7jMMu5uWLURIY0Md+I7xK+PLfQk1KWUUrBdMPgUZuEg++/AOuAAAFyaZsu0cTm3M/9GiT/7XVntchplx8OyTcVXFwn5DfX1zY4OYQ+djXsSQ7Kt6yR6AGWM8a2CcWYCxiwjwqNJdADeuXiIvpWItCivw5nUJOLPEgjLbsgAClBK2XQgav3rzlRB16JaAY+Wrz+xb0Ey7OVZ2k2FmL6tCP7zzaw/J/B8qAstCMAihw7H6IjSx+oJC8YqTOCPOjEz//YPPwU0Qx2IX7hBIC4GwRsVCICQWm7xg1UCHnBy6CB+9bAEjtXwZqd8H9hzFfAFTm8GLY9/bcejMyBgCQQrzF+whwl4wDKZff5beJzJZHj948tZ1y7E/Gq/GwJVv76rG2A2PWE/rfGyrwWh+eFC9c42VFUwP4XqDqoQBgFnhg/uPmcXI5GEabjiMxVhlgQpFX8Y8VF7VjGtvWngWiU4FHwcIFgKUvVFzYIzfiMLQgkMBcAM5wC/efQ0sgEP+EH71ikVgKm4Wt+MFq3rZ+ArVaRDH8C+BZuJqouwb+LyxJQYv2drvnUamjAuElhcnwre301sAK7rbZCx5/KDvVUnYpmIaorg4UoHwG1YvxREDGF0yvsiAjLK7EgMYNgajK2JoQSDmJDLSBChD7qWSsIztKMwu0JNR4tmLY5iEyDYKk0CcKUD12pWLzCEOWIIA4wTqjN4Wu6zitU5KQSeHjoARiS2pgebjsRwQCNfKhVQBAphewihEQ8TxlNwx4XmUeaw0vJEddlMzs9KhoDH+5v5njDmOCSp6KPShzGaREstEttMN0x4Ejk1FL7FWELbyLpj0XCgirAajmcAB+yDEIod3AOBgFMfGsXfdce3E1My+0+c3LOr+xRuv+J3bN6OlMBEuW9yDG1gtL79sJVwtuH/lFavhh8VcEXoPdsBbrt2ANRADCxbuXn3VGmg2uEE/8KqbMOdHFEaZ9991/RuvXoe1ONQEL2XA1DBZsDD756+95b/deDk2+sL3iowff+NtMpAhDdZsf+GGyzEAHR+6+Mar1//6LVfijTMsqFYQI7KsKkZASN69Ow+Js/66VTTGPeYfATHIbjtGXphsRkCs5NfzEUJwdSWA3NxYjz3Y+PfeV1x/5xWr4NfGqUA3XbIUGTHvBd/RZbJswpwnwzzQ3hwuqgC1GuO1YlxwsuD3x/uP2/N/iQqHmObA+AaO//PFV7/z5deABYGdfSaZ3Ii1DdzQF7ChSQJhQpj3cez0No8CdCru8bWbL8H8BNv4UfPXbLrE1P/I4AVZGZK3LKEBJApI4gZ7BDAbwQ3mMIEmQ1lhEQK/Mrf51Zs3YgKD9HZ23APYP/nWI//yyM7hMbXWAvUipi/2fmJfJ2xa6S9//+NtgSLco0MgdQTCGhUyj/fp8K4ihmCYNHCgv+NlW+TsLUSJ+n3XnddCSuFex+rgn776Rhmjf/9lWzD84c2XnScGMXq+75U3INxkecfLrsEkH1oaToQ/e/WNmLlIWzB/+f2XbsGwjuKgvT989y1mjMbwiuKwBxyv0mDxEs5fjObSAZOHaUz7/+J1t2ArDeaK8OPDNnjfK68XspHtTR3V1AlW3i4AjOfwcWIbP7YCwnT73CM7DSgwnjB1hPS8/uq10LbQhrKZSnyicBEF4Ds9Qme8YVTra2/B9leZduJkOwz/2DiADVfIgv2iOOEPbxLCdoRKhQRg6TuSDZjlYpb4vZ1H47YmRuayAzf396EOWP+RXQnia0eCcM3hG8OynkmQkbK8G4llpYwpkWDbsQFsVMPCProo/mH4gbfs358KHhTU1TIfUxRYuvDFwLp6YK934BaI3HUlnXSApRukgbUKtxn2EUxMKxNkeRf1UqxYYnUCB2hhdwYeYfyBa4J/Ti6AYrTOBgpSBNcJAFnl3+lQPghkw1aXplIQwIQFXRsdBzs/UWf4wsWezrJjIgt0Gl5gww0W/cyGUmk+zhbBMAx/JV4K/eQDW806sw0O7Eu41RDypH5JtVKgC9cTbhFM5gEmRgEs5kOH/99Hd2IVAgeSwdTAW7UY+OHjgwG9rGvBB+95DEv6IIIVg4++4TZop2Wde7G34s7Lh3/ppiu2Hz/7kR/Qkh1IwQiAd+ajP3hCdjXD/4KpEUxtqQAUprwz9Z5XXA/P5vWrF2O5HvsOMJpg6QNvroEpYPHH3nCbqTAsEig9uI//Dxvo4A7UJjZvv+trD2HCBlMeU+IPfPtReFThk/3Aq2+EByfc2EoPwVCC6Q1aCvzRFjBLHP1RIyCxyax2RjYc2fGWB4BFd8BLapgY49W/OJANBbAby0FwFsAZhLPT8Hr8+OQ0zsGJLKIiAu/g5TX4+57n3SiwoGS3Y+AQouS2wOCWtwKxpwZ9CjvJsU8wIQs4iF4GTfIzW9bjH6xwnKZsn2wnecM8wlaFBLJlHoVlf/RxmD2PHDyB6YG9VRN2FKb3MHLwxhb2qELI4XbE+Yhi7Jl5SwJTcDgC3u9Aj/jtF26CRwDnYgDk+3cfMY7dADiL2ltgkSIWr2qao7Kgf/7y+09UwRvaZS4JrnoGAVujzm+sf+83fyLuXcg/5BkHZMDhaxL/59P7YLRALXziZ27HsiV2I566MIpuhRETg6+oIEyUoJ+NYfPX96kDj/DK2LWrFoPgJx7Yimk59A9m6e//1sMyoHzo7ptxRgY2OpnRBAO67Lj54zuvw35wTHYw+UoeptGVcKIcBvpPP0ivhsGL+t5XXv9LN2581HJS2+0tfzGovF0AMGHh2sE4gR2q7/jKg/ax/9gc+O47r8NBANjzhs1v2JwpDMDuEdwETGGEmI3ucCDhsb+bdqfvOHkWIgjVKRNLWZaHThfhw4n6kUzFAPnSy+gdftiCkQmyCZQSzXF9cI1LLnzjIJBdKoNTebIhizUowIWlqiwNerjqcWDM5x/bCZsJoAFMmGUfecOt4iQzJeJkmnfdcR1eGMZZVvKCsYlC/4TZIZ9s+MHuI6gtHBbYFGASwA7DasO3+GBCeHNgKGCT7TUrFj155DTOR0Rg8oYLu9VFal0AWBEV2S1SbggEquoeKx2BxR0L3nPndRjPMHGF89GstmXZMdF8+LaxWI13mP81dMQdjD+cMo35AHb+w08nutFGDKoPbxCgC8NPb4/NFYoqnf/Knx3Btnws2kPt/GT/CXwLBiFwhchbALJTAO/KYiDA4gPelYUfWVy90EvhhmNvIfybcAuat5rBGrOhF+nNxxRwgiAecSI6fmVF7p6dh2QkgtqUBUChL1+CwOtp8vhffJAYVjDgrMEGSNzLjircwFtxSh/xKImr5hfn4GAkxVxRppc4eV6aFjcCyotmkc3Htv/3vOK6N12z4dDgBQxnWA9AsgSQDRHZp40xS7bPRBKvoED4j3B0Hyr8uUd3iQseXV5wwzGHWTYEtvhfvPYWbKWRowTgvRoZp7VrhODtgEgieI8JB5pgiJcPCcFZg9c2YYXbCieSR5HUKiXwtZvXonejj2PHhLy8aR/vihOFsRULbwxBM0OBgDVYQpT9z7CypI0yO4psLxQU1vnxNgp6Byw/uBKwGwhLnZGJESheQqSENYVjs//ie4/Dv4AdGTjnJS6LC3cIpI6ArVHhBcNaGrbC4R98kSgLq6qy1C/lyjEZGBllTyIONBU9DJWFTXmYbqCnoAfZ/kfZ643ssv/68iU0XMrI/tDzJ6RDYUSG8GNwgVfONHC3fo0OYwQC27kPJgzTcL7LrjSoQRgP+Ad3AIZj6DS8hmDIVtYIUnm7ALC6Iu+7GsTNDVwyn3t0J7wyYDMU6w95bQexp4dHsScTn5oLZOlta5EQvCWLG1l5PnF+5JvnLsBpil0GkFcs/sv+efAVOhdpcJpruGh5hx/ecXszbThZQgi9A9nfB9McRr8kk/Uo3GPElVdiTPbeNloCgnssgaCJEs9CTicUwKLFaUz4B5czlsLg+kLnwWcR/+Z+70sH7/vWw3B4A21UD6aVvQn5FVdgatH43PFjl3LHeO7EALouVvvx+is4AtjRZ/acHsbeATgCsckCzELHxqoaShQTAS8/Z9M0pClS6wKl40U+hAQOoC4TBLIEyiWrFAQwS8eZW/IpEBjZmAQav3U2HRPO7NdfvQ6WKHor1nwCrYaSxD905z991Y3YpotZVuC0c6yZQ3+eHRnDietht2mlYGjXEzN8TOnhlIRWkb1IeP8QmhabAqDfMNkTYx2+yLfdeiWGecztATvW0EDEbKK2CWLgx2M2K2lif8gXbBa3U66BC8HNaAiED1R29mKRXwrC7gzkhW2EOospn7BDuxKZEq4zjDx5X8zsVsPb5gJCeLUfnQIUEkbbk8Oj5pxgKSsZ5Oo7VQGthvBgnQ0i/Z/P7DNfPoIgYQqKcda8ghfmRSDkzddeiqkjNkfgZf4P330zDCFsivmHh57DJt6jD+84Py96OwC01r8+tgv/0F9eumElJsMo8fZ1/eYjwWEeZaxJOSeA1xXGDFDCYcb4B7uRdwAtwXlV5v1/nAyCf+jXWMl867UbYFdgiwTsIiPJ+ExAwvdBsCoDdY1ZPVY+sNcV8xxoe2wliNw7MKo/Jfgfz+wTm/nfntiDrdeoJzy8soxUzni6ulUfAhhhMXPGrB5v24kORxttF4Bpsln3xDwIB15i9oFZBv6Ri23HQRyIFgYHXz9FID4pgqFkBb8MjgMFTDKYNFhTiZxZ2G8nJQzTxltx/arFWLAUyphd4gYGVbg+FRFSebsAMsKKD2hBSrBkjWV5SYxjk3CDV/sCS17YZIJwTETls6uyOx0vW8IihBWIRXishkE6v8Mf2hWDL3KDOjSybBbIcqd9ZBP0O5CHzeLDkXPDoqav5EOJzIUptAze2BgcSSqQGPtdQecBvUk1Yxb7pUeYCxif5CwZvC4RyItBThwWv3D9ZWaFHJ3hlVfQqX6w5zDNwD/M//GIgVDOqlWuFp6cfGvbAfy+aH0/9u0Ac2yKk0kLTHPZAppcW0BRvNaZouEXFBs08KlIJJhzBJLxcbGViwAO9IZdiN6EDeHSimw6JsbI37ptE7YjffK/nrG/OI3FOvnWhpCCK2HrsTO4t53ieMQCOPwCOIztQ997POB2rFwkZZEfYz9g+f4u2nOIAQKb/6G3MUxgszdULvyPv3jj5ZgsYQ8hPouAQ7bwjkBck+UgtA5e28/+khVULGuEs0A/ixVidn5Bs4lhhLJODI0gi/gdwnmrJoSOdGlrweBrPK3w38sRTZhK2c0Es65YSicyZDMCmozJIFcNjKYhGLPwISQMo3gJ4stP7bUbKEttOENLFuIyth1fHEQavN8OMxpvD0FWsV8D7/RiQc84rWwi/3979xdrR1XFcZxrmwKKVQqhgP9o+StNBQoCgRCshqBokGiCkmh8EF+MGiBGY3wgor4YowkPikbDi1FSFfXBgCKKUkAptOU//UdL/1gKXGgp1Lb8qZ97dx2Hc86de2/bQ+fe/m5Obs6Z2TOz5zuz915r7bXWpmEKPq+2kJ3kJhBracsRXVLEqFefKAU+PuxtMbTU8bDYQ7f3U5di8sMXzszmRcq9MGzRyeVI9lO3rJPfsPmlIux9oOYsWb9x3RcFpmzRLjzBEjFkC3NDvWT1nd2hxAg8/78Y2OphyS/Y85BsDIH+EZh95HT6v5f/mpsXfuuWe7/ym3+M8Vo8vr+44A7GL8k1qfeXzDlOHF/3saV9sZ4b30uEYzWeKlwyknTkg+s+ScMw7dgyKaImV998Z/1TLT/ffcKWb5mEJgBxs7cNy3mXn3FiUSO5sxaz96fnDcXWlj++8cU1vUo1TDUlC5YJt6KaSoZHI+Wd7pBixz12OFig46/E8HM1KZkhO3eP4bd6lhjIeppodS6OuMzn9bD/z597qlOSk+oi/kgXuXg4Q4HkxnWn05EKl+2MESbE6mWOHl52oUQSdhzL05g6oXrF29Be3hNGNZb+b9+6qPqwfNtVnOKKk3/xDyR/+8LbFoFiaqH2lKw5Pc11HVfv9925HFFGBJEv4n96Pt/9S6ADSH5OGgJGyl/cO2TqpvkXRX3UhmkO6qr5Jv0OumHhw7xG6ygMmVfPP71ynPalDKIsnlUx+aI467L6ffdP95XmOTlgmlUrnvk6zMq1SoBS0bpLqjlJhoq4UPTtjhsvZlkOi2V7iSwg63OQrkoWd6QGYiVhahWUq2RJU+eL868ZHEqnWum6xbGQzEFxoi2QPAxGHLKUkSOQ6tVwoQm6a3cc3KNr6vWX/NlPoRD1zH8fnfMeRnANZFw292bIPaEVgU+ep5KVs2eZdm5k8hPg6v3kC1nPl1RqS+ahHFId+ffVb03gydcuOrP7jkzXl6fAasYL8icLhxYWMZoTQoqfS8chuH3pwtMqldVejav4ufSUIrqvOOG2MCYyv7JY1cWekhCEnEkiOmnm4Z+TlqJ4BA3fXsnIoIGToMRomNu08dxZx0hEVb99syMss2Ygv3zh++oqTTmcsLTm9ZmYq2NpQSXRgEuXjQYIX4Q4DY7NgbRejXwPgb0kUJZv02PUJ+dHPSfDAX8BL7MQmO/ddn8ZyusBepUds5gdS+Kkss5RWcrHJfSHrq7XqhaAH+m6DcO0bq2oAGwQesLy54uF23s6Mox0iVZtn3iBAGPBx+ZtHSBDDiuAvDWE2h/d+aCgKZl+vUy6abMNOlYDu6m2+9YOycoK00KFrxe5UB6BT515kjHylsd2r/DX4AUwrnR0PetfYiCt/m3+rV7gDw+t5nTHxCDRpdUyZPQlQerH6clmq3qeqr6RdZkrhDuSUWzUwlWBBYtXfPPD7z/jnUc++O/Bna+8aupeqgwm6t8PS2Mdf6YF+KEZoqyFKyOgtk2RMJ6x29UzjflOfiXFUmbqXgDapHDBK8+bU0VA6CBYYdgUFLP2Qef1ar/7enfXXnK2SxGhiuBitl+MSc/K7EcCPeuTjZOGwKK1m7RBAxvnfKEBzQ1TVM5XPzSPM44W9MnTjvcpHKx2ozFa/cRKYJLiOudrr+3SqMmshrRfL1lRipl9Ku4GesVr5p9eMZSJYCymxpYzZ6TXkf55OAVA+dNsJe3TsxVvCLGF0spQLL9w/py/LlsvHQOeVeEiVVC8fTgreSjinjD8+kXz+Dm/sP3l+Se9Y8crnRlbOphYpI2dV8Ia04Mc08SO1efiTJPqdQkTRisevFecdbK+8Vf3Lfc0jUqiiKW1k3HwxR2nmsrbsn2nHrJM8bWc/BirV1K6GGSXvj4DJccry7KyTBm+567cQBeddcRbGcVoTaZiRp3S6bh6A+SeMpyRyMBnTptfm6hA6lsxCozxpvZXMRWWFKnMerH0/eATF5SabNy6jQztOzX+t0tWyhhCIiJh37/uGSQ1EO54P/zb/2P9qvpbl87yEzqib1x8FpPZDAsKbt9JrSWKGPqlCq570jrK06HQivy/7fF10mEYqeXcJl+RyyfudFnz07x07mwFvKt1HWP508/zhaS9+89c9f3LzifI3bVqI9qmoMAfbuO7XZoFa2gFEgRQ9Rm8Ht/03Ku7dlmWkt++zp/evnXHy3KUmhbSTLh40ENc8Y+PPNnQCrzw137knEvnzjIuMBZcfOrQFW2cTF1H83PJ3vYQ0PzZYfVO3KuXrn+2rLMzlupZqYfLzNrnXpSvrRh/q1XSHS7WyYwjzU4eHz9/98Aq/9mOLzzh2DPfdZRejsZXZh/pUNVa7yNdt3mYpgVc97Fz+AUzlZIBjNTnzT7aZK1huucIMtJV2rN9ytzLPtOe2jTX5JSjZxiSyW3d+YGtmG1sXr5ps1gpJylqpCHqsIOnkfAMSEytS9c/Q7DTw9KiJQomV5HeqmkEEhWjtRSRJdRfDgEOIYdMnXrT4uV8NJ1z4KABgVtD2aRWP1Uf8FxFOJbMkwuWrBjOPDDWv/rtCIZ/cefLhtIOE4AGI6HFroN2vXvGdOGphnNSowpcf8cDDQFjVQ3eO3OGOktWWSbhx1gz9gWWNqKq+D1DEWiL1z8t6+azw1Gs7NBW0VBm4aqNRR564tktZg+MT0OTJQcNUC3uXLWxQ21wX3RpDwJLhSCVusMhTiiMzRqbty9bX56dLbI2cOWxiE6VVatnzftxd7on3gfuziskDlWaEL6m7EQLlqysljNoD4GeWLJx4hLQCxGUvflV5k6NQrJo797gtu2GvYaGecEJx/Id9+pSES1KUn2eHNxq5VQNb9HapwWannvcMXoSHdVjTz1//d+XVk2MF4/26HACZf1wOtgkiAh44T87Tdp3LLjtfqcMvKnqG+E1BJQPn2cyt16oDDeQAkgWN6FHcJFKgI0YQ10Q3YYtwGNioNH/zz5iOnoOL9BMVhw6beqKZ7aQQlyO+y4zqEhCnaQ5Df0l2iSJQt4T0RMO9brHzfQgfnbPI5Urhz727tUbeQrIF3jT4hVWNPSq2NvcQ7a8IdRHbTl3pF2QCrdkZqrX3HMxfBvIRD6zhpv8tOXHCx+qS4H18t2NqNqL6kiQPQtviAJ3P7E7g5Sj6GDrNr9I0bVIkKdMhG1Qt/Yv7fpdc5qgz7sXn221roDZq6zCrariXIjUtNPjjxxSO63Oa4L653c/wrzVfSMkrgc3DNL86ahEAic3vrNPeWR+WrKbTFKtOFgOf3zTZmOo9uJj3c0pAwNCb2646yEbFWh4Rt3Da3d92raF2OA2Vw9uZQKo102HwPuSfzJJ8s6VG5haPBqRVt52JoAnBl+wPl8lKSksX4PyM95y6Ckz386ngLzHa0n+hSJ6MePS/MmKLIkemVeRXtRxRVf3dDwLkxYMlzoxHTi/S0oLW48a3njPowaCtgFMfSYBgbcderC5Vfapkoi9u0dlTtW9UxZmzZh++JsPoWwT9fVRVAm3L3FY+V7UivIaax3LNm2mdrGJW16U8ddYcMNdDxv4pk2dUlyP+dp89uyT7dqyfYfFxYrsZOz+55pN/JdNBmubVDae3bqswtkorGOsdEkOAlz8pIMZdZhmfP/Xk5sE5ZkMMKkpHs2AInW6Onff74R4pgNX3HjrhKjovqoktw1aNCmtw269r87fv/Ow43IcHbs//97XhPHeh3haPPP3/oStOsPkvrtWoU5l9i2BvXx19YHjsVXu27pP4LMN+f4NDHR0hswuJZXM2G9MFEbDZDK3RjbfegH+CPK/VlYhgQCWJlaZ79y6iKA/9utO9JK4UaW2Da+Rvpd/3ZCbT0i8m3ACQ/MdVXu9SPJTsM4X5XzUo8ghlTW8FGY7aJAQqMcmBkqE7agnPxAKeI0lPyaCNgBXhpj60o6Xu986z+uwQ6ZZzWG83U66/QPh7ZrE98iUZg6xypVmsuSnV3zQ/V75y9sZF+ztqRx57RkL9G/jJdM8TDvbHgz9463DG1B+cgYCNIAjPUzQ0Who3B33a9xAYvRdms0etJzRz9uOEpP77trBOLXoC4G9fHX3XoPqy121/qRD3LocvcYriDtHg/5vbyXiVDykoblq/unmD81RHHXYoSVxLH/jhoSFrWe5JxXEbV+N3d2QmyvUrYk1l59Ae73V41psokP/d6cN+r+9JcvdBALS76p6jTucPbuvqEw9jrJewPMaaVf3eToObC6QvSHQZgI9NfyqwiPt1V72TItpHqZddw+G/hbiPeBMAC18BqlSCIRACIRACPQkYMLwulvuvXzeiZK3WYZAzoK/LFvHrbFZ9ep5qmwMgRAIgRAIgUlAoIRldZnlJ8GdvXG3cMAFArxxaHOlEAiBEAiBEAiBEAiBEAiBEAiBEGgTgUm4KGCb8KYuIRACIRACIRACIRACIRACIRACIdAWAjEBtOVJpB4hEAIhEAIhEAIhEAIhEAIhEAIh0FcCMQH0FW9OHgIhEAIhEAIhEAIhEAIhEAIhEAJtIRATQFueROoRAiEQAiEQAiEQAiEQAiEQAiEQAn0lEBNAX/Hm5CEQAiEQAiEQAiEQAiEQAiEQAiHQFgIxAbTlSaQeIRACIRACIRACIRACIRACIRACIdBXAjEB9BVvTh4CIRACIRACIRACIRACIRACIRACbSEQE0BbnkTqEQIhEAIhEAIhEAIhEAIhEAIhEAJ9JRATQF/x5uQhEAIhEAIhEAIhEAIhEAIhEAIh0BYCMQG05UmkHiEQAiEQAiEQAiEQAiEQAiEQAiHQVwIxAfQVb04eAiEQAiEQAiEQAiEQAiEQAiEQAm0hEBNAW55E6hECIRACIRACIRACIRACIRACIRACfSUQE0Bf8ebkIRACIRACIRACIRACIRACIRACIdAWAjEBtOVJpB4hEAIhEAIhEAIhEAIhEAIhEAIh0FcC/wV9S5osqgG8AgAAAABJRU5ErkJggg==;" vertex="1" parent="1">
          <mxGeometry x="-125" y="160" width="1366" height="551" as="geometry" />
        </mxCell>
        <mxCell id="72FU4gjPforjlQMfi0Fz-3" value="" style="ellipse;whiteSpace=wrap;html=1;fillColor=none;strokeWidth=3;fillStyle=auto;shadow=0;opacity=80;perimeterSpacing=1;strokeColor=#e01b24;" vertex="1" parent="1">
          <mxGeometry x="-110" y="170" width="340" height="310" as="geometry" />
        </mxCell>
        <mxCell id="72FU4gjPforjlQMfi0Fz-4" value="&lt;font style=&quot;font-size: 23px;&quot;&gt;Objeto de desarrollo&lt;br&gt;&lt;/font&gt;" style="text;html=1;strokeColor=none;fillColor=none;align=center;verticalAlign=middle;whiteSpace=wrap;rounded=0;" vertex="1" parent="1">
          <mxGeometry x="-10" y="190" width="120" height="70" as="geometry" />
        </mxCell>
      </root>
    </mxGraphModel>
  </diagram>
</mxfile>
